<?xml version="1.0" standalone="no"?><!DOCTYPE svg PUBLIC "-//W3C//DTD SVG 1.1//EN" "http://www.w3.org/Graphics/SVG/1.1/DTD/svg11.dtd"><svg t="1695607201419" class="icon" viewBox="0 0 1024 1024" version="1.1" xmlns="http://www.w3.org/2000/svg" p-id="15966" xmlns:xlink="http://www.w3.org/1999/xlink" width="64" height="64"><path d="M703.488 234.666667c26.88 0 49.621333 20.053333 52.906667 46.72l56.021333 448a53.333333 53.333333 0 0 1-52.906667 59.946666H256a53.333333 53.333333 0 0 1-52.949333-59.946666l55.978666-448A53.333333 53.333333 0 0 1 311.978667 234.666667zM661.333333 396.928a21.333333 21.333333 0 0 0-28.586666 9.514667l-1.408 2.474666c-3.413333 5.333333-10.496 13.397333-22.101334 21.845334-23.808 17.322667-56.917333 27.904-101.418666 27.904-44.544 0-77.653333-10.581333-101.461334-27.904-13.525333-9.813333-20.906667-19.2-23.466666-24.32l-2.048-3.242667a21.333333 21.333333 0 0 0-36.138667 22.357333c5.461333 10.837333 17.066667 25.514667 36.565333 39.68 31.146667 22.698667 73.045333 36.096 126.549334 36.096 53.461333 0 95.36-13.397333 126.506666-36.096 19.498667-14.165333 31.146667-28.842667 36.565334-39.68a21.333333 21.333333 0 0 0-9.557334-28.629333z" fill="#ffffff" p-id="15967"></path></svg>