<?xml version="1.0" standalone="no"?><!DOCTYPE svg PUBLIC "-//W3C//DTD SVG 1.1//EN" "http://www.w3.org/Graphics/SVG/1.1/DTD/svg11.dtd"><svg t="1695606865576" class="icon" viewBox="0 0 1024 1024" version="1.1" xmlns="http://www.w3.org/2000/svg" p-id="6814" xmlns:xlink="http://www.w3.org/1999/xlink" width="64" height="64"><path d="M888.149333 197.973333L512 99.669333 135.850667 197.973333c-19.797333 0-36.181333 10.922667-36.181334 23.893334V614.4c0 171.349333 412.330667 309.930667 412.330667 309.930667s412.330667-138.581333 412.330667-309.930667V221.184c0-12.970667-16.384-23.210667-36.181334-23.210667zM468.309333 660.821333L419.157333 614.4 301.056 503.808c-13.653333-12.970667-14.336-34.816-1.365333-48.469333 12.970667-13.653333 34.816-14.336 48.469333-1.365334L467.626667 566.613333 675.84 365.909333c13.653333-12.970667 35.498667-12.970667 48.469333 0.682667 12.970667 13.653333 12.970667 35.498667-0.682666 48.469333L516.096 614.4l-47.786667 46.421333z" fill="#ffffff" p-id="6815"></path></svg>