<?xml version="1.0" standalone="no"?><!DOCTYPE svg PUBLIC "-//W3C//DTD SVG 1.1//EN" "http://www.w3.org/Graphics/SVG/1.1/DTD/svg11.dtd">
<svg t="1696555556380" class="icon" viewBox="0 0 1024 1024" version="1.1"
  xmlns="http://www.w3.org/2000/svg" p-id="7060"
  xmlns:xlink="http://www.w3.org/1999/xlink" width="64" height="64">
  <path d="M921.6 0H102.4C44.8 0 0 44.8 0 102.4v812.8c0 64 44.8 108.8 102.4 108.8h812.8c57.6 0 102.4-44.8 102.4-102.4V102.4C1024 44.8 979.2 0 921.6 0z m-96 288C800 448 665.6 563.2 512 563.2S224 448 198.4 294.4c-19.2-12.8-25.6-25.6-25.6-44.8 0-25.6 19.2-51.2 51.2-51.2 25.6 0 51.2 19.2 51.2 51.2 0 12.8-6.4 25.6-19.2 38.4C268.8 422.4 384 512 512 512s243.2-96 262.4-224c-12.8-12.8-19.2-25.6-19.2-38.4 0-25.6 19.2-51.2 51.2-51.2 25.6 0 51.2 19.2 51.2 51.2-6.4 19.2-12.8 32-32 38.4z" p-id="7061"></path>
</svg>