<svg t="1673189830613" class="icon" viewBox="0 0 1024 1024" version="1.1" xmlns="http://www.w3.org/2000/svg" p-id="17144" width="64" height="64"><path d="M922.64 338.98c-22.41-52.96-55-101.84-95.73-142.58l-6.11-6.11C737.29 110.85 625.26 66.04 509.16 66.04c-120.18 0-232.2 46.85-317.75 130.36v2.04C107.89 283.99 61.05 396.01 61.05 514.15c0 48.88 8.15 93.69 22.41 138.5 14.26 40.74 32.59 79.44 57.03 116.1l4.08 4.07v171.1c0 8.14 8.14 16.3 16.29 16.3h348.3c61.1 0 118.14-12.22 175.17-34.63 52.96-22.41 101.85-54.99 142.58-95.73l6.11-6.11c81.47-83.51 126.29-193.5 126.29-311.64-2.05-59.06-14.27-116.1-36.67-173.13zM670.07 585.44l-160.91 154.8c-2.04 2.04-6.11 4.07-10.19 4.07-4.07 0-6.11-2.03-10.18-4.07L329.92 587.48l-2.04-2.04c-38.7-38.7-48.88-87.58-30.55-134.43 20.37-50.92 71.29-85.55 124.25-85.55 24.44 0 48.88 8.15 71.29 22.41l4.07 2.03 4.07-2.03c22.41-14.26 46.85-22.41 71.29-22.41 52.96 0 103.88 34.63 124.25 85.55 22.4 46.85 12.22 95.73-26.48 134.43z m0 0" p-id="17145" fill="#FFFFFF"></path></svg>