<svg t="1673190340481" class="icon" viewBox="0 0 1024 1024" version="1.1" xmlns="http://www.w3.org/2000/svg" p-id="26510" width="64" height="64"><path d="M969.318 167.621c0-37.337 0-74.145-1.854-108.04a538.348 538.348 0 0 1-114.13 18.536C704.777 87.121 602.827 39.456 509.086 0 405.02 60.375 213.035 105.922 55.741 59.581v377.082c0 42.369-3.442 84.738 0 125.782 11.652 128.96 94.536 224.025 177.155 294.728A1121.183 1121.183 0 0 0 513.854 1024a1319.522 1319.522 0 0 0 167.886-89.24 1338.058 1338.058 0 0 0 132.402-101.42c67.26-61.17 135.05-139.022 153.057-240.972a189.335 189.335 0 0 0 1.59-24.097zM775.48 739.864H219.39v-55.873h79.441V448.579h59.846v235.412h110.424V336.037h64.347v144.054h182.715v54.55H533.45v149.35H776.01z m-8.474-308.232a796.798 796.798 0 0 1-270.895-193.308 806.595 806.595 0 0 1-266.394 192.513 251.83 251.83 0 0 0-42.104-52.96C306.512 331.27 425.938 245.473 490.021 147.76l55.344 26.48c-4.501 7.15-9.797 13.77-15.093 20.92a699.879 699.879 0 0 0 276.19 182.186 150.41 150.41 0 0 0-39.455 54.02z" p-id="26511" fill="#FFFFFF"></path></svg>