<svg t="1673159651399" class="icon" viewBox="0 0 1024 1024" version="1.1" xmlns="http://www.w3.org/2000/svg" p-id="3667" width="64" height="64"><path d="M770.525867 716.8c-53.4528 88.541867-151.9616 143.1552-258.594134 143.36-106.7008-0.2048-205.2096-54.818133-258.730666-143.36a39.594667 39.594667 0 0 1-1.297067-41.915733 43.008 43.008 0 0 1 37.888-21.026134c15.701333 0.2048 29.969067 8.669867 37.205333 21.981867 38.2976 63.2832 108.680533 102.263467 184.9344 102.4 76.1856-0.136533 146.500267-39.1168 184.7296-102.4a43.008 43.008 0 0 1 37.000534-20.6848 43.008 43.008 0 0 1 37.0688 20.48 39.594667 39.594667 0 0 1-0.136534 41.1648M887.808 204.8H119.125333C72.226133 204.8 34.2016 241.322667 34.133333 286.378667v655.906133C34.133333 987.3408 72.226133 1024 119.125333 1024h768.682667c46.967467-0.068267 84.923733-36.590933 84.992-81.646933V286.446933c0-45.056-38.0928-81.578667-84.992-81.646933m-384.341333-122.88c70.587733 0 128 55.159467 128 122.88H716.8c0-112.913067-95.709867-204.8-213.333333-204.8S290.133333 91.886933 290.133333 204.8H375.466667c0-67.720533 57.412267-122.88 128-122.88" fill="#ffffff" p-id="3668"></path></svg>