<svg xmlns="http://www.w3.org/2000/svg" xmlns:xlink="http://www.w3.org/1999/xlink" fill="none" version="1.1" width="12" height="12" viewBox="0 0 12 12"><defs><clipPath id="master_svg0_233_26773"><rect x="0" y="0" width="12" height="12" rx="0"/></clipPath></defs><g style="mix-blend-mode:passthrough"><g style="mix-blend-mode:passthrough" clip-path="url(#master_svg0_233_26773)"><g style="mix-blend-mode:passthrough"></g><g style="mix-blend-mode:passthrough"><path d="M6,1C3.24,1,1,3.24,1,6C1,8.76,3.24,11,6,11C8.76,11,11,8.76,11,6C11,3.24,8.76,1,6,1C6,1,6,1,6,1ZM3.535,9.14C3.75,8.690000000000001,5.06,8.25,6,8.25C6.94,8.25,8.254999999999999,8.690000000000001,8.465,9.14C7.785,9.68,6.93,10,6,10C5.07,10,4.215,9.68,3.535,9.14C3.535,9.14,3.535,9.14,3.535,9.14ZM9.18,8.415C8.465,7.545,6.73,7.25,6,7.25C5.27,7.25,3.535,7.545,2.8200000000000003,8.415C2.31,7.745,2,6.91,2,6C2,3.795,3.795,2,6,2C8.205,2,10,3.795,10,6C10,6.91,9.69,7.745,9.18,8.415C9.18,8.415,9.18,8.415,9.18,8.415ZM6,3C5.03,3,4.25,3.78,4.25,4.75C4.25,5.72,5.03,6.5,6,6.5C6.97,6.5,7.75,5.72,7.75,4.75C7.75,3.78,6.97,3,6,3C6,3,6,3,6,3ZM6,5.5C5.585,5.5,5.25,5.165,5.25,4.75C5.25,4.335,5.585,4,6,4C6.415,4,6.75,4.335,6.75,4.75C6.75,5.165,6.415,5.5,6,5.5C6,5.5,6,5.5,6,5.5Z" fill="#64748B" fill-opacity="1"/></g></g></g></svg>