<svg xmlns="http://www.w3.org/2000/svg" xmlns:xlink="http://www.w3.org/1999/xlink" fill="none" version="1.1" width="12" height="12" viewBox="0 0 12 12"><defs><clipPath id="master_svg0_233_26771"><rect x="0" y="0" width="12" height="12" rx="0"/></clipPath></defs><g style="mix-blend-mode:passthrough" clip-path="url(#master_svg0_233_26771)"><g style="mix-blend-mode:passthrough"></g><g style="mix-blend-mode:passthrough"><path d="M6,10.9749755859375C6,10.9749755859375,8.5,10.9749755859375,8.5,10.9749755859375C8.5,10.9749755859375,8.5,9.9749755859375,8.5,9.9749755859375C8.5,9.9749755859375,6,9.9749755859375,6,9.9749755859375C3.83,9.9749755859375,2,8.1449755859375,2,5.9749755859375C2,3.8049755859375,3.83,1.9749755859375,6,1.9749755859375C8.17,1.9749755859375,10,3.8049755859375,10,5.9749755859375C10,5.9749755859375,10,6.6899755859375,10,6.6899755859375C10,7.0849755859375,9.645,7.4749755859375,9.25,7.4749755859375C8.855,7.4749755859375,8.5,7.0849755859375,8.5,6.6899755859375C8.5,6.6899755859375,8.5,5.9749755859375,8.5,5.9749755859375C8.5,4.5949755859375,7.38,3.4749755859375,6,3.4749755859375C4.62,3.4749755859375,3.5,4.5949755859375,3.5,5.9749755859375C3.5,7.3549755859375,4.62,8.4749755859375,6,8.4749755859375C6.69,8.4749755859375,7.32,8.194975585937499,7.77,7.7399755859375C8.094999999999999,8.1849755859375,8.655000000000001,8.4749755859375,9.25,8.4749755859375C10.235,8.4749755859375,11,7.6749755859375,11,6.6899755859375C11,6.6899755859375,11,5.9749755859375,11,5.9749755859375C11,3.2149755859375,8.76,0.9749755859375,6,0.9749755859375C3.24,0.9749755859375,1,3.2149755859375,1,5.9749755859375C1,8.7349755859375,3.24,10.9749755859375,6,10.9749755859375C6,10.9749755859375,6,10.9749755859375,6,10.9749755859375ZM6,7.4749755859375C5.17,7.4749755859375,4.5,6.8049755859375,4.5,5.9749755859375C4.5,5.1449755859375,5.17,4.4749755859375,6,4.4749755859375C6.83,4.4749755859375,7.5,5.1449755859375,7.5,5.9749755859375C7.5,6.8049755859375,6.83,7.4749755859375,6,7.4749755859375C6,7.4749755859375,6,7.4749755859375,6,7.4749755859375Z" fill="#64748B" fill-opacity="1"/></g></g></svg>