<svg xmlns="http://www.w3.org/2000/svg" xmlns:xlink="http://www.w3.org/1999/xlink" fill="none" version="1.1" width="24" height="24" viewBox="0 0 24 24"><defs><clipPath id="master_svg0_233_23910"><rect x="0" y="0" width="24" height="24" rx="0"/></clipPath></defs><g clip-path="url(#master_svg0_233_23910)"><g><path d="M10.4229,4.0800080546875L6.50143,6.2700110546875C6.35503,6.3741010546875,6.17963,6.4295710546875,6,6.4285810546875L1.71429,6.4285810546875C0.767512,6.4285810546875,0,7.1960910546875,0,8.1428610546875L0,15.8571310546875C0,16.8039310546875,0.767511,17.5714310546875,1.71429,17.5714310546875L6,17.5714310546875C6.17817,17.571331054687498,6.35194,17.6267310546875,6.49714,17.7300310546875L10.4186,19.9200310546875C10.9408,20.2942310546875,11.6285,20.3450310546875,12.2001,20.0516310546875C12.7717,19.7581310546875,13.1312,19.1696310546875,13.1314,18.5271310546875L13.1314,5.4728610546875C13.1301,4.8318410546875,12.7712,4.2451210546875,12.2011,3.9519700546875C11.631,3.6588160546875,10.9451,3.7082090546875,10.4229,4.0800080546875ZM19.1057,20.8071310546875C18.7352,20.8078310546875,18.4062,20.5702310546875,18.2902,20.2183310546875C18.1742,19.8664310546875,18.2974,19.4798310546875,18.5957,19.2600310546875C23.5036,15.6642310546875,23.5036,8.3358110546875,18.5957,4.7400110546875C18.2135,4.4595210546874995,18.1309,3.9222670546875,18.4114,3.5400070546875C18.6919,3.1577471546875,19.2292,3.0752400546875,19.6114,3.3557220546875C25.4568,7.6363210546875,25.4568,16.3637310546875,19.6114,20.6443310546875C19.4644,20.7507310546875,19.2873,20.8078310546875,19.1057,20.8071310546875Z" fill="#0519D4" fill-opacity="1"/></g><g><path d="M16.6755235,17.2586357421875C16.3341905,17.2574357421875,16.0261075,17.0537357421875,15.8912001,16.7402357421875C15.7562943,16.4266857421875,15.8202795982,16.0629857421875,16.0540955,15.8143157421875C18.0679525,13.6701757421875,18.0679525,10.3298757421875,16.0540955,8.1857357421875C15.7292361,7.8412657421875,15.7448545,7.2987437421875,16.0889915,6.9735277421875C16.4331275,6.6483132421875,16.9756625,6.6633687421875,17.3012425,7.0071687421875C19.9409325,9.8123957421875,19.9409325,14.1876557421875,17.3012425,16.992835742187502C17.1382025,17.163935742187498,16.9118025,17.260035742187497,16.6755235,17.2586357421875Z" fill="#0519D4" fill-opacity="1"/></g></g></svg>