<svg xmlns="http://www.w3.org/2000/svg" xmlns:xlink="http://www.w3.org/1999/xlink" fill="none" version="1.1" width="40" height="40" viewBox="0 0 40 40"><defs><clipPath id="master_svg0_1082_045720"><rect x="0" y="0" width="40" height="40" rx="0"/></clipPath><clipPath id="master_svg1_1082_045586"><rect x="24" y="23" width="16" height="16" rx="0"/></clipPath></defs><g clip-path="url(#master_svg0_1082_045720)"><g><path d="M32,12.45149C32,11.77245,31.4403,11.22202,30.75,11.22202L3.25,11.22202C2.559621,11.22202,2,11.77245,2,12.45148L2,30.7705C2,31.4495,2.559621,32,3.25,32L19.5,32L21.5,26L21.5,26.0978C21.4792,26.0981,21.3959,26.0978,21.375,26.0978C18.8552,26.0978,19.5,24.0894,19.5,21.611C19.5,19.1326,21.5427,17.1235,24.0625,17.1235C24.0834,17.1235,24.1042,17.124000000000002,24.125,17.124200000000002L24.125,17.1235L32,17.1235L32,12.45149ZM21.375,21.611C21.375,23.0709,22.5782,24.2544,24.0625,24.2544C25.5468,24.2544,26.75,23.0709,26.75,21.611C26.75,20.1511,25.5468,18.9677,24.0625,18.9677C22.5782,18.9677,21.375,20.1511,21.375,21.611ZM28.9998,10.07803L27.4481,4.735408C27.2919,4.197813,26.7205,3.885965,26.1718,4.0388654L4.50282,10.07803L28.9998,10.07803Z" fill="#FFFFFF" fill-opacity="1"/></g><g clip-path="url(#master_svg1_1082_045586)"><g><path d="M32,23C27.6,23,24,26.6,24,31C24,35.4,27.6,39,32,39C36.4,39,40,35.4,40,31C40,26.6,36.4,23,32,23ZM37,28.6L31.3,34.5C31.2,34.6,31.1,34.6,30.9,34.6C30.8,34.6,30.6,34.6,30.5,34.5L27,30.7C26.9,30.5,26.9,30.2,27,30L27.4,29.6C27.6,29.4,27.9,29.4,28.1,29.6L30.6,31.6C30.7,31.7,30.8,31.7,30.9,31.7C31,31.7,31.2,31.6,31.3,31.5L35.9,27.4C36.1,27.2,36.4,27.2,36.6,27.4L37,27.9C37.1,28.1,37.1,28.4,37,28.6Z" fill="#FFFFFF" fill-opacity="1"/></g></g></g></svg>