<svg xmlns="http://www.w3.org/2000/svg" xmlns:xlink="http://www.w3.org/1999/xlink" fill="none" version="1.1" width="40" height="40" viewBox="0 0 40 40"><defs><clipPath id="master_svg0_1082_045582"><rect x="0" y="0" width="40" height="40" rx="0"/></clipPath></defs><g clip-path="url(#master_svg0_1082_045582)"><g><path d="M36.5486,13.60902C36.5486,12.83699,35.9227,12.21117,35.1507,12.21117L4.39785,12.21117C3.625816,12.21117,3,12.83699,3,13.60902L3,34.4371C3,35.2091,3.625816,35.835,4.39785,35.835L35.1507,35.835C35.9227,35.835,36.5486,35.2091,36.5486,34.4371L36.5486,29.1253L27.7421,29.1253L27.7421,29.1244C27.7188,29.1247,27.6955,29.1253,27.6722,29.1253C24.8543,29.1253,22.57,26.8409,22.57,24.0231C22.57,21.2052,24.8543,18.9209,27.6722,18.9209C27.6956,18.9209,27.7188,18.9215,27.7421,18.921799999999998L27.7421,18.9209L36.5486,18.9209L36.5486,13.60902ZM24.6668,24.0231C24.6668,25.6829,26.0124,27.0285,27.6722,27.0285C29.332,27.0285,30.6776,25.6829,30.6776,24.0231C30.6776,22.3632,29.332,21.0177,27.6722,21.0177C26.0124,21.0177,24.6668,22.3632,24.6668,24.0231ZM33.1935,10.91049L31.4582,4.836132C31.2836,4.224906,30.6446,3.870346,30.031,4.0441885L5.7988599999999995,10.91049L33.1935,10.91049Z" fill="#FFFFFF" fill-opacity="1"/></g></g></svg>