<svg xmlns="http://www.w3.org/2000/svg" xmlns:xlink="http://www.w3.org/1999/xlink" fill="none" version="1.1" width="12" height="12" viewBox="0 0 12 12"><defs><clipPath id="master_svg0_233_26772"><rect x="0" y="0" width="12" height="12" rx="0"/></clipPath></defs><g style="mix-blend-mode:passthrough" clip-path="url(#master_svg0_233_26772)"><g style="mix-blend-mode:passthrough"></g><g style="mix-blend-mode:passthrough"><path d="M10,10.5C10.275,10.5,10.5,10.275,10.5,10C10.5,10,10.5,8.254999999999999,10.5,8.254999999999999C10.5,7.98,10.275,7.755,10,7.755C9.379999999999999,7.755,8.775,7.655,8.215,7.47C8.165,7.45,8.11,7.445,8.059999999999999,7.445C7.93,7.445,7.805,7.495,7.705,7.59C7.705,7.59,6.605,8.690000000000001,6.605,8.690000000000001C5.1899999999999995,7.965,4.029999999999999,6.81,3.31,5.395C3.31,5.395,4.41,4.295,4.41,4.295C4.55,4.154999999999999,4.59,3.96,4.535,3.785C4.35,3.225,4.25,2.625,4.25,2C4.25,1.725,4.025,1.5,3.75,1.5C3.75,1.5,2,1.5,2,1.5C1.725,1.5,1.5,1.725,1.5,2C1.5,6.695,5.305,10.5,10,10.5C10,10.5,10,10.5,10,10.5ZM8.2,8.51C8.625,8.629999999999999,9.059999999999999,8.705,9.5,8.735C9.5,8.735,9.5,9.48,9.5,9.48C8.84,9.434999999999999,8.205,9.305,7.6,9.105C7.6,9.105,8.2,8.51,8.2,8.51C8.2,8.51,8.2,8.51,8.2,8.51ZM2.5149999999999997,2.5C2.5149999999999997,2.5,3.2649999999999997,2.5,3.2649999999999997,2.5C3.3,2.9450000000000003,3.375,3.38,3.495,3.795C3.495,3.795,2.895,4.395,2.895,4.395C2.69,3.795,2.56,3.16,2.5149999999999997,2.5C2.5149999999999997,2.5,2.5149999999999997,2.5,2.5149999999999997,2.5Z" fill="#64748B" fill-opacity="1"/></g></g></svg>