<svg xmlns="http://www.w3.org/2000/svg" xmlns:xlink="http://www.w3.org/1999/xlink" fill="none" version="1.1" width="20" height="20" viewBox="0 0 20 20"><defs><clipPath id="master_svg0_233_23948"><rect x="0" y="0" width="20" height="20" rx="0"/></clipPath></defs><g clip-path="url(#master_svg0_233_23948)"><g><path d="M8.7401953125,14.94001220703125L4.8801953125,14.94001220703125Q4.3401953125,14.90001220703125,4.0501953125,14.49001220703125Q3.7601951125,14.08001220703125,3.7001953125,13.58001220703125Q3.7601954125,13.08001220703125,4.0501953125,12.76001220703125Q4.3401953125,12.44001220703125,4.8801953125,12.40001220703125L8.7401953125,12.40001220703125L8.7401953125,11.14001220703125L4.8801953125,11.12001220703125Q4.3401953125,11.08001220703125,4.0501953125,10.74001220703125Q3.7601951125,10.40001220703125,3.7001953125,9.88001220703125Q3.7601954125,9.38001220703125,4.0501953125,9.06001220703125Q4.3401953125,8.74001220703125,4.8801953125,8.70001220703125L7.7601953125,8.70001220703125L5.0801953125,3.98001220703125Q4.8801953125,3.74001220703125,4.7001953125,3.37001220703125Q4.5201953125,3.00001220703125,4.5401953125,2.5600122070312503Q4.6401953124999995,2.00001220703125,4.9401953125,1.65001220703125Q5.2401953125,1.30001220703125,6.060195312499999,1.20001235604325Q6.5401953125,1.24001240703125,6.920195312500001,1.53001220703125Q7.3001953125,1.82001220703125,7.5401953125,2.16001220703125L10.580195312499999,7.72001220703125L13.9201953125,2.12001220703125Q14.1601953125,1.78001220703125,14.5401953125,1.52001220703125Q14.9201953125,1.26001230703125,15.4001953125,1.20001220703125Q15.7001953125,1.22001220703125,15.9501953125,1.28001220703125Q16.2001953125,1.3400122070312501,16.390195312499998,1.48001220703125Q16.580195312500003,1.62001220703125,16.710195312499998,1.8800122070312502Q16.8401953125,2.14001220703125,16.9001953125,2.5600122070312503Q16.9001953125,3.14001220703125,16.5001953125,3.66001220703125L13.4001953125,8.70001220703125L16.3401953125,8.70001220703125Q16.8601953125,8.74001220703125,17.1601953125,9.06001220703125Q17.460195312499998,9.38001220703125,17.5001953125,9.88001220703125Q17.460195312499998,10.40001220703125,17.1501953125,10.76001220703125Q16.8401953125,11.12001220703125,16.320195312499997,11.16001220703125L12.5001953125,11.18001220703125L12.5001953125,12.40001220703125L16.3401953125,12.40001220703125Q16.8601953125,12.44001220703125,17.1601953125,12.80001220703125Q17.460195312499998,13.16001220703125,17.5001953125,13.66001220703125Q17.460195312499998,14.18001220703125,17.1601953125,14.53001220703125Q16.8601953125,14.88001220703125,16.3401953125,14.92001220703125L12.5001953125,14.90001220703125L12.5001953125,17.02001220703125Q12.4201953125,18.72001220703125,10.640195312500001,18.72001220703125Q9.760195312499999,18.72001220703125,9.2701953125,18.30001220703125Q8.7801953125,17.88001220703125,8.7401953125,17.02001220703125L8.7401953125,14.94001220703125Z" fill="#FFFFFF" fill-opacity="1"/></g></g></svg>