<svg xmlns="http://www.w3.org/2000/svg" xmlns:xlink="http://www.w3.org/1999/xlink" fill="none" version="1.1" width="48" height="48" viewBox="0 0 48 48"><defs><clipPath id="master_svg0_617_31540"><rect x="0" y="0" width="48" height="48" rx="0"/></clipPath></defs><g clip-path="url(#master_svg0_617_31540)"><g><rect x="0" y="0" width="48" height="48" rx="0" fill="#FFFFFF" fill-opacity="0.009999999776482582"/></g><g><path d="M24,5.000179767608643L2,43.00017976760864L46,43.00017976760864L24,5.000179767608643Z" fill-rule="evenodd" fill="#FF4040" fill-opacity="1"/><path d="M44.7019,43.751779767608646L22.7019,5.751733767608643L24,5.000179767608643L25.2981,5.751733767608643L3.29814,43.751779767608646L2,43.00017976760864L2,41.50017976760864L46,41.50017976760864L46,43.00017976760864L44.7019,43.751779767608646ZM47.2981,42.24867976760864Q47.5,42.59727976760864,47.5,43.00017976760864Q47.5,43.073879767608645,47.4928,43.14717976760864Q47.4856,43.22057976760864,47.4712,43.29277976760864Q47.4568,43.36507976760864,47.4354,43.435579767608644Q47.414,43.50617976760864,47.3858,43.57417976760864Q47.3576,43.64227976760864,47.3229,43.70727976760864Q47.2881,43.772279767608644,47.2472,43.83357976760864Q47.2063,43.89477976760864,47.1595,43.95177976760864Q47.1128,44.008779767608644,47.0607,44.06087976760864Q47.0085,44.11297976760864,46.9516,44.159679767608644Q46.8946,44.20647976760864,46.8333,44.24737976760864Q46.7721,44.288379767608646,46.7071,44.32307976760864Q46.6421,44.35777976760864,46.574,44.385979767608646Q46.5059,44.414179767608644,46.4354,44.435579767608644Q46.3649,44.456979767608644,46.2926,44.471379767608646Q46.2204,44.48577976760864,46.147,44.492979767608645Q46.0737,44.50017976760864,46,44.50017976760864L2.0000000596046,44.50017976760864Q1.597114,44.50017976760864,1.248446,44.298379767608644Q1.184672,44.261379767608645,1.124825,44.218379767608646Q1.0649769999999998,44.17537976760864,1.0096319999999999,44.126779767608646Q0.9542900000000001,44.07807976760864,0.90398,44.02427976760864Q0.8536699999999999,43.97037976760864,0.80888,43.911879767608646Q0.7640899999999999,43.853379767608644,0.72525,43.79077976760864Q0.68641,43.728179767608644,0.6538999999999999,43.66197976760864Q0.62138,43.59587976760864,0.59551,43.52687976760864Q0.5696399999999999,43.457879767608645,0.5506500000000001,43.38667976760864Q0.53166,43.31547976760864,0.5197400000000001,43.242779767608646Q0.50783,43.17007976760864,0.5031000000000001,43.09647976760864Q0.4983599999999999,43.02297976760864,0.5008600000000001,42.949279767608644Q0.50336,42.875679767608645,0.5130699999999999,42.80257976760864Q0.52277,42.72957976760864,0.53959,42.65787976760864Q0.5564100000000001,42.586079767608645,0.5801799999999999,42.51637976760864Q0.60395,42.44657976760864,0.63445,42.37947976760864Q0.6649400000000001,42.31237976760864,0.7018599999999999,42.24867976760864L22.7019,4.248625767608642Q22.9023,3.9024497676086423,23.2484,3.7020397676086425Q23.3122,3.6651197676086427,23.3793,3.6346297676086428Q23.4464,3.604129767608643,23.5161,3.5803597676086425Q23.5859,3.5565897676086426,23.6576,3.5397697676086426Q23.7294,3.5229497676086425,23.8024,3.5132497676086425Q23.8755,3.5035397676086424,23.9491,3.501039767608643Q24.0228,3.4985397676086425,24.0963,3.5032797676086425Q24.1699,3.508009767608643,24.2426,3.5199197676086427Q24.3153,3.5318397676086426,24.3865,3.5508297676086427Q24.4577,3.5698197676086423,24.5267,3.5956897676086426Q24.5957,3.621559767608643,24.6618,3.6540797676086427Q24.728,3.6865897676086425,24.7906,3.7254297676086425Q24.8532,3.7642697676086425,24.9117,3.809059767608643Q24.9702,3.8538497676086427,25.0241,3.9041597676086424Q25.0779,3.954469767608643,25.1266,4.009811767608642Q25.1752,4.065156767608642,25.2182,4.125004767608642Q25.2612,4.1848517676086425,25.2981,4.248625767608642L47.2981,42.24867976760864Z" fill="#FF4040" fill-opacity="1"/></g><g><path d="M22.5,36.00019836425781L22.5,35.00019836425781Q22.5,34.92650806425781,22.50722,34.853172364257816Q22.51445,34.779837364257816,22.52882,34.707563364257815Q22.5432,34.63528836425781,22.56459,34.564771364257815Q22.58598,34.49425436425781,22.61418,34.426173364257814Q22.64238,34.358092364257814,22.67712,34.29310336425781Q22.71186,34.22811436425781,22.7528,34.166843364257815Q22.79374,34.10557136425781,22.84048,34.04860836425781Q22.88723,33.99164836425781,22.93934,33.939538364257814Q22.99145,33.887428364257815,23.04841,33.84067836425781Q23.105373,33.79393836425781,23.166645,33.75299836425781Q23.227916,33.712058364257814,23.292905,33.677318364257815Q23.357894,33.642578364257815,23.425975,33.61437836425781Q23.494056,33.58617836425781,23.564573,33.564788364257815Q23.63509,33.54339836425781,23.707365,33.529018364257816Q23.779639,33.51464836425781,23.852974,33.50741836425781Q23.9263097,33.50019836425781,24,33.50019836425781Q24.0736903,33.50019836425781,24.147026,33.50741836425781Q24.220361,33.51464836425781,24.292635,33.529018364257816Q24.36491,33.54339836425781,24.435427,33.564788364257815Q24.505944,33.58617836425781,24.574025,33.61437836425781Q24.642106,33.642578364257815,24.707095,33.677318364257815Q24.772084,33.712058364257814,24.833355,33.75299836425781Q24.894627,33.79393836425781,24.95159,33.84067836425781Q25.00855,33.887428364257815,25.06066,33.939538364257814Q25.11277,33.99164836425781,25.15952,34.04860836425781Q25.20626,34.10557136425781,25.2472,34.166843364257815Q25.28814,34.22811436425781,25.32288,34.29310336425781Q25.35762,34.358092364257814,25.38582,34.426173364257814Q25.41402,34.49425436425781,25.43541,34.564771364257815Q25.4568,34.63528836425781,25.47118,34.707563364257815Q25.48555,34.779837364257816,25.49278,34.853172364257816Q25.5,34.92650806425781,25.5,35.00019836425781L25.5,36.00019836425781Q25.5,36.07388836425781,25.49278,36.14722836425781Q25.48555,36.22055836425781,25.47118,36.29283836425781Q25.4568,36.365108364257814,25.43541,36.43562836425781Q25.41402,36.506138364257815,25.38582,36.57422836425781Q25.35762,36.642308364257815,25.32288,36.70729836425781Q25.28814,36.772278364257815,25.2472,36.83355836425781Q25.20626,36.89482836425781,25.15952,36.951788364257816Q25.11277,37.00874836425781,25.06066,37.06085836425781Q25.00855,37.11296836425781,24.95159,37.15971836425781Q24.894627,37.20645836425781,24.833355,37.24739836425781Q24.772084,37.28833836425781,24.707095,37.32307836425781Q24.642106,37.35781836425781,24.574025,37.386018364257815Q24.505944,37.41421836425781,24.435427,37.43560836425781Q24.36491,37.456998364257814,24.292635,37.47137836425781Q24.220361,37.485748364257816,24.147026,37.492978364257816Q24.0736903,37.50019836425781,24,37.50019836425781Q23.9263097,37.50019836425781,23.852974,37.492978364257816Q23.779639,37.485748364257816,23.707365,37.47137836425781Q23.63509,37.456998364257814,23.564573,37.43560836425781Q23.494056,37.41421836425781,23.425975,37.386018364257815Q23.357894,37.35781836425781,23.292905,37.32307836425781Q23.227916,37.28833836425781,23.166645,37.24739836425781Q23.105373,37.20645836425781,23.04841,37.15971836425781Q22.99145,37.11296836425781,22.93934,37.06085836425781Q22.88723,37.00874836425781,22.84048,36.951788364257816Q22.79374,36.89482836425781,22.7528,36.83355836425781Q22.71186,36.772278364257815,22.67712,36.70729836425781Q22.64238,36.642308364257815,22.61418,36.57422836425781Q22.58598,36.506138364257815,22.56459,36.43562836425781Q22.5432,36.365108364257814,22.52882,36.29283836425781Q22.51445,36.22055836425781,22.50722,36.14722836425781Q22.5,36.07388836425781,22.5,36.00019836425781ZM25.5,36.00019836425781Q25.5,36.07388836425781,25.49278,36.14722836425781Q25.48555,36.22055836425781,25.47118,36.29283836425781Q25.4568,36.365108364257814,25.43541,36.43562836425781Q25.41402,36.506138364257815,25.38582,36.57422836425781Q25.35762,36.642308364257815,25.32288,36.70729836425781Q25.28814,36.772278364257815,25.2472,36.83355836425781Q25.20626,36.89482836425781,25.15952,36.951788364257816Q25.11277,37.00874836425781,25.06066,37.06085836425781Q25.00855,37.11296836425781,24.95159,37.15971836425781Q24.894627,37.20645836425781,24.833355,37.24739836425781Q24.772084,37.28833836425781,24.707095,37.32307836425781Q24.642106,37.35781836425781,24.574025,37.386018364257815Q24.505944,37.41421836425781,24.435427,37.43560836425781Q24.36491,37.456998364257814,24.292635,37.47137836425781Q24.220361,37.485748364257816,24.147026,37.492978364257816Q24.0736903,37.50019836425781,24,37.50019836425781Q23.9263097,37.50019836425781,23.852974,37.492978364257816Q23.779639,37.485748364257816,23.707365,37.47137836425781Q23.63509,37.456998364257814,23.564573,37.43560836425781Q23.494056,37.41421836425781,23.425975,37.386018364257815Q23.357894,37.35781836425781,23.292905,37.32307836425781Q23.227916,37.28833836425781,23.166645,37.24739836425781Q23.105373,37.20645836425781,23.04841,37.15971836425781Q22.99145,37.11296836425781,22.93934,37.06085836425781Q22.88723,37.00874836425781,22.84048,36.951788364257816Q22.79374,36.89482836425781,22.7528,36.83355836425781Q22.71186,36.772278364257815,22.67712,36.70729836425781Q22.64238,36.642308364257815,22.61418,36.57422836425781Q22.58598,36.506138364257815,22.56459,36.43562836425781Q22.5432,36.365108364257814,22.52882,36.29283836425781Q22.51445,36.22055836425781,22.50722,36.14722836425781Q22.5,36.07388836425781,22.5,36.00019836425781Q22.5,35.92650836425781,22.50722,35.853172364257816Q22.51445,35.779837364257816,22.52882,35.70756236425781Q22.5432,35.63528836425781,22.56459,35.564771364257815Q22.58598,35.49425436425781,22.61418,35.426173364257814Q22.64238,35.358092364257814,22.67712,35.29310336425781Q22.71186,35.22811436425781,22.7528,35.166843364257815Q22.79374,35.10557136425781,22.84048,35.04860846425781Q22.88723,34.99164508425781,22.93934,34.93953816425781Q22.99145,34.887431364257814,23.04841,34.840682364257816Q23.105373,34.793934364257815,23.166645,34.75299436425781Q23.227916,34.71205436425781,23.292905,34.67731636425781Q23.357894,34.64257936425781,23.425975,34.614379364257815Q23.494056,34.58617936425781,23.564573,34.564788364257815Q23.63509,34.54339636425781,23.707365,34.52902036425781Q23.779639,34.51464436425781,23.852974,34.507421364257816Q23.9263097,34.50019836425781,24,34.50019836425781Q24.0736903,34.50019836425781,24.147026,34.507421364257816Q24.220361,34.51464436425781,24.292635,34.52902036425781Q24.36491,34.54339636425781,24.435427,34.564788364257815Q24.505944,34.58617936425781,24.574025,34.614379364257815Q24.642106,34.64257936425781,24.707095,34.67731636425781Q24.772084,34.71205336425781,24.833355,34.75299436425781Q24.894627,34.793934364257815,24.95159,34.840682364257816Q25.00855,34.887431364257814,25.06066,34.93953816425781Q25.11277,34.99164507425781,25.15952,35.04860846425781Q25.20626,35.10557136425781,25.2472,35.166843364257815Q25.28814,35.22811436425781,25.32288,35.29310336425781Q25.35762,35.358092364257814,25.38582,35.426173364257814Q25.41402,35.49425436425781,25.43541,35.564771364257815Q25.4568,35.63528836425781,25.47118,35.70756236425781Q25.48555,35.779837364257816,25.49278,35.853172364257816Q25.5,35.92650836425781,25.5,36.00019836425781ZM25.5,35.00019836425781Q25.5,35.073888664257815,25.49278,35.14722436425781Q25.48555,35.22055936425781,25.47118,35.29283336425781Q25.4568,35.365108364257814,25.43541,35.43562536425781Q25.41402,35.50614236425781,25.38582,35.57422336425781Q25.35762,35.64230436425781,25.32288,35.707293364257815Q25.28814,35.77228236425781,25.2472,35.83355336425781Q25.20626,35.89482536425781,25.15952,35.951788364257816Q25.11277,36.00874836425781,25.06066,36.06085836425781Q25.00855,36.11296836425781,24.95159,36.15971836425781Q24.894627,36.20645836425781,24.833355,36.24739836425781Q24.772084,36.28833836425781,24.707095,36.32307836425781Q24.642106,36.35781836425781,24.574025,36.386018364257815Q24.505944,36.41421836425781,24.435427,36.43560836425781Q24.36491,36.456998364257814,24.292635,36.47137836425781Q24.220361,36.485748364257816,24.147026,36.492978364257816Q24.0736903,36.50019836425781,24,36.50019836425781Q23.9263097,36.50019836425781,23.852974,36.492978364257816Q23.779639,36.485748364257816,23.707365,36.47137836425781Q23.63509,36.456998364257814,23.564573,36.43560836425781Q23.494056,36.41421836425781,23.425975,36.386018364257815Q23.357894,36.35781836425781,23.292905,36.32307836425781Q23.227916,36.28833836425781,23.166645,36.24739836425781Q23.105373,36.20645836425781,23.04841,36.15971836425781Q22.99145,36.11296836425781,22.93934,36.06085836425781Q22.88723,36.00874836425781,22.84048,35.951788364257816Q22.79374,35.89482536425781,22.7528,35.83355336425781Q22.71186,35.77228236425781,22.67712,35.707293364257815Q22.64238,35.64230436425781,22.61418,35.57422336425781Q22.58598,35.50614236425781,22.56459,35.43562536425781Q22.5432,35.365108364257814,22.52882,35.29283336425781Q22.51445,35.22055936425781,22.50722,35.14722436425781Q22.5,35.073888664257815,22.5,35.00019836425781Q22.5,34.92650806425781,22.50722,34.853172364257816Q22.51445,34.779837364257816,22.52882,34.707563364257815Q22.5432,34.63528836425781,22.56459,34.564771364257815Q22.58598,34.49425436425781,22.61418,34.426173364257814Q22.64238,34.358092364257814,22.67712,34.29310336425781Q22.71186,34.22811436425781,22.7528,34.166843364257815Q22.79374,34.10557136425781,22.84048,34.04860836425781Q22.88723,33.99164836425781,22.93934,33.939538364257814Q22.99145,33.887428364257815,23.04841,33.84067836425781Q23.105373,33.79393836425781,23.166645,33.75299836425781Q23.227916,33.712058364257814,23.292905,33.677318364257815Q23.357894,33.642578364257815,23.425975,33.61437836425781Q23.494056,33.58617836425781,23.564573,33.564788364257815Q23.63509,33.54339836425781,23.707365,33.529018364257816Q23.779639,33.51464836425781,23.852974,33.50741836425781Q23.9263097,33.50019836425781,24,33.50019836425781Q24.0736903,33.50019836425781,24.147026,33.50741836425781Q24.220361,33.51464836425781,24.292635,33.529018364257816Q24.36491,33.54339836425781,24.435427,33.564788364257815Q24.505944,33.58617836425781,24.574025,33.61437836425781Q24.642106,33.642578364257815,24.707095,33.677318364257815Q24.772084,33.712058364257814,24.833355,33.75299836425781Q24.894627,33.79393836425781,24.95159,33.84067836425781Q25.00855,33.887428364257815,25.06066,33.939538364257814Q25.11277,33.99164836425781,25.15952,34.04860836425781Q25.20626,34.10557136425781,25.2472,34.166843364257815Q25.28814,34.22811436425781,25.32288,34.29310336425781Q25.35762,34.358092364257814,25.38582,34.426173364257814Q25.41402,34.49425436425781,25.43541,34.564771364257815Q25.4568,34.63528836425781,25.47118,34.707563364257815Q25.48555,34.779837364257816,25.49278,34.853172364257816Q25.5,34.92650806425781,25.5,35.00019836425781Z" fill="#FFFFFF" fill-opacity="1"/></g><g><path d="M22.5083,29.001399996948244L22.5,19.001945176948244Q22.49994,18.928254896948243,22.5071,18.85491399694824Q22.51426,18.78157199694824,22.52858,18.709285996948243Q22.5429,18.63699999694824,22.56423,18.56646499694824Q22.58556,18.49592999694824,22.6137,18.427825996948243Q22.64185,18.35972099694824,22.67653,18.294702996948242Q22.71122,18.229684996948244,22.7521,18.168379996948243Q22.79299,18.107074996948242,22.83969,18.05007299694824Q22.886400000000002,17.993069996948243,22.93846,17.940919996948242Q22.99052,17.88876999694824,23.047448,17.841969996948244Q23.104372,17.795179996948242,23.16561,17.75418999694824Q23.226847,17.71319999694824,23.291807,17.678409996948243Q23.356767,17.643609996948243,23.424825,17.615359996948243Q23.492882,17.587099996948243,23.563382,17.565649996948242Q23.633881,17.544199996948244,23.706143,17.529769996948243Q23.778406,17.515329996948243,23.851735,17.50804999694824Q23.9250646,17.500759996948243,23.99875482,17.500699996948242Q24.0724451,17.50063999694824,24.145786,17.507799996948243Q24.219128,17.514959996948242,24.291414,17.529279996948244Q24.3637,17.54359999694824,24.434235,17.56492999694824Q24.50477,17.586259996948243,24.572874,17.614399996948244Q24.640979,17.642549996948244,24.705997,17.677229996948242Q24.771015,17.711919996948243,24.83232,17.75279999694824Q24.893625,17.793689996948242,24.950627,17.840389996948243Q25.00763,17.887099996948244,25.05978,17.93915999694824Q25.11193,17.991219996948242,25.15873,18.04814799694824Q25.20552,18.105071996948244,25.24651,18.166309996948243Q25.2875,18.22754699694824,25.32229,18.29250699694824Q25.35709,18.357466996948244,25.38534,18.42552499694824Q25.4136,18.493581996948244,25.43505,18.564081996948243Q25.4565,18.63458099694824,25.47093,18.706842996948243Q25.48537,18.779105996948243,25.49265,18.852434996948244Q25.49994,18.92576459694824,25.5,18.99945481694824L25.5083,28.99894999694824Q25.50836,29.07259999694824,25.5012,29.14599999694824Q25.49404,29.219299996948244,25.47972,29.291599996948243Q25.4654,29.36389999694824,25.44407,29.434399996948244Q25.42274,29.504999996948243,25.3946,29.573099996948244Q25.36645,29.64119999694824,25.33177,29.706199996948243Q25.29709,29.77119999694824,25.2562,29.832499996948243Q25.21531,29.893799996948243,25.16861,29.95079999694824Q25.1219,30.007799996948243,25.06984,30.059999996948243Q25.01778,30.112099996948242,24.960853,30.158899996948243Q24.903928,30.20569999694824,24.842691,30.246699996948244Q24.781454,30.28769999694824,24.716494,30.322499996948242Q24.651534,30.357299996948242,24.583476,30.38549999694824Q24.515419,30.413799996948242,24.444919,30.435199996948242Q24.37442,30.45669999694824,24.302157,30.47109999694824Q24.229895,30.485599996948242,24.156566,30.492899996948243Q24.0832362,30.500099996948244,24.00954596,30.50019999694824Q23.9358557,30.500299996948243,23.862514,30.493099996948242Q23.789173,30.48589999694824,23.716887,30.471599996948243Q23.6446,30.457299996948244,23.574065,30.43599999694824Q23.503531,30.41459999694824,23.435426,30.386499996948242Q23.367322,30.358399996948243,23.302304,30.323699996948243Q23.237286,30.28899999694824,23.175981,30.24809999694824Q23.114676,30.20719999694824,23.057674,30.160499996948243Q23.000672,30.11379999694824,22.94852,30.061699996948242Q22.89637,30.009699996948243,22.84958,29.952799996948244Q22.80278,29.89579999694824,22.76179,29.834599996948242Q22.7208,29.773399996948243,22.68601,29.708399996948245Q22.65122,29.64339999694824,22.62296,29.575399996948242Q22.5947,29.50729999694824,22.57325,29.436799996948242Q22.5518,29.366299996948243,22.53737,29.29409999694824Q22.52293,29.221799996948242,22.51565,29.148499996948242Q22.50836,29.075099996948243,22.5083,29.001399996948244ZM25.5083,29.00019999694824Q25.5083,29.073899996948242,25.50108,29.147199996948242Q25.49385,29.220599996948245,25.47948,29.29279999694824Q25.4651,29.365099996948242,25.44371,29.43559999694824Q25.42232,29.506099996948244,25.39412,29.57419999694824Q25.36592,29.642299996948243,25.33118,29.707299996948244Q25.29645,29.77229999694824,25.25551,29.833599996948244Q25.21457,29.894799996948244,25.16782,29.951799996948242Q25.12107,30.00879999694824,25.06896,30.060899996948244Q25.01685,30.11299999694824,24.959891,30.15969999694824Q24.902927,30.206499996948242,24.841656,30.247399996948243Q24.780385,30.28829999694824,24.715396,30.323099996948244Q24.650407,30.357799996948245,24.582326,30.385999996948243Q24.514245,30.41419999694824,24.443728,30.43559999694824Q24.373211,30.45699999694824,24.300936,30.471399996948243Q24.228662,30.48579999694824,24.155326,30.492999996948242Q24.0819911,30.50019999694824,24.00830078,30.50019999694824Q23.9346105,30.50019999694824,23.861275,30.492999996948242Q23.78794,30.48579999694824,23.715665,30.471399996948243Q23.643391,30.45699999694824,23.572874,30.43559999694824Q23.502357,30.41419999694824,23.434276,30.385999996948243Q23.366195,30.357799996948245,23.301206,30.323099996948244Q23.236217,30.28829999694824,23.174946,30.247399996948243Q23.113674,30.206499996948242,23.056711,30.15969999694824Q22.99975,30.11299999694824,22.94764,30.060899996948244Q22.89553,30.00879999694824,22.84879,29.951799996948242Q22.80204,29.894799996948244,22.7611,29.833599996948244Q22.72016,29.77229999694824,22.68542,29.707299996948244Q22.65068,29.642299996948243,22.62248,29.57419999694824Q22.59428,29.506099996948244,22.57289,29.43559999694824Q22.5515,29.365099996948242,22.53712,29.29279999694824Q22.52275,29.220599996948245,22.51552,29.147199996948242Q22.5083,29.073899996948242,22.5083,29.00019999694824Q22.5083,28.92650999694824,22.51552,28.853169996948242Q22.52275,28.77983999694824,22.53712,28.70755999694824Q22.5515,28.63528999694824,22.57289,28.564769996948243Q22.59428,28.494259996948244,22.62248,28.426169996948243Q22.65068,28.358089996948245,22.68542,28.293099996948243Q22.72016,28.228119996948244,22.7611,28.16683999694824Q22.80204,28.10556999694824,22.84879,28.048609996948244Q22.89553,27.99164999694824,22.94764,27.93953999694824Q22.99975,27.887429996948242,23.056711,27.840679996948243Q23.113674,27.793939996948243,23.174945,27.75299999694824Q23.236217,27.71205999694824,23.301206,27.677319996948242Q23.366195,27.642579996948243,23.434276,27.614379996948244Q23.502357,27.586179996948243,23.572874,27.564789996948242Q23.643391,27.543399996948242,23.715665,27.529019996948243Q23.78794,27.514649996948243,23.861275,27.507419996948244Q23.9346105,27.50019999694824,24.00830078,27.50019999694824Q24.0819911,27.50019999694824,24.155326,27.507419996948244Q24.228662,27.514649996948243,24.300936,27.529019996948243Q24.373211,27.543399996948242,24.443728,27.564789996948242Q24.514245,27.586179996948243,24.582326,27.614379996948244Q24.650407,27.642579996948243,24.715396,27.677319996948242Q24.780385,27.71205999694824,24.841656,27.75299999694824Q24.902927,27.793939996948243,24.959891,27.840679996948243Q25.01685,27.887429996948242,25.06896,27.93953999694824Q25.12107,27.99164999694824,25.16782,28.048609996948244Q25.21457,28.10556999694824,25.25551,28.16683999694824Q25.29645,28.228119996948244,25.33118,28.293099996948243Q25.36592,28.358089996948245,25.39412,28.426169996948243Q25.42232,28.494259996948244,25.44371,28.564769996948243Q25.4651,28.63528999694824,25.47948,28.70755999694824Q25.49385,28.77983999694824,25.50108,28.853169996948242Q25.5083,28.92650999694824,25.5083,29.00019999694824ZM25.5,19.000699996948242Q25.5,19.07439029694824,25.49278,19.147725996948243Q25.48555,19.221060996948243,25.47118,19.293334996948243Q25.4568,19.36560999694824,25.43541,19.436126996948243Q25.41402,19.50664399694824,25.38582,19.57472499694824Q25.35762,19.64280599694824,25.32288,19.70779499694824Q25.28814,19.77278399694824,25.2472,19.834054996948243Q25.20626,19.895326996948242,25.15952,19.95228999694824Q25.11277,20.009249996948242,25.06066,20.06135999694824Q25.00855,20.113469996948243,24.95159,20.160219996948243Q24.894627,20.206959996948243,24.833355,20.24789999694824Q24.772084,20.28883999694824,24.707095,20.323579996948244Q24.642106,20.358319996948243,24.574025,20.38651999694824Q24.505944,20.414719996948243,24.435427,20.436109996948243Q24.36491,20.457499996948243,24.292635,20.471879996948243Q24.220361,20.486249996948242,24.147026,20.493479996948242Q24.0736903,20.500699996948242,24,20.500699996948242Q23.9263097,20.500699996948242,23.852974,20.493479996948242Q23.779639,20.486249996948242,23.707365,20.471879996948243Q23.63509,20.457499996948243,23.564573,20.436109996948243Q23.494056,20.414719996948243,23.425975,20.38651999694824Q23.357894,20.358319996948243,23.292905,20.323579996948244Q23.227916,20.28883999694824,23.166645,20.24789999694824Q23.105373,20.206959996948243,23.04841,20.160219996948243Q22.99145,20.113469996948243,22.93934,20.06135999694824Q22.88723,20.009249996948242,22.84048,19.95228999694824Q22.79374,19.895326996948242,22.7528,19.834054996948243Q22.71186,19.77278399694824,22.67712,19.70779499694824Q22.64238,19.64280599694824,22.61418,19.57472499694824Q22.58598,19.50664399694824,22.56459,19.436126996948243Q22.5432,19.36560999694824,22.52882,19.293334996948243Q22.51445,19.221060996948243,22.50722,19.147725996948243Q22.5,19.07439029694824,22.5,19.000699996948242Q22.5,18.927009696948243,22.50722,18.853673996948242Q22.51445,18.78033899694824,22.52882,18.70806499694824Q22.5432,18.635789996948244,22.56459,18.56527299694824Q22.58598,18.494755996948243,22.61418,18.426674996948243Q22.64238,18.358593996948244,22.67712,18.293604996948243Q22.71186,18.228615996948243,22.7528,18.16734499694824Q22.79374,18.106072996948242,22.84048,18.049109996948243Q22.88723,17.992149996948243,22.93934,17.940039996948244Q22.99145,17.88792999694824,23.04841,17.84117999694824Q23.105373,17.794439996948242,23.166645,17.753499996948243Q23.227916,17.712559996948244,23.292905,17.67781999694824Q23.357894,17.64307999694824,23.425975,17.614879996948243Q23.494056,17.58667999694824,23.564573,17.56528999694824Q23.63509,17.54389999694824,23.707365,17.529519996948242Q23.779639,17.515149996948242,23.852974,17.507919996948242Q23.9263097,17.500699996948242,24,17.500699996948242Q24.0736903,17.500699996948242,24.147026,17.507919996948242Q24.220361,17.515149996948242,24.292635,17.529519996948242Q24.36491,17.54389999694824,24.435427,17.56528999694824Q24.505944,17.58667999694824,24.574025,17.614879996948243Q24.642106,17.64307999694824,24.707095,17.67781999694824Q24.772084,17.712559996948244,24.833355,17.753499996948243Q24.894627,17.794439996948242,24.95159,17.84117999694824Q25.00855,17.88792999694824,25.06066,17.940039996948244Q25.11277,17.992149996948243,25.15952,18.049109996948243Q25.20626,18.106072996948242,25.2472,18.16734499694824Q25.28814,18.228615996948243,25.32288,18.293604996948243Q25.35762,18.358593996948244,25.38582,18.426674996948243Q25.41402,18.494755996948243,25.43541,18.56527299694824Q25.4568,18.635789996948244,25.47118,18.70806499694824Q25.48555,18.78033899694824,25.49278,18.853673996948242Q25.5,18.927009696948243,25.5,19.000699996948242Z" fill="#FFFFFF" fill-opacity="1"/></g></g></svg>