<svg xmlns="http://www.w3.org/2000/svg" xmlns:xlink="http://www.w3.org/1999/xlink" fill="none" version="1.1" width="48" height="48" viewBox="0 0 48 48"><defs><clipPath id="master_svg0_617_31386"><rect x="0" y="0" width="48" height="48" rx="0"/></clipPath></defs><g clip-path="url(#master_svg0_617_31386)"><g><path d="M28.4706,42.5L8,42.5Q6.1360399999999995,42.5,4.818027,41.182Q3.5,39.864,3.5,38L3.5,10Q3.5,8.13604,4.818021,6.818021Q6.1360399999999995,5.5,8,5.5L40,5.5Q41.864,5.5,43.182,6.818027Q44.5,8.13604,44.5,10L44.5,26Q44.5,26.0737,44.4928,26.147Q44.4855,26.2204,44.4712,26.2926Q44.4568,26.3649,44.4354,26.4354Q44.414,26.5059,44.3858,26.574Q44.3576,26.6421,44.3229,26.7071Q44.2881,26.7721,44.2472,26.8334Q44.2063,26.8946,44.1595,26.9516Q44.1128,27.0086,44.0607,27.0607Q44.0086,27.1128,43.9516,27.1595Q43.8946,27.2063,43.8334,27.2472Q43.7721,27.2881,43.7071,27.3229Q43.6421,27.3576,43.574,27.3858Q43.5059,27.414,43.4354,27.4354Q43.3649,27.4568,43.2926,27.4712Q43.2204,27.4856,43.147,27.4928Q43.0737,27.5,43,27.5Q42.9263,27.5,42.853,27.4928Q42.7796,27.4856,42.7074,27.4712Q42.6351,27.4568,42.5646,27.4354Q42.4941,27.414,42.426,27.3858Q42.3579,27.3576,42.2929,27.3229Q42.2279,27.2881,42.1666,27.2472Q42.1054,27.2063,42.0484,27.1595Q41.9914,27.1128,41.9393,27.0607Q41.8872,27.0086,41.8405,26.9516Q41.7937,26.8946,41.7528,26.8334Q41.7119,26.7721,41.6771,26.7071Q41.6424,26.6421,41.6142,26.574Q41.586,26.5059,41.5646,26.4354Q41.5432,26.3649,41.5288,26.2926Q41.5144,26.2204,41.5072,26.147Q41.5,26.0737,41.5,26L41.5,10Q41.5,9.37867,41.0607,8.93934Q40.6213,8.5,40,8.5L8,8.5Q7.37868,8.5,6.93934,8.93934Q6.5,9.37868,6.5,10L6.5,38Q6.5,38.621300000000005,6.93934,39.0607Q7.37867,39.5,8,39.5L28.4706,39.5Q28.5443,39.5,28.6176,39.5072Q28.691,39.5144,28.7632,39.5288Q28.8355,39.5432,28.906,39.5646Q28.9765,39.586,29.0446,39.6142Q29.1127,39.6424,29.1777,39.6771Q29.2427,39.7119,29.304,39.7528Q29.3652,39.7937,29.4222,39.8405Q29.4792,39.8872,29.5313,39.9393Q29.5834,39.9914,29.6301,40.0484Q29.6769,40.1054,29.7178,40.1666Q29.7587,40.2279,29.7935,40.2929Q29.8282,40.3579,29.8564,40.426Q29.8846,40.494,29.906,40.5646Q29.9274,40.6351,29.9418,40.7074Q29.9562,40.7796,29.9634,40.853Q29.9706,40.9263,29.9706,41Q29.9706,41.0737,29.9634,41.147Q29.9562,41.2204,29.9418,41.2926Q29.9274,41.3649,29.906,41.4354Q29.8846,41.5059,29.8564,41.574Q29.8282,41.6421,29.7935,41.7071Q29.7587,41.7721,29.7178,41.8334Q29.6769,41.8946,29.6301,41.9516Q29.5834,42.0086,29.5313,42.0607Q29.4792,42.1128,29.4222,42.1595Q29.3652,42.2063,29.304,42.2472Q29.2427,42.2881,29.1777,42.3229Q29.1127,42.3576,29.0446,42.3858Q28.9765,42.414,28.906,42.4354Q28.8355,42.4568,28.7632,42.4712Q28.691,42.4855,28.6176,42.4928Q28.5443,42.5,28.4706,42.5ZM29.9706,41Q29.9706,41.0737,29.9634,41.147Q29.9562,41.2204,29.9418,41.2926Q29.9274,41.3649,29.906,41.4354Q29.8846,41.5059,29.8564,41.574Q29.8282,41.6421,29.7935,41.7071Q29.7587,41.7721,29.7178,41.8334Q29.6769,41.8946,29.6301,41.9516Q29.5834,42.0086,29.5313,42.0607Q29.4792,42.1128,29.4222,42.1595Q29.3652,42.2063,29.304,42.2472Q29.2427,42.2881,29.1777,42.3229Q29.1127,42.3576,29.0446,42.3858Q28.9765,42.414,28.906,42.4354Q28.8355,42.4568,28.7632,42.4712Q28.691,42.4855,28.6176,42.4928Q28.5443,42.5,28.4706,42.5Q28.3969,42.5,28.3236,42.4928Q28.2502,42.4855,28.178,42.4712Q28.1057,42.4568,28.0352,42.4354Q27.9647,42.414,27.8966,42.3858Q27.8285,42.3576,27.7635,42.3229Q27.6985,42.2881,27.6372,42.2472Q27.576,42.2063,27.519,42.1595Q27.462,42.1128,27.4099,42.0607Q27.3578,42.0086,27.3111,41.9516Q27.2643,41.8946,27.2234,41.8334Q27.1825,41.7721,27.1477,41.7071Q27.113,41.6421,27.0848,41.574Q27.0566,41.5059,27.0352,41.4354Q27.0138,41.3649,26.9994,41.2926Q26.985,41.2204,26.9778,41.147Q26.9706,41.0737,26.9706,41Q26.9706,40.9263,26.9778,40.853Q26.985,40.7796,26.9994,40.7074Q27.0138,40.6351,27.0352,40.5646Q27.0566,40.494,27.0848,40.426Q27.113,40.3579,27.1477,40.2929Q27.1825,40.2279,27.2234,40.1666Q27.2643,40.1054,27.3111,40.0484Q27.3578,39.9914,27.4099,39.9393Q27.462,39.8872,27.519,39.8405Q27.576,39.7937,27.6372,39.7528Q27.6985,39.7119,27.7635,39.6771Q27.8285,39.6424,27.8966,39.6142Q27.9647,39.586,28.0352,39.5646Q28.1057,39.5432,28.178,39.5288Q28.2502,39.5144,28.3236,39.5072Q28.3969,39.5,28.4706,39.5Q28.5443,39.5,28.6176,39.5072Q28.691,39.5144,28.7632,39.5288Q28.8355,39.5432,28.906,39.5646Q28.9765,39.586,29.0446,39.6142Q29.1127,39.6424,29.1777,39.6771Q29.2427,39.7119,29.304,39.7528Q29.3652,39.7937,29.4222,39.8405Q29.4792,39.8872,29.5313,39.9393Q29.5834,39.9914,29.6301,40.0484Q29.6769,40.1054,29.7178,40.1666Q29.7587,40.2279,29.7935,40.2929Q29.8282,40.3579,29.8564,40.426Q29.8846,40.494,29.906,40.5646Q29.9274,40.6351,29.9418,40.7074Q29.9562,40.7796,29.9634,40.853Q29.9706,40.9263,29.9706,41ZM44.5,26Q44.5,26.0737,44.4928,26.147Q44.4855,26.2204,44.4712,26.2926Q44.4568,26.3649,44.4354,26.4354Q44.414,26.5059,44.3858,26.574Q44.3576,26.6421,44.3229,26.7071Q44.2881,26.7721,44.2472,26.8334Q44.2063,26.8946,44.1595,26.9516Q44.1128,27.0086,44.0607,27.0607Q44.0086,27.1128,43.9516,27.1595Q43.8946,27.2063,43.8334,27.2472Q43.7721,27.2881,43.7071,27.3229Q43.6421,27.3576,43.574,27.3858Q43.5059,27.414,43.4354,27.4354Q43.3649,27.4568,43.2926,27.4712Q43.2204,27.4856,43.147,27.4928Q43.0737,27.5,43,27.5Q42.9263,27.5,42.853,27.4928Q42.7796,27.4856,42.7074,27.4712Q42.6351,27.4568,42.5646,27.4354Q42.4941,27.414,42.426,27.3858Q42.3579,27.3576,42.2929,27.3229Q42.2279,27.2881,42.1666,27.2472Q42.1054,27.2063,42.0484,27.1595Q41.9914,27.1128,41.9393,27.0607Q41.8872,27.0086,41.8405,26.9516Q41.7937,26.8946,41.7528,26.8334Q41.7119,26.7721,41.6771,26.7071Q41.6424,26.6421,41.6142,26.574Q41.586,26.5059,41.5646,26.4354Q41.5432,26.3649,41.5288,26.2926Q41.5144,26.2204,41.5072,26.147Q41.5,26.0737,41.5,26Q41.5,25.9263,41.5072,25.853Q41.5144,25.7796,41.5288,25.7074Q41.5432,25.6351,41.5646,25.5646Q41.586,25.4941,41.6142,25.426Q41.6424,25.3579,41.6771,25.2929Q41.7118,25.2279,41.7528,25.1666Q41.7937,25.1054,41.8405,25.0484Q41.8872,24.9914,41.9393,24.9393Q41.9914,24.8872,42.0484,24.8405Q42.1054,24.7937,42.1666,24.7528Q42.2279,24.7119,42.2929,24.6771Q42.3579,24.6424,42.426,24.6142Q42.4941,24.586,42.5646,24.5646Q42.6351,24.5432,42.7074,24.5288Q42.7796,24.5144,42.853,24.5072Q42.9263,24.5,43,24.5Q43.0737,24.5,43.147,24.5072Q43.2204,24.5144,43.2926,24.5288Q43.3649,24.5432,43.4354,24.5646Q43.5059,24.586,43.574,24.6142Q43.6421,24.6424,43.7071,24.6771Q43.7721,24.7119,43.8334,24.7528Q43.8946,24.7937,43.9516,24.8405Q44.0086,24.8872,44.0607,24.9393Q44.1128,24.9914,44.1595,25.0484Q44.2063,25.1054,44.2472,25.1666Q44.2881,25.2279,44.3229,25.2929Q44.3576,25.3579,44.3858,25.426Q44.414,25.4941,44.4354,25.5646Q44.4568,25.6351,44.4712,25.7074Q44.4855,25.7796,44.4928,25.853Q44.5,25.9263,44.5,26Z" fill="#409EFF" fill-opacity="1"/></g><g><path d="M43,31L43,10C43,8.34315,41.6569,7,40,7L8,7C6.34315,7,5,8.34315,5,10L5,38C5,39.6569,6.34315,41,8,41L33.470600000000005,41" fill="#409EFF" fill-opacity="1"/><path d="M33.470600000000005,42.5L8,42.5Q6.1360399999999995,42.5,4.818027,41.182Q3.5,39.864,3.5,38L3.5,10Q3.5,8.13604,4.818021,6.818021Q6.1360399999999995,5.5,8,5.5L40,5.5Q41.864,5.5,43.182,6.818027Q44.5,8.13604,44.5,10L44.5,31Q44.5,31.0737,44.4928,31.147Q44.4855,31.2204,44.4712,31.2926Q44.4568,31.3649,44.4354,31.4354Q44.414,31.5059,44.3858,31.574Q44.3576,31.6421,44.3229,31.7071Q44.2881,31.7721,44.2472,31.8334Q44.2063,31.8946,44.1595,31.9516Q44.1128,32.0086,44.0607,32.0607Q44.0086,32.1128,43.9516,32.1595Q43.8946,32.2063,43.8334,32.2472Q43.7721,32.2881,43.7071,32.322900000000004Q43.6421,32.357600000000005,43.574,32.3858Q43.5059,32.414,43.4354,32.4354Q43.3649,32.4568,43.2926,32.471199999999996Q43.2204,32.485600000000005,43.147,32.4928Q43.0737,32.5,43,32.5Q42.9263,32.5,42.853,32.4928Q42.7796,32.485600000000005,42.7074,32.471199999999996Q42.6351,32.4568,42.5646,32.4354Q42.4941,32.414,42.426,32.3858Q42.3579,32.357600000000005,42.2929,32.322900000000004Q42.2279,32.2881,42.1666,32.2472Q42.1054,32.2063,42.0484,32.1595Q41.9914,32.1128,41.9393,32.0607Q41.8872,32.0086,41.8405,31.9516Q41.7937,31.8946,41.7528,31.8334Q41.7119,31.7721,41.6771,31.7071Q41.6424,31.6421,41.6142,31.574Q41.586,31.5059,41.5646,31.4354Q41.5432,31.3649,41.5288,31.2926Q41.5144,31.2204,41.5072,31.147Q41.5,31.0737,41.5,31L41.5,10Q41.5,9.37867,41.0607,8.93934Q40.6213,8.5,40,8.5L8,8.5Q7.37868,8.5,6.93934,8.93934Q6.5,9.37868,6.5,10L6.5,38Q6.5,38.621300000000005,6.93934,39.0607Q7.37867,39.5,8,39.5L33.470600000000005,39.5Q33.5443,39.5,33.617599999999996,39.5072Q33.691,39.5144,33.7632,39.5288Q33.835499999999996,39.5432,33.906,39.5646Q33.976600000000005,39.586,34.0446,39.6142Q34.112700000000004,39.6424,34.1777,39.6771Q34.2427,39.7119,34.304,39.7528Q34.3652,39.7937,34.422200000000004,39.8405Q34.4792,39.8872,34.5313,39.9393Q34.5834,39.9914,34.6301,40.0484Q34.6769,40.1054,34.7178,40.1666Q34.7588,40.2279,34.7935,40.2929Q34.828199999999995,40.3579,34.8564,40.426Q34.8846,40.494,34.906,40.5646Q34.9274,40.6351,34.9418,40.7074Q34.956199999999995,40.7796,34.9634,40.853Q34.970600000000005,40.9263,34.970600000000005,41Q34.970600000000005,41.0737,34.9634,41.147Q34.956199999999995,41.2204,34.9418,41.2926Q34.9274,41.3649,34.906,41.4354Q34.8846,41.5059,34.8564,41.574Q34.828199999999995,41.6421,34.7935,41.7071Q34.7588,41.7721,34.7178,41.8334Q34.6769,41.8946,34.6301,41.9516Q34.5834,42.0086,34.5313,42.0607Q34.4792,42.1128,34.422200000000004,42.1595Q34.3652,42.2063,34.304,42.2472Q34.2427,42.2881,34.1777,42.3229Q34.112700000000004,42.3576,34.0446,42.3858Q33.976600000000005,42.414,33.906,42.4354Q33.835499999999996,42.4568,33.7632,42.4712Q33.691,42.4855,33.617599999999996,42.4928Q33.5443,42.5,33.470600000000005,42.5ZM34.970600000000005,41Q34.970600000000005,41.0737,34.9634,41.147Q34.956199999999995,41.2204,34.9418,41.2926Q34.9274,41.3649,34.906,41.4354Q34.8846,41.5059,34.8564,41.574Q34.828199999999995,41.6421,34.7935,41.7071Q34.7588,41.7721,34.7178,41.8334Q34.6769,41.8946,34.6301,41.9516Q34.5834,42.0086,34.5313,42.0607Q34.4792,42.1128,34.422200000000004,42.1595Q34.3652,42.2063,34.304,42.2472Q34.2427,42.2881,34.1777,42.3229Q34.112700000000004,42.3576,34.0446,42.3858Q33.976600000000005,42.414,33.906,42.4354Q33.835499999999996,42.4568,33.7632,42.4712Q33.691,42.4855,33.617599999999996,42.4928Q33.5443,42.5,33.470600000000005,42.5Q33.3969,42.5,33.3236,42.4928Q33.2502,42.4855,33.178,42.4712Q33.1057,42.4568,33.0352,42.4354Q32.9647,42.414,32.8966,42.3858Q32.8285,42.3576,32.7635,42.3229Q32.698499999999996,42.2881,32.637299999999996,42.2472Q32.576,42.2063,32.519,42.1595Q32.4621,42.1128,32.41,42.0607Q32.3578,42.0086,32.311099999999996,41.9516Q32.2643,41.8946,32.2234,41.8334Q32.182500000000005,41.7721,32.1477,41.7071Q32.113,41.6421,32.0848,41.574Q32.0566,41.5059,32.0352,41.4354Q32.0138,41.3649,31.9994,41.2926Q31.9851,41.2204,31.9778,41.147Q31.9706,41.0737,31.9706,41Q31.9706,40.9263,31.9778,40.853Q31.9851,40.7796,31.9994,40.7074Q32.0138,40.6351,32.0352,40.5646Q32.0566,40.494,32.0848,40.426Q32.113,40.3579,32.1477,40.2929Q32.182500000000005,40.2279,32.2234,40.1666Q32.2643,40.1054,32.311099999999996,40.0484Q32.3578,39.9914,32.41,39.9393Q32.4621,39.8872,32.519,39.8405Q32.576,39.7937,32.637299999999996,39.7528Q32.698499999999996,39.7119,32.7635,39.6771Q32.8285,39.6424,32.8966,39.6142Q32.9647,39.586,33.0352,39.5646Q33.1057,39.5432,33.178,39.5288Q33.2502,39.5144,33.3236,39.5072Q33.3969,39.5,33.470600000000005,39.5Q33.5443,39.5,33.617599999999996,39.5072Q33.691,39.5144,33.7632,39.5288Q33.835499999999996,39.5432,33.906,39.5646Q33.976600000000005,39.586,34.0446,39.6142Q34.112700000000004,39.6424,34.1777,39.6771Q34.2427,39.7119,34.304,39.7528Q34.3652,39.7937,34.422200000000004,39.8405Q34.4792,39.8872,34.5313,39.9393Q34.5834,39.9914,34.6301,40.0484Q34.6769,40.1054,34.7178,40.1666Q34.7588,40.2279,34.7935,40.2929Q34.828199999999995,40.3579,34.8564,40.426Q34.8846,40.494,34.906,40.5646Q34.9274,40.6351,34.9418,40.7074Q34.956199999999995,40.7796,34.9634,40.853Q34.970600000000005,40.9263,34.970600000000005,41ZM44.5,31Q44.5,31.0737,44.4928,31.147Q44.4855,31.2204,44.4712,31.2926Q44.4568,31.3649,44.4354,31.4354Q44.414,31.5059,44.3858,31.574Q44.3576,31.6421,44.3229,31.7071Q44.2881,31.7721,44.2472,31.8334Q44.2063,31.8946,44.1595,31.9516Q44.1128,32.0086,44.0607,32.0607Q44.0086,32.1128,43.9516,32.1595Q43.8946,32.2063,43.8334,32.2472Q43.7721,32.2881,43.7071,32.322900000000004Q43.6421,32.357600000000005,43.574,32.3858Q43.5059,32.414,43.4354,32.4354Q43.3649,32.4568,43.2926,32.471199999999996Q43.2204,32.485600000000005,43.147,32.4928Q43.0737,32.5,43,32.5Q42.9263,32.5,42.853,32.4928Q42.7796,32.485600000000005,42.7074,32.471199999999996Q42.6351,32.4568,42.5646,32.4354Q42.4941,32.414,42.426,32.3858Q42.3579,32.357600000000005,42.2929,32.322900000000004Q42.2279,32.2881,42.1666,32.2472Q42.1054,32.2063,42.0484,32.1595Q41.9914,32.1128,41.9393,32.0607Q41.8872,32.0086,41.8405,31.9516Q41.7937,31.8946,41.7528,31.8334Q41.7119,31.7721,41.6771,31.7071Q41.6424,31.6421,41.6142,31.574Q41.586,31.5059,41.5646,31.4354Q41.5432,31.3649,41.5288,31.2926Q41.5144,31.2204,41.5072,31.147Q41.5,31.0737,41.5,31Q41.5,30.9263,41.5072,30.853Q41.5144,30.7796,41.5288,30.7074Q41.5432,30.6351,41.5646,30.5646Q41.586,30.4941,41.6142,30.426Q41.6424,30.3579,41.6771,30.2929Q41.7118,30.2279,41.7528,30.1666Q41.7937,30.1054,41.8405,30.0484Q41.8872,29.9914,41.9393,29.9393Q41.9914,29.8872,42.0484,29.8405Q42.1054,29.7937,42.1666,29.7528Q42.2279,29.7119,42.2929,29.6771Q42.3579,29.6424,42.426,29.6142Q42.4941,29.586,42.5646,29.5646Q42.6351,29.5432,42.7074,29.5288Q42.7796,29.5144,42.853,29.5072Q42.9263,29.5,43,29.5Q43.0737,29.5,43.147,29.5072Q43.2204,29.5144,43.2926,29.5288Q43.3649,29.5432,43.4354,29.5646Q43.5059,29.586,43.574,29.6142Q43.6421,29.6424,43.7071,29.6771Q43.7721,29.7119,43.8334,29.7528Q43.8946,29.7937,43.9516,29.8405Q44.0086,29.8872,44.0607,29.9393Q44.1128,29.9914,44.1595,30.0484Q44.2063,30.1054,44.2472,30.1666Q44.2881,30.2279,44.3229,30.2929Q44.3576,30.3579,44.3858,30.426Q44.414,30.4941,44.4354,30.5646Q44.4568,30.6351,44.4712,30.7074Q44.4855,30.7796,44.4928,30.853Q44.5,30.9263,44.5,31Z" fill="#409EFF" fill-opacity="1"/></g><g><path d="M26.1523,15.960277L21.15233,21.96028Q21.105159999999998,22.01689,21.05266,22.0686Q21.00016,22.12031,20.94285,22.166629999999998Q20.88554,22.21295,20.82396,22.25343Q20.76238,22.29391,20.69713,22.32816Q20.63189,22.36241,20.563589999999998,22.39009Q20.4953,22.41778,20.42463,22.43864Q20.35395,22.4595,20.281570000000002,22.47333Q20.20919,22.48717,20.1358,22.49384Q20.06242,22.50051,19.98873,22.49996Q19.91504,22.4994,19.84176,22.49163Q19.76848,22.48386,19.69632,22.46894Q19.62415,22.45402,19.5538,22.4321Q19.48344,22.41018,19.41558,22.38147Q19.34771,22.35276,19.282980000000002,22.317529999999998Q19.21826,22.28231,19.1573,22.24091Q19.096330000000002,22.19951,19.03972,22.15233Q18.93497,22.06503,18.84767,21.96028L13.84767,15.960277Q13.80049,15.903666,13.75909,15.842704Q13.71769,15.781743,13.68247,15.717016Q13.64724,15.65229,13.61853,15.584423Q13.58982,15.516556,13.5679,15.446202Q13.54598,15.375847,13.53106,15.303683Q13.51614,15.231519,13.50837,15.15824Q13.5006,15.0849605,13.50004,15.0112723Q13.49949,14.9375841,13.50616,14.864196Q13.51283,14.790809,13.52666,14.718428Q13.5405,14.646048,13.56136,14.575372Q13.58222,14.504696,13.60991,14.436405Q13.63759,14.368114,13.67184,14.302866Q13.70609,14.237618,13.74657,14.176041Q13.78705,14.114464,13.83337,14.057151Q13.87969,13.99984,13.9314,13.94734Q13.98311,13.89484,14.039723,13.84767Q14.096334,13.80049,14.157296,13.75909Q14.218257,13.71769,14.282984,13.68247Q14.34771,13.64724,14.415577,13.61853Q14.483444,13.58982,14.553798,13.5679Q14.624153,13.54598,14.696317,13.53106Q14.768481,13.51614,14.84176,13.50837Q14.9150395,13.5006,14.9887277,13.50004Q15.0624159,13.49949,15.135804,13.50616Q15.209191,13.51283,15.281572,13.52666Q15.353952,13.5405,15.424628,13.56136Q15.495304,13.58222,15.563595,13.60991Q15.631886,13.63759,15.697134,13.67184Q15.762382,13.70609,15.823959,13.74657Q15.885536,13.78705,15.942849,13.83337Q16.00016,13.87969,16.05266,13.9314Q16.10516,13.98311,16.15233,14.039723L21.15233,20.03972L20,21L18.84767,20.03972L23.84767,14.039723Q23.894840000000002,13.98311,23.94734,13.9314Q23.99984,13.87969,24.05715,13.83337Q24.11446,13.78705,24.17604,13.74657Q24.23762,13.70609,24.30287,13.67184Q24.36811,13.63759,24.436410000000002,13.60991Q24.5047,13.58222,24.57537,13.56136Q24.646050000000002,13.5405,24.718429999999998,13.52666Q24.79081,13.51283,24.8642,13.50616Q24.93758,13.49949,25.0113,13.50004Q25.085,13.5006,25.1582,13.50837Q25.2315,13.51614,25.3037,13.53106Q25.375799999999998,13.54598,25.446199999999997,13.5679Q25.5166,13.58982,25.584400000000002,13.61853Q25.6523,13.64724,25.717,13.68247Q25.7817,13.71769,25.8427,13.75909Q25.9037,13.80049,25.9603,13.84767Q26.0169,13.89484,26.0686,13.94734Q26.1203,13.99984,26.166600000000003,14.057151Q26.213,14.114464,26.2534,14.176041Q26.2939,14.237618,26.328200000000002,14.302866Q26.3624,14.368114,26.3901,14.436405Q26.4178,14.504696,26.4386,14.575372Q26.4595,14.646048,26.473300000000002,14.718428Q26.4872,14.790809,26.4938,14.864196Q26.500500000000002,14.9375841,26.5,15.0112722Q26.4994,15.0849604,26.4916,15.158239Q26.4839,15.231519,26.468899999999998,15.303683Q26.454,15.375847,26.4321,15.446202Q26.4102,15.516556,26.381500000000003,15.584423Q26.352800000000002,15.65229,26.317500000000003,15.717016Q26.2823,15.781743,26.2409,15.842704Q26.1995,15.903666,26.1523,15.960277ZM26.5,15Q26.5,15.0736903,26.492800000000003,15.147026Q26.485599999999998,15.220361,26.4712,15.292635Q26.4568,15.36491,26.4354,15.435427Q26.414,15.505944,26.3858,15.574025Q26.357599999999998,15.642106,26.3229,15.707095Q26.2881,15.772084,26.2472,15.833355Q26.2063,15.894627,26.1595,15.95159Q26.1128,16.00855,26.0607,16.06066Q26.0086,16.11277,25.9516,16.15952Q25.8946,16.20626,25.833399999999997,16.2472Q25.772100000000002,16.28814,25.7071,16.32288Q25.6421,16.35762,25.573999999999998,16.38582Q25.5059,16.41402,25.4354,16.43541Q25.3649,16.4568,25.2926,16.47118Q25.220399999999998,16.48555,25.147,16.49278Q25.073700000000002,16.5,25,16.5Q24.92631,16.5,24.85297,16.49278Q24.77964,16.48555,24.70736,16.47118Q24.635089999999998,16.4568,24.56457,16.43541Q24.49405,16.41402,24.42597,16.38582Q24.357889999999998,16.35762,24.2929,16.32288Q24.227919999999997,16.28814,24.16664,16.2472Q24.10537,16.20626,24.04841,16.15952Q23.99145,16.11277,23.93934,16.06066Q23.887230000000002,16.00855,23.84048,15.95159Q23.79373,15.894627,23.752789999999997,15.833355Q23.71185,15.772084,23.677120000000002,15.707095Q23.64238,15.642106,23.614179999999998,15.574025Q23.58598,15.505944,23.564590000000003,15.435427Q23.5432,15.36491,23.52882,15.292635Q23.51445,15.220361,23.50722,15.147026Q23.5,15.0736903,23.5,15Q23.5,14.9263097,23.50722,14.852974Q23.51445,14.779639,23.52882,14.707365Q23.5432,14.63509,23.564590000000003,14.564573Q23.58598,14.494056,23.614179999999998,14.425975Q23.64238,14.357894,23.677120000000002,14.292905Q23.71185,14.227916,23.752789999999997,14.166645Q23.79373,14.105373,23.84048,14.04841Q23.887230000000002,13.99145,23.93934,13.93934Q23.99145,13.88723,24.04841,13.84048Q24.10537,13.79374,24.16664,13.7528Q24.227919999999997,13.71186,24.2929,13.67712Q24.357889999999998,13.64238,24.42597,13.61418Q24.49405,13.58598,24.56457,13.564589999999999Q24.635089999999998,13.5432,24.70736,13.52882Q24.77964,13.51445,24.85297,13.50722Q24.92631,13.5,25,13.5Q25.073700000000002,13.5,25.147,13.50722Q25.220399999999998,13.51445,25.2926,13.52882Q25.3649,13.5432,25.4354,13.564589999999999Q25.5059,13.58598,25.573999999999998,13.61418Q25.6421,13.64238,25.7071,13.67712Q25.772100000000002,13.71186,25.833399999999997,13.7528Q25.8946,13.79374,25.9516,13.84048Q26.0086,13.88723,26.0607,13.93934Q26.1128,13.99145,26.1595,14.04841Q26.2063,14.105373,26.2472,14.166645Q26.2881,14.227916,26.3229,14.292905Q26.357599999999998,14.357894,26.3858,14.425975Q26.414,14.494056,26.4354,14.564573Q26.4568,14.63509,26.4712,14.707365Q26.485599999999998,14.779639,26.492800000000003,14.852974Q26.5,14.9263097,26.5,15ZM16.5,15Q16.5,15.0736903,16.49278,15.147026Q16.48555,15.220361,16.47118,15.292635Q16.4568,15.36491,16.43541,15.435427Q16.41402,15.505944,16.38582,15.574025Q16.35762,15.642106,16.32288,15.707095Q16.28814,15.772084,16.2472,15.833355Q16.20626,15.894627,16.15952,15.95159Q16.11277,16.00855,16.06066,16.06066Q16.00855,16.11277,15.95159,16.15952Q15.894627,16.20626,15.833355,16.2472Q15.772084,16.28814,15.707095,16.32288Q15.642106,16.35762,15.574025,16.38582Q15.505944,16.41402,15.435427,16.43541Q15.36491,16.4568,15.292635,16.47118Q15.220361,16.48555,15.147026,16.49278Q15.0736903,16.5,15,16.5Q14.9263097,16.5,14.852974,16.49278Q14.779639,16.48555,14.707365,16.47118Q14.63509,16.4568,14.564573,16.43541Q14.494056,16.41402,14.425975,16.38582Q14.357894,16.35762,14.292905,16.32288Q14.227916,16.28814,14.166645,16.2472Q14.105373,16.20626,14.04841,16.15952Q13.99145,16.11277,13.93934,16.06066Q13.88723,16.00855,13.84048,15.95159Q13.79374,15.894627,13.7528,15.833355Q13.71186,15.772084,13.67712,15.707095Q13.64238,15.642106,13.61418,15.574025Q13.58598,15.505944,13.564589999999999,15.435427Q13.5432,15.36491,13.52882,15.292635Q13.51445,15.220361,13.50722,15.147026Q13.5,15.0736903,13.5,15Q13.5,14.9263097,13.50722,14.852974Q13.51445,14.779639,13.52882,14.707365Q13.5432,14.63509,13.564589999999999,14.564573Q13.58598,14.494056,13.61418,14.425975Q13.64238,14.357894,13.67712,14.292905Q13.71186,14.227916,13.7528,14.166645Q13.79374,14.105373,13.84048,14.04841Q13.88723,13.99145,13.93934,13.93934Q13.99145,13.88723,14.04841,13.84048Q14.105373,13.79374,14.166645,13.7528Q14.227916,13.71186,14.292905,13.67712Q14.357894,13.64238,14.425975,13.61418Q14.494056,13.58598,14.564573,13.564589999999999Q14.63509,13.5432,14.707365,13.52882Q14.779639,13.51445,14.852974,13.50722Q14.9263097,13.5,15,13.5Q15.0736903,13.5,15.147026,13.50722Q15.220361,13.51445,15.292635,13.52882Q15.36491,13.5432,15.435427,13.564589999999999Q15.505944,13.58598,15.574025,13.61418Q15.642106,13.64238,15.707095,13.67712Q15.772084,13.71186,15.833355,13.7528Q15.894627,13.79374,15.95159,13.84048Q16.00855,13.88723,16.06066,13.93934Q16.11277,13.99145,16.15952,14.04841Q16.20626,14.105373,16.2472,14.166645Q16.28814,14.227916,16.32288,14.292905Q16.35762,14.357894,16.38582,14.425975Q16.41402,14.494056,16.43541,14.564573Q16.4568,14.63509,16.47118,14.707365Q16.48555,14.779639,16.49278,14.852974Q16.5,14.9263097,16.5,15Z" fill="#FFFFFF" fill-opacity="1"/></g><g><path d="M26,28.5L14,28.5Q13.9263097,28.5,13.852974,28.49278Q13.779639,28.48555,13.707365,28.47118Q13.63509,28.4568,13.564573,28.43541Q13.494056,28.41402,13.425975,28.38582Q13.357894,28.35762,13.292905,28.32288Q13.227916,28.28814,13.166645,28.2472Q13.105373,28.20626,13.04841,28.15952Q12.99145,28.11277,12.93934,28.06066Q12.88723,28.00855,12.84048,27.95159Q12.79374,27.894627,12.7528,27.833355Q12.71186,27.772084,12.67712,27.707095Q12.64238,27.642106,12.61418,27.574025Q12.58598,27.505944,12.564589999999999,27.435427Q12.5432,27.36491,12.52882,27.292635Q12.51445,27.220361,12.50722,27.147026Q12.5,27.0736903,12.5,27Q12.5,26.9263097,12.50722,26.852974Q12.51445,26.779639,12.52882,26.707365Q12.5432,26.63509,12.564589999999999,26.564573Q12.58598,26.494056,12.61418,26.425975Q12.64238,26.357894,12.67712,26.292905Q12.71186,26.227916,12.7528,26.166645Q12.79374,26.105373,12.84048,26.04841Q12.88723,25.99145,12.93934,25.93934Q12.99145,25.88723,13.04841,25.84048Q13.105373,25.79374,13.166645,25.7528Q13.227916,25.71186,13.292905,25.67712Q13.357894,25.64238,13.425975,25.61418Q13.494056,25.58598,13.564573,25.56459Q13.63509,25.5432,13.707365,25.52882Q13.779639,25.51445,13.852974,25.50722Q13.9263097,25.5,14,25.5L26,25.5Q26.073700000000002,25.5,26.147,25.50722Q26.220399999999998,25.51445,26.2926,25.52882Q26.3649,25.5432,26.4354,25.56459Q26.5059,25.58598,26.573999999999998,25.61418Q26.6421,25.64238,26.7071,25.67712Q26.772100000000002,25.71186,26.833399999999997,25.7528Q26.8946,25.79374,26.9516,25.84048Q27.0086,25.88723,27.0607,25.93934Q27.1128,25.99145,27.1595,26.04841Q27.2063,26.105373,27.2472,26.166645Q27.2881,26.227916,27.3229,26.292905Q27.357599999999998,26.357894,27.3858,26.425975Q27.414,26.494056,27.4354,26.564573Q27.4568,26.63509,27.4712,26.707365Q27.485599999999998,26.779639,27.492800000000003,26.852974Q27.5,26.9263097,27.5,27Q27.5,27.0736903,27.492800000000003,27.147026Q27.485599999999998,27.220361,27.4712,27.292635Q27.4568,27.36491,27.4354,27.435427Q27.414,27.505944,27.3858,27.574025Q27.357599999999998,27.642106,27.3229,27.707095Q27.2881,27.772084,27.2472,27.833355Q27.2063,27.894627,27.1595,27.95159Q27.1128,28.00855,27.0607,28.06066Q27.0086,28.11277,26.9516,28.15952Q26.8946,28.20626,26.833399999999997,28.2472Q26.772100000000002,28.28814,26.7071,28.32288Q26.6421,28.35762,26.573999999999998,28.38582Q26.5059,28.41402,26.4354,28.43541Q26.3649,28.4568,26.2926,28.47118Q26.220399999999998,28.48555,26.147,28.49278Q26.073700000000002,28.5,26,28.5ZM27.5,27Q27.5,27.0736903,27.492800000000003,27.147026Q27.485599999999998,27.220361,27.4712,27.292635Q27.4568,27.36491,27.4354,27.435427Q27.414,27.505944,27.3858,27.574025Q27.357599999999998,27.642106,27.3229,27.707095Q27.2881,27.772084,27.2472,27.833355Q27.2063,27.894627,27.1595,27.95159Q27.1128,28.00855,27.0607,28.06066Q27.0086,28.11277,26.9516,28.15952Q26.8946,28.20626,26.833399999999997,28.2472Q26.772100000000002,28.28814,26.7071,28.32288Q26.6421,28.35762,26.573999999999998,28.38582Q26.5059,28.41402,26.4354,28.43541Q26.3649,28.4568,26.2926,28.47118Q26.220399999999998,28.48555,26.147,28.49278Q26.073700000000002,28.5,26,28.5Q25.926299999999998,28.5,25.853,28.49278Q25.779600000000002,28.48555,25.7074,28.47118Q25.6351,28.4568,25.5646,28.43541Q25.4941,28.41402,25.426000000000002,28.38582Q25.3579,28.35762,25.2929,28.32288Q25.227899999999998,28.28814,25.166600000000003,28.2472Q25.1054,28.20626,25.0484,28.15952Q24.9914,28.11277,24.9393,28.06066Q24.8872,28.00855,24.8405,27.95159Q24.7937,27.894627,24.7528,27.833355Q24.7119,27.772084,24.6771,27.707095Q24.642400000000002,27.642106,24.6142,27.574025Q24.586,27.505944,24.5646,27.435427Q24.5432,27.36491,24.5288,27.292635Q24.514400000000002,27.220361,24.507199999999997,27.147026Q24.5,27.0736903,24.5,27Q24.5,26.9263097,24.507199999999997,26.852974Q24.514400000000002,26.779639,24.5288,26.707365Q24.5432,26.63509,24.5646,26.564573Q24.586,26.494056,24.6142,26.425975Q24.642400000000002,26.357894,24.6771,26.292905Q24.7119,26.227916,24.7528,26.166645Q24.7937,26.105373,24.8405,26.04841Q24.8872,25.99145,24.9393,25.93934Q24.9914,25.88723,25.0484,25.84048Q25.1054,25.79374,25.166600000000003,25.7528Q25.227899999999998,25.71186,25.2929,25.67712Q25.3579,25.64238,25.426000000000002,25.61418Q25.4941,25.58598,25.5646,25.56459Q25.6351,25.5432,25.7074,25.52882Q25.779600000000002,25.51445,25.853,25.50722Q25.926299999999998,25.5,26,25.5Q26.073700000000002,25.5,26.147,25.50722Q26.220399999999998,25.51445,26.2926,25.52882Q26.3649,25.5432,26.4354,25.56459Q26.5059,25.58598,26.573999999999998,25.61418Q26.6421,25.64238,26.7071,25.67712Q26.772100000000002,25.71186,26.833399999999997,25.7528Q26.8946,25.79374,26.9516,25.84048Q27.0086,25.88723,27.0607,25.93934Q27.1128,25.99145,27.1595,26.04841Q27.2063,26.105373,27.2472,26.166645Q27.2881,26.227916,27.3229,26.292905Q27.357599999999998,26.357894,27.3858,26.425975Q27.414,26.494056,27.4354,26.564573Q27.4568,26.63509,27.4712,26.707365Q27.485599999999998,26.779639,27.492800000000003,26.852974Q27.5,26.9263097,27.5,27ZM15.5,27Q15.5,27.0736903,15.49278,27.147026Q15.48555,27.220361,15.47118,27.292635Q15.4568,27.36491,15.435410000000001,27.435427Q15.41402,27.505944,15.38582,27.574025Q15.35762,27.642106,15.32288,27.707095Q15.28814,27.772084,15.2472,27.833355Q15.20626,27.894627,15.15952,27.95159Q15.11277,28.00855,15.06066,28.06066Q15.00855,28.11277,14.95159,28.15952Q14.894627,28.20626,14.833355,28.2472Q14.772084,28.28814,14.707095,28.32288Q14.642106,28.35762,14.574025,28.38582Q14.505944,28.41402,14.435427,28.43541Q14.36491,28.4568,14.292635,28.47118Q14.220361,28.48555,14.147026,28.49278Q14.0736903,28.5,14,28.5Q13.9263097,28.5,13.852974,28.49278Q13.779639,28.48555,13.707365,28.47118Q13.63509,28.4568,13.564573,28.43541Q13.494056,28.41402,13.425975,28.38582Q13.357894,28.35762,13.292905,28.32288Q13.227916,28.28814,13.166645,28.2472Q13.105373,28.20626,13.04841,28.15952Q12.99145,28.11277,12.93934,28.06066Q12.88723,28.00855,12.84048,27.95159Q12.79374,27.894627,12.7528,27.833355Q12.71186,27.772084,12.67712,27.707095Q12.64238,27.642106,12.61418,27.574025Q12.58598,27.505944,12.564589999999999,27.435427Q12.5432,27.36491,12.52882,27.292635Q12.51445,27.220361,12.50722,27.147026Q12.5,27.0736903,12.5,27Q12.5,26.9263097,12.50722,26.852974Q12.51445,26.779639,12.52882,26.707365Q12.5432,26.63509,12.564589999999999,26.564573Q12.58598,26.494056,12.61418,26.425975Q12.64238,26.357894,12.67712,26.292905Q12.71186,26.227916,12.7528,26.166645Q12.79374,26.105373,12.84048,26.04841Q12.88723,25.99145,12.93934,25.93934Q12.99145,25.88723,13.04841,25.84048Q13.105373,25.79374,13.166645,25.7528Q13.227916,25.71186,13.292905,25.67712Q13.357894,25.64238,13.425975,25.61418Q13.494056,25.58598,13.564573,25.56459Q13.63509,25.5432,13.707365,25.52882Q13.779639,25.51445,13.852974,25.50722Q13.9263097,25.5,14,25.5Q14.0736903,25.5,14.147026,25.50722Q14.220361,25.51445,14.292635,25.52882Q14.36491,25.5432,14.435427,25.56459Q14.505944,25.58598,14.574025,25.61418Q14.642106,25.64238,14.707095,25.67712Q14.772084,25.71186,14.833355,25.7528Q14.894627,25.79374,14.95159,25.84048Q15.00855,25.88723,15.06066,25.93934Q15.11277,25.99145,15.15952,26.04841Q15.20626,26.105373,15.2472,26.166645Q15.28814,26.227916,15.32288,26.292905Q15.35762,26.357894,15.38582,26.425975Q15.41402,26.494056,15.435410000000001,26.564573Q15.4568,26.63509,15.47118,26.707365Q15.48555,26.779639,15.49278,26.852974Q15.5,26.9263097,15.5,27Z" fill="#FFFFFF" fill-opacity="1"/></g><g><path d="M26,22.5L14,22.5Q13.9263097,22.5,13.852974,22.49278Q13.779639,22.48555,13.707365,22.47118Q13.63509,22.4568,13.564573,22.43541Q13.494056,22.41402,13.425975,22.38582Q13.357894,22.35762,13.292905,22.32288Q13.227916,22.28814,13.166645,22.2472Q13.105373,22.20626,13.04841,22.15952Q12.99145,22.11277,12.93934,22.06066Q12.88723,22.00855,12.84048,21.95159Q12.79374,21.894627,12.7528,21.833355Q12.71186,21.772084,12.67712,21.707095Q12.64238,21.642106,12.61418,21.574025Q12.58598,21.505944,12.564589999999999,21.435427Q12.5432,21.36491,12.52882,21.292635Q12.51445,21.220361,12.50722,21.147026Q12.5,21.0736903,12.5,21Q12.5,20.9263097,12.50722,20.852974Q12.51445,20.779639,12.52882,20.707365Q12.5432,20.63509,12.564589999999999,20.564573Q12.58598,20.494056,12.61418,20.425975Q12.64238,20.357894,12.67712,20.292905Q12.71186,20.227916,12.7528,20.166645Q12.79374,20.105373,12.84048,20.04841Q12.88723,19.99145,12.93934,19.93934Q12.99145,19.88723,13.04841,19.84048Q13.105373,19.79374,13.166645,19.7528Q13.227916,19.71186,13.292905,19.67712Q13.357894,19.64238,13.425975,19.61418Q13.494056,19.58598,13.564573,19.56459Q13.63509,19.5432,13.707365,19.52882Q13.779639,19.51445,13.852974,19.50722Q13.9263097,19.5,14,19.5L26,19.5Q26.073700000000002,19.5,26.147,19.50722Q26.220399999999998,19.51445,26.2926,19.52882Q26.3649,19.5432,26.4354,19.56459Q26.5059,19.58598,26.573999999999998,19.61418Q26.6421,19.64238,26.7071,19.67712Q26.772100000000002,19.71186,26.833399999999997,19.7528Q26.8946,19.79374,26.9516,19.84048Q27.0086,19.88723,27.0607,19.93934Q27.1128,19.99145,27.1595,20.04841Q27.2063,20.105373,27.2472,20.166645Q27.2881,20.227916,27.3229,20.292905Q27.357599999999998,20.357894,27.3858,20.425975Q27.414,20.494056,27.4354,20.564573Q27.4568,20.63509,27.4712,20.707365Q27.485599999999998,20.779639,27.492800000000003,20.852974Q27.5,20.9263097,27.5,21Q27.5,21.0736903,27.492800000000003,21.147026Q27.485599999999998,21.220361,27.4712,21.292635Q27.4568,21.36491,27.4354,21.435427Q27.414,21.505944,27.3858,21.574025Q27.357599999999998,21.642106,27.3229,21.707095Q27.2881,21.772084,27.2472,21.833355Q27.2063,21.894627,27.1595,21.95159Q27.1128,22.00855,27.0607,22.06066Q27.0086,22.11277,26.9516,22.15952Q26.8946,22.20626,26.833399999999997,22.2472Q26.772100000000002,22.28814,26.7071,22.32288Q26.6421,22.35762,26.573999999999998,22.38582Q26.5059,22.41402,26.4354,22.43541Q26.3649,22.4568,26.2926,22.47118Q26.220399999999998,22.48555,26.147,22.49278Q26.073700000000002,22.5,26,22.5ZM27.5,21Q27.5,21.0736903,27.492800000000003,21.147026Q27.485599999999998,21.220361,27.4712,21.292635Q27.4568,21.36491,27.4354,21.435427Q27.414,21.505944,27.3858,21.574025Q27.357599999999998,21.642106,27.3229,21.707095Q27.2881,21.772084,27.2472,21.833355Q27.2063,21.894627,27.1595,21.95159Q27.1128,22.00855,27.0607,22.06066Q27.0086,22.11277,26.9516,22.15952Q26.8946,22.20626,26.833399999999997,22.2472Q26.772100000000002,22.28814,26.7071,22.32288Q26.6421,22.35762,26.573999999999998,22.38582Q26.5059,22.41402,26.4354,22.43541Q26.3649,22.4568,26.2926,22.47118Q26.220399999999998,22.48555,26.147,22.49278Q26.073700000000002,22.5,26,22.5Q25.926299999999998,22.5,25.853,22.49278Q25.779600000000002,22.48555,25.7074,22.47118Q25.6351,22.4568,25.5646,22.43541Q25.4941,22.41402,25.426000000000002,22.38582Q25.3579,22.35762,25.2929,22.32288Q25.227899999999998,22.28814,25.166600000000003,22.2472Q25.1054,22.20626,25.0484,22.15952Q24.9914,22.11277,24.9393,22.06066Q24.8872,22.00855,24.8405,21.95159Q24.7937,21.894627,24.7528,21.833355Q24.7119,21.772084,24.6771,21.707095Q24.642400000000002,21.642106,24.6142,21.574025Q24.586,21.505944,24.5646,21.435427Q24.5432,21.36491,24.5288,21.292635Q24.514400000000002,21.220361,24.507199999999997,21.147026Q24.5,21.0736903,24.5,21Q24.5,20.9263097,24.507199999999997,20.852974Q24.514400000000002,20.779639,24.5288,20.707365Q24.5432,20.63509,24.5646,20.564573Q24.586,20.494056,24.6142,20.425975Q24.642400000000002,20.357894,24.6771,20.292905Q24.7119,20.227916,24.7528,20.166645Q24.7937,20.105373,24.8405,20.04841Q24.8872,19.99145,24.9393,19.93934Q24.9914,19.88723,25.0484,19.84048Q25.1054,19.79374,25.166600000000003,19.7528Q25.227899999999998,19.71186,25.2929,19.67712Q25.3579,19.64238,25.426000000000002,19.61418Q25.4941,19.58598,25.5646,19.56459Q25.6351,19.5432,25.7074,19.52882Q25.779600000000002,19.51445,25.853,19.50722Q25.926299999999998,19.5,26,19.5Q26.073700000000002,19.5,26.147,19.50722Q26.220399999999998,19.51445,26.2926,19.52882Q26.3649,19.5432,26.4354,19.56459Q26.5059,19.58598,26.573999999999998,19.61418Q26.6421,19.64238,26.7071,19.67712Q26.772100000000002,19.71186,26.833399999999997,19.7528Q26.8946,19.79374,26.9516,19.84048Q27.0086,19.88723,27.0607,19.93934Q27.1128,19.99145,27.1595,20.04841Q27.2063,20.105373,27.2472,20.166645Q27.2881,20.227916,27.3229,20.292905Q27.357599999999998,20.357894,27.3858,20.425975Q27.414,20.494056,27.4354,20.564573Q27.4568,20.63509,27.4712,20.707365Q27.485599999999998,20.779639,27.492800000000003,20.852974Q27.5,20.9263097,27.5,21ZM15.5,21Q15.5,21.0736903,15.49278,21.147026Q15.48555,21.220361,15.47118,21.292635Q15.4568,21.36491,15.435410000000001,21.435427Q15.41402,21.505944,15.38582,21.574025Q15.35762,21.642106,15.32288,21.707095Q15.28814,21.772084,15.2472,21.833355Q15.20626,21.894627,15.15952,21.95159Q15.11277,22.00855,15.06066,22.06066Q15.00855,22.11277,14.95159,22.15952Q14.894627,22.20626,14.833355,22.2472Q14.772084,22.28814,14.707095,22.32288Q14.642106,22.35762,14.574025,22.38582Q14.505944,22.41402,14.435427,22.43541Q14.36491,22.4568,14.292635,22.47118Q14.220361,22.48555,14.147026,22.49278Q14.0736903,22.5,14,22.5Q13.9263097,22.5,13.852974,22.49278Q13.779639,22.48555,13.707365,22.47118Q13.63509,22.4568,13.564573,22.43541Q13.494056,22.41402,13.425975,22.38582Q13.357894,22.35762,13.292905,22.32288Q13.227916,22.28814,13.166645,22.2472Q13.105373,22.20626,13.04841,22.15952Q12.99145,22.11277,12.93934,22.06066Q12.88723,22.00855,12.84048,21.95159Q12.79374,21.894627,12.7528,21.833355Q12.71186,21.772084,12.67712,21.707095Q12.64238,21.642106,12.61418,21.574025Q12.58598,21.505944,12.564589999999999,21.435427Q12.5432,21.36491,12.52882,21.292635Q12.51445,21.220361,12.50722,21.147026Q12.5,21.0736903,12.5,21Q12.5,20.9263097,12.50722,20.852974Q12.51445,20.779639,12.52882,20.707365Q12.5432,20.63509,12.564589999999999,20.564573Q12.58598,20.494056,12.61418,20.425975Q12.64238,20.357894,12.67712,20.292905Q12.71186,20.227916,12.7528,20.166645Q12.79374,20.105373,12.84048,20.04841Q12.88723,19.99145,12.93934,19.93934Q12.99145,19.88723,13.04841,19.84048Q13.105373,19.79374,13.166645,19.7528Q13.227916,19.71186,13.292905,19.67712Q13.357894,19.64238,13.425975,19.61418Q13.494056,19.58598,13.564573,19.56459Q13.63509,19.5432,13.707365,19.52882Q13.779639,19.51445,13.852974,19.50722Q13.9263097,19.5,14,19.5Q14.0736903,19.5,14.147026,19.50722Q14.220361,19.51445,14.292635,19.52882Q14.36491,19.5432,14.435427,19.56459Q14.505944,19.58598,14.574025,19.61418Q14.642106,19.64238,14.707095,19.67712Q14.772084,19.71186,14.833355,19.7528Q14.894627,19.79374,14.95159,19.84048Q15.00855,19.88723,15.06066,19.93934Q15.11277,19.99145,15.15952,20.04841Q15.20626,20.105373,15.2472,20.166645Q15.28814,20.227916,15.32288,20.292905Q15.35762,20.357894,15.38582,20.425975Q15.41402,20.494056,15.435410000000001,20.564573Q15.4568,20.63509,15.47118,20.707365Q15.48555,20.779639,15.49278,20.852974Q15.5,20.9263097,15.5,21Z" fill="#FFFFFF" fill-opacity="1"/></g><g><path d="M18.5,33L18.5,21Q18.5,20.9263097,18.50722,20.852974Q18.51445,20.779639,18.52882,20.707365Q18.5432,20.63509,18.56459,20.564573Q18.58598,20.494056,18.61418,20.425975Q18.64238,20.357894,18.67712,20.292905Q18.71186,20.227916,18.7528,20.166645Q18.79374,20.105373,18.84048,20.04841Q18.88723,19.99145,18.93934,19.93934Q18.99145,19.88723,19.04841,19.84048Q19.105373,19.79374,19.166645,19.7528Q19.227916,19.71186,19.292905,19.67712Q19.357894,19.64238,19.425975,19.61418Q19.494056,19.58598,19.564573,19.56459Q19.63509,19.5432,19.707365,19.52882Q19.779639,19.51445,19.852974,19.50722Q19.9263097,19.5,20,19.5Q20.0736903,19.5,20.147026,19.50722Q20.220361,19.51445,20.292635,19.52882Q20.36491,19.5432,20.435427,19.56459Q20.505944,19.58598,20.574025,19.61418Q20.642106,19.64238,20.707095,19.67712Q20.772084,19.71186,20.833355,19.7528Q20.894627,19.79374,20.95159,19.84048Q21.00855,19.88723,21.06066,19.93934Q21.11277,19.99145,21.15952,20.04841Q21.20626,20.105373,21.2472,20.166645Q21.28814,20.227916,21.32288,20.292905Q21.35762,20.357894,21.38582,20.425975Q21.41402,20.494056,21.43541,20.564573Q21.4568,20.63509,21.47118,20.707365Q21.48555,20.779639,21.49278,20.852974Q21.5,20.9263097,21.5,21L21.5,33Q21.5,33.0737,21.49278,33.147Q21.48555,33.2204,21.47118,33.2926Q21.4568,33.3649,21.43541,33.4354Q21.41402,33.5059,21.38582,33.574Q21.35762,33.6421,21.32288,33.7071Q21.28814,33.7721,21.2472,33.8334Q21.20626,33.8946,21.15952,33.9516Q21.11277,34.0086,21.06066,34.0607Q21.00855,34.1128,20.95159,34.1595Q20.894627,34.2063,20.833355,34.2472Q20.772084,34.2881,20.707095,34.322900000000004Q20.642106,34.3576,20.574025,34.3858Q20.505944,34.414,20.435427,34.4354Q20.36491,34.4568,20.292635,34.471199999999996Q20.220361,34.4856,20.147026,34.4928Q20.0736903,34.5,20,34.5Q19.9263097,34.5,19.852974,34.4928Q19.779639,34.4856,19.707365,34.471199999999996Q19.63509,34.4568,19.564573,34.4354Q19.494056,34.414,19.425975,34.3858Q19.357894,34.3576,19.292905,34.322900000000004Q19.227916,34.2881,19.166645,34.2472Q19.105373,34.2063,19.04841,34.1595Q18.99145,34.1128,18.93934,34.0607Q18.88723,34.0086,18.84048,33.9516Q18.79374,33.8946,18.7528,33.8334Q18.71186,33.7721,18.67712,33.7071Q18.64238,33.6421,18.61418,33.574Q18.58598,33.5059,18.56459,33.4354Q18.5432,33.3649,18.52882,33.2926Q18.51445,33.2204,18.50722,33.147Q18.5,33.0737,18.5,33ZM21.5,33Q21.5,33.0737,21.49278,33.147Q21.48555,33.2204,21.47118,33.2926Q21.4568,33.3649,21.43541,33.4354Q21.41402,33.5059,21.38582,33.574Q21.35762,33.6421,21.32288,33.7071Q21.28814,33.7721,21.2472,33.8334Q21.20626,33.8946,21.15952,33.9516Q21.11277,34.0086,21.06066,34.0607Q21.00855,34.1128,20.95159,34.1595Q20.894627,34.2063,20.833355,34.2472Q20.772084,34.2881,20.707095,34.322900000000004Q20.642106,34.3576,20.574025,34.3858Q20.505944,34.414,20.435427,34.4354Q20.36491,34.4568,20.292635,34.471199999999996Q20.220361,34.4856,20.147026,34.4928Q20.0736903,34.5,20,34.5Q19.9263097,34.5,19.852974,34.4928Q19.779639,34.4856,19.707365,34.471199999999996Q19.63509,34.4568,19.564573,34.4354Q19.494056,34.414,19.425975,34.3858Q19.357894,34.3576,19.292905,34.322900000000004Q19.227916,34.2881,19.166645,34.2472Q19.105373,34.2063,19.04841,34.1595Q18.99145,34.1128,18.93934,34.0607Q18.88723,34.0086,18.84048,33.9516Q18.79374,33.8946,18.7528,33.8334Q18.71186,33.7721,18.67712,33.7071Q18.64238,33.6421,18.61418,33.574Q18.58598,33.5059,18.56459,33.4354Q18.5432,33.3649,18.52882,33.2926Q18.51445,33.2204,18.50722,33.147Q18.5,33.0737,18.5,33Q18.5,32.9263,18.50722,32.853Q18.51445,32.7796,18.52882,32.7074Q18.5432,32.6351,18.56459,32.5646Q18.58598,32.4941,18.61418,32.426Q18.64238,32.3579,18.67712,32.2929Q18.71186,32.2279,18.7528,32.1666Q18.79374,32.1054,18.84048,32.0484Q18.88723,31.9914,18.93934,31.9393Q18.99145,31.8872,19.04841,31.8405Q19.105373,31.7937,19.166645,31.7528Q19.227916,31.7119,19.292905,31.6771Q19.357894,31.642400000000002,19.425975,31.6142Q19.494056,31.586,19.564573,31.5646Q19.63509,31.5432,19.707365,31.5288Q19.779639,31.514400000000002,19.852974,31.507199999999997Q19.9263097,31.5,20,31.5Q20.0736903,31.5,20.147026,31.507199999999997Q20.220361,31.514400000000002,20.292635,31.5288Q20.36491,31.5432,20.435427,31.5646Q20.505944,31.586,20.574025,31.6142Q20.642106,31.642400000000002,20.707095,31.6771Q20.772084,31.7119,20.833355,31.7528Q20.894627,31.7937,20.95159,31.8405Q21.00855,31.8872,21.06066,31.9393Q21.11277,31.9914,21.15952,32.0484Q21.20626,32.1054,21.2472,32.1666Q21.28814,32.2279,21.32288,32.2929Q21.35762,32.3579,21.38582,32.426Q21.41402,32.4941,21.43541,32.5646Q21.4568,32.6351,21.47118,32.7074Q21.48555,32.7796,21.49278,32.853Q21.5,32.9263,21.5,33ZM21.5,21Q21.5,21.0736903,21.49278,21.147026Q21.48555,21.220361,21.47118,21.292635Q21.4568,21.36491,21.43541,21.435427Q21.41402,21.505944,21.38582,21.574025Q21.35762,21.642106,21.32288,21.707095Q21.28814,21.772084,21.2472,21.833355Q21.20626,21.894627,21.15952,21.95159Q21.11277,22.00855,21.06066,22.06066Q21.00855,22.11277,20.95159,22.15952Q20.894627,22.20626,20.833355,22.2472Q20.772084,22.28814,20.707095,22.32288Q20.642106,22.35762,20.574025,22.38582Q20.505944,22.41402,20.435427,22.43541Q20.36491,22.4568,20.292635,22.47118Q20.220361,22.48555,20.147026,22.49278Q20.0736903,22.5,20,22.5Q19.9263097,22.5,19.852974,22.49278Q19.779639,22.48555,19.707365,22.47118Q19.63509,22.4568,19.564573,22.43541Q19.494056,22.41402,19.425975,22.38582Q19.357894,22.35762,19.292905,22.32288Q19.227916,22.28814,19.166645,22.2472Q19.105373,22.20626,19.04841,22.15952Q18.99145,22.11277,18.93934,22.06066Q18.88723,22.00855,18.84048,21.95159Q18.79374,21.894627,18.7528,21.833355Q18.71186,21.772084,18.67712,21.707095Q18.64238,21.642106,18.61418,21.574025Q18.58598,21.505944,18.56459,21.435427Q18.5432,21.36491,18.52882,21.292635Q18.51445,21.220361,18.50722,21.147026Q18.5,21.0736903,18.5,21Q18.5,20.9263097,18.50722,20.852974Q18.51445,20.779639,18.52882,20.707365Q18.5432,20.63509,18.56459,20.564573Q18.58598,20.494056,18.61418,20.425975Q18.64238,20.357894,18.67712,20.292905Q18.71186,20.227916,18.7528,20.166645Q18.79374,20.105373,18.84048,20.04841Q18.88723,19.99145,18.93934,19.93934Q18.99145,19.88723,19.04841,19.84048Q19.105373,19.79374,19.166645,19.7528Q19.227916,19.71186,19.292905,19.67712Q19.357894,19.64238,19.425975,19.61418Q19.494056,19.58598,19.564573,19.56459Q19.63509,19.5432,19.707365,19.52882Q19.779639,19.51445,19.852974,19.50722Q19.9263097,19.5,20,19.5Q20.0736903,19.5,20.147026,19.50722Q20.220361,19.51445,20.292635,19.52882Q20.36491,19.5432,20.435427,19.56459Q20.505944,19.58598,20.574025,19.61418Q20.642106,19.64238,20.707095,19.67712Q20.772084,19.71186,20.833355,19.7528Q20.894627,19.79374,20.95159,19.84048Q21.00855,19.88723,21.06066,19.93934Q21.11277,19.99145,21.15952,20.04841Q21.20626,20.105373,21.2472,20.166645Q21.28814,20.227916,21.32288,20.292905Q21.35762,20.357894,21.38582,20.425975Q21.41402,20.494056,21.43541,20.564573Q21.4568,20.63509,21.47118,20.707365Q21.48555,20.779639,21.49278,20.852974Q21.5,20.9263097,21.5,21Z" fill="#FFFFFF" fill-opacity="1"/></g><g style="mix-blend-mode:passthrough"><ellipse cx="37" cy="35" rx="10" ry="10" fill="#E6F3FF" fill-opacity="1"/></g><g style="mix-blend-mode:passthrough"><ellipse cx="37" cy="35" rx="7" ry="7" fill="#409EFF" fill-opacity="1"/></g><g><path d="M37.06094,30.93938L40.0607,33.93938Q40.112809999999996,33.99149,40.15955,34.04845Q40.2063,34.10542,40.24723,34.16669Q40.28817,34.22796,40.3229,34.29295Q40.35764,34.35794,40.38584,34.42602Q40.41403,34.4941,40.43542,34.56461Q40.45681,34.635130000000004,40.471180000000004,34.7074Q40.48556,34.77967,40.492779999999996,34.85301Q40.5,34.92634,40.5,35.00003Q40.5,35.07372,40.49277,35.14705Q40.48555,35.22039,40.47117,35.29266Q40.4568,35.36493,40.4354,35.43545Q40.41401,35.50596,40.38581,35.57404Q40.35761,35.64212,40.32288,35.70711Q40.28814,35.77209,40.2472,35.83336Q40.20626,35.89463,40.15951,35.95159Q40.11277,36.00855,40.06066,36.06066L37.06066,39.06066Q37.00855,39.11277,36.95159,39.15952Q36.894627,39.20626,36.833355,39.2472Q36.772084,39.28814,36.707095,39.32288Q36.642106,39.35762,36.574025,39.38582Q36.505944,39.41402,36.435427,39.43541Q36.36491,39.4568,36.292635,39.471180000000004Q36.220361,39.48555,36.147026,39.492779999999996Q36.0736903,39.5,36,39.5Q35.9263097,39.5,35.852974,39.492779999999996Q35.779639,39.48555,35.707365,39.471180000000004Q35.63509,39.4568,35.564573,39.43541Q35.494056,39.41402,35.425975,39.38582Q35.357894,39.35762,35.292905,39.32288Q35.227916,39.28814,35.166645,39.2472Q35.105373,39.20626,35.04841,39.15952Q34.99145,39.11277,34.93934,39.06066Q34.88723,39.00855,34.84048,38.95159Q34.79374,38.89463,34.7528,38.83335Q34.71186,38.77208,34.67712,38.70709Q34.64238,38.64211,34.61418,38.57402Q34.58598,38.50594,34.56459,38.43543Q34.5432,38.36491,34.52882,38.29263Q34.51445,38.22036,34.50722,38.14703Q34.5,38.07369,34.5,38Q34.5,37.92631,34.50722,37.85297Q34.51445,37.77964,34.52882,37.70736Q34.5432,37.63509,34.56459,37.56457Q34.58598,37.49406,34.61418,37.42597Q34.64238,37.35789,34.67712,37.2929Q34.71186,37.22792,34.7528,37.16664Q34.79374,37.10537,34.84048,37.04841Q34.88723,36.99145,34.93934,36.93934L37.93934,33.93934L39,35L37.9393,36.06062L34.93954,33.06062Q34.88743,33.00851,34.84069,32.951544Q34.79394,32.894578,34.753,32.833305Q34.71206,32.772032,34.67733,32.707042Q34.6426,32.642052,34.6144,32.57397Q34.5862,32.505888,34.56481,32.43537Q34.54342,32.364852,34.52905,32.292577Q34.51468,32.220302,34.50746,32.146966Q34.50024,32.0736302,34.50024,31.9999399801Q34.50024,31.9262497,34.50747,31.852915Q34.5147,31.779579,34.52907,31.707306Q34.54345,31.635032,34.56485,31.564516Q34.586240000000004,31.493999,34.61444,31.42592Q34.64265,31.35784,34.67739,31.292852Q34.71213,31.227864,34.75307,31.166595Q34.79401,31.105325,34.84076,31.048364Q34.88751,30.9914,34.93962,30.9393Q34.99173,30.88719,35.048697,30.84045Q35.105662,30.7937,35.166935,30.75276Q35.228208,30.71182,35.293198,30.67709Q35.358189,30.64236,35.426271,30.61416Q35.494353,30.58596,35.564871,30.56457Q35.635389,30.54318,35.707664,30.52881Q35.779939,30.51444,35.853274,30.50722Q35.9266101,30.5,36.000300344,30.5Q36.0739906,30.5,36.147326,30.50723Q36.220661,30.51445,36.292935,30.52883Q36.365208,30.54321,36.435725,30.564610000000002Q36.506241,30.586,36.574321,30.6142Q36.642401,30.642409999999998,36.707388,30.67715Q36.772376,30.71189,36.833646,30.75283Q36.894915,30.79377,36.951877,30.84052Q37.00884,30.88727,37.06094,30.93938ZM37.50024,32Q37.50024,32.0736903,37.49302,32.147026Q37.48579,32.220361,37.47142,32.292635Q37.45704,32.36491,37.43565,32.435427Q37.41426,32.505944,37.38606,32.574025Q37.35786,32.642106,37.32312,32.707095Q37.288380000000004,32.772084,37.24744,32.833355Q37.2065,32.894627,37.15976,32.95159Q37.11301,33.00855,37.0609,33.06066Q37.00879,33.11277,36.95183,33.15952Q36.894867,33.20626,36.833596,33.2472Q36.772324,33.28814,36.707335,33.32288Q36.642346,33.35762,36.574265,33.38582Q36.506185,33.41402,36.435667,33.43541Q36.36515,33.4568,36.292876,33.47118Q36.220601,33.48555,36.147266,33.49278Q36.0739306,33.5,36.000240326,33.5Q35.92655,33.5,35.853215,33.49278Q35.779879,33.48555,35.707605,33.47118Q35.635331,33.4568,35.564813,33.43541Q35.494296,33.41402,35.426215,33.38582Q35.358134,33.35762,35.293145,33.32288Q35.228156,33.28814,35.166885,33.2472Q35.105614,33.20626,35.04865,33.15952Q34.99169,33.11277,34.93958,33.06066Q34.88747,33.00855,34.84072,32.95159Q34.79398,32.894627,34.75304,32.833355Q34.7121,32.772084,34.67736,32.707095Q34.64262,32.642106,34.61442,32.574025Q34.58622,32.505944,34.56483,32.435427Q34.54344,32.36491,34.52906,32.292635Q34.51469,32.220361,34.50746,32.147026Q34.50024,32.0736903,34.50024,32Q34.50024,31.9263097,34.50746,31.852974Q34.51469,31.779639,34.52906,31.707365Q34.54344,31.63509,34.56483,31.564573Q34.58622,31.494056,34.61442,31.425975Q34.64262,31.357894,34.67736,31.292905Q34.7121,31.227916,34.75304,31.166645Q34.79398,31.105373,34.84072,31.04841Q34.88747,30.99145,34.93958,30.93934Q34.99169,30.88723,35.04865,30.84048Q35.105614,30.79374,35.166885,30.7528Q35.228156,30.71186,35.293145,30.67712Q35.358134,30.64238,35.426215,30.61418Q35.494296,30.58598,35.564813,30.56459Q35.635331,30.5432,35.707605,30.52882Q35.779879,30.51445,35.853215,30.50722Q35.92655,30.5,36.000240326,30.5Q36.0739306,30.5,36.147266,30.50722Q36.220601,30.51445,36.292876,30.52882Q36.36515,30.5432,36.435667,30.56459Q36.506185,30.58598,36.574265,30.61418Q36.642346,30.64238,36.707335,30.67712Q36.772324,30.71186,36.833596,30.7528Q36.894867,30.79374,36.95183,30.84048Q37.00879,30.88723,37.0609,30.93934Q37.11301,30.99145,37.15976,31.04841Q37.2065,31.105373,37.24744,31.166645Q37.288380000000004,31.227916,37.32312,31.292905Q37.35786,31.357894,37.38606,31.425975Q37.41426,31.494056,37.43565,31.564573Q37.45704,31.63509,37.47142,31.707365Q37.48579,31.779639,37.49302,31.852974Q37.50024,31.9263097,37.50024,32ZM37.5,38Q37.5,38.07369,37.49278,38.14703Q37.48555,38.22036,37.47118,38.29263Q37.4568,38.36491,37.43541,38.43543Q37.41402,38.50594,37.38582,38.57402Q37.35762,38.64211,37.32288,38.70709Q37.28814,38.77208,37.2472,38.83335Q37.20626,38.89463,37.15952,38.95159Q37.11277,39.00855,37.06066,39.06066Q37.00855,39.11277,36.95159,39.15952Q36.894627,39.20626,36.833355,39.2472Q36.772084,39.28814,36.707095,39.32288Q36.642106,39.35762,36.574025,39.38582Q36.505944,39.41402,36.435427,39.43541Q36.36491,39.4568,36.292635,39.471180000000004Q36.220361,39.48555,36.147026,39.492779999999996Q36.0736903,39.5,36,39.5Q35.9263097,39.5,35.852974,39.492779999999996Q35.779639,39.48555,35.707365,39.471180000000004Q35.63509,39.4568,35.564573,39.43541Q35.494056,39.41402,35.425975,39.38582Q35.357894,39.35762,35.292905,39.32288Q35.227916,39.28814,35.166645,39.2472Q35.105373,39.20626,35.04841,39.15952Q34.99145,39.11277,34.93934,39.06066Q34.88723,39.00855,34.84048,38.95159Q34.79374,38.89463,34.7528,38.83335Q34.71186,38.77208,34.67712,38.70709Q34.64238,38.64211,34.61418,38.57402Q34.58598,38.50594,34.56459,38.43543Q34.5432,38.36491,34.52882,38.29263Q34.51445,38.22036,34.50722,38.14703Q34.5,38.07369,34.5,38Q34.5,37.92631,34.50722,37.85297Q34.51445,37.77964,34.52882,37.70736Q34.5432,37.63509,34.56459,37.56457Q34.58598,37.49406,34.61418,37.42597Q34.64238,37.35789,34.67712,37.2929Q34.71186,37.22792,34.7528,37.16664Q34.79374,37.10537,34.84048,37.04841Q34.88723,36.99145,34.93934,36.93934Q34.99145,36.88723,35.04841,36.84048Q35.105373,36.79374,35.166645,36.75279Q35.227916,36.71185,35.292905,36.67712Q35.357894,36.64238,35.425975,36.61418Q35.494056,36.58598,35.564573,36.56459Q35.63509,36.5432,35.707365,36.528819999999996Q35.779639,36.51445,35.852974,36.507220000000004Q35.9263097,36.5,36,36.5Q36.0736903,36.5,36.147026,36.507220000000004Q36.220361,36.51445,36.292635,36.528819999999996Q36.36491,36.5432,36.435427,36.56459Q36.505944,36.58598,36.574025,36.61418Q36.642106,36.64238,36.707095,36.67712Q36.772084,36.71185,36.833355,36.75279Q36.894627,36.79374,36.95159,36.84048Q37.00855,36.88723,37.06066,36.93934Q37.11277,36.99145,37.15952,37.04841Q37.20626,37.10537,37.2472,37.16664Q37.28814,37.22792,37.32288,37.2929Q37.35762,37.35789,37.38582,37.42597Q37.41402,37.49406,37.43541,37.56457Q37.4568,37.63509,37.47118,37.70736Q37.48555,37.77964,37.49278,37.85297Q37.5,37.92631,37.5,38Z" fill="#FFFFFF" fill-opacity="1"/></g></g></svg>