<svg xmlns="http://www.w3.org/2000/svg" xmlns:xlink="http://www.w3.org/1999/xlink" fill="none" version="1.1" width="48" height="48" viewBox="0 0 48 48"><defs><clipPath id="master_svg0_617_31082"><rect x="0" y="0" width="48" height="48" rx="0"/></clipPath></defs><g clip-path="url(#master_svg0_617_31082)"><g><rect x="0" y="0" width="48" height="48" rx="0" fill="#FFFFFF" fill-opacity="0.009999999776482582"/></g><g><path d="M33.0499,7L38,7C39.104600000000005,7,40,7.89543,40,9L40,42C40,43.1046,39.104600000000005,44,38,44L10,44C8.89543,44,8,43.1046,8,42L8,9C8,7.89543,8.89543,7,10,7L16,7L17,7L17,10L31,10L31,7L33.0499,7Z" fill="#409EFF" fill-opacity="1"/><path d="M31,5.5L33.0499,5.5L38,5.5Q39.449799999999996,5.5,40.4749,6.525131Q41.5,7.550251,41.5,9L41.5,42Q41.5,43.4498,40.4749,44.4749Q39.449799999999996,45.5,38,45.5L10,45.5Q8.550255,45.5,7.525131,44.4749Q6.5,43.4498,6.5,42L6.5,9Q6.5,7.550252,7.525126,6.525126Q8.550252,5.5,10,5.5L16,5.5L17,5.5Q17.07369,5.5,17.14703,5.50722Q17.22036,5.51445,17.292630000000003,5.52882Q17.364910000000002,5.5432,17.43543,5.56459Q17.505940000000002,5.58598,17.57402,5.61418Q17.642110000000002,5.64238,17.70709,5.67712Q17.772080000000003,5.71186,17.83335,5.7528Q17.89463,5.79374,17.95159,5.8404799999999994Q18.0086,5.88723,18.0607,5.93934Q18.1128,5.99145,18.1595,6.04841Q18.2063,6.105373,18.2472,6.166645Q18.2881,6.2279160000000005,18.3229,6.292905Q18.357599999999998,6.357894,18.3858,6.425975Q18.414,6.4940560000000005,18.4354,6.564573Q18.4568,6.63509,18.4712,6.707365Q18.485599999999998,6.779639,18.492800000000003,6.852974Q18.5,6.9263097,18.5,7L18.5,10L17,10L17,8.5L31,8.5L31,10L29.5,10L29.5,7Q29.5,6.9263097,29.5072,6.852974Q29.5144,6.779639,29.5288,6.707365Q29.5432,6.63509,29.5646,6.564573Q29.586,6.4940560000000005,29.6142,6.425975Q29.6424,6.357894,29.6771,6.292905Q29.7119,6.2279160000000005,29.7528,6.166645Q29.7937,6.105373,29.8405,6.04841Q29.8872,5.99145,29.9393,5.93934Q29.9914,5.88723,30.0484,5.8404799999999994Q30.1054,5.79374,30.1666,5.7528Q30.2279,5.71186,30.2929,5.67712Q30.3579,5.64238,30.426,5.61418Q30.4941,5.58598,30.5646,5.56459Q30.6351,5.5432,30.7074,5.52882Q30.7796,5.51445,30.853,5.50722Q30.9263,5.5,31,5.5ZM31,8.5L31,7L32.5,7L32.5,10Q32.5,10.07369,32.4928,10.14703Q32.485600000000005,10.22036,32.471199999999996,10.292629999999999Q32.4568,10.36491,32.4354,10.43543Q32.414,10.505939999999999,32.3858,10.57402Q32.357600000000005,10.64211,32.322900000000004,10.70709Q32.2881,10.772079999999999,32.2472,10.83335Q32.2063,10.89463,32.1595,10.95159Q32.1128,11.00855,32.0607,11.06066Q32.0086,11.112770000000001,31.9516,11.15952Q31.8946,11.20626,31.8334,11.2472Q31.7721,11.28814,31.7071,11.32288Q31.6421,11.35762,31.574,11.385819999999999Q31.5059,11.41402,31.4354,11.435410000000001Q31.3649,11.456800000000001,31.2926,11.47118Q31.2204,11.48555,31.147,11.49278Q31.0737,11.5,31,11.5L17,11.5Q16.92631,11.5,16.85297,11.49278Q16.77964,11.48555,16.70736,11.47118Q16.635089999999998,11.456800000000001,16.56457,11.435410000000001Q16.494059999999998,11.41402,16.42597,11.385819999999999Q16.357889999999998,11.35762,16.2929,11.32288Q16.227919999999997,11.28814,16.16664,11.2472Q16.10537,11.20626,16.04841,11.15952Q15.99145,11.112770000000001,15.93934,11.06066Q15.887229999999999,11.00855,15.84048,10.95159Q15.79374,10.89463,15.752790000000001,10.83335Q15.71185,10.772079999999999,15.67712,10.70709Q15.64238,10.64211,15.614180000000001,10.57402Q15.58598,10.505939999999999,15.564589999999999,10.43543Q15.543199999999999,10.36491,15.52882,10.292629999999999Q15.51445,10.22036,15.50722,10.14703Q15.5,10.07369,15.5,10L15.5,7L17,7L17,8.5L16,8.5L10,8.5Q9.79289,8.5,9.64645,8.64645Q9.5,8.79289,9.5,9L9.5,42Q9.5,42.2071,9.64644,42.3536Q9.79288,42.5,10,42.5L38,42.5Q38.2071,42.5,38.3536,42.3536Q38.5,42.2071,38.5,42L38.5,9Q38.5,8.79288,38.3536,8.64644Q38.2071,8.5,38,8.5L33.0499,8.5L31,8.5Z" fill="#409EFF" fill-opacity="1"/></g><g><path d="M15.5,10L15.5,4Q15.5,3.9263097,15.50722,3.852974Q15.51445,3.779639,15.52882,3.7073650000000002Q15.5432,3.63509,15.564589999999999,3.564573Q15.58598,3.494056,15.61418,3.425975Q15.64238,3.357894,15.67712,3.292905Q15.71186,3.227916,15.7528,3.166645Q15.79374,3.105373,15.84048,3.04841Q15.88723,2.99145,15.93934,2.93934Q15.99145,2.8872299999999997,16.04841,2.84048Q16.105373,2.7937399999999997,16.166645,2.7527999999999997Q16.227916,2.7118599999999997,16.292905,2.67712Q16.357894,2.64238,16.425975,2.61418Q16.494056,2.58598,16.564573,2.56459Q16.63509,2.5431999999999997,16.707365,2.52882Q16.779639,2.51445,16.852974,2.5072200000000002Q16.9263097,2.5,17,2.5L31,2.5Q31.073700000000002,2.5,31.147,2.5072200000000002Q31.220399999999998,2.51445,31.2926,2.52882Q31.3649,2.5431999999999997,31.4354,2.56459Q31.5059,2.58598,31.573999999999998,2.61418Q31.6421,2.64238,31.7071,2.67712Q31.772100000000002,2.7118599999999997,31.833399999999997,2.7527999999999997Q31.8946,2.7937399999999997,31.9516,2.84048Q32.0086,2.8872299999999997,32.0607,2.93934Q32.1128,2.99145,32.1595,3.04841Q32.2063,3.105373,32.2472,3.166645Q32.2881,3.227916,32.322900000000004,3.292905Q32.3576,3.357894,32.3858,3.425975Q32.414,3.494056,32.4354,3.564573Q32.4568,3.63509,32.471199999999996,3.7073650000000002Q32.4856,3.779639,32.4928,3.852974Q32.5,3.9263097,32.5,4L32.5,10Q32.5,10.07369,32.4928,10.14703Q32.4856,10.22036,32.471199999999996,10.292629999999999Q32.4568,10.36491,32.4354,10.43543Q32.414,10.505939999999999,32.3858,10.57402Q32.3576,10.642109999999999,32.322900000000004,10.70709Q32.2881,10.772079999999999,32.2472,10.83335Q32.2063,10.89463,32.1595,10.95159Q32.1128,11.00855,32.0607,11.06066Q32.0086,11.112770000000001,31.9516,11.15952Q31.8946,11.20626,31.833399999999997,11.2472Q31.772100000000002,11.28814,31.7071,11.32288Q31.6421,11.35762,31.573999999999998,11.385819999999999Q31.5059,11.41402,31.4354,11.435410000000001Q31.3649,11.456800000000001,31.2926,11.47118Q31.220399999999998,11.48555,31.147,11.49278Q31.073700000000002,11.5,31,11.5L17,11.5Q16.9263097,11.5,16.852974,11.49278Q16.779639,11.48555,16.707365,11.47118Q16.63509,11.456800000000001,16.564573,11.435410000000001Q16.494056,11.41402,16.425975,11.385819999999999Q16.357894,11.35762,16.292905,11.32288Q16.227916,11.28814,16.166645,11.2472Q16.105373,11.20626,16.04841,11.15952Q15.99145,11.112770000000001,15.93934,11.06066Q15.88723,11.00855,15.84048,10.95159Q15.79374,10.89463,15.7528,10.83335Q15.71186,10.772079999999999,15.67712,10.70709Q15.64238,10.642109999999999,15.61418,10.57402Q15.58598,10.505939999999999,15.564589999999999,10.43543Q15.5432,10.36491,15.52882,10.292629999999999Q15.51445,10.22036,15.50722,10.14703Q15.5,10.07369,15.5,10ZM18.5,5.5L18.5,8.5L29.5,8.5L29.5,5.5L18.5,5.5Z" fill="#409EFF" fill-opacity="1"/></g><g><path d="M19.939845,33.9409L27.94354,25.94033L29.003999999999998,27.0012L29.003999999999998,28.5012L19,28.5012Q18.9263097,28.5012,18.852974,28.49398Q18.779639,28.48675,18.707365,28.47238Q18.63509,28.458,18.564573,28.43661Q18.494056,28.415219999999998,18.425975,28.38702Q18.357894,28.35882,18.292905,28.324080000000002Q18.227916,28.28934,18.166645,28.2484Q18.105373,28.207459999999998,18.04841,28.160719999999998Q17.99145,28.113970000000002,17.93934,28.06186Q17.88723,28.00975,17.84048,27.95279Q17.79374,27.89583,17.7528,27.83455Q17.71186,27.77328,17.67712,27.708289999999998Q17.64238,27.6433,17.61418,27.57522Q17.58598,27.50714,17.56459,27.43663Q17.5432,27.36611,17.52882,27.29383Q17.51445,27.22156,17.50722,27.148220000000002Q17.5,27.07489,17.5,27.0012Q17.5,26.85348,17.52881,26.7086Q17.55763,26.56372,17.61415,26.42724Q17.67067,26.290770000000002,17.75273,26.16794Q17.834789999999998,26.04511,17.93923,25.940649999999998L25.93883,17.93945Q25.99093,17.88733,26.04789,17.84058Q26.10485,17.79383,26.16612,17.75288Q26.22739,17.71193,26.29237,17.67719Q26.35736,17.64244,26.425440000000002,17.61424Q26.49351,17.58603,26.56403,17.56463Q26.63454,17.54323,26.70682,17.52885Q26.77909,17.51447,26.852420000000002,17.50724Q26.92576,17.50001,26.99945,17.5Q27.073140000000002,17.49999,27.14648,17.50721Q27.219810000000003,17.51442,27.29209,17.52879Q27.364359999999998,17.54316,27.43488,17.56455Q27.5054,17.58593,27.57349,17.61412Q27.64157,17.64232,27.70656,17.67705Q27.77156,17.71178,27.83283,17.75271Q27.894109999999998,17.79365,27.95107,17.84039Q28.00804,17.88713,28.06015,17.93923Q28.112270000000002,17.99134,28.159019999999998,18.048294Q28.20577,18.105253,28.24672,18.16652Q28.28767,18.227787,28.322409999999998,18.292773Q28.35715,18.357758,28.38536,18.425836Q28.41357,18.493914,28.43497,18.564429Q28.45636,18.634945,28.470750000000002,18.707217Q28.485129999999998,18.77949,28.492359999999998,18.852825Q28.499589999999998,18.9261598,28.4996,18.999850038Q28.49961,19.0735403,28.49239,19.146876Q28.48518,19.220213,28.47081,19.292488Q28.45644,19.364764,28.43505,19.435283Q28.41367,19.505803,28.38548,19.573887Q28.35728,19.64197,28.32255,19.706963000000002Q28.28782,19.771955,28.24689,19.833231Q28.20595,19.894506,28.15921,19.951474Q28.112470000000002,20.00844,28.06037,20.06055L20.06077,28.06175L19,27.0012L19,25.5012L29.003999999999998,25.5012Q29.1518,25.5012,29.2967,25.53004Q29.4416,25.55887,29.578200000000002,25.61544Q29.7147,25.672,29.8375,25.75412Q29.9604,25.83623,30.0649,25.940739999999998Q30.117,25.99286,30.1637,26.04983Q30.2104,26.10681,30.2514,26.16809Q30.292299999999997,26.22936,30.326999999999998,26.29436Q30.3617,26.35936,30.3899,26.42744Q30.418100000000003,26.49553,30.439500000000002,26.56605Q30.460900000000002,26.63657,30.4752,26.708849999999998Q30.4896,26.78113,30.4968,26.85446Q30.503999999999998,26.9278,30.503999999999998,27.00149Q30.503999999999998,27.07518,30.4967,27.14851Q30.4895,27.22185,30.475099999999998,27.29412Q30.4607,27.366390000000003,30.4393,27.4369Q30.4179,27.50742,30.389699999999998,27.575490000000002Q30.3615,27.64357,30.326700000000002,27.708550000000002Q30.292,27.77353,30.250999999999998,27.8348Q30.2101,27.89606,30.1633,27.95301Q30.1166,28.00997,30.064500000000002,28.06207L22.06075,36.0627Q22.00864,36.1148,21.95166,36.161500000000004Q21.89469,36.208200000000005,21.83341,36.2492Q21.77213,36.290099999999995,21.70714,36.324799999999996Q21.64214,36.3595,21.57406,36.387699999999995Q21.50597,36.4159,21.43545,36.4373Q21.36493,36.4587,21.292650000000002,36.473Q21.22037,36.4874,21.14704,36.4946Q21.0737,36.5018,21.00001,36.5018Q20.92632,36.5018,20.85298,36.4945Q20.77965,36.487300000000005,20.70738,36.472899999999996Q20.63511,36.4585,20.56459,36.4371Q20.49408,36.4157,20.42601,36.3875Q20.35793,36.359300000000005,20.29295,36.3245Q20.22797,36.2898,20.1667,36.2488Q20.10544,36.207899999999995,20.04849,36.161100000000005Q19.991531,36.1144,19.939434,36.0623Q19.887337,36.0101,19.8406,35.953199999999995Q19.793862,35.8962,19.752934,35.834900000000005Q19.712005,35.7736,19.677281,35.708600000000004Q19.642556,35.6436,19.614369,35.5756Q19.586182,35.5075,19.564805,35.437Q19.543427,35.3664,19.529065,35.294200000000004Q19.514703,35.221900000000005,19.507494,35.1485Q19.500285,35.075199999999995,19.500299,35.0015Q19.500314,34.9278,19.507551,34.8545Q19.514788,34.7812,19.529178,34.7089Q19.543568,34.6366,19.564973,34.5661Q19.586378,34.495599999999996,19.614591,34.4275Q19.642804,34.3594,19.677554,34.294399999999996Q19.712304,34.2295,19.753256,34.1682Q19.794208,34.106899999999996,19.840968,34.05Q19.887728,33.993,19.939845,33.9409ZM22.5003,35.0018Q22.5003,35.075500000000005,22.49308,35.1488Q22.48585,35.2222,22.47148,35.294399999999996Q22.4571,35.3667,22.43571,35.437200000000004Q22.41432,35.5077,22.38612,35.5758Q22.35792,35.6439,22.32318,35.7089Q22.28844,35.7739,22.2475,35.8352Q22.20656,35.8964,22.15981,35.9534Q22.11307,36.010400000000004,22.06096,36.0625Q22.00885,36.114599999999996,21.95189,36.1613Q21.89493,36.2081,21.83365,36.248999999999995Q21.77238,36.2899,21.70739,36.3247Q21.642409999999998,36.3594,21.57432,36.3876Q21.50624,36.415800000000004,21.43573,36.437200000000004Q21.36521,36.458600000000004,21.29293,36.473Q21.22066,36.4874,21.14733,36.4946Q21.07399,36.5018,21.0003,36.5018Q20.92661,36.5018,20.85327,36.4946Q20.77994,36.4874,20.70766,36.473Q20.63539,36.458600000000004,20.56487,36.437200000000004Q20.49436,36.415800000000004,20.42627,36.3876Q20.35819,36.3594,20.2932,36.3247Q20.22822,36.2899,20.16694,36.248999999999995Q20.10567,36.2081,20.04871,36.1613Q19.991746,36.114599999999996,19.939639,36.0625Q19.887532,36.010400000000004,19.840784,35.9534Q19.794035,35.8964,19.753095,35.8352Q19.712155,35.7739,19.677417,35.7089Q19.64268,35.6439,19.61448,35.5758Q19.58628,35.5077,19.564889,35.437200000000004Q19.543498,35.3667,19.529121,35.294399999999996Q19.514745,35.2222,19.507522,35.1488Q19.500299,35.075500000000005,19.500299,35.0018Q19.500299,34.9281,19.507522,34.8548Q19.514745,34.7814,19.529121,34.709199999999996Q19.543498,34.6369,19.564889,34.5664Q19.58628,34.4959,19.61448,34.4278Q19.64268,34.359700000000004,19.677417,34.2947Q19.712155,34.2297,19.753095,34.1684Q19.794035,34.1072,19.840784,34.050200000000004Q19.887532,33.9932,19.939639,33.9411Q19.991746,33.888999999999996,20.04871,33.8423Q20.10567,33.795500000000004,20.16694,33.754599999999996Q20.22822,33.7137,20.2932,33.6789Q20.35819,33.6442,20.42627,33.616Q20.49436,33.5878,20.56487,33.5664Q20.63539,33.545,20.70766,33.5306Q20.77994,33.5162,20.85327,33.509Q20.92661,33.5018,21.0003,33.5018Q21.07399,33.5018,21.14733,33.509Q21.22066,33.5162,21.29293,33.5306Q21.36521,33.545,21.43573,33.5664Q21.50624,33.5878,21.57432,33.616Q21.642409999999998,33.6442,21.70739,33.6789Q21.77238,33.7137,21.83365,33.754599999999996Q21.89493,33.795500000000004,21.95189,33.8423Q22.00885,33.888999999999996,22.06096,33.9411Q22.11307,33.9932,22.15981,34.050200000000004Q22.20656,34.1072,22.2475,34.1684Q22.28844,34.2297,22.32318,34.2947Q22.35792,34.359700000000004,22.38612,34.4278Q22.41432,34.4959,22.43571,34.5664Q22.4571,34.6369,22.47148,34.709199999999996Q22.48585,34.7814,22.49308,34.8548Q22.5003,34.9281,22.5003,35.0018ZM28.4996,19Q28.4996,19.0736903,28.49238,19.147026Q28.48515,19.220361,28.470779999999998,19.292635Q28.456400000000002,19.36491,28.43501,19.435427Q28.41362,19.505944,28.38542,19.574025Q28.357219999999998,19.642106,28.32248,19.707095Q28.28774,19.772084,28.2468,19.833355Q28.20587,19.894627,28.15912,19.95159Q28.11237,20.00855,28.06026,20.06066Q28.00815,20.11277,27.95119,20.15952Q27.89423,20.20626,27.83295,20.2472Q27.77168,20.28814,27.706690000000002,20.32288Q27.64171,20.35762,27.57362,20.38582Q27.50554,20.41402,27.435029999999998,20.43541Q27.36451,20.4568,27.29223,20.47118Q27.21996,20.48555,27.14662,20.49278Q27.07329,20.5,26.9996,20.5Q26.925910000000002,20.5,26.85257,20.49278Q26.77924,20.48555,26.70696,20.47118Q26.63469,20.4568,26.56417,20.43541Q26.49365,20.41402,26.42557,20.38582Q26.35749,20.35762,26.2925,20.32288Q26.22752,20.28814,26.166240000000002,20.2472Q26.10497,20.20626,26.048009999999998,20.15952Q25.99105,20.11277,25.93894,20.06066Q25.88683,20.00855,25.84008,19.95159Q25.79333,19.894627,25.75239,19.833355Q25.71145,19.772084,25.67672,19.707095Q25.64198,19.642106,25.61378,19.574025Q25.58558,19.505944,25.56419,19.435427Q25.5428,19.36491,25.52842,19.292635Q25.51404,19.220361,25.50682,19.147026Q25.4996,19.0736903,25.4996,19Q25.4996,18.9263097,25.50682,18.852974Q25.51404,18.779639,25.52842,18.707365Q25.5428,18.63509,25.56419,18.564573Q25.58558,18.494056,25.61378,18.425975Q25.64198,18.357894,25.67672,18.292905Q25.71145,18.227916,25.75239,18.166645Q25.79333,18.105373,25.84008,18.04841Q25.88683,17.99145,25.93894,17.93934Q25.99105,17.88723,26.048009999999998,17.84048Q26.10497,17.79374,26.166240000000002,17.7528Q26.22752,17.71186,26.2925,17.67712Q26.35749,17.64238,26.42557,17.61418Q26.49365,17.58598,26.56417,17.56459Q26.63469,17.5432,26.70696,17.52882Q26.77924,17.51445,26.85257,17.50722Q26.925910000000002,17.5,26.9996,17.5Q27.07329,17.5,27.14662,17.50722Q27.21996,17.51445,27.29223,17.52882Q27.36451,17.5432,27.435029999999998,17.56459Q27.50554,17.58598,27.57362,17.61418Q27.64171,17.64238,27.706690000000002,17.67712Q27.77168,17.71186,27.83295,17.7528Q27.89423,17.79374,27.95119,17.84048Q28.00815,17.88723,28.06026,17.93934Q28.11237,17.99145,28.15912,18.04841Q28.20587,18.105373,28.2468,18.166645Q28.28774,18.227916,28.32248,18.292905Q28.357219999999998,18.357894,28.38542,18.425975Q28.41362,18.494056,28.43501,18.564573Q28.456400000000002,18.63509,28.470779999999998,18.707365Q28.48515,18.779639,28.49238,18.852974Q28.4996,18.9263097,28.4996,19Z" fill="#FFFFFF" fill-opacity="1"/></g></g></svg>