<svg xmlns="http://www.w3.org/2000/svg" xmlns:xlink="http://www.w3.org/1999/xlink" fill="none" version="1.1" width="40" height="40" viewBox="0 0 40 40"><defs><clipPath id="master_svg0_191_23812"><rect x="0" y="0" width="40" height="40" rx="20"/></clipPath></defs><g style="mix-blend-mode:passthrough" clip-path="url(#master_svg0_191_23812)"><rect x="0" y="0" width="40" height="40" rx="20" fill="#E95D20" fill-opacity="1"/><g><path d="M24.8889,20.0577C28.2641,20.0577,31,22.898899999999998,31,26.4038C31,29.9088,28.2641,32.75,24.8889,32.75C21.5137,32.75,18.77778,29.9088,18.77778,26.4038C18.77778,22.898899999999998,21.5137,20.0577,24.8889,20.0577ZM26.1111,8C27.4611,8.000000226956,28.5556,9.13651,28.5556,10.53846L28.5562,19.8077C27.4417,19.137999999999998,26.1765,18.7864,24.8889,18.7885C20.839100000000002,18.7885,17.55555,22.1982,17.55555,26.4038C17.55555,28.6783,18.515610000000002,30.7205,20.0385,32.1154L11.44444,32.1154C10.09441,32.1154,9.000000437101,30.9789,9,29.5769L9,10.53846C9,9.13651,10.09441,8.000000453912,11.44444,8.000000226956L26.1111,8ZM27.6639,24.0253L27.5998,24.0824L24.2429,27.4376C24.069499999999998,27.6108,23.8015,27.6301,23.6068,27.4833L23.5518,27.4351L22.178,26.044C21.8856,25.7541,21.4254,25.7541,21.133,26.044C20.8641,26.3144,20.8458,26.7421,21.0792,27.034L21.133,27.0937L23.3739,29.3592C23.642899999999997,29.6254,24.058,29.6499,24.3542,29.417L24.4189,29.3599L28.6448,25.1333C28.9337,24.8475,28.9337,24.3689,28.6448,24.0831C28.3758,23.816499999999998,27.9603,23.792099999999998,27.6639,24.0253ZM22.75,13.71154L13.58333,13.71154C13.09437,13.71179,12.69168,14.11053,12.66818,14.617709999999999C12.644680000000001,15.1249,13.008659999999999,15.56195,13.49533,15.61094L13.58333,15.61539L22.75,15.61539C23.2563,15.61539,23.6667,15.18919,23.6667,14.66346C23.6667,14.137730000000001,23.2563,13.71154,22.75,13.71154Z" fill="#FFFFFF" fill-opacity="1"/></g></g></svg>