<svg xmlns="http://www.w3.org/2000/svg" xmlns:xlink="http://www.w3.org/1999/xlink" fill="none" version="1.1" width="40" height="40" viewBox="0 0 40 40"><defs><clipPath id="master_svg0_191_23826"><rect x="0" y="0" width="40" height="40" rx="20"/></clipPath><clipPath id="master_svg1_191_12263"><rect x="7" y="7" width="27" height="27" rx="0"/></clipPath></defs><g style="mix-blend-mode:passthrough" clip-path="url(#master_svg0_191_23826)"><rect x="0" y="0" width="40" height="40" rx="20" fill="#3CA1FF" fill-opacity="1"/><g clip-path="url(#master_svg1_191_12263)"><g><path d="M29.3329921875,9.109375L11.6669921875,9.109375C10.7388671875,9.109375,9.9794921875,9.86875,9.9794921875,10.796875L9.9794921875,30.203175C9.9794921875,31.131275,10.7388671875,31.890575,11.6669921875,31.890575L25.852492187499998,31.890575C28.6948921875,31.890575,31.0204921875,29.565075,31.0204921875,26.722675L31.0204921875,10.796875C31.0204921875,9.86875,30.2610921875,9.109375,29.3329921875,9.109375ZM15.2001921875,13.960935L20.7372921875,13.960935C21.317392187499998,13.960935,21.7919921875,14.435545000000001,21.7919921875,15.015625C21.7919921875,15.595704999999999,21.317392187499998,16.070315,20.7372921875,16.070315L15.2001921875,16.070315C14.6201121875,16.070315,14.1455121875,15.595704999999999,14.1455121875,15.015625C14.1455121875,14.435545000000001,14.6201121875,13.960935,15.2001921875,13.960935ZM15.2001921875,18.390625L23.6376921875,18.390625C24.217792187500002,18.390625,24.692392187499998,18.865235,24.692392187499998,19.445275000000002C24.692392187499998,20.025375,24.217792187500002,20.499975,23.6376921875,20.499975L15.2001921875,20.499975C14.6201121875,20.499975,14.1455121875,20.025375,14.1455121875,19.445275000000002C14.1455121875,18.865235,14.6201121875,18.390625,15.2001921875,18.390625ZM17.8369121875,24.903275L15.2001921875,24.903275C14.6201121875,24.903275,14.1455121875,24.428675,14.1455121875,23.848675C14.1455121875,23.268575,14.6201121875,22.793975,15.2001921875,22.793975L17.8369121875,22.793975C18.4169921875,22.793975,18.8916021875,23.268575,18.8916021875,23.848675C18.8916021875,24.428675,18.4169921875,24.903275,17.8369121875,24.903275ZM27.9091921875,22.335175L26.4905921875,24.834775L27.5426921875,24.834775C27.6111921875,24.834775,27.6665921875,24.890175,27.6665921875,24.958675L27.6665921875,25.834075C27.6665921875,25.902675,27.6111921875,25.957975,27.5426921875,25.957975L25.902592187499998,25.957975L25.902592187499998,26.601375L27.5399921875,26.601375C27.6085921875,26.601375,27.6639921875,26.656775,27.6639921875,26.725275L27.6639921875,27.600675C27.6639921875,27.669275,27.6085921875,27.724575,27.5399921875,27.724575L25.902592187499998,27.724575L25.902592187499998,29.412075C25.902592187499998,29.480675,25.847292187500003,29.536075,25.7786921875,29.536075L24.4181921875,29.536075C24.3495921875,29.536075,24.294192187500002,29.480675,24.294192187500002,29.412075L24.294192187500002,27.729875L22.7095921875,27.729875C22.6409921875,27.729875,22.5856921875,27.674475,22.5856921875,27.605975L22.5856921875,26.730575C22.5856921875,26.661975,22.6409921875,26.606675,22.7095921875,26.606675L24.294192187500002,26.606675L24.294192187500002,25.963275L22.7095921875,25.963275C22.6409921875,25.963275,22.5856921875,25.907875,22.5856921875,25.839375L22.5856921875,24.963974999999998C22.5856921875,24.892775,22.6409921875,24.837375,22.7095921875,24.837375L23.671992187500003,24.837375L22.2507921875,22.335175C22.2059921875,22.253375,22.2612921875,22.150575,22.3588921875,22.150575L23.954092187500002,22.150575L25.1247921875,24.402375L26.2875921875,22.150575L27.8010921875,22.150575C27.8959921875,22.150575,27.9565921875,22.250775,27.9091921875,22.335175Z" fill="#FFFFFF" fill-opacity="1"/></g></g></g></svg>