<svg xmlns="http://www.w3.org/2000/svg" xmlns:xlink="http://www.w3.org/1999/xlink" fill="none" version="1.1" width="40" height="40" viewBox="0 0 40 40"><defs><clipPath id="master_svg0_191_23885"><rect x="0" y="0" width="40" height="40" rx="20"/></clipPath><clipPath id="master_svg1_191_12279"><rect x="9" y="9" width="23" height="23" rx="0"/></clipPath></defs><g style="mix-blend-mode:passthrough" clip-path="url(#master_svg0_191_23885)"><rect x="0" y="0" width="40" height="40" rx="20" fill="#FB684D" fill-opacity="1"/><g clip-path="url(#master_svg1_191_12279)"><g><path d="M24.21705,9.71875C24.59835,9.71874824353,24.96395,9.870197,25.23355,10.13978L29.42275,14.32897C29.69235,14.59855,29.84375,14.964179999999999,29.84375,15.34544L29.84375,29.12495C29.84375,30.31585,28.87835,31.28125,27.68745,31.28125L13.3125,31.28125C12.121621,31.28125,11.15625,30.31585,11.15625,29.12495L11.15625,11.875C11.15625,10.684121,12.121621,9.71875,13.3125,9.71875L24.21705,9.71875ZM20.49102,24.52055C20.01466,24.52055,19.62851,24.90665,19.62851,25.38305C19.62851,25.85935,20.01466,26.24555,20.49102,26.24555C20.967370000000003,26.24555,21.35355,25.85935,21.35355,25.38305C21.35355,24.90665,20.967370000000003,24.52055,20.49102,24.52055ZM20.522460000000002,16.1875L20.477539999999998,16.1875C20.09683,16.1875,19.78749,16.49304,19.78134,16.87227L19.78125,16.88379L19.78125,22.67875C19.78125,23.05945,20.08679,23.36875,20.46602,23.37495L20.477539999999998,23.37495L20.522460000000002,23.37495C20.90317,23.37495,21.21255,23.06945,21.21865,22.69025L21.21875,22.67875L21.21875,16.88379C21.21875,16.50308,20.91321,16.19374,20.53398,16.18759L20.522460000000002,16.1875ZM24.45315,11.39231L24.45315,14.39063C24.45315,14.7836,24.768549999999998,15.10293,25.159950000000002,15.10937L28.17025,15.10937L24.45315,11.39231Z" fill="#FFFFFF" fill-opacity="1"/></g></g></g></svg>