<svg xmlns="http://www.w3.org/2000/svg" xmlns:xlink="http://www.w3.org/1999/xlink" fill="none" version="1.1" width="40" height="40" viewBox="0 0 40 40"><defs><clipPath id="master_svg0_203_12349"><rect x="0" y="0" width="40" height="40" rx="20"/></clipPath><clipPath id="master_svg1_203_12659"><rect x="7" y="7" width="27" height="27" rx="0"/></clipPath></defs><g style="mix-blend-mode:passthrough" clip-path="url(#master_svg0_203_12349)"><rect x="0" y="0" width="40" height="40" rx="20" fill="#10B981" fill-opacity="1"/><g clip-path="url(#master_svg1_203_12659)"><g><path d="M16.5310390625,12.062522460937501C16.2340390625,12.062522460937501,15.9775390625,11.8060224609375,15.9775390625,11.5090224609375L15.9775390625,9.2140224609375C15.9775390625,8.9170224609375,16.2340390625,8.6605224609375,16.5310390625,8.6605224609375L24.5095390625,8.6605224609375C24.8065390625,8.6605224609375,25.0630390625,8.9170224609375,25.0630390625,9.2140224609375L25.0630390625,11.4820224609375C25.0630390625,11.779022460937501,24.8065390625,12.0355224609375,24.5095390625,12.0355224609375L16.5310390625,12.0355224609375L16.5310390625,12.062522460937501Z" fill="#FFFFFF" fill-opacity="1"/></g><g><path d="M29.572625,10.5775146484375L26.278624999999998,10.5775146484375L26.278624999999998,12.4135146484375C26.278624999999998,12.8455146484375,25.927625,13.1830146484375,25.509124999999997,13.1830146484375L15.532625,13.1830146484375C15.114125,13.1830146484375,14.763124999999999,12.8320146484375,14.763124999999999,12.4135146484375L14.763124999999999,10.5910148484375L11.469125,10.5910148484375C10.983125,10.5910148484375,10.578125,10.9825146484375,10.578125,11.4820146484375L10.578125,29.6125146484375C10.578125,30.0985146484375,10.969625,30.5035146484375,11.469125,30.5035146484375L29.599625,30.5035146484375C29.991125,30.5035146484375,30.450125,30.3955146484375,30.450125,29.5990146484375L30.450125,11.4685146484375C30.463625,10.9960146484375,30.058625,10.5775146484375,29.572625,10.5775146484375ZM26.022125000000003,18.4615146484375L19.609625,24.8605146484375C19.272125000000003,25.1980146484375,18.745625,25.1980146484375,18.408125,24.8605146484375L14.979125,21.4315146484375C14.641625000000001,21.0940146484375,14.641625000000001,20.567514648437502,14.979125,20.2300146484375C15.316625,19.892514648437498,15.843125,19.892514648437498,16.180625,20.2300146484375L19.015625,23.0380146484375L24.807125,17.2465146484375C25.144624999999998,16.9090146484375,25.671125,16.9090146484375,26.008625000000002,17.2465146484375C26.184125,17.4220146484375,26.278624999999998,17.6245146484375,26.278624999999998,17.8540146484375C26.278624999999998,18.0835146484375,26.197625000000002,18.2860146484375,26.022125000000003,18.4615146484375Z" fill="#FFFFFF" fill-opacity="1"/></g></g></g></svg>