<svg xmlns="http://www.w3.org/2000/svg" xmlns:xlink="http://www.w3.org/1999/xlink" fill="none" version="1.1" width="40" height="40" viewBox="0 0 40 40"><defs><clipPath id="master_svg0_191_23901"><rect x="0" y="0" width="40" height="40" rx="20"/></clipPath><clipPath id="master_svg1_203_12676"><rect x="6" y="6" width="28" height="28" rx="0"/></clipPath></defs><g style="mix-blend-mode:passthrough" clip-path="url(#master_svg0_191_23901)"><rect x="0" y="0" width="40" height="40" rx="20" fill="#0519D4" fill-opacity="1"/><g clip-path="url(#master_svg1_203_12676)"><g><path d="M15.0432804375,8.720947265625L22.9811734375,8.720947265625Q23.1504334375,8.720947265625,23.1504334375,8.890205265625L23.1504334375,11.696767265625Q23.1504334375,11.866027265625,22.9811734375,11.866027265625L15.0432814375,11.866027265625Q14.8740234375,11.866027265625,14.8740234375,11.696767265625L14.8740234375,8.890205265625Q14.8740234375,8.720947057009,15.0432804375,8.720947265625Z" fill="#FFFFFF" fill-opacity="1"/></g><g><path d="M19.35350140625,26.5747099609375C19.35350140625,23.286409960937497,21.975741406250002,20.6209099609375,25.21054140625,20.6209099609375C26.15204140625,20.6198499609375,27.07934140625,20.8498099609375,27.91124140625,21.290609960937502Q27.90174140625,16.3705999609375,27.89844140625,11.383100960937501C27.89844140625,11.0500539609375,27.63294140625,10.7777099609375,27.30864140625,10.7777099609375L24.132941406249998,10.7777099609375L24.132941406249998,12.2695799609375C24.132941406249998,12.6023599609375,23.867441406250002,12.8746999609375,23.54314140625,12.8746999609375L14.48275140625,12.8746999609375C14.15818140625,12.8746999609375,13.892671406249999,12.601259960937501,13.892671406249999,12.2695799609375L13.892671406249999,10.7777099609375L10.71724640625,10.7777099609375C10.39267640625,10.7777099609375,10.12744140625,11.0511479609375,10.12744140625,11.383100960937501L10.12744140625,30.5092099609375C10.12744140625,30.8423099609375,10.39267540625,31.1146099609375,10.71724640625,31.1146099609375L21.42234140625,31.1146099609375C20.10440140625,29.9749099609375,19.348951406250002,28.3171099609375,19.35350140625,26.5747099609375ZM13.42154140625,16.5920799609375C13.42017140625,16.4392499609375,13.54217140625,16.3138299609375,13.694981406250001,16.3109899609375L24.33034140625,16.3109899609375C24.48314140625,16.3138399609375,24.60514140625,16.4392499609375,24.603741406250002,16.5920799609375L24.603741406250002,18.0907999609375C24.60514140625,18.2436299609375,24.48314140625,18.3690499609375,24.33034140625,18.3718899609375L13.69553140625,18.3718899609375C13.54271140625,18.3690499609375,13.42071140625,18.2436299609375,13.42209140625,18.0907999609375L13.42154140625,16.5920799609375ZM19.14978140625,22.8956099609375C19.151311406250002,23.0485099609375,19.02923140625,23.1740099609375,18.876351406250002,23.1767099609375L13.69553140625,23.1767099609375C13.54265140625,23.1740099609375,13.42056140625,23.0485099609375,13.42209140625,22.8956099609375L13.42209140625,21.397209960937502C13.42071140625,21.2444099609375,13.54271140625,21.1189099609375,13.69553140625,21.1161099609375L18.87607140625,21.1161099609375C19.028951406250002,21.1188099609375,19.151041406250002,21.2443099609375,19.14951140625,21.397209960937502L19.14978140625,22.8956099609375Z" fill="#FFFFFF" fill-opacity="1"/></g><g><path d="M25.23015875,21.77734375C22.62429875,21.77734375,20.51171875,23.92492375,20.51171875,26.57371375C20.51171875,29.22250375,22.62511875,31.37117375,25.23015875,31.37117375C27.83519875,31.37117375,29.94831875,29.22386375,29.94831875,26.57480375C29.94831875,23.92574375,27.83573875,21.77734375,25.23015875,21.77734375ZM27.653088750000002,27.73828375L25.49620875,29.898433750000002C25.36053875,30.03492375,25.13969875,30.03492375,25.00401875,29.898433750000002L22.84659875,27.73828375C22.57960875,27.471283749999998,22.57960875,27.03840375,22.84659875,26.77140375C23.11359875,26.50441375,23.54647875,26.50441375,23.81347875,26.77140375L24.54847875,27.50668375L24.54847875,24.44418375C24.54847875,24.06664375,24.85452875,23.76058375,25.23206875,23.76058375C25.60960875,23.76058375,25.91565875,24.06664375,25.91565875,24.44418375L25.91565875,27.542773750000002L26.67198875,26.78589375C26.95772875,26.499883750000002,27.42257875,26.50343375,27.68671875,26.80941375C27.92010875,27.08020375,27.905448749999998,27.48508375,27.653088750000002,27.73828375Z" fill="#FFFFFF" fill-opacity="1"/></g></g></g></svg>