<svg xmlns="http://www.w3.org/2000/svg" xmlns:xlink="http://www.w3.org/1999/xlink" fill="none" version="1.1" width="40" height="40" viewBox="0 0 40 40"><defs><clipPath id="master_svg0_191_23863"><rect x="0" y="0" width="40" height="40" rx="20"/></clipPath><clipPath id="master_svg1_203_12664"><rect x="6" y="6" width="29" height="29" rx="0"/></clipPath></defs><g style="mix-blend-mode:passthrough" clip-path="url(#master_svg0_191_23863)"><rect x="0" y="0" width="40" height="40" rx="20" fill="#C963F1" fill-opacity="1"/><g clip-path="url(#master_svg1_203_12664)"><g><path d="M12.75369,22.3183C12.57969,22.524900000000002,12.49812,22.7895,12.50537,23.112099999999998C12.51262,23.4348,12.617750000000001,23.6994,12.81531,23.906C13.01287,24.1126,13.2775,24.215899999999998,13.60919,24.215899999999998L15.98719,24.215899999999998C15.90381,24.4643,15.85487,24.7035,15.838560000000001,24.9337C15.82225,25.1657,15.82225,25.4049,15.838560000000001,25.6514C15.838560000000001,26.6103,15.95094,27.5147,16.17387,28.3647C16.396810000000002,29.2166,16.70675,30.0051,17.10369,30.7319L12.17188,30.7319C11.28012,30.6992,10.536999999999999,30.3857,9.9425,29.7894C9.348,29.1931,9.0344376,28.4517,9,27.56L9,12.17188C9.032625,11.28012,9.346187,10.53337,9.9425,9.929813C10.536999999999999,9.32625,11.28012,9.0163126,12.17188,9L25.9741,9C26.8658,9.0163124,27.6126,9.32625,28.2161,9.929813C28.8197,10.53337,29.1296,11.28012,29.1459,12.17188L29.1459,16.28625C28.6674,16.05425,28.1346,15.88931,27.5473,15.79144C26.9601,15.691749999999999,26.3873,15.651869999999999,25.8254,15.66819L25.6514,15.66819C25.5681,15.503250000000001,25.4575,15.379999999999999,25.3161,15.29663C25.1748,15.21325,25.0225,15.17338,24.857599999999998,15.17338L13.28656,15.17338C13.03825,15.17338,12.81894,15.25675,12.63044,15.42169C12.44012,15.58663,12.345880000000001,15.82588,12.345880000000001,16.13944C12.345880000000001,16.453,12.44012,16.69769,12.63044,16.86987C12.82075,17.04388,13.04006,17.170749999999998,13.28656,17.25412L20.5964,17.25412C19.6376,17.79969,18.80744,18.4685,18.106,19.2606C17.402749999999997,20.0544,16.85537,20.9698,16.45844,22.0119L13.60919,22.0119C13.212250000000001,22.0083,12.92769,22.1116,12.75369,22.3183ZM30.5216,20.868299999999998C31.7849,22.0736,32.4429,23.610599999999998,32.4918,25.4774C32.4429,27.3606,31.7849,28.9303,30.5216,30.1863C29.2583,31.4424,27.6923,32.094899999999996,25.8254,32.1438C23.9423,32.094899999999996,22.3726,31.4261,21.1166,30.1374C19.860500000000002,28.8487,19.208,27.2954,19.159100000000002,25.4793C19.208,23.6958,19.860500000000002,22.1787,21.1166,20.9317C22.3726,19.6847,23.9423,19.035800000000002,25.8254,18.98688C27.6923,19.035800000000002,29.2583,19.6629,30.5216,20.868299999999998ZM29.9652,27.4114C30.1464,27.2301,30.2371,27.0144,30.2371,26.7679C30.2371,26.5214,30.1464,26.3021,29.9652,26.1118C29.7839,25.9215,29.5683,25.8182,29.3218,25.8019L25.9759,25.8019L25.9759,22.3056C25.9759,22.0572,25.8798,21.843400000000003,25.6913,21.662100000000002C25.501,21.4809,25.2817,21.3903,25.0352,21.3903C24.7887,21.3903,24.5676,21.4809,24.3791,21.662100000000002C24.1888,21.843400000000003,24.0854,22.0591,24.0691,22.3056L24.0691,26.7661C24.0854,27.0144,24.1888,27.2283,24.3791,27.4096C24.5694,27.5908,24.7887,27.6905,25.0352,27.7068L29.3218,27.7068C29.5683,27.6923,29.7821,27.5926,29.9652,27.4114Z" fill="#FFFFFF" fill-opacity="1"/></g></g></g></svg>