<svg xmlns="http://www.w3.org/2000/svg" xmlns:xlink="http://www.w3.org/1999/xlink" fill="none" version="1.1" width="40" height="40" viewBox="0 0 40 40"><defs><clipPath id="master_svg0_191_23843"><rect x="0" y="0" width="40" height="40" rx="20"/></clipPath><clipPath id="master_svg1_191_12267"><rect x="9" y="9" width="23" height="23" rx="0"/></clipPath></defs><g style="mix-blend-mode:passthrough" clip-path="url(#master_svg0_191_23843)"><rect x="0" y="0" width="40" height="40" rx="20" fill="#FFC117" fill-opacity="1"/><g clip-path="url(#master_svg1_191_12267)"><g><path d="M21.427734375,19.5599L31.977334374999998,19.5599C31.532134375,13.9335,27.048614375,9.445625,21.427734375,9L21.427734375,19.5599Z" fill="#FFFFFF" fill-opacity="1"/></g><g><path d="M19.5869,19.9149L19.5869,9C13.661570000000001,9.470063,9,14.42944,9,20.481299999999997C9,23.283,9.999524,25.8518,11.66109,27.8485L19.5869,19.9149Z" fill="#FFFFFF" fill-opacity="1"/></g><g><path d="M20.70561359375,21.402587890625L12.95068359375,29.165087890625C14.97127359375,30.930337890624997,17.615133593750002,31.999887890625,20.50743359375,31.999887890625C26.55338359375,31.999887890625,31.50798359375,27.333707890625,31.97758359375,21.402587890625L20.70561359375,21.402587890625Z" fill="#FFFFFF" fill-opacity="1"/></g></g></g></svg>