<svg xmlns="http://www.w3.org/2000/svg" xmlns:xlink="http://www.w3.org/1999/xlink" fill="none" version="1.1" width="40" height="40" viewBox="0 0 40 40"><defs><clipPath id="master_svg0_191_23790"><rect x="0" y="0" width="40" height="40" rx="20"/></clipPath><clipPath id="master_svg1_191_12254"><rect x="7" y="7" width="26" height="26" rx="0"/></clipPath></defs><g style="mix-blend-mode:passthrough" clip-path="url(#master_svg0_191_23790)"><rect x="0" y="0" width="40" height="40" rx="20" fill="#6366F1" fill-opacity="1"/><g clip-path="url(#master_svg1_191_12254)"><g><path d="M24.43092734375,12.585888359375C25.19262734375,12.585888359375,25.81222734375,11.996828359375,25.81222734375,11.268118359375L25.81222734375,9.950338359375C25.81222734375,9.221630359375,25.19262734375,8.632568359375,24.43092734375,8.632568359375C23.666697343750002,8.632568359375,23.04970734375,9.221630359375,23.04970734375,9.950338359375L23.04970734375,11.268118359375C23.04970734375,11.996828359375,23.669237343749998,12.585888359375,24.43092734375,12.585888359375ZM15.54677734375,12.585888359375C16.30849734375,12.585888359375,16.92802734375,11.996828359375,16.92802734375,11.268118359375L16.92802734375,9.950338359375C16.92802734375,9.221630359375,16.30849734375,8.632568359375,15.54677734375,8.632568359375C14.78251934375,8.632568359375,14.16552734375,9.221630359375,14.16552734375,9.950338359375L14.16552734375,11.268118359375C14.16552734375,11.996828359375,14.78251934375,12.585888359375,15.54677734375,12.585888359375Z" fill="#FFFFFF" fill-opacity="1"/></g><g><path d="M26.71864296875,10.71972675L26.71864296875,11.52968775C26.71864296875,12.55038875,25.68774296875,13.38066875,24.41824296875,13.38066875C23.14614296875,13.38066875,22.11534296875,12.55292875,22.11534296875,11.52968775L22.11534296875,10.60546875L17.82939296875,10.60546875L17.82939296875,11.52968775C17.82939296875,12.55038875,16.79853296875,13.38066875,15.52900296875,13.38066875C14.25693296875,13.38066875,13.22607296875,12.55292875,13.22607296875,11.52968775L13.22607296875,10.73496075C12.02001996875,11.10820275,11.14404296875,12.23554875,11.14404296875,13.57108875L11.14404296875,28.40176875C11.14404296875,30.03946875,12.46435296875,31.36736875,14.09443296875,31.36736875L25.901042968749998,31.36736875C27.53114296875,31.36736875,28.85144296875,30.03946875,28.85144296875,28.40176875L28.85144296875,13.57108875C28.85404296875,12.21776875,27.95264296875,11.07519475,26.71864296875,10.71972675ZM25.62434296875,27.70096875L14.37627296875,27.70096875C13.909082968749999,27.70096875,13.53330296875,27.30996875,13.53330296875,26.82496875C13.53330296875,26.342568749999998,13.91162296875,25.949068750000002,14.37627296875,25.949068750000002L25.626842968749997,25.949068750000002C26.09404296875,25.949068750000002,26.46984296875,26.34006875,26.46984296875,26.82496875C26.46984296875,27.30996875,26.091542968749998,27.70096875,25.62434296875,27.70096875ZM25.62434296875,23.054468749999998L14.37627296875,23.054468749999998C13.909082968749999,23.054468749999998,13.53330296875,22.66346875,13.53330296875,22.17846875C13.53330296875,21.696068750000002,13.91162296875,21.30256875,14.37627296875,21.30256875L25.626842968749997,21.30256875C26.09404296875,21.30256875,26.46984296875,21.69356875,26.46984296875,22.17846875C26.46984296875,22.66346875,26.091542968749998,23.054468749999998,25.62434296875,23.054468749999998ZM25.62434296875,18.40800875L14.37627296875,18.40800875C13.909082968749999,18.40800875,13.53330296875,18.01698875,13.53330296875,17.532028750000002C13.53330296875,17.04960875,13.91162296875,16.65605875,14.37627296875,16.65605875L25.626842968749997,16.65605875C26.09404296875,16.65605875,26.46984296875,17.04706875,26.46984296875,17.532028750000002C26.46984296875,18.01698875,26.091542968749998,18.40800875,25.62434296875,18.40800875Z" fill="#FFFFFF" fill-opacity="1"/></g></g></g></svg>