<svg xmlns="http://www.w3.org/2000/svg" xmlns:xlink="http://www.w3.org/1999/xlink" fill="none" version="1.1" width="20" height="20" viewBox="0 0 20 20"><defs><clipPath id="master_svg0_233_23952"><rect x="0" y="0" width="20" height="20" rx="0"/></clipPath></defs><g clip-path="url(#master_svg0_233_23952)"><g><path d="M1.07392921875,11.200010986328126Q0.61660421875,11.200010986328126,0.28852721875,10.860010986328126Q-0.0395508182859,10.520010986328124,-0.03955078125,10.060010986328125L-0.03955078125,8.540010986328124Q-0.03955078125,8.080010986328125,0.28852721875,7.750010986328125Q0.61660421875,7.420010986328125,1.07392921875,7.420010986328125L15.66844921875,7.420010986328125Q15.37014921875,7.500010986328125,15.09174921875,7.630010986328125Q14.81344921875,7.760010986328125,14.59474921875,8.040010986328124Q13.95844921875,8.760010986328126,13.32214921875,9.590010986328124Q12.68584921875,10.420010986328126,12.10924921875,11.200010986328126L1.07392921875,11.200010986328126ZM3.55935921875,6.140010986328125Q3.10203921875,6.140010986328125,2.77395921875,5.800010986328125Q2.44588921875,5.460010986328125,2.44588921875,5.000010986328125L2.44588921875,3.600010986328125Q2.44588921875,3.140010986328125,2.77395921875,2.810010986328125Q3.10203921875,2.480010986328125,3.55935921875,2.480010986328125L18.69074921875,2.480010986328125Q19.14804921875,2.480010986328125,19.48604921875,2.810010986328125Q19.82404921875,3.140010986328125,19.82404921875,3.600010986328125L19.82404921875,5.000010986328125Q19.82404921875,5.460010986328125,19.48604921875,5.800010986328125Q19.14804921875,6.140010986328125,18.69074921875,6.140010986328125L3.55935921875,6.140010986328125ZM13.60054921875,14.920010986328125L13.60054921875,15.080010986328125Q13.60054921875,15.200010986328126,13.61044921875,15.470010986328125Q13.62044921875,15.740010986328125,13.62044921875,16.260010986328126L1.07392921875,16.260010986328126Q0.61660621875,16.260010986328126,0.28852821875,15.930010986328124Q-0.03954926278,15.600010986328124,-0.03954922574,15.120010986328126L-0.03954922574,13.620010986328126Q-0.03954922574,13.160010986328125,0.28852821875,12.830010986328125Q0.61660621875,12.500010986328125,1.07392921875,12.500010986328125L11.11504921875,12.500010986328125Q11.05544921875,12.540010986328125,11.00574921875,12.610010986328126Q10.95604921875,12.680010986328124,10.91624921875,12.720010986328125Q10.71744921875,13.000010986328125,10.67764921875,13.380010986328125Q10.63784921875,13.760010986328124,10.75714921875,14.110010986328126Q10.87644921875,14.460010986328125,11.14494921875,14.700010986328126Q11.41334921875,14.940010986328126,11.81104921875,14.940010986328126L12.74554921875,14.940010986328126L13.60054921875,14.920010986328125ZM19.52584921875,12.680010986328124L19.82404921875,13.180010986328124Q19.94334921875,13.380010986328125,19.94334921875,13.500010986328125Q19.94334921875,13.620010986328126,19.79424921875,13.670010986328125Q19.64514921875,13.720010986328125,19.30704921875,13.720010986328125L18.23334921875,13.720010986328125Q17.79594921875,13.720010986328125,17.57724921875,13.940010986328126Q17.35854921875,14.160010986328125,17.35854921875,14.520010986328124L17.35854921875,16.460010986328125Q17.35854921875,16.800010986328125,17.06024921875,17.140010986328125Q16.76204921875,17.480010986328125,16.34444921875,17.480010986328125L15.56894921875,17.480010986328125Q15.27074921875,17.480010986328125,15.04204921875,17.250010986328125Q14.81344921875,17.020010986328124,14.81344921875,16.440010986328126Q14.81344921875,16.180010986328124,14.82334921875,16.110010986328128Q14.83334921875,16.040010986328127,14.83334921875,15.930010986328124Q14.83334921875,15.820010986328125,14.84324921875,15.560010986328125Q14.85314921875,15.300010986328125,14.85314921875,14.660010986328125Q14.85314921875,14.160010986328125,14.68414921875,13.940010986328126Q14.51514921875,13.720010986328125,14.07774921875,13.720010986328125L13.00404921875,13.720010986328125Q12.54674921875,13.720010986328125,12.42744921875,13.530010986328126Q12.30814921875,13.340010986328124,12.62624921875,12.940010986328126Q12.92444921875,12.540010986328125,13.29234921875,12.010000986328125Q13.66014921875,11.480000986328125,14.04794921875,10.910010986328125Q14.43564921875,10.340010986328124,14.80344921875,9.800000986328126Q15.17134921875,9.260000986328125,15.50934921875,8.840000986328125Q15.64854921875,8.680010986328124,15.86724921875,8.590010986328124Q16.08594921875,8.500010986328125,16.32454921875,8.490010986328125Q16.56314921875,8.480010986328125,16.76204921875,8.540010986328124Q16.96084921875,8.600010986328126,17.06024921875,8.740000986328125Q17.29884921875,9.160010986328125,17.60704921875,9.670000986328125Q17.91524921875,10.180010986328124,18.25324921875,10.700000986328124Q18.59124921875,11.220000986328126,18.91934921875,11.730010986328125Q19.24744921875,12.240010986328125,19.52584921875,12.680010986328124Z" fill="#FFFFFF" fill-opacity="1"/></g></g></svg>