<svg xmlns="http://www.w3.org/2000/svg" xmlns:xlink="http://www.w3.org/1999/xlink" fill="none" version="1.1" width="16" height="16" viewBox="0 0 16 16"><defs><clipPath id="master_svg0_617_32085"><rect x="0" y="0" width="16" height="16" rx="0"/></clipPath></defs><g clip-path="url(#master_svg0_617_32085)"><g><rect x="0" y="0" width="16" height="16" rx="0" fill="#FFFFFF" fill-opacity="0.009999999776482582"/></g><g><path d="M15,8.5L6,8.5Q5.9507543,8.5,5.9024549,8.490393Q5.854155,8.480785000000001,5.808658,8.46194Q5.763161,8.443094,5.722215,8.415735Q5.681269,8.388375,5.646447,8.353553Q5.611625,8.318731,5.584265,8.277785Q5.556906,8.236839,5.53806,8.191342Q5.519215,8.145845,5.509607,8.0975451Q5.5,8.0492457,5.5,8Q5.5,7.9507543,5.509607,7.9024549Q5.519215,7.854155,5.53806,7.808658Q5.556906,7.763161,5.584265,7.722215Q5.611625,7.681269,5.646447,7.646447Q5.681269,7.611625,5.722215,7.584265Q5.763161,7.556906,5.808658,7.53806Q5.854155,7.519215,5.9024549,7.509607Q5.9507543,7.5,6,7.5L15,7.5Q15.04924,7.5,15.09754,7.509607Q15.14584,7.519215,15.19134,7.53806Q15.23684,7.556906,15.27778,7.584265Q15.31873,7.611625,15.35355,7.646447Q15.38837,7.681269,15.41573,7.722215Q15.44309,7.763161,15.46194,7.808658Q15.48078,7.854155,15.49039,7.9024549Q15.5,7.9507543,15.5,8Q15.5,8.0492457,15.49039,8.0975451Q15.48078,8.145845,15.46194,8.191342Q15.44309,8.236839,15.41573,8.277785Q15.38837,8.318731,15.35355,8.353553Q15.31873,8.388375,15.27778,8.415735Q15.23684,8.443094,15.19134,8.46194Q15.14584,8.480785000000001,15.09754,8.490393Q15.04924,8.5,15,8.5ZM15.5,8Q15.5,8.0492457,15.49039,8.0975451Q15.48078,8.145845,15.46194,8.191342Q15.44309,8.236839,15.41573,8.277785Q15.38837,8.318731,15.35355,8.353553Q15.31873,8.388375,15.27778,8.415735Q15.23684,8.443094,15.19134,8.46194Q15.14584,8.480785000000001,15.09754,8.490393Q15.04924,8.5,15,8.5Q14.95075,8.5,14.90245,8.490393Q14.85415,8.480785000000001,14.80866,8.46194Q14.76316,8.443094,14.72221,8.415735Q14.68127,8.388375,14.64645,8.353553Q14.61162,8.318731,14.58426,8.277785Q14.5569,8.236839,14.53806,8.191342Q14.51921,8.145845,14.50961,8.0975451Q14.5,8.0492457,14.5,8Q14.5,7.9507543,14.50961,7.9024549Q14.51921,7.854155,14.53806,7.808658Q14.5569,7.763161,14.58426,7.722215Q14.61162,7.681269,14.64645,7.646447Q14.68127,7.611625,14.72221,7.584265Q14.76316,7.556906,14.80866,7.53806Q14.85415,7.519215,14.90245,7.509607Q14.95075,7.5,15,7.5Q15.04924,7.5,15.09754,7.509607Q15.14584,7.519215,15.19134,7.53806Q15.23684,7.556906,15.27778,7.584265Q15.31873,7.611625,15.35355,7.646447Q15.38837,7.681269,15.41573,7.722215Q15.44309,7.763161,15.46194,7.808658Q15.48078,7.854155,15.49039,7.9024549Q15.5,7.9507543,15.5,8ZM6.5,8Q6.5,8.0492457,6.490393,8.0975451Q6.480785,8.145845,6.46194,8.191342Q6.443094,8.236839,6.415735,8.277785Q6.388375,8.318731,6.353553,8.353553Q6.318731,8.388375,6.277785,8.415735Q6.236839,8.443094,6.191342,8.46194Q6.145845,8.480785000000001,6.0975451,8.490393Q6.0492457,8.5,6,8.5Q5.9507543,8.5,5.9024549,8.490393Q5.854155,8.480785000000001,5.808658,8.46194Q5.763161,8.443094,5.722215,8.415735Q5.681269,8.388375,5.646447,8.353553Q5.611625,8.318731,5.584265,8.277785Q5.556906,8.236839,5.53806,8.191342Q5.519215,8.145845,5.509607,8.0975451Q5.5,8.0492457,5.5,8Q5.5,7.9507543,5.509607,7.9024549Q5.519215,7.854155,5.53806,7.808658Q5.556906,7.763161,5.584265,7.722215Q5.611625,7.681269,5.646447,7.646447Q5.681269,7.611625,5.722215,7.584265Q5.763161,7.556906,5.808658,7.53806Q5.854155,7.519215,5.9024549,7.509607Q5.9507543,7.5,6,7.5Q6.0492457,7.5,6.0975451,7.509607Q6.145845,7.519215,6.191342,7.53806Q6.236839,7.556906,6.277785,7.584265Q6.318731,7.611625,6.353553,7.646447Q6.388375,7.681269,6.415735,7.722215Q6.443094,7.763161,6.46194,7.808658Q6.480785,7.854155,6.490393,7.9024549Q6.5,7.9507543,6.5,8Z" fill="#666666" fill-opacity="1"/></g><g><path d="M3.33333,8.5L2,8.5Q1.9507543,8.5,1.9024549,8.490393Q1.854155,8.480785000000001,1.8086579999999999,8.46194Q1.763161,8.443094,1.722215,8.415735Q1.681269,8.388375,1.646447,8.353553Q1.611625,8.318731,1.584265,8.277785Q1.5569060000000001,8.236839,1.53806,8.191342Q1.519215,8.145845,1.509607,8.0975451Q1.5,8.0492457,1.5,8Q1.5,7.9507543,1.509607,7.9024549Q1.519215,7.854155,1.53806,7.808658Q1.5569060000000001,7.763161,1.584265,7.722215Q1.611625,7.681269,1.646447,7.646447Q1.681269,7.611625,1.722215,7.584265Q1.763161,7.556906,1.8086579999999999,7.53806Q1.854155,7.519215,1.9024549,7.509607Q1.9507543,7.5,2,7.5L3.33333,7.5Q3.38258,7.5,3.43088,7.509607Q3.47918,7.519215,3.52468,7.53806Q3.57017,7.556906,3.61112,7.584265Q3.65206,7.611625,3.68689,7.646447Q3.72171,7.681269,3.7490699999999997,7.722215Q3.77643,7.763161,3.79527,7.808658Q3.81412,7.854155,3.8237300000000003,7.9024549Q3.83333,7.9507543,3.83333,8Q3.83333,8.0492457,3.8237300000000003,8.0975451Q3.81412,8.145845,3.79527,8.191342Q3.77643,8.236839,3.7490699999999997,8.277785Q3.72171,8.318731,3.68689,8.353553Q3.65206,8.388375,3.61112,8.415735Q3.57017,8.443094,3.52468,8.46194Q3.47918,8.480785000000001,3.43088,8.490393Q3.38258,8.5,3.33333,8.5ZM3.83333,8Q3.83333,8.0492457,3.8237300000000003,8.0975451Q3.81412,8.145845,3.79527,8.191342Q3.77643,8.236839,3.7490699999999997,8.277785Q3.72171,8.318731,3.68689,8.353553Q3.65206,8.388375,3.61112,8.415735Q3.57017,8.443094,3.52468,8.46194Q3.47918,8.480785000000001,3.43088,8.490393Q3.38258,8.5,3.33333,8.5Q3.28409,8.5,3.2357899999999997,8.490393Q3.18749,8.480785000000001,3.14199,8.46194Q3.09649,8.443094,3.05555,8.415735Q3.0145999999999997,8.388375,2.97978,8.353553Q2.9449579999999997,8.318731,2.917598,8.277785Q2.8902390000000002,8.236839,2.871394,8.191342Q2.852548,8.145845,2.842941,8.0975451Q2.833333,8.0492457,2.833333,8Q2.833333,7.9507543,2.842941,7.9024549Q2.852548,7.854155,2.871394,7.808658Q2.8902390000000002,7.763161,2.917598,7.722215Q2.9449579999999997,7.681269,2.97978,7.646447Q3.0145999999999997,7.611625,3.05555,7.584265Q3.09649,7.556906,3.14199,7.53806Q3.18749,7.519215,3.2357899999999997,7.509607Q3.28409,7.5,3.33333,7.5Q3.38258,7.5,3.43088,7.509607Q3.47918,7.519215,3.52468,7.53806Q3.57017,7.556906,3.61112,7.584265Q3.65206,7.611625,3.68689,7.646447Q3.72171,7.681269,3.7490699999999997,7.722215Q3.77643,7.763161,3.79527,7.808658Q3.81412,7.854155,3.8237300000000003,7.9024549Q3.83333,7.9507543,3.83333,8ZM2.5,8Q2.5,8.0492457,2.490393,8.0975451Q2.480785,8.145845,2.4619400000000002,8.191342Q2.443094,8.236839,2.415735,8.277785Q2.388375,8.318731,2.353553,8.353553Q2.318731,8.388375,2.277785,8.415735Q2.236839,8.443094,2.191342,8.46194Q2.145845,8.480785000000001,2.0975451,8.490393Q2.0492457,8.5,2,8.5Q1.9507543,8.5,1.9024549,8.490393Q1.854155,8.480785000000001,1.8086579999999999,8.46194Q1.763161,8.443094,1.722215,8.415735Q1.681269,8.388375,1.646447,8.353553Q1.611625,8.318731,1.584265,8.277785Q1.5569060000000001,8.236839,1.53806,8.191342Q1.519215,8.145845,1.509607,8.0975451Q1.5,8.0492457,1.5,8Q1.5,7.9507543,1.509607,7.9024549Q1.519215,7.854155,1.53806,7.808658Q1.5569060000000001,7.763161,1.584265,7.722215Q1.611625,7.681269,1.646447,7.646447Q1.681269,7.611625,1.722215,7.584265Q1.763161,7.556906,1.8086579999999999,7.53806Q1.854155,7.519215,1.9024549,7.509607Q1.9507543,7.5,2,7.5Q2.0492457,7.5,2.0975451,7.509607Q2.145845,7.519215,2.191342,7.53806Q2.236839,7.556906,2.277785,7.584265Q2.318731,7.611625,2.353553,7.646447Q2.388375,7.681269,2.415735,7.722215Q2.443094,7.763161,2.4619400000000002,7.808658Q2.480785,7.854155,2.490393,7.9024549Q2.5,7.9507543,2.5,8Z" fill="#666666" fill-opacity="1"/></g><g><path d="M14.66667,13.16668701171875L6,13.16668701171875Q5.9507543,13.16668701171875,5.9024549,13.15708001171875Q5.854155,13.147472011718751,5.808658,13.12862701171875Q5.763161,13.10978101171875,5.722215,13.08242201171875Q5.681269,13.05506201171875,5.646447,13.02024001171875Q5.611625,12.98541801171875,5.584265,12.94447201171875Q5.556906,12.90352601171875,5.53806,12.85802901171875Q5.519215,12.81253201171875,5.509607,12.76423211171875Q5.5,12.71593271171875,5.5,12.66668701171875Q5.5,12.61744131171875,5.509607,12.56914191171875Q5.519215,12.52084201171875,5.53806,12.47534501171875Q5.556906,12.42984801171875,5.584265,12.38890201171875Q5.611625,12.34795601171875,5.646447,12.31313401171875Q5.681269,12.27831201171875,5.722215,12.25095201171875Q5.763161,12.22359301171875,5.808658,12.20474701171875Q5.854155,12.185902011718749,5.9024549,12.17629401171875Q5.9507543,12.16668701171875,6,12.16668701171875L14.66667,12.16668701171875Q14.71591,12.16668701171875,14.76421,12.17629401171875Q14.81251,12.185902011718749,14.85801,12.20474701171875Q14.9035,12.22359301171875,14.94445,12.25095201171875Q14.9854,12.27831201171875,15.02022,12.31313401171875Q15.05504,12.34795601171875,15.0824,12.38890201171875Q15.10976,12.42984801171875,15.1286,12.47534501171875Q15.14745,12.52084201171875,15.15706,12.56914191171875Q15.16667,12.61744131171875,15.16667,12.66668701171875Q15.16667,12.71593271171875,15.15706,12.76423211171875Q15.14745,12.81253201171875,15.12861,12.85802901171875Q15.10976,12.90352601171875,15.0824,12.94447201171875Q15.05504,12.98541801171875,15.02022,13.02024001171875Q14.9854,13.05506201171875,14.94445,13.08242201171875Q14.90351,13.10978101171875,14.85801,13.12862701171875Q14.81251,13.147472011718751,14.76421,13.15708001171875Q14.71591,13.16668701171875,14.66667,13.16668701171875ZM15.16667,12.66668701171875Q15.16667,12.71593271171875,15.15706,12.76423211171875Q15.14745,12.81253201171875,15.12861,12.85802901171875Q15.10976,12.90352601171875,15.0824,12.94447201171875Q15.05504,12.98541801171875,15.02022,13.02024001171875Q14.9854,13.05506201171875,14.94445,13.08242201171875Q14.90351,13.10978101171875,14.85801,13.12862701171875Q14.81251,13.147472011718751,14.76421,13.15708001171875Q14.71591,13.16668701171875,14.66667,13.16668701171875Q14.61742,13.16668701171875,14.56912,13.15708001171875Q14.52082,13.147472011718751,14.47532,13.12862701171875Q14.42983,13.10978101171875,14.38888,13.08242201171875Q14.34793,13.05506201171875,14.31311,13.02024001171875Q14.27829,12.98541801171875,14.25093,12.94447201171875Q14.22357,12.90352601171875,14.20473,12.85802901171875Q14.18588,12.81253201171875,14.17627,12.76423211171875Q14.16667,12.71593271171875,14.16667,12.66668701171875Q14.16667,12.61744131171875,14.17627,12.56914191171875Q14.18588,12.52084201171875,14.20473,12.47534501171875Q14.22357,12.42984801171875,14.25093,12.38890201171875Q14.27829,12.34795601171875,14.31311,12.31313401171875Q14.34793,12.27831201171875,14.38888,12.25095201171875Q14.42983,12.22359301171875,14.47532,12.20474701171875Q14.52082,12.185902011718749,14.56912,12.17629401171875Q14.61742,12.16668701171875,14.66667,12.16668701171875Q14.71591,12.16668701171875,14.76421,12.17629401171875Q14.81251,12.185902011718749,14.85801,12.20474701171875Q14.9035,12.22359301171875,14.94445,12.25095201171875Q14.9854,12.27831201171875,15.02022,12.31313401171875Q15.05504,12.34795601171875,15.0824,12.38890201171875Q15.10976,12.42984801171875,15.1286,12.47534501171875Q15.14745,12.52084201171875,15.15706,12.56914191171875Q15.16667,12.61744131171875,15.16667,12.66668701171875ZM6.5,12.66668701171875Q6.5,12.71593271171875,6.490393,12.76423211171875Q6.480785,12.81253201171875,6.46194,12.85802901171875Q6.443094,12.90352601171875,6.415735,12.94447201171875Q6.388375,12.98541801171875,6.353553,13.02024001171875Q6.318731,13.05506201171875,6.277785,13.08242201171875Q6.236839,13.10978101171875,6.191342,13.12862701171875Q6.145845,13.147472011718751,6.0975451,13.15708001171875Q6.0492457,13.16668701171875,6,13.16668701171875Q5.9507543,13.16668701171875,5.9024549,13.15708001171875Q5.854155,13.147472011718751,5.808658,13.12862701171875Q5.763161,13.10978101171875,5.722215,13.08242201171875Q5.681269,13.05506201171875,5.646447,13.02024001171875Q5.611625,12.98541801171875,5.584265,12.94447201171875Q5.556906,12.90352601171875,5.53806,12.85802901171875Q5.519215,12.81253201171875,5.509607,12.76423211171875Q5.5,12.71593271171875,5.5,12.66668701171875Q5.5,12.61744131171875,5.509607,12.56914191171875Q5.519215,12.52084201171875,5.53806,12.47534501171875Q5.556906,12.42984801171875,5.584265,12.38890201171875Q5.611625,12.34795601171875,5.646447,12.31313401171875Q5.681269,12.27831201171875,5.722215,12.25095201171875Q5.763161,12.22359301171875,5.808658,12.20474701171875Q5.854155,12.185902011718749,5.9024549,12.17629401171875Q5.9507543,12.16668701171875,6,12.16668701171875Q6.0492457,12.16668701171875,6.0975451,12.17629401171875Q6.145845,12.185902011718749,6.191342,12.20474701171875Q6.236839,12.22359301171875,6.277785,12.25095201171875Q6.318731,12.27831201171875,6.353553,12.31313401171875Q6.388375,12.34795601171875,6.415735,12.38890201171875Q6.443094,12.42984801171875,6.46194,12.47534501171875Q6.480785,12.52084201171875,6.490393,12.56914191171875Q6.5,12.61744131171875,6.5,12.66668701171875Z" fill="#666666" fill-opacity="1"/></g><g><path d="M3.33333,13.16668701171875L2,13.16668701171875Q1.9507543,13.16668701171875,1.9024549,13.15708001171875Q1.854155,13.147472011718751,1.8086579999999999,13.12862701171875Q1.763161,13.10978101171875,1.722215,13.08242201171875Q1.681269,13.05506201171875,1.646447,13.02024001171875Q1.611625,12.98541801171875,1.584265,12.94447201171875Q1.5569060000000001,12.90352601171875,1.53806,12.85802901171875Q1.519215,12.81253201171875,1.509607,12.76423211171875Q1.5,12.71593271171875,1.5,12.66668701171875Q1.5,12.61744131171875,1.509607,12.56914191171875Q1.519215,12.52084201171875,1.53806,12.47534501171875Q1.5569060000000001,12.42984801171875,1.584265,12.38890201171875Q1.611625,12.34795601171875,1.646447,12.31313401171875Q1.681269,12.27831201171875,1.722215,12.25095201171875Q1.763161,12.22359301171875,1.8086579999999999,12.20474701171875Q1.854155,12.185902011718749,1.9024549,12.17629401171875Q1.9507543,12.16668701171875,2,12.16668701171875L3.33333,12.16668701171875Q3.38258,12.16668701171875,3.43088,12.17629401171875Q3.47918,12.185902011718749,3.52468,12.20474701171875Q3.57017,12.22359301171875,3.61112,12.25095201171875Q3.65206,12.27831201171875,3.68689,12.31313401171875Q3.72171,12.34795601171875,3.7490699999999997,12.38890201171875Q3.77643,12.42984801171875,3.79527,12.47534501171875Q3.81412,12.52084201171875,3.8237300000000003,12.56914191171875Q3.83333,12.61744131171875,3.83333,12.66668701171875Q3.83333,12.71593271171875,3.8237300000000003,12.76423211171875Q3.81412,12.81253201171875,3.79527,12.85802901171875Q3.77643,12.90352601171875,3.7490699999999997,12.94447201171875Q3.72171,12.98541801171875,3.68689,13.02024001171875Q3.65206,13.05506201171875,3.61112,13.08242201171875Q3.57017,13.10978101171875,3.52468,13.12862701171875Q3.47918,13.147472011718751,3.43088,13.15708001171875Q3.38258,13.16668701171875,3.33333,13.16668701171875ZM3.83333,12.66668701171875Q3.83333,12.71593271171875,3.8237300000000003,12.76423211171875Q3.81412,12.81253201171875,3.79527,12.85802901171875Q3.77643,12.90352601171875,3.7490699999999997,12.94447201171875Q3.72171,12.98541801171875,3.68689,13.02024001171875Q3.65206,13.05506201171875,3.61112,13.08242201171875Q3.57017,13.10978101171875,3.52468,13.12862701171875Q3.47918,13.147472011718751,3.43088,13.15708001171875Q3.38258,13.16668701171875,3.33333,13.16668701171875Q3.28409,13.16668701171875,3.2357899999999997,13.15708001171875Q3.18749,13.147472011718751,3.14199,13.12862701171875Q3.09649,13.10978101171875,3.05555,13.08242201171875Q3.0145999999999997,13.05506201171875,2.97978,13.02024001171875Q2.9449579999999997,12.98541801171875,2.917598,12.94447201171875Q2.8902390000000002,12.90352601171875,2.871394,12.85802901171875Q2.852548,12.81253201171875,2.842941,12.76423211171875Q2.833333,12.71593271171875,2.833333,12.66668701171875Q2.833333,12.61744131171875,2.842941,12.56914191171875Q2.852548,12.52084201171875,2.871394,12.47534501171875Q2.8902390000000002,12.42984801171875,2.917598,12.38890201171875Q2.9449579999999997,12.34795601171875,2.97978,12.31313401171875Q3.0145999999999997,12.27831201171875,3.05555,12.25095201171875Q3.09649,12.22359301171875,3.14199,12.20474701171875Q3.18749,12.185902011718749,3.2357899999999997,12.17629401171875Q3.28409,12.16668701171875,3.33333,12.16668701171875Q3.38258,12.16668701171875,3.43088,12.17629401171875Q3.47918,12.185902011718749,3.52468,12.20474701171875Q3.57017,12.22359301171875,3.61112,12.25095201171875Q3.65206,12.27831201171875,3.68689,12.31313401171875Q3.72171,12.34795601171875,3.7490699999999997,12.38890201171875Q3.77643,12.42984801171875,3.79527,12.47534501171875Q3.81412,12.52084201171875,3.8237300000000003,12.56914191171875Q3.83333,12.61744131171875,3.83333,12.66668701171875ZM2.5,12.66668701171875Q2.5,12.71593271171875,2.490393,12.76423211171875Q2.480785,12.81253201171875,2.4619400000000002,12.85802901171875Q2.443094,12.90352601171875,2.415735,12.94447201171875Q2.388375,12.98541801171875,2.353553,13.02024001171875Q2.318731,13.05506201171875,2.277785,13.08242201171875Q2.236839,13.10978101171875,2.191342,13.12862701171875Q2.145845,13.147472011718751,2.0975451,13.15708001171875Q2.0492457,13.16668701171875,2,13.16668701171875Q1.9507543,13.16668701171875,1.9024549,13.15708001171875Q1.854155,13.147472011718751,1.8086579999999999,13.12862701171875Q1.763161,13.10978101171875,1.722215,13.08242201171875Q1.681269,13.05506201171875,1.646447,13.02024001171875Q1.611625,12.98541801171875,1.584265,12.94447201171875Q1.5569060000000001,12.90352601171875,1.53806,12.85802901171875Q1.519215,12.81253201171875,1.509607,12.76423211171875Q1.5,12.71593271171875,1.5,12.66668701171875Q1.5,12.61744131171875,1.509607,12.56914191171875Q1.519215,12.52084201171875,1.53806,12.47534501171875Q1.5569060000000001,12.42984801171875,1.584265,12.38890201171875Q1.611625,12.34795601171875,1.646447,12.31313401171875Q1.681269,12.27831201171875,1.722215,12.25095201171875Q1.763161,12.22359301171875,1.8086579999999999,12.20474701171875Q1.854155,12.185902011718749,1.9024549,12.17629401171875Q1.9507543,12.16668701171875,2,12.16668701171875Q2.0492457,12.16668701171875,2.0975451,12.17629401171875Q2.145845,12.185902011718749,2.191342,12.20474701171875Q2.236839,12.22359301171875,2.277785,12.25095201171875Q2.318731,12.27831201171875,2.353553,12.31313401171875Q2.388375,12.34795601171875,2.415735,12.38890201171875Q2.443094,12.42984801171875,2.4619400000000002,12.47534501171875Q2.480785,12.52084201171875,2.490393,12.56914191171875Q2.5,12.61744131171875,2.5,12.66668701171875Z" fill="#666666" fill-opacity="1"/></g><g><path d="M14.66667,3.83331298828125L6,3.83331298828125Q5.9507543,3.83331298828125,5.9024549,3.82370598828125Q5.854155,3.81409798828125,5.808658,3.7952529882812502Q5.763161,3.77640698828125,5.722215,3.74904798828125Q5.681269,3.72168798828125,5.646447,3.68686598828125Q5.611625,3.65204398828125,5.584265,3.61109798828125Q5.556906,3.57015198828125,5.53806,3.52465498828125Q5.519215,3.47915798828125,5.509607,3.43085808828125Q5.5,3.38255868828125,5.5,3.33331298828125Q5.5,3.28406728828125,5.509607,3.23576788828125Q5.519215,3.18746798828125,5.53806,3.14197098828125Q5.556906,3.09647398828125,5.584265,3.05552798828125Q5.611625,3.01458198828125,5.646447,2.97975998828125Q5.681269,2.94493798828125,5.722215,2.91757798828125Q5.763161,2.89021898828125,5.808658,2.8713729882812498Q5.854155,2.85252798828125,5.9024549,2.84291998828125Q5.9507543,2.83331298828125,6,2.83331298828125L14.66667,2.83331298828125Q14.71591,2.83331298828125,14.76421,2.84291998828125Q14.81251,2.85252798828125,14.85801,2.8713729882812498Q14.9035,2.89021898828125,14.94445,2.91757798828125Q14.9854,2.94493798828125,15.02022,2.97975998828125Q15.05504,3.01458198828125,15.0824,3.05552798828125Q15.10976,3.09647398828125,15.1286,3.14197098828125Q15.14745,3.18746798828125,15.15706,3.23576788828125Q15.16667,3.28406728828125,15.16667,3.33331298828125Q15.16667,3.38255868828125,15.15706,3.43085808828125Q15.14745,3.47915798828125,15.12861,3.52465498828125Q15.10976,3.57015198828125,15.0824,3.61109798828125Q15.05504,3.65204398828125,15.02022,3.68686598828125Q14.9854,3.72168798828125,14.94445,3.74904798828125Q14.90351,3.77640698828125,14.85801,3.7952529882812502Q14.81251,3.81409798828125,14.76421,3.82370598828125Q14.71591,3.83331298828125,14.66667,3.83331298828125ZM15.16667,3.33331298828125Q15.16667,3.38255868828125,15.15706,3.43085808828125Q15.14745,3.47915798828125,15.12861,3.52465498828125Q15.10976,3.57015198828125,15.0824,3.61109798828125Q15.05504,3.65204398828125,15.02022,3.68686598828125Q14.9854,3.72168798828125,14.94445,3.74904798828125Q14.90351,3.77640698828125,14.85801,3.7952529882812502Q14.81251,3.81409798828125,14.76421,3.82370598828125Q14.71591,3.83331298828125,14.66667,3.83331298828125Q14.61742,3.83331298828125,14.56912,3.82370598828125Q14.52082,3.81409798828125,14.47532,3.7952529882812502Q14.42983,3.77640698828125,14.38888,3.74904798828125Q14.34793,3.72168798828125,14.31311,3.68686598828125Q14.27829,3.65204398828125,14.25093,3.61109798828125Q14.22357,3.57015198828125,14.20473,3.52465498828125Q14.18588,3.47915798828125,14.17627,3.43085808828125Q14.16667,3.38255868828125,14.16667,3.33331298828125Q14.16667,3.28406728828125,14.17627,3.23576788828125Q14.18588,3.18746798828125,14.20473,3.14197098828125Q14.22357,3.09647398828125,14.25093,3.05552798828125Q14.27829,3.01458198828125,14.31311,2.97975998828125Q14.34793,2.94493798828125,14.38888,2.91757798828125Q14.42983,2.89021898828125,14.47532,2.8713729882812498Q14.52082,2.85252798828125,14.56912,2.84291998828125Q14.61742,2.83331298828125,14.66667,2.83331298828125Q14.71591,2.83331298828125,14.76421,2.84291998828125Q14.81251,2.85252798828125,14.85801,2.8713729882812498Q14.9035,2.89021898828125,14.94445,2.91757798828125Q14.9854,2.94493798828125,15.02022,2.97975998828125Q15.05504,3.01458198828125,15.0824,3.05552798828125Q15.10976,3.09647398828125,15.1286,3.14197098828125Q15.14745,3.18746798828125,15.15706,3.23576788828125Q15.16667,3.28406728828125,15.16667,3.33331298828125ZM6.5,3.33331298828125Q6.5,3.38255868828125,6.490393,3.43085808828125Q6.480785,3.47915798828125,6.46194,3.52465498828125Q6.443094,3.57015198828125,6.415735,3.61109798828125Q6.388375,3.65204398828125,6.353553,3.68686598828125Q6.318731,3.72168798828125,6.277785,3.74904798828125Q6.236839,3.77640698828125,6.191342,3.7952529882812502Q6.145845,3.81409798828125,6.0975451,3.82370598828125Q6.0492457,3.83331298828125,6,3.83331298828125Q5.9507543,3.83331298828125,5.9024549,3.82370598828125Q5.854155,3.81409798828125,5.808658,3.7952529882812502Q5.763161,3.77640698828125,5.722215,3.74904798828125Q5.681269,3.72168798828125,5.646447,3.68686598828125Q5.611625,3.65204398828125,5.584265,3.61109798828125Q5.556906,3.57015198828125,5.53806,3.52465498828125Q5.519215,3.47915798828125,5.509607,3.43085808828125Q5.5,3.38255868828125,5.5,3.33331298828125Q5.5,3.28406728828125,5.509607,3.23576788828125Q5.519215,3.18746798828125,5.53806,3.14197098828125Q5.556906,3.09647398828125,5.584265,3.05552798828125Q5.611625,3.01458198828125,5.646447,2.97975998828125Q5.681269,2.94493798828125,5.722215,2.91757798828125Q5.763161,2.89021898828125,5.808658,2.8713729882812498Q5.854155,2.85252798828125,5.9024549,2.84291998828125Q5.9507543,2.83331298828125,6,2.83331298828125Q6.0492457,2.83331298828125,6.0975451,2.84291998828125Q6.145845,2.85252798828125,6.191342,2.8713729882812498Q6.236839,2.89021898828125,6.277785,2.91757798828125Q6.318731,2.94493798828125,6.353553,2.97975998828125Q6.388375,3.01458198828125,6.415735,3.05552798828125Q6.443094,3.09647398828125,6.46194,3.14197098828125Q6.480785,3.18746798828125,6.490393,3.23576788828125Q6.5,3.28406728828125,6.5,3.33331298828125Z" fill="#666666" fill-opacity="1"/></g><g><path d="M3.33333,3.83331298828125L2,3.83331298828125Q1.9507543,3.83331298828125,1.9024549,3.82370598828125Q1.854155,3.81409798828125,1.8086579999999999,3.7952529882812502Q1.763161,3.77640698828125,1.722215,3.74904798828125Q1.681269,3.72168798828125,1.646447,3.68686598828125Q1.611625,3.65204398828125,1.584265,3.61109798828125Q1.5569060000000001,3.57015198828125,1.53806,3.52465498828125Q1.519215,3.47915798828125,1.509607,3.43085808828125Q1.5,3.38255868828125,1.5,3.33331298828125Q1.5,3.28406728828125,1.509607,3.23576788828125Q1.519215,3.18746798828125,1.53806,3.14197098828125Q1.5569060000000001,3.09647398828125,1.584265,3.05552798828125Q1.611625,3.01458198828125,1.646447,2.97975998828125Q1.681269,2.94493798828125,1.722215,2.91757798828125Q1.763161,2.89021898828125,1.8086579999999999,2.8713729882812498Q1.854155,2.85252798828125,1.9024549,2.84291998828125Q1.9507543,2.83331298828125,2,2.83331298828125L3.33333,2.83331298828125Q3.38258,2.83331298828125,3.43088,2.84291998828125Q3.47918,2.85252798828125,3.52468,2.8713729882812498Q3.57017,2.89021898828125,3.61112,2.91757798828125Q3.65206,2.94493798828125,3.68689,2.97975998828125Q3.72171,3.01458198828125,3.7490699999999997,3.05552798828125Q3.77643,3.09647398828125,3.79527,3.14197098828125Q3.81412,3.18746798828125,3.8237300000000003,3.23576788828125Q3.83333,3.28406728828125,3.83333,3.33331298828125Q3.83333,3.38255868828125,3.8237300000000003,3.43085808828125Q3.81412,3.47915798828125,3.79527,3.52465498828125Q3.77643,3.57015198828125,3.7490699999999997,3.61109798828125Q3.72171,3.65204398828125,3.68689,3.68686598828125Q3.65206,3.72168798828125,3.61112,3.74904798828125Q3.57017,3.77640698828125,3.52468,3.7952529882812502Q3.47918,3.81409798828125,3.43088,3.82370598828125Q3.38258,3.83331298828125,3.33333,3.83331298828125ZM3.83333,3.33331298828125Q3.83333,3.38255868828125,3.8237300000000003,3.43085808828125Q3.81412,3.47915798828125,3.79527,3.52465498828125Q3.77643,3.57015198828125,3.7490699999999997,3.61109798828125Q3.72171,3.65204398828125,3.68689,3.68686598828125Q3.65206,3.72168798828125,3.61112,3.74904798828125Q3.57017,3.77640698828125,3.52468,3.7952529882812502Q3.47918,3.81409798828125,3.43088,3.82370598828125Q3.38258,3.83331298828125,3.33333,3.83331298828125Q3.28409,3.83331298828125,3.2357899999999997,3.82370598828125Q3.18749,3.81409798828125,3.14199,3.7952529882812502Q3.09649,3.77640698828125,3.05555,3.74904798828125Q3.0145999999999997,3.72168798828125,2.97978,3.68686598828125Q2.9449579999999997,3.65204398828125,2.917598,3.61109798828125Q2.8902390000000002,3.57015198828125,2.871394,3.52465498828125Q2.852548,3.47915798828125,2.842941,3.43085808828125Q2.833333,3.38255868828125,2.833333,3.33331298828125Q2.833333,3.28406728828125,2.842941,3.23576788828125Q2.852548,3.18746798828125,2.871394,3.14197098828125Q2.8902390000000002,3.09647398828125,2.917598,3.05552798828125Q2.9449579999999997,3.01458198828125,2.97978,2.97975998828125Q3.0145999999999997,2.94493798828125,3.05555,2.91757798828125Q3.09649,2.89021898828125,3.14199,2.8713729882812498Q3.18749,2.85252798828125,3.2357899999999997,2.84291998828125Q3.28409,2.83331298828125,3.33333,2.83331298828125Q3.38258,2.83331298828125,3.43088,2.84291998828125Q3.47918,2.85252798828125,3.52468,2.8713729882812498Q3.57017,2.89021898828125,3.61112,2.91757798828125Q3.65206,2.94493798828125,3.68689,2.97975998828125Q3.72171,3.01458198828125,3.7490699999999997,3.05552798828125Q3.77643,3.09647398828125,3.79527,3.14197098828125Q3.81412,3.18746798828125,3.8237300000000003,3.23576788828125Q3.83333,3.28406728828125,3.83333,3.33331298828125ZM2.5,3.33331298828125Q2.5,3.38255868828125,2.490393,3.43085808828125Q2.480785,3.47915798828125,2.4619400000000002,3.52465498828125Q2.443094,3.57015198828125,2.415735,3.61109798828125Q2.388375,3.65204398828125,2.353553,3.68686598828125Q2.318731,3.72168798828125,2.277785,3.74904798828125Q2.236839,3.77640698828125,2.191342,3.7952529882812502Q2.145845,3.81409798828125,2.0975451,3.82370598828125Q2.0492457,3.83331298828125,2,3.83331298828125Q1.9507543,3.83331298828125,1.9024549,3.82370598828125Q1.854155,3.81409798828125,1.8086579999999999,3.7952529882812502Q1.763161,3.77640698828125,1.722215,3.74904798828125Q1.681269,3.72168798828125,1.646447,3.68686598828125Q1.611625,3.65204398828125,1.584265,3.61109798828125Q1.5569060000000001,3.57015198828125,1.53806,3.52465498828125Q1.519215,3.47915798828125,1.509607,3.43085808828125Q1.5,3.38255868828125,1.5,3.33331298828125Q1.5,3.28406728828125,1.509607,3.23576788828125Q1.519215,3.18746798828125,1.53806,3.14197098828125Q1.5569060000000001,3.09647398828125,1.584265,3.05552798828125Q1.611625,3.01458198828125,1.646447,2.97975998828125Q1.681269,2.94493798828125,1.722215,2.91757798828125Q1.763161,2.89021898828125,1.8086579999999999,2.8713729882812498Q1.854155,2.85252798828125,1.9024549,2.84291998828125Q1.9507543,2.83331298828125,2,2.83331298828125Q2.0492457,2.83331298828125,2.0975451,2.84291998828125Q2.145845,2.85252798828125,2.191342,2.8713729882812498Q2.236839,2.89021898828125,2.277785,2.91757798828125Q2.318731,2.94493798828125,2.353553,2.97975998828125Q2.388375,3.01458198828125,2.415735,3.05552798828125Q2.443094,3.09647398828125,2.4619400000000002,3.14197098828125Q2.480785,3.18746798828125,2.490393,3.23576788828125Q2.5,3.28406728828125,2.5,3.33331298828125Z" fill="#666666" fill-opacity="1"/></g></g></svg>