<svg xmlns="http://www.w3.org/2000/svg" xmlns:xlink="http://www.w3.org/1999/xlink" fill="none" version="1.1" width="16" height="16" viewBox="0 0 16 16"><defs><clipPath id="master_svg0_233_26745"><rect x="16" y="16" width="16" height="16" rx="0"/></clipPath></defs><g transform="matrix(-1,0,0,-1,32,32)" clip-path="url(#master_svg0_233_26745)"><g><path d="M29.8245,24.69536C29.7066,24.817999999999998,29.5524,24.87932,29.3981,24.87932C29.2439,24.87932,29.090899999999998,24.817999999999998,28.973,24.69667L23.9837,19.51728L19.19875,24.68754C19.08088,24.81539,18.922884,24.87932,18.76489,24.87932C18.61442,24.87932,18.46395,24.820610000000002,18.347335,24.7045C18.107837,24.46444,18.100313,24.06784,18.331034,23.818649999999998L23.537300000000002,18.193073C23.53981,18.189159,23.54357,18.18655,23.54608,18.182636L23.55862,18.16959C23.56113,18.16698,23.56364,18.164371,23.5674,18.161762C23.572409999999998,18.156543,23.57743,18.151325,23.5837,18.147411C23.58746,18.144802,23.58997,18.140888,23.59373,18.138279C23.83072,17.9347558,24.18809,17.9608485,24.40251,18.183941L29.8219,23.80952C30.0589,24.05348,30.0589,24.45009,29.8245,24.69536ZM23.54107,18.18916L23.54733,18.182637C23.54483,18.186551,23.54107,18.18916,23.53856,18.193074L23.54107,18.18916ZM24.39875,18.178723C24.376170000000002,18.156544,24.39498,18.174809,24.39875,18.178723ZM29.348,28L18.601881,28C18.269592,28,18,27.7195,18,27.37378C18,27.02805,18.269592,26.74755,18.601881,26.74755L29.348,26.74755C29.6802,26.74755,29.9498,27.02805,29.9498,27.37378C29.9498,27.7195,29.6802,28,29.348,28Z" fill="#FFFFFF" fill-opacity="1"/></g></g></svg>