<svg xmlns="http://www.w3.org/2000/svg" xmlns:xlink="http://www.w3.org/1999/xlink" fill="none" version="1.1" width="48" height="48" viewBox="0 0 48 48"><defs><clipPath id="master_svg0_617_31116"><rect x="0" y="0" width="48" height="48" rx="0"/></clipPath></defs><g clip-path="url(#master_svg0_617_31116)"><g><rect x="0" y="0" width="48" height="48" rx="0" fill="#FFFFFF" fill-opacity="0.009999999776482582"/></g><g><path d="M24,20C27.866,20,31,16.866,31,13C31,9.13401,27.866,6,24,6C20.134,6,17,9.13401,17,13C17,16.866,20.134,20,24,20Z" fill="#409EFF" fill-opacity="1"/><path d="M18.5,13Q18.5,15.27818,20.11091,16.8891Q21.72182,18.5,24,18.5Q26.27818,18.5,27.8891,16.8891Q29.5,15.27818,29.5,13Q29.5,10.72183,27.8891,9.11091Q26.27818,7.5,24,7.5Q21.72182,7.5,20.11091,9.11091Q18.5,10.72183,18.5,13ZM15.5,13Q15.5,11.27168,16.168587,9.69096Q16.813886,8.1653,17.989589,6.989594Q19.16529,5.813889,20.69095,5.168589Q22.27167,4.5,24,4.5Q25.72832,4.5,27.308999999999997,5.168589Q28.834699999999998,5.813888,30.0104,6.989594Q31.1861,8.1653,31.831400000000002,9.69096Q32.5,11.27168,32.5,13Q32.5,14.72833,31.831400000000002,16.308999999999997Q31.1861,17.834699999999998,30.0104,19.0104Q28.834699999999998,20.1861,27.308999999999997,20.831400000000002Q25.72833,21.5,24,21.5Q22.27167,21.5,20.69095,20.831400000000002Q19.16529,20.1861,17.98959,19.0104Q16.813885,17.834699999999998,16.168587,16.308999999999997Q15.5,14.72833,15.5,13Z" fill="#409EFF" fill-opacity="1"/></g><g><path d="M11.61823,20.28478015670776Q9.734493,19.149680156707763,8.634937,17.245660156707764Q7.5,15.280340156707764,7.5,13.000000156707763Q7.5,10.871360156707764,8.496512,9.003570156707763Q9.460125,7.197439056707764,11.14186,6.024400156707763Q11.202300000000001,5.982240156707764,11.26658,5.946210156707764Q11.33086,5.910180156707764,11.39836,5.880620156707764Q11.46586,5.851070156707763,11.53594,5.828270156707764Q11.60601,5.805470156707764,11.67799,5.789650156707763Q11.74996,5.7738301567077635,11.82314,5.765140156707764Q11.89631,5.756450156707764,11.96999,5.754980156707764Q12.04366,5.753510156707764,12.11713,5.7592601567077635Q12.19059,5.765010156707763,12.26314,5.777940156707764Q12.33569,5.790870156707763,12.40662,5.810840156707764Q12.47755,5.830820156707764,12.54618,5.857650156707764Q12.61481,5.884480156707763,12.68048,5.917920156707764Q12.74616,5.951350156707764,12.80823,5.991050156707764Q12.87031,6.030760156707764,12.9282,6.076360156707763Q12.98609,6.121960156707764,13.03923,6.173010156707764Q13.092369999999999,6.224060156707764,13.14024,6.280080156707764Q13.18812,6.336097156707764,13.23028,6.396537156707764Q13.27244,6.456976156707764,13.30847,6.5212571567077635Q13.3445,6.585538156707764,13.37406,6.653041156707763Q13.40361,6.7205441567077635,13.42641,6.790619156707764Q13.44921,6.860695156707764,13.465029999999999,6.932667156707764Q13.48085,7.004639156707763,13.48954,7.077815156707763Q13.49823,7.1509911567077635,13.4997,7.224667156707763Q13.50117,7.298342656707764,13.49542,7.371808156707764Q13.48967,7.4452731567077635,13.47674,7.517821156707764Q13.463809999999999,7.590368156707764,13.44384,7.661299156707764Q13.423860000000001,7.732230156707764,13.39703,7.800862156707764Q13.370190000000001,7.8694931567077635,13.33677,7.9351641567077635Q13.303329999999999,8.000835156707764,13.26363,8.062913156707763Q13.22392,8.124992156707764,13.17832,8.182879156707763Q13.132719999999999,8.240766156707764,13.081669999999999,8.293910156707764Q13.030619999999999,8.347040156707763,12.9746,8.394920156707764Q12.91858,8.442800156707763,12.85814,8.484960156707764Q11.76765,9.245600156707763,11.14336,10.415720156707764Q10.5,11.621600156707764,10.5,13.000000156707763Q10.5,14.476330156707764,11.23286,15.745390156707764Q11.94551,16.979450156707763,13.16657,17.715180156707763Q13.22969,17.753280156707763,13.28877,17.797280156707764Q13.34786,17.841280156707764,13.402339999999999,17.890980156707762Q13.45683,17.940580156707764,13.50618,17.995280156707764Q13.55554,18.04998015670776,13.5993,18.10928015670776Q13.64306,18.168580156707762,13.6808,18.231880156707764Q13.718530000000001,18.295180156707765,13.749880000000001,18.361880156707763Q13.78123,18.428580156707763,13.805900000000001,18.49798015670776Q13.83056,18.567380156707763,13.8483,18.638980156707763Q13.86603,18.710480156707764,13.87668,18.783380156707764Q13.887319999999999,18.85628015670776,13.89076,18.929880156707764Q13.8942,19.003480156707763,13.890419999999999,19.077080156707765Q13.88663,19.150680156707764,13.87564,19.22358015670776Q13.86466,19.296480156707766,13.846589999999999,19.367880156707763Q13.828520000000001,19.439280156707763,13.80353,19.50868015670776Q13.77854,19.577980156707763,13.74688,19.644480156707765Q13.715209999999999,19.711080156707766,13.67718,19.774180156707764Q13.63915,19.837280156707763,13.59511,19.896380156707764Q13.551079999999999,19.955480156707765,13.50146,20.009980156707762Q13.45185,20.064380156707763,13.39713,20.11378015670776Q13.342410000000001,20.163180156707764,13.28312,20.20688015670776Q13.22383,20.250680156707766,13.160540000000001,20.288380156707763Q13.09724,20.326180156707764,13.03055,20.357480156707766Q12.96386,20.388880156707764,12.89442,20.413480156707763Q12.82498,20.438180156707766,12.75346,20.455880156707764Q12.68193,20.473680156707765,12.609020000000001,20.48428015670776Q12.5361,20.494880156707765,12.462489999999999,20.498380156707764Q12.38888,20.501780156707763,12.315290000000001,20.49798015670776Q12.24169,20.494180156707763,12.16883,20.483280156707764Q12.09596,20.47228015670776,12.024519999999999,20.454180156707764Q11.95308,20.436080156707764,11.88376,20.41108015670776Q11.81443,20.386180156707766,11.74789,20.354480156707766Q11.68135,20.322780156707765,11.61823,20.28478015670776ZM13.8924,18.999980156707764Q13.8924,19.073680156707766,13.88518,19.146980156707762Q13.87795,19.220380156707762,13.863579999999999,19.292680156707764Q13.8492,19.364880156707763,13.82781,19.435380156707765Q13.80642,19.505980156707764,13.778220000000001,19.573980156707762Q13.75002,19.642080156707763,13.71528,19.707080156707764Q13.68054,19.772080156707766,13.6396,19.83338015670776Q13.598659999999999,19.894580156707764,13.551919999999999,19.951580156707763Q13.50517,20.008580156707765,13.45306,20.06068015670776Q13.40095,20.112780156707764,13.34399,20.159480156707765Q13.28703,20.206280156707763,13.22575,20.247180156707763Q13.164480000000001,20.288180156707764,13.09949,20.32288015670776Q13.034510000000001,20.357580156707762,12.96642,20.385780156707764Q12.898340000000001,20.413980156707765,12.82783,20.435380156707765Q12.75731,20.456780156707765,12.68503,20.471180156707764Q12.61276,20.485580156707762,12.53943,20.492780156707763Q12.46609,20.499980156707764,12.3924,20.499980156707764Q12.31871,20.499980156707764,12.24537,20.492780156707763Q12.172039999999999,20.485580156707762,12.09976,20.471180156707764Q12.02749,20.456780156707765,11.95697,20.435380156707765Q11.88646,20.413980156707765,11.81837,20.385780156707764Q11.75029,20.357580156707762,11.6853,20.32288015670776Q11.62032,20.288180156707764,11.55904,20.247180156707763Q11.49777,20.206280156707763,11.440809999999999,20.159480156707765Q11.383849999999999,20.112780156707764,11.33174,20.06068015670776Q11.279630000000001,20.008580156707765,11.23288,19.951580156707763Q11.18614,19.894580156707764,11.145199999999999,19.83338015670776Q11.10425,19.772080156707766,11.06952,19.707080156707764Q11.03478,19.642080156707763,11.00658,19.573980156707762Q10.97838,19.505980156707764,10.95699,19.435380156707765Q10.9356,19.364880156707763,10.92122,19.292680156707764Q10.90685,19.220380156707762,10.89962,19.146980156707762Q10.8924,19.073680156707766,10.8924,18.999980156707764Q10.8924,18.92628015670776,10.89962,18.852980156707766Q10.90685,18.779680156707762,10.92122,18.707380156707764Q10.9356,18.635080156707765,10.95699,18.564580156707763Q10.97838,18.494080156707764,11.00658,18.425980156707766Q11.03478,18.357880156707765,11.06952,18.292880156707763Q11.10425,18.227880156707762,11.145199999999999,18.166680156707763Q11.18614,18.105380156707763,11.23288,18.048380156707765Q11.279630000000001,17.991480156707766,11.33174,17.939380156707763Q11.383849999999999,17.887280156707764,11.440809999999999,17.840480156707763Q11.49777,17.79378015670776,11.55904,17.752780156707765Q11.62032,17.711880156707764,11.6853,17.677080156707763Q11.75029,17.642380156707766,11.81837,17.614180156707764Q11.88646,17.585980156707762,11.95697,17.564580156707763Q12.02749,17.543180156707763,12.09976,17.528780156707764Q12.172039999999999,17.514480156707762,12.24537,17.50718015670776Q12.31871,17.499980156707764,12.3924,17.499980156707764Q12.46609,17.499980156707764,12.53943,17.50718015670776Q12.61276,17.514480156707762,12.68503,17.528780156707764Q12.75731,17.543180156707763,12.82783,17.564580156707763Q12.898340000000001,17.585980156707762,12.96642,17.614180156707764Q13.034510000000001,17.642380156707766,13.09949,17.677080156707763Q13.164480000000001,17.711880156707764,13.22575,17.752780156707765Q13.28703,17.79378015670776,13.34399,17.840480156707763Q13.40095,17.887280156707764,13.45306,17.939380156707763Q13.50517,17.991480156707766,13.55191,18.048380156707765Q13.598659999999999,18.105380156707763,13.6396,18.166680156707763Q13.68054,18.227880156707762,13.71528,18.292880156707763Q13.75002,18.357880156707765,13.778220000000001,18.425980156707766Q13.80642,18.494080156707764,13.82781,18.564580156707763Q13.8492,18.635080156707765,13.863579999999999,18.707380156707764Q13.87795,18.779680156707762,13.88518,18.852980156707766Q13.8924,18.92628015670776,13.8924,18.999980156707764ZM13.5,7.254680156707764Q13.5,7.328370456707764,13.49278,7.401706156707764Q13.48555,7.475041156707763,13.47118,7.547315156707763Q13.456800000000001,7.619590156707764,13.435410000000001,7.6901071567077635Q13.41402,7.760624156707763,13.385819999999999,7.8287051567077635Q13.35762,7.896786156707764,13.32288,7.9617751567077635Q13.28814,8.026764156707763,13.2472,8.088035156707763Q13.20626,8.149307156707764,13.15952,8.206270156707763Q13.112770000000001,8.263230156707763,13.06066,8.315340156707764Q13.00855,8.367450156707763,12.95159,8.414200156707764Q12.89463,8.460940156707764,12.83335,8.501880156707763Q12.772079999999999,8.542820156707764,12.70709,8.577560156707763Q12.64211,8.612300156707764,12.57402,8.640500156707764Q12.505939999999999,8.668700156707764,12.43543,8.690090156707765Q12.36491,8.711480156707763,12.292629999999999,8.725860156707764Q12.22036,8.740230156707764,12.14703,8.747460156707763Q12.07369,8.754680156707764,12,8.754680156707764Q11.92631,8.754680156707764,11.85297,8.747460156707763Q11.77964,8.740230156707764,11.70736,8.725860156707764Q11.63509,8.711480156707763,11.56457,8.690090156707765Q11.494060000000001,8.668700156707764,11.42597,8.640500156707764Q11.35789,8.612300156707764,11.2929,8.577560156707763Q11.227920000000001,8.542820156707764,11.166640000000001,8.501880156707763Q11.10537,8.460940156707764,11.04841,8.414200156707764Q10.99145,8.367450156707763,10.93934,8.315340156707764Q10.88723,8.263230156707763,10.84048,8.206270156707763Q10.79374,8.149307156707764,10.7528,8.088035156707763Q10.71186,8.026764156707763,10.67712,7.9617751567077635Q10.64238,7.896786156707764,10.61418,7.8287051567077635Q10.58598,7.760624156707763,10.564589999999999,7.6901071567077635Q10.5432,7.619590156707764,10.52882,7.547315156707763Q10.51445,7.475041156707763,10.50722,7.401706156707764Q10.5,7.328370456707764,10.5,7.254680156707764Q10.5,7.180989856707764,10.50722,7.107654156707763Q10.51445,7.034319156707764,10.52882,6.962045156707764Q10.5432,6.889770156707764,10.564589999999999,6.819253156707764Q10.58598,6.748736156707764,10.61418,6.680655156707764Q10.64238,6.612574156707764,10.67712,6.547585156707764Q10.71186,6.482596156707764,10.7528,6.421325156707764Q10.79374,6.360053156707764,10.84048,6.303090156707763Q10.88723,6.246130156707764,10.93934,6.194020156707763Q10.99145,6.141910156707763,11.04841,6.095160156707763Q11.10537,6.048420156707763,11.166640000000001,6.007480156707763Q11.227920000000001,5.966540156707763,11.2929,5.931800156707764Q11.35789,5.897060156707764,11.42597,5.868860156707764Q11.494060000000001,5.840660156707764,11.56457,5.819270156707764Q11.63509,5.797880156707763,11.70736,5.783500156707763Q11.77964,5.769130156707764,11.85297,5.761900156707764Q11.92631,5.754680156707764,12,5.754680156707764Q12.07369,5.754680156707764,12.14703,5.761900156707764Q12.22036,5.769130156707764,12.292629999999999,5.783500156707763Q12.36491,5.797880156707763,12.43543,5.819270156707764Q12.505939999999999,5.840660156707764,12.57402,5.868860156707764Q12.64211,5.897060156707764,12.70709,5.931800156707764Q12.772079999999999,5.966540156707763,12.83335,6.007480156707763Q12.89463,6.048420156707763,12.95159,6.095160156707763Q13.00855,6.141910156707763,13.06066,6.194020156707763Q13.112770000000001,6.246130156707764,13.15952,6.303090156707763Q13.20626,6.360053156707764,13.2472,6.421325156707764Q13.28814,6.482596156707764,13.32288,6.547585156707764Q13.35762,6.612574156707764,13.385819999999999,6.680655156707764Q13.41402,6.748736156707764,13.435410000000001,6.819253156707764Q13.456800000000001,6.889770156707764,13.47118,6.962045156707764Q13.48555,7.034319156707764,13.49278,7.107654156707763Q13.5,7.180989856707764,13.5,7.254680156707764Z" fill="#409EFF" fill-opacity="1"/></g><g><path d="M35.141879,17.514980156707765Q36.232328,16.754420156707763,36.856633,15.584250156707764Q37.5,14.378350156707764,37.5,13.000000156707763Q37.5,11.621600156707764,36.856637,10.415720156707764Q36.232348,9.245600156707763,35.141856,8.484960156707764Q35.081416,8.442800156707763,35.0254,8.394920156707764Q34.96938,8.347040156707763,34.91833,8.293900156707764Q34.86728,8.240766156707764,34.82168,8.182879156707763Q34.77608,8.124991156707763,34.73637,8.062913156707763Q34.69666,8.000835156707764,34.66323,7.9351641567077635Q34.6298,7.8694931567077635,34.60297,7.8008611567077635Q34.57614,7.732230156707764,34.55616,7.661299156707764Q34.53619,7.590368156707764,34.52326,7.517820156707764Q34.51033,7.4452731567077635,34.50458,7.371807156707764Q34.49883,7.298342256707763,34.5003,7.224666756707764Q34.50177,7.1509911567077635,34.51046,7.077815156707763Q34.51915,7.004639156707763,34.53497,6.932666156707763Q34.55079,6.860694156707764,34.57359,6.790619156707764Q34.59639,6.7205441567077635,34.62594,6.653041156707763Q34.6555,6.585538156707764,34.69153,6.5212571567077635Q34.72756,6.456976156707764,34.76972,6.396536156707763Q34.81188,6.336096156707764,34.85976,6.280080156707764Q34.90764,6.224060156707764,34.96078,6.173010156707764Q35.013914,6.121960156707764,35.071801,6.076360156707763Q35.129689,6.030760156707764,35.191767,5.991050156707764Q35.253845,5.951340156707763,35.319516,5.917910156707764Q35.385187,5.884480156707763,35.453819,5.857650156707764Q35.52245,5.830820156707764,35.593381,5.810840156707764Q35.664312,5.790870156707763,35.73686,5.777940156707764Q35.809407,5.765010156707763,35.882873,5.7592601567077635Q35.9563379,5.753510156707764,36.0300134,5.754980156707764Q36.103689,5.756460156707764,36.176865,5.765140156707764Q36.250041,5.7738301567077635,36.322014,5.789650156707763Q36.393986,5.805470156707764,36.464061,5.828270156707764Q36.534136,5.851070156707763,36.601639,5.880620156707764Q36.669142,5.910180156707764,36.733423,5.946210156707764Q36.797704,5.982240156707764,36.858144,6.024400156707763Q38.53987,7.197438856707763,39.50349,9.003570156707763Q40.5,10.871360156707764,40.5,13.000000156707763Q40.5,15.128580156707763,39.50349,16.996400156707764Q38.53985,18.802580156707762,36.858121,19.975580156707764Q36.79768,20.017780156707765,36.733399,20.053780156707763Q36.669117,20.089780156707764,36.601614,20.119380156707763Q36.53411,20.14888015670776,36.464034,20.171680156707765Q36.393959,20.194480156707762,36.321986,20.210380156707764Q36.250014,20.226180156707763,36.176837,20.234880156707764Q36.103661,20.24348015670776,36.0299856,20.24498015670776Q35.95631,20.24648015670776,35.882845,20.240680156707764Q35.80938,20.234980156707763,35.736832,20.22208015670776Q35.664285,20.209080156707763,35.593354,20.189080156707764Q35.522424,20.169180156707764,35.453793,20.142280156707763Q35.385162,20.11548015670776,35.319491,20.082080156707764Q35.253821,20.048580156707764,35.191743,20.008880156707765Q35.129666,19.969180156707765,35.071779,19.923580156707764Q35.013893,19.877980156707764,34.96075,19.826980156707762Q34.90762,19.775880156707764,34.85974,19.719880156707763Q34.81186,19.663880156707762,34.7697,19.603380156707765Q34.72755,19.542980156707763,34.69152,19.478680156707764Q34.65549,19.414380156707765,34.62593,19.346880156707762Q34.596379999999996,19.279380156707763,34.57358,19.209380156707766Q34.55078,19.139280156707763,34.53497,19.067280156707763Q34.51915,18.995280156707764,34.51046,18.922180156707764Q34.50177,18.848980156707764,34.5003,18.775280156707765Q34.49883,18.701580156707763,34.50458,18.628180156707764Q34.51034,18.554680156707764,34.52327,18.482180156707763Q34.53619,18.40958015670776,34.55617,18.338680156707763Q34.57615,18.267680156707762,34.60298,18.199080156707765Q34.62982,18.130480156707762,34.66325,18.064780156707762Q34.69668,17.999080156707763,34.73639,17.937080156707765Q34.776089999999996,17.874980156707764,34.82169,17.817080156707764Q34.86729,17.759180156707764,34.91835,17.706080156707763Q34.9694,17.652880156707763,35.025421,17.605080156707764Q35.081438,17.557180156707766,35.141879,17.514980156707765ZM37.5,18.745280156707764Q37.5,18.818980156707763,37.49278,18.892280156707763Q37.48555,18.965680156707762,37.47118,19.037980156707764Q37.4568,19.110180156707763,37.43541,19.180680156707766Q37.41402,19.251280156707764,37.38582,19.319280156707762Q37.35762,19.387380156707763,37.32288,19.45238015670776Q37.28814,19.517380156707766,37.2472,19.57868015670776Q37.20626,19.63988015670776,37.15952,19.696880156707763Q37.11277,19.753880156707766,37.06066,19.80598015670776Q37.00855,19.858080156707764,36.95159,19.904780156707766Q36.894627,19.951580156707763,36.833355,19.992480156707764Q36.772084,20.033480156707764,36.707095,20.06818015670776Q36.642106,20.102880156707762,36.574025,20.131080156707764Q36.505944,20.159280156707766,36.435427,20.180680156707766Q36.36491,20.202080156707765,36.292635,20.216480156707764Q36.220361,20.230880156707762,36.147026,20.238080156707763Q36.0736903,20.245280156707764,36,20.245280156707764Q35.9263097,20.245280156707764,35.852974,20.238080156707763Q35.779639,20.230880156707762,35.707365,20.216480156707764Q35.63509,20.202080156707765,35.564573,20.180680156707766Q35.494056,20.159280156707766,35.425975,20.131080156707764Q35.357894,20.102880156707762,35.292905,20.06818015670776Q35.227916,20.033480156707764,35.166645,19.992480156707764Q35.105373,19.951580156707763,35.04841,19.904780156707766Q34.99145,19.858080156707764,34.93934,19.80598015670776Q34.88723,19.753880156707766,34.84048,19.696880156707763Q34.79374,19.63988015670776,34.7528,19.57868015670776Q34.71186,19.517380156707766,34.67712,19.45238015670776Q34.64238,19.387380156707763,34.61418,19.319280156707762Q34.58598,19.251280156707764,34.56459,19.180680156707766Q34.5432,19.110180156707763,34.52882,19.037980156707764Q34.51445,18.965680156707762,34.50722,18.892280156707763Q34.5,18.818980156707763,34.5,18.745280156707764Q34.5,18.671580156707762,34.50722,18.598280156707766Q34.51445,18.524980156707763,34.52882,18.452680156707764Q34.5432,18.380380156707766,34.56459,18.309880156707763Q34.58598,18.239380156707764,34.61418,18.171280156707766Q34.64238,18.103180156707765,34.67712,18.038180156707764Q34.71186,17.973180156707762,34.7528,17.911980156707763Q34.79374,17.850680156707764,34.84048,17.793680156707765Q34.88723,17.736780156707766,34.93934,17.684680156707763Q34.99145,17.632580156707764,35.04841,17.585780156707763Q35.105373,17.53908015670776,35.166645,17.498080156707765Q35.227916,17.457180156707764,35.292905,17.422380156707764Q35.357894,17.387680156707763,35.425975,17.35948015670776Q35.494056,17.331280156707763,35.564573,17.309880156707763Q35.63509,17.288480156707763,35.707365,17.27408015670776Q35.779639,17.259780156707762,35.852974,17.252520156707764Q35.9263097,17.245300156707764,36,17.245300156707764Q36.0736903,17.245300156707764,36.147026,17.252520156707764Q36.220361,17.259780156707762,36.292635,17.27408015670776Q36.36491,17.288480156707763,36.435427,17.309880156707763Q36.505944,17.331280156707763,36.574025,17.35948015670776Q36.642106,17.387680156707763,36.707095,17.422380156707764Q36.772084,17.457180156707764,36.833355,17.498080156707765Q36.894627,17.53908015670776,36.95159,17.585780156707763Q37.00855,17.632580156707764,37.06066,17.684680156707763Q37.11277,17.736780156707766,37.15952,17.793680156707765Q37.20626,17.850680156707764,37.2472,17.911980156707763Q37.28814,17.973180156707762,37.32288,18.038180156707764Q37.35762,18.103180156707765,37.38582,18.171280156707766Q37.41402,18.239380156707764,37.43541,18.309880156707763Q37.4568,18.380380156707766,37.47118,18.452680156707764Q37.48555,18.524980156707763,37.49278,18.598280156707766Q37.5,18.671580156707762,37.5,18.745280156707764ZM37.5,7.254680156707764Q37.5,7.328370456707764,37.49278,7.401706156707764Q37.48555,7.475041156707763,37.47118,7.547315156707763Q37.4568,7.619590156707764,37.43541,7.6901071567077635Q37.41402,7.760624156707763,37.38582,7.8287051567077635Q37.35762,7.896786156707764,37.32288,7.9617751567077635Q37.28814,8.026764156707763,37.2472,8.088035156707763Q37.20626,8.149307156707764,37.15952,8.206270156707763Q37.11277,8.263230156707763,37.06066,8.315340156707764Q37.00855,8.367450156707763,36.95159,8.414200156707764Q36.894627,8.460940156707764,36.833355,8.501880156707763Q36.772084,8.542820156707764,36.707095,8.577560156707763Q36.642106,8.612300156707764,36.574025,8.640500156707764Q36.505944,8.668700156707764,36.435427,8.690090156707765Q36.36491,8.711480156707763,36.292635,8.725860156707764Q36.220361,8.740230156707764,36.147026,8.747460156707763Q36.0736903,8.754680156707764,36,8.754680156707764Q35.9263097,8.754680156707764,35.852974,8.747460156707763Q35.779639,8.740230156707764,35.707365,8.725860156707764Q35.63509,8.711480156707763,35.564573,8.690090156707765Q35.494056,8.668700156707764,35.425975,8.640500156707764Q35.357894,8.612300156707764,35.292905,8.577560156707763Q35.227916,8.542820156707764,35.166645,8.501880156707763Q35.105373,8.460940156707764,35.04841,8.414200156707764Q34.99145,8.367450156707763,34.93934,8.315340156707764Q34.88723,8.263230156707763,34.84048,8.206270156707763Q34.79374,8.149307156707764,34.7528,8.088035156707763Q34.71186,8.026764156707763,34.67712,7.9617751567077635Q34.64238,7.896786156707764,34.61418,7.8287051567077635Q34.58598,7.760624156707763,34.56459,7.6901071567077635Q34.5432,7.619590156707764,34.52882,7.547315156707763Q34.51445,7.475041156707763,34.50722,7.401706156707764Q34.5,7.328370456707764,34.5,7.254680156707764Q34.5,7.180989856707764,34.50722,7.107654156707763Q34.51445,7.034319156707764,34.52882,6.962045156707764Q34.5432,6.889770156707764,34.56459,6.819253156707764Q34.58598,6.748736156707764,34.61418,6.680655156707764Q34.64238,6.612574156707764,34.67712,6.547585156707764Q34.71186,6.482596156707764,34.7528,6.421325156707764Q34.79374,6.360053156707764,34.84048,6.303090156707763Q34.88723,6.246130156707764,34.93934,6.194020156707763Q34.99145,6.141910156707763,35.04841,6.095160156707763Q35.105373,6.048420156707763,35.166645,6.007480156707763Q35.227916,5.966540156707763,35.292905,5.931800156707764Q35.357894,5.897060156707764,35.425975,5.868860156707764Q35.494056,5.840660156707764,35.564573,5.819270156707764Q35.63509,5.797880156707763,35.707365,5.783500156707763Q35.779639,5.769130156707764,35.852974,5.761900156707764Q35.9263097,5.754680156707764,36,5.754680156707764Q36.0736903,5.754680156707764,36.147026,5.761900156707764Q36.220361,5.769130156707764,36.292635,5.783500156707763Q36.36491,5.797880156707763,36.435427,5.819270156707764Q36.505944,5.840660156707764,36.574025,5.868860156707764Q36.642106,5.897060156707764,36.707095,5.931800156707764Q36.772084,5.966540156707763,36.833355,6.007480156707763Q36.894627,6.048420156707763,36.95159,6.095160156707763Q37.00855,6.141910156707763,37.06066,6.194020156707763Q37.11277,6.246130156707764,37.15952,6.303090156707763Q37.20626,6.360053156707764,37.2472,6.421325156707764Q37.28814,6.482596156707764,37.32288,6.547585156707764Q37.35762,6.612574156707764,37.38582,6.680655156707764Q37.41402,6.748736156707764,37.43541,6.819253156707764Q37.4568,6.889770156707764,37.47118,6.962045156707764Q37.48555,7.034319156707764,37.49278,7.107654156707763Q37.5,7.180989856707764,37.5,7.254680156707764Z" fill="#409EFF" fill-opacity="1"/></g><g><path d="M12,40L12,42L36,42L36,40C36,36.2725,36,34.408699999999996,35.391,32.9385C34.5791,30.9783,33.021699999999996,29.4209,31.0615,28.608999C29.5913,28,27.7275,28,24,28C20.2725,28,18.4087,28,16.9385,28.608999C14.9783,29.4209,13.4209,30.9783,12.609,32.9385C12,34.408699999999996,12,36.2725,12,40Z" fill="#409EFF" fill-opacity="1"/><path d="M13.99481,33.51254Q13.67011,34.2964,13.57265,35.72487Q13.5,36.78954,13.5,40L13.5,42L12,42L12,40.5L36,40.5L36,42L34.5,42L34.5,40Q34.5,36.78957,34.4274,35.72487Q34.329899999999995,34.2964,34.0052,33.51254Q32.974900000000005,31.02509,30.4875,29.99483Q29.7036,29.67011,28.2751,29.57265Q27.2105,29.5,24,29.5L24,29.5Q20.789540000000002,29.5,19.72487,29.57265Q18.2964,29.67011,17.51254,29.99481Q15.02509,31.02509,13.99483,33.5125L13.99481,33.51254ZM11.223171,32.3645Q11.9462771,30.61868,13.28248,29.28248Q14.61868,27.9462767,16.36446,27.223187Q17.60212,26.71051,19.52065,26.5796Q20.68731,26.5,24,26.5L24,26.5Q27.3127,26.5,28.4793,26.5796Q30.3979,26.71051,31.6355,27.22317Q33.381299999999996,27.9462774,34.7175,29.28248Q36.0537,30.61868,36.7768,32.36445Q37.289500000000004,33.60212,37.4204,35.52065Q37.5,36.68732,37.5,40L37.5,42Q37.5,42.0737,37.4928,42.147Q37.485600000000005,42.2204,37.471199999999996,42.2926Q37.4568,42.3649,37.4354,42.4354Q37.414,42.5059,37.3858,42.574Q37.357600000000005,42.6421,37.322900000000004,42.7071Q37.2881,42.7721,37.2472,42.8334Q37.2063,42.8946,37.1595,42.9516Q37.1128,43.0086,37.0607,43.0607Q37.0086,43.1128,36.9516,43.1595Q36.8946,43.2063,36.8334,43.2472Q36.772099999999995,43.2881,36.7071,43.322900000000004Q36.6421,43.3576,36.574,43.3858Q36.5059,43.414,36.4354,43.4354Q36.3649,43.4568,36.2926,43.471199999999996Q36.2204,43.4856,36.147,43.4928Q36.0737,43.5,36,43.5L12,43.5Q11.9263097,43.5,11.852974,43.4928Q11.779639,43.4856,11.707365,43.471199999999996Q11.63509,43.4568,11.564573,43.4354Q11.494056,43.414,11.425975,43.3858Q11.357894,43.3576,11.292905,43.322900000000004Q11.227916,43.2881,11.166645,43.2472Q11.105373,43.2063,11.04841,43.1595Q10.99145,43.1128,10.93934,43.0607Q10.88723,43.0086,10.84048,42.9516Q10.79374,42.8946,10.7528,42.8334Q10.71186,42.7721,10.67712,42.7071Q10.64238,42.6421,10.61418,42.574Q10.58598,42.5059,10.564589999999999,42.4354Q10.5432,42.3649,10.52882,42.2926Q10.51445,42.2204,10.50722,42.147Q10.5,42.0737,10.5,42L10.5,40Q10.5,36.68731,10.5796,35.52065Q10.71051,33.60212,11.223189,32.36446L11.223171,32.3645Z" fill="#409EFF" fill-opacity="1"/></g><g><path d="M40.31279560522461,27.53539055847168Q43.06312160522461,28.93677925847168,44.46450160522461,31.68711055847168Q45.19834160522461,33.12743055847168,45.38593160522461,35.42349055847168Q45.49990160522461,36.81848055847168,45.49990160522461,40.80000055847168L45.49990160522461,42.00000055847168Q45.49990160522461,42.07370055847168,45.49268160522461,42.14700055847168Q45.48545160522461,42.22040055847168,45.47108160522461,42.292600558471676Q45.45670160522461,42.36490055847168,45.43531160522461,42.43540055847168Q45.41392160522461,42.50590055847168,45.38572160522461,42.57400055847168Q45.35752160522461,42.64210055847168,45.322781605224606,42.70710055847168Q45.288041605224606,42.77210055847168,45.24710160522461,42.83340055847168Q45.20616160522461,42.89460055847168,45.15941160522461,42.95160055847168Q45.11267160522461,43.00860055847168,45.060561605224606,43.06070055847168Q45.00845160522461,43.112800558471676,44.95149160522461,43.15950055847168Q44.89452160522461,43.20630055847168,44.83325160522461,43.247200558471675Q44.77198160522461,43.28810055847168,44.70699160522461,43.32290055847168Q44.64200160522461,43.35760055847168,44.57392160522461,43.38580055847168Q44.50584160522461,43.41400055847168,44.43533160522461,43.43540055847168Q44.36481160522461,43.45680055847168,44.29253160522461,43.47120055847168Q44.22026160522461,43.48560055847168,44.146921605224605,43.49280055847168Q44.07359160522461,43.50000055847168,43.99990160522461,43.50000055847168Q43.92621160522461,43.50000055847168,43.85287160522461,43.49280055847168Q43.77954160522461,43.48560055847168,43.70726160522461,43.47120055847168Q43.63499160522461,43.45680055847168,43.56447160522461,43.43540055847168Q43.49395160522461,43.41400055847168,43.42587160522461,43.38580055847168Q43.35779160522461,43.35760055847168,43.29280160522461,43.32290055847168Q43.22781160522461,43.28810055847168,43.16654160522461,43.247200558471675Q43.10527160522461,43.20630055847168,43.04831160522461,43.15950055847168Q42.99135160522461,43.112800558471676,42.93924160522461,43.06070055847168Q42.88713160522461,43.00860055847168,42.84038160522461,42.95160055847168Q42.79363160522461,42.89460055847168,42.75269160522461,42.83340055847168Q42.711751605224606,42.77210055847168,42.67702160522461,42.70710055847168Q42.64228160522461,42.64210055847168,42.61408160522461,42.57400055847168Q42.58588160522461,42.50590055847168,42.56449160522461,42.43540055847168Q42.54310160522461,42.36490055847168,42.52872160522461,42.292600558471676Q42.51434160522461,42.22040055847168,42.50712160522461,42.14700055847168Q42.49990160522461,42.07370055847168,42.49990160522461,42.00000055847168L42.49990160522461,40.80000055847168Q42.49990160522461,36.94082055847168,42.39589160522461,35.66778055847168Q42.256521605224606,33.96181055847168,41.79149160522461,33.04909055847168Q40.83264160522461,31.16726055847168,38.95080760522461,30.20841055847168Q38.88514860522461,30.17495055847168,38.82308560522461,30.13522055847168Q38.76102260522461,30.09549055847168,38.70315360522461,30.049870558471678Q38.64528360522461,30.00425055847168,38.59216160522461,29.95317055847168Q38.53904160522461,29.90210055847168,38.49119160522461,29.84606555847168Q38.44333160522461,29.79003055847168,38.40119160522461,29.72957455847168Q38.35906160522461,29.66911855847168,38.323051605224606,29.60482355847168Q38.28705160522461,29.54052955847168,38.25751160522461,29.47301455847168Q38.227981605224606,29.40550055847168,38.20521160522461,29.335416558471678Q38.18244160522461,29.26533255847168,38.16665160522461,29.19335455847168Q38.15086160522461,29.12137655847168,38.14220160522461,29.04819655847168Q38.13354160522461,28.97501755847168,38.13209160522461,28.90134135847168Q38.13064160522461,28.82766535847168,38.13642160522461,28.75420255847168Q38.14221160522461,28.68073955847168,38.155161605224606,28.60819655847168Q38.16812160522461,28.53565355847168,38.18812160522461,28.46473055847168Q38.20812160522461,28.39380755847168,38.23498160522461,28.32518555847168Q38.26184160522461,28.25656455847168,38.29529160522461,28.19090655847168Q38.32875160522461,28.12524755847168,38.36848160522461,28.06318455847168Q38.40821160522461,28.00112155847168,38.45383160522461,27.94325255847168Q38.49945160522461,27.88538255847168,38.550531605224606,27.83226055847168Q38.60160160522461,27.77914055847168,38.65763660522461,27.73129055847168Q38.71367160522461,27.68343055847168,38.774127605224606,27.64129055847168Q38.83458360522461,27.59916055847168,38.89887860522461,27.56315055847168Q38.96317260522461,27.52715055847168,39.03068760522461,27.49761055847168Q39.09820160522461,27.46808055847168,39.16828560522461,27.44531055847168Q39.23836960522461,27.42254055847168,39.31034760522461,27.40675055847168Q39.38232560522461,27.39096055847168,39.45550560522461,27.38230055847168Q39.52868460522461,27.37364055847168,39.602360805224606,27.37219055847168Q39.67603680522461,27.37074055847168,39.74949960522461,27.37652055847168Q39.82296260522461,27.38231055847168,39.895505605224606,27.39526055847168Q39.96804860522461,27.40822055847168,40.03897160522461,27.42822055847168Q40.10989460522461,27.44822055847168,40.17851660522461,27.47508055847168Q40.24713760522461,27.50194055847168,40.31279560522461,27.53539055847168ZM41.13180160522461,28.87190055847168Q41.13180160522461,28.94559085847168,41.12458160522461,29.01892655847168Q41.11735160522461,29.09226155847168,41.102981605224606,29.16453555847168Q41.08860160522461,29.236810558471678,41.06721160522461,29.30732755847168Q41.04582160522461,29.37784455847168,41.01762160522461,29.44592555847168Q40.98942160522461,29.514006558471678,40.95468160522461,29.57899555847168Q40.91994160522461,29.64398455847168,40.87900160522461,29.70525555847168Q40.83806160522461,29.76652755847168,40.79132160522461,29.82349055847168Q40.74457160522461,29.88045055847168,40.69246160522461,29.93256055847168Q40.64035160522461,29.98467055847168,40.58339160522461,30.03142055847168Q40.52642860522461,30.07816055847168,40.46515660522461,30.11910055847168Q40.40388560522461,30.160040558471678,40.33889660522461,30.19478055847168Q40.27390760522461,30.22952055847168,40.20582660522461,30.25772055847168Q40.13774560522461,30.28592055847168,40.06722860522461,30.30731055847168Q39.99671160522461,30.32870055847168,39.92443660522461,30.34308055847168Q39.852162605224606,30.35745055847168,39.778827605224606,30.36468055847168Q39.70549190522461,30.37190055847168,39.63180160522461,30.37190055847168Q39.55811130522461,30.37190055847168,39.48477560522461,30.36468055847168Q39.41144060522461,30.35745055847168,39.33916660522461,30.34308055847168Q39.26689160522461,30.32870055847168,39.19637460522461,30.30731055847168Q39.12585760522461,30.28592055847168,39.05777660522461,30.25772055847168Q38.98969560522461,30.22952055847168,38.92470660522461,30.19478055847168Q38.85971760522461,30.160040558471678,38.79844660522461,30.11910055847168Q38.73717460522461,30.07816055847168,38.680211605224606,30.03142055847168Q38.62325160522461,29.98467055847168,38.57114160522461,29.93256055847168Q38.51903160522461,29.88045055847168,38.47228160522461,29.82349055847168Q38.42554160522461,29.76652755847168,38.38460160522461,29.70525555847168Q38.34366160522461,29.64398455847168,38.30892160522461,29.57899555847168Q38.27418160522461,29.514006558471678,38.24598160522461,29.44592555847168Q38.21778160522461,29.37784455847168,38.19639160522461,29.30732755847168Q38.17500160522461,29.236810558471678,38.16062160522461,29.16453555847168Q38.146251605224606,29.09226155847168,38.139021605224606,29.01892655847168Q38.13180160522461,28.94559085847168,38.13180160522461,28.87190055847168Q38.13180160522461,28.79821025847168,38.139021605224606,28.72487455847168Q38.146251605224606,28.65153955847168,38.16062160522461,28.57926555847168Q38.17500160522461,28.50699055847168,38.19639160522461,28.43647355847168Q38.21778160522461,28.36595655847168,38.24598160522461,28.29787555847168Q38.27418160522461,28.22979455847168,38.30892160522461,28.16480555847168Q38.34366160522461,28.09981655847168,38.38460160522461,28.03854555847168Q38.42554160522461,27.97727355847168,38.47228160522461,27.92031055847168Q38.51903160522461,27.86335055847168,38.57114160522461,27.81124055847168Q38.62325160522461,27.75913055847168,38.680211605224606,27.71238055847168Q38.73717460522461,27.66564055847168,38.79844660522461,27.62470055847168Q38.85971760522461,27.58376055847168,38.92470660522461,27.54902055847168Q38.98969560522461,27.51428055847168,39.05777660522461,27.48608055847168Q39.12585760522461,27.45788055847168,39.19637460522461,27.43649055847168Q39.26689160522461,27.41510055847168,39.33916660522461,27.40072055847168Q39.41144060522461,27.38635055847168,39.48477560522461,27.37912055847168Q39.55811130522461,27.37190055847168,39.63180160522461,27.37190055847168Q39.70549190522461,27.37190055847168,39.778827605224606,27.37912055847168Q39.852162605224606,27.38635055847168,39.92443660522461,27.40072055847168Q39.99671160522461,27.41510055847168,40.06722860522461,27.43649055847168Q40.13774560522461,27.45788055847168,40.20582660522461,27.48608055847168Q40.27390760522461,27.51428055847168,40.33889660522461,27.54902055847168Q40.40388560522461,27.58376055847168,40.46515660522461,27.62470055847168Q40.52642860522461,27.66564055847168,40.58339160522461,27.71238055847168Q40.64035160522461,27.75913055847168,40.69246160522461,27.81124055847168Q40.74457160522461,27.86335055847168,40.79132160522461,27.92031055847168Q40.83806160522461,27.97727355847168,40.87900160522461,28.03854555847168Q40.91994160522461,28.09981655847168,40.95468160522461,28.16480555847168Q40.98942160522461,28.22979455847168,41.01762160522461,28.29787555847168Q41.04582160522461,28.36595655847168,41.06721160522461,28.43647355847168Q41.08860160522461,28.50699055847168,41.102981605224606,28.57926555847168Q41.11735160522461,28.65153955847168,41.12458160522461,28.72487455847168Q41.13180160522461,28.79821025847168,41.13180160522461,28.87190055847168ZM45.49990160522461,42.00000055847168Q45.49990160522461,42.07370055847168,45.49268160522461,42.14700055847168Q45.48545160522461,42.22040055847168,45.47108160522461,42.292600558471676Q45.45670160522461,42.36490055847168,45.43531160522461,42.43540055847168Q45.41392160522461,42.50590055847168,45.38572160522461,42.57400055847168Q45.35752160522461,42.64210055847168,45.322781605224606,42.70710055847168Q45.288041605224606,42.77210055847168,45.24710160522461,42.83340055847168Q45.20616160522461,42.89460055847168,45.15941160522461,42.95160055847168Q45.11267160522461,43.00860055847168,45.060561605224606,43.06070055847168Q45.00845160522461,43.112800558471676,44.95149160522461,43.15950055847168Q44.89452160522461,43.20630055847168,44.83325160522461,43.247200558471675Q44.77198160522461,43.28810055847168,44.70699160522461,43.32290055847168Q44.64200160522461,43.35760055847168,44.57392160522461,43.38580055847168Q44.50584160522461,43.41400055847168,44.43533160522461,43.43540055847168Q44.36481160522461,43.45680055847168,44.29253160522461,43.47120055847168Q44.22026160522461,43.48560055847168,44.146921605224605,43.49280055847168Q44.07359160522461,43.50000055847168,43.99990160522461,43.50000055847168Q43.92621160522461,43.50000055847168,43.85287160522461,43.49280055847168Q43.77954160522461,43.48560055847168,43.70726160522461,43.47120055847168Q43.63499160522461,43.45680055847168,43.56447160522461,43.43540055847168Q43.49395160522461,43.41400055847168,43.42587160522461,43.38580055847168Q43.35779160522461,43.35760055847168,43.29280160522461,43.32290055847168Q43.22781160522461,43.28810055847168,43.16654160522461,43.247200558471675Q43.10527160522461,43.20630055847168,43.04831160522461,43.15950055847168Q42.99135160522461,43.112800558471676,42.93924160522461,43.06070055847168Q42.88713160522461,43.00860055847168,42.84038160522461,42.95160055847168Q42.79363160522461,42.89460055847168,42.75269160522461,42.83340055847168Q42.711751605224606,42.77210055847168,42.67702160522461,42.70710055847168Q42.64228160522461,42.64210055847168,42.61408160522461,42.57400055847168Q42.58588160522461,42.50590055847168,42.56449160522461,42.43540055847168Q42.54310160522461,42.36490055847168,42.52872160522461,42.292600558471676Q42.51434160522461,42.22040055847168,42.50712160522461,42.14700055847168Q42.49990160522461,42.07370055847168,42.49990160522461,42.00000055847168Q42.49990160522461,41.92630055847168,42.50712160522461,41.85300055847168Q42.51434160522461,41.77960055847168,42.52872160522461,41.707400558471676Q42.54310160522461,41.63510055847168,42.56449160522461,41.56460055847168Q42.58588160522461,41.49410055847168,42.61408160522461,41.42600055847168Q42.64228160522461,41.357900558471684,42.67702160522461,41.29290055847168Q42.711751605224606,41.22790055847168,42.75269160522461,41.16660055847168Q42.79363160522461,41.10540055847168,42.84038160522461,41.048400558471684Q42.88713160522461,40.99140055847168,42.93924160522461,40.93930055847168Q42.99135160522461,40.887200558471676,43.04831160522461,40.84050055847168Q43.10527160522461,40.79370055847168,43.16654160522461,40.75280055847168Q43.22781160522461,40.71190055847168,43.29280160522461,40.67710055847168Q43.35779160522461,40.64240055847168,43.42587160522461,40.61420055847168Q43.49395160522461,40.58600055847168,43.56447160522461,40.56460055847168Q43.63499160522461,40.54320055847168,43.70726160522461,40.52880055847168Q43.77954160522461,40.51440055847168,43.85287160522461,40.50720055847168Q43.92621160522461,40.50000055847168,43.99990160522461,40.50000055847168Q44.07359160522461,40.50000055847168,44.146921605224605,40.50720055847168Q44.22026160522461,40.51440055847168,44.29253160522461,40.52880055847168Q44.36481160522461,40.54320055847168,44.43533160522461,40.56460055847168Q44.50584160522461,40.58600055847168,44.57392160522461,40.61420055847168Q44.64200160522461,40.64240055847168,44.70699160522461,40.67710055847168Q44.77198160522461,40.71190055847168,44.83325160522461,40.75280055847168Q44.89452160522461,40.79370055847168,44.95149160522461,40.84050055847168Q45.00845160522461,40.887200558471676,45.060561605224606,40.93930055847168Q45.11267160522461,40.99140055847168,45.15941160522461,41.048400558471684Q45.20616160522461,41.10540055847168,45.24710160522461,41.16660055847168Q45.288041605224606,41.22790055847168,45.322781605224606,41.29290055847168Q45.35752160522461,41.357900558471684,45.38572160522461,41.42600055847168Q45.41392160522461,41.49410055847168,45.43531160522461,41.56460055847168Q45.45670160522461,41.63510055847168,45.47108160522461,41.707400558471676Q45.48545160522461,41.77960055847168,45.49268160522461,41.85300055847168Q45.49990160522461,41.92630055847168,45.49990160522461,42.00000055847168Z" fill="#409EFF" fill-opacity="1"/></g><g><path d="M9.0491601222229,30.20840055847168Q7.1673901222229,31.16723055847168,6.208550122222901,33.04908055847168Q5.743490122222901,33.96183055847168,5.6041001222229,35.66778055847168Q5.5000901222229,36.94082055847168,5.5000901222229,40.80000055847168L5.5000901222229,42.00000055847168Q5.5000901222229,42.07370055847168,5.4928701222229,42.14700055847168Q5.4856401222229,42.22040055847168,5.471270122222901,42.292600558471676Q5.456890122222901,42.36490055847168,5.4355001222229005,42.43540055847168Q5.4141101222229,42.50590055847168,5.3859101222229,42.57400055847168Q5.3577101222229,42.64210055847168,5.3229701222229,42.70710055847168Q5.288230122222901,42.77210055847168,5.247290122222901,42.83340055847168Q5.206350122222901,42.89460055847168,5.159610122222901,42.95160055847168Q5.112860122222901,43.00860055847168,5.060750122222901,43.06070055847168Q5.0086401222229,43.112800558471676,4.951680122222901,43.15950055847168Q4.8947171222229,43.20630055847168,4.8334451222229005,43.247200558471675Q4.7721741222229,43.28810055847168,4.7071851222229,43.32290055847168Q4.6421961222229005,43.35760055847168,4.5741151222229,43.38580055847168Q4.5060341222229,43.41400055847168,4.4355171222229,43.43540055847168Q4.3650001222229005,43.45680055847168,4.2927251222229,43.47120055847168Q4.2204511222229,43.48560055847168,4.147116122222901,43.49280055847168Q4.0737804222229,43.50000055847168,4.0000901222229,43.50000055847168Q3.9263998222229004,43.50000055847168,3.8530641222229005,43.49280055847168Q3.7797291222229004,43.48560055847168,3.7074551222229006,43.47120055847168Q3.6351801222229003,43.45680055847168,3.5646631222229006,43.43540055847168Q3.4941461222229004,43.41400055847168,3.4260651222229006,43.38580055847168Q3.3579841222229003,43.35760055847168,3.2929951222229006,43.32290055847168Q3.2280061222229004,43.28810055847168,3.1667351222229003,43.247200558471675Q3.1054631222229006,43.20630055847168,3.0485001222229005,43.15950055847168Q2.9915401222229003,43.112800558471676,2.9394301222229005,43.06070055847168Q2.8873201222229,43.00860055847168,2.8405701222229003,42.95160055847168Q2.7938301222229,42.89460055847168,2.7528901222229,42.83340055847168Q2.7119501222229,42.77210055847168,2.6772101222229003,42.70710055847168Q2.6424701222229006,42.64210055847168,2.6142701222229006,42.57400055847168Q2.5860701222229006,42.50590055847168,2.5646801222229003,42.43540055847168Q2.5432901222229,42.36490055847168,2.5289101222229005,42.292600558471676Q2.5145401222229005,42.22040055847168,2.5073101222229006,42.14700055847168Q2.5000901222229004,42.07370055847168,2.5000901222229004,42.00000055847168L2.5000901222229004,40.80000055847168Q2.5000901222229004,36.81847055847168,2.6140701222229,35.42349055847168Q2.8016601222229003,33.12741055847168,3.5355271222229003,31.68712055847168Q4.9368901222229,28.93676065847168,7.687160122222901,27.53540055847168Q7.7528201222229,27.50194055847168,7.8214401222229,27.47508055847168Q7.8900601222229,27.44822055847168,7.960990122222901,27.42822055847168Q8.0319101222229,27.40822055847168,8.1044501222229,27.39526055847168Q8.1770001222229,27.38231055847168,8.2504601222229,27.37653055847168Q8.323920122222901,27.37074055847168,8.3976001222229,27.37219055847168Q8.4712701222229,27.37364055847168,8.544450122222901,27.38230055847168Q8.6176301222229,27.39096055847168,8.6896101222229,27.40675055847168Q8.7615901222229,27.42254055847168,8.8316701222229,27.44531055847168Q8.9017601222229,27.46808055847168,8.9692701222229,27.49761055847168Q9.0367901222229,27.52714055847168,9.1010801222229,27.56315055847168Q9.1653701222229,27.59916055847168,9.2258301222229,27.64129055847168Q9.286290122222901,27.68343055847168,9.342320122222901,27.73128055847168Q9.3983601222229,27.77914055847168,9.4494301222229,27.83226055847168Q9.5005101222229,27.88537955847168,9.5461301222229,27.94324955847168Q9.591750122222901,28.00111955847168,9.6314801222229,28.06318155847168Q9.6712101222229,28.125244558471678,9.7046601222229,28.19090355847168Q9.7381201222229,28.25656155847168,9.764980122222902,28.32518255847168Q9.7918401222229,28.39380355847168,9.8118401222229,28.46472755847168Q9.8318401222229,28.53565055847168,9.8448001222229,28.60819355847168Q9.8577501222229,28.680735558471678,9.863530122222901,28.75419855847168Q9.8693201222229,28.82766185847168,9.8678701222229,28.90133795847168Q9.8664201222229,28.97501355847168,9.8577601222229,29.04819355847168Q9.8491001222229,29.121373558471678,9.833310122222901,29.19335155847168Q9.8175201222229,29.26532955847168,9.7947501222229,29.33541355847168Q9.7719801222229,29.40549755847168,9.7424501222229,29.47301155847168Q9.7129201222229,29.54052555847168,9.6769101222229,29.60482055847168Q9.6409001222229,29.66911555847168,9.5987701222229,29.72957155847168Q9.5566301222229,29.790027558471678,9.5087801222229,29.84606255847168Q9.4609201222229,29.90210055847168,9.4078001222229,29.95317055847168Q9.3546801222229,30.00425055847168,9.296810122222901,30.049870558471678Q9.2389401222229,30.09549055847168,9.1768801222229,30.13522055847168Q9.1148201222229,30.17495055847168,9.0491601222229,30.20840055847168ZM9.8681601222229,28.87190055847168Q9.8681601222229,28.94559085847168,9.8609401222229,29.01892655847168Q9.8537101222229,29.09226155847168,9.8393401222229,29.16453555847168Q9.824960122222901,29.236810558471678,9.8035701222229,29.30732755847168Q9.7821801222229,29.37784455847168,9.7539801222229,29.44592555847168Q9.7257801222229,29.514006558471678,9.691040122222901,29.57899555847168Q9.6563001222229,29.64398455847168,9.6153601222229,29.70525555847168Q9.5744201222229,29.76652755847168,9.5276801222229,29.82349055847168Q9.480930122222901,29.88045055847168,9.4288201222229,29.93256055847168Q9.3767101222229,29.98467055847168,9.3197501222229,30.03142055847168Q9.2627901222229,30.07816055847168,9.2015201222229,30.11910055847168Q9.1402401222229,30.160040558471678,9.0752601222229,30.19478055847168Q9.0102701222229,30.22952055847168,8.9421801222229,30.25772055847168Q8.8741001222229,30.28592055847168,8.8035901222229,30.30731055847168Q8.733070122222902,30.32870055847168,8.6608001222229,30.34308055847168Q8.5885201222229,30.35745055847168,8.5151901222229,30.36468055847168Q8.4418501222229,30.37190055847168,8.3681601222229,30.37190055847168Q8.2944701222229,30.37190055847168,8.2211301222229,30.36468055847168Q8.1478001222229,30.35745055847168,8.075520122222901,30.34308055847168Q8.003250122222902,30.32870055847168,7.9327301222229005,30.30731055847168Q7.862220122222901,30.28592055847168,7.7941301222229,30.25772055847168Q7.726050122222901,30.22952055847168,7.6610601222229,30.19478055847168Q7.596080122222901,30.160040558471678,7.534800122222901,30.11910055847168Q7.4735301222229005,30.07816055847168,7.4165701222229,30.03142055847168Q7.3596101222229,29.98467055847168,7.3075001222229,29.93256055847168Q7.2553901222229005,29.88045055847168,7.2086401222229,29.82349055847168Q7.1619001222229,29.76652755847168,7.1209601222229,29.70525555847168Q7.0800201222229004,29.64398455847168,7.0452801222229,29.57899555847168Q7.010540122222901,29.514006558471678,6.982340122222901,29.44592555847168Q6.954140122222901,29.37784455847168,6.932750122222901,29.30732755847168Q6.9113601222229,29.236810558471678,6.8969801222229,29.16453555847168Q6.8826101222229,29.09226155847168,6.8753801222229,29.01892655847168Q6.8681601222229,28.94559085847168,6.8681601222229,28.87190055847168Q6.8681601222229,28.79821025847168,6.8753801222229,28.72487455847168Q6.8826101222229,28.65153955847168,6.8969801222229,28.57926555847168Q6.9113601222229,28.50699055847168,6.932750122222901,28.43647355847168Q6.954140122222901,28.36595655847168,6.982340122222901,28.29787555847168Q7.010540122222901,28.22979455847168,7.0452801222229,28.16480555847168Q7.0800201222229004,28.09981655847168,7.1209601222229,28.03854555847168Q7.1619001222229,27.97727355847168,7.2086401222229,27.92031055847168Q7.2553901222229005,27.86335055847168,7.3075001222229,27.81124055847168Q7.3596101222229,27.75913055847168,7.4165701222229,27.71238055847168Q7.4735301222229005,27.66564055847168,7.534800122222901,27.62470055847168Q7.596080122222901,27.58376055847168,7.661070122222901,27.54902055847168Q7.726050122222901,27.51428055847168,7.7941301222229,27.48608055847168Q7.862220122222901,27.45788055847168,7.9327301222229005,27.43649055847168Q8.003250122222902,27.41510055847168,8.075520122222901,27.40072055847168Q8.1478001222229,27.38635055847168,8.2211301222229,27.37912055847168Q8.2944701222229,27.37190055847168,8.3681601222229,27.37190055847168Q8.4418501222229,27.37190055847168,8.5151901222229,27.37912055847168Q8.5885201222229,27.38635055847168,8.6608001222229,27.40072055847168Q8.733070122222902,27.41510055847168,8.8035901222229,27.43649055847168Q8.8741001222229,27.45788055847168,8.9421801222229,27.48608055847168Q9.0102701222229,27.51428055847168,9.0752601222229,27.54902055847168Q9.1402401222229,27.58376055847168,9.2015201222229,27.62470055847168Q9.2627901222229,27.66564055847168,9.3197501222229,27.71238055847168Q9.3767101222229,27.75913055847168,9.4288201222229,27.81124055847168Q9.480930122222901,27.86335055847168,9.5276801222229,27.92031055847168Q9.5744201222229,27.97727355847168,9.6153601222229,28.03854555847168Q9.6563001222229,28.09981655847168,9.691040122222901,28.16480555847168Q9.7257801222229,28.22979455847168,9.7539801222229,28.29787555847168Q9.7821801222229,28.36595655847168,9.8035701222229,28.43647355847168Q9.824960122222901,28.50699055847168,9.8393401222229,28.57926555847168Q9.8537101222229,28.65153955847168,9.8609401222229,28.72487455847168Q9.8681601222229,28.79821025847168,9.8681601222229,28.87190055847168ZM5.5000901222229,42.00000055847168Q5.5000901222229,42.07370055847168,5.4928701222229,42.14700055847168Q5.4856401222229,42.22040055847168,5.471270122222901,42.292600558471676Q5.456890122222901,42.36490055847168,5.4355001222229005,42.43540055847168Q5.4141101222229,42.50590055847168,5.3859101222229,42.57400055847168Q5.3577101222229,42.64210055847168,5.3229701222229,42.70710055847168Q5.288230122222901,42.77210055847168,5.247290122222901,42.83340055847168Q5.206350122222901,42.89460055847168,5.159610122222901,42.95160055847168Q5.112860122222901,43.00860055847168,5.060750122222901,43.06070055847168Q5.0086401222229,43.112800558471676,4.951680122222901,43.15950055847168Q4.8947171222229,43.20630055847168,4.8334451222229005,43.247200558471675Q4.7721741222229,43.28810055847168,4.7071851222229,43.32290055847168Q4.6421961222229005,43.35760055847168,4.5741151222229,43.38580055847168Q4.5060341222229,43.41400055847168,4.4355171222229,43.43540055847168Q4.3650001222229005,43.45680055847168,4.2927251222229,43.47120055847168Q4.2204511222229,43.48560055847168,4.147116122222901,43.49280055847168Q4.0737804222229,43.50000055847168,4.0000901222229,43.50000055847168Q3.9263998222229004,43.50000055847168,3.8530641222229005,43.49280055847168Q3.7797291222229004,43.48560055847168,3.7074551222229006,43.47120055847168Q3.6351801222229003,43.45680055847168,3.5646631222229006,43.43540055847168Q3.4941461222229004,43.41400055847168,3.4260651222229006,43.38580055847168Q3.3579841222229003,43.35760055847168,3.2929951222229006,43.32290055847168Q3.2280061222229004,43.28810055847168,3.1667351222229003,43.247200558471675Q3.1054631222229006,43.20630055847168,3.0485001222229005,43.15950055847168Q2.9915401222229003,43.112800558471676,2.9394301222229005,43.06070055847168Q2.8873201222229,43.00860055847168,2.8405701222229003,42.95160055847168Q2.7938301222229,42.89460055847168,2.7528901222229,42.83340055847168Q2.7119501222229,42.77210055847168,2.6772101222229003,42.70710055847168Q2.6424701222229006,42.64210055847168,2.6142701222229006,42.57400055847168Q2.5860701222229006,42.50590055847168,2.5646801222229003,42.43540055847168Q2.5432901222229,42.36490055847168,2.5289101222229005,42.292600558471676Q2.5145401222229005,42.22040055847168,2.5073101222229006,42.14700055847168Q2.5000901222229004,42.07370055847168,2.5000901222229004,42.00000055847168Q2.5000901222229004,41.92630055847168,2.5073101222229006,41.85300055847168Q2.5145401222229005,41.77960055847168,2.5289101222229005,41.707400558471676Q2.5432901222229,41.63510055847168,2.5646801222229003,41.56460055847168Q2.5860701222229006,41.49410055847168,2.6142701222229006,41.42600055847168Q2.6424701222229006,41.357900558471684,2.6772101222229003,41.29290055847168Q2.7119501222229,41.22790055847168,2.7528901222229,41.16660055847168Q2.7938301222229,41.10540055847168,2.8405701222229003,41.048400558471684Q2.8873201222229,40.99140055847168,2.9394301222229005,40.93930055847168Q2.9915401222229003,40.887200558471676,3.0485001222229005,40.84050055847168Q3.1054631222229006,40.79370055847168,3.1667351222229003,40.75280055847168Q3.2280061222229004,40.71190055847168,3.2929951222229006,40.67710055847168Q3.3579841222229003,40.64240055847168,3.4260651222229006,40.61420055847168Q3.4941461222229004,40.58600055847168,3.5646631222229006,40.56460055847168Q3.6351801222229003,40.54320055847168,3.7074551222229006,40.52880055847168Q3.7797291222229004,40.51440055847168,3.8530641222229005,40.50720055847168Q3.9263998222229004,40.50000055847168,4.0000901222229,40.50000055847168Q4.0737804222229,40.50000055847168,4.147116122222901,40.50720055847168Q4.2204511222229,40.51440055847168,4.2927251222229,40.52880055847168Q4.3650001222229005,40.54320055847168,4.4355171222229,40.56460055847168Q4.5060341222229,40.58600055847168,4.5741151222229,40.61420055847168Q4.6421961222229005,40.64240055847168,4.7071851222229,40.67710055847168Q4.7721741222229,40.71190055847168,4.8334451222229005,40.75280055847168Q4.8947171222229,40.79370055847168,4.951680122222901,40.84050055847168Q5.0086401222229,40.887200558471676,5.060750122222901,40.93930055847168Q5.112860122222901,40.99140055847168,5.159610122222901,41.048400558471684Q5.206350122222901,41.10540055847168,5.247290122222901,41.16660055847168Q5.288230122222901,41.22790055847168,5.3229701222229,41.29290055847168Q5.3577101222229,41.357900558471684,5.3859101222229,41.42600055847168Q5.4141101222229,41.49410055847168,5.4355001222229005,41.56460055847168Q5.456890122222901,41.63510055847168,5.471270122222901,41.707400558471676Q5.4856401222229,41.77960055847168,5.4928701222229,41.85300055847168Q5.5000901222229,41.92630055847168,5.5000901222229,42.00000055847168Z" fill="#409EFF" fill-opacity="1"/></g></g></svg>