<svg xmlns="http://www.w3.org/2000/svg" xmlns:xlink="http://www.w3.org/1999/xlink" fill="none" version="1.1" width="16" height="16" viewBox="0 0 16 16"><defs><clipPath id="master_svg0_617_30937"><rect x="0" y="0" width="16" height="16" rx="0"/></clipPath></defs><g clip-path="url(#master_svg0_617_30937)"><g><path d="M16,0L0,0L0,16L16,16L16,0Z" fill="#FFFFFF" fill-opacity="0.009999999776482582"/></g><g><path d="M10.325721953125,2.5472099999999998L6.068031953125,4.37193Q5.659051953125,4.54721,5.255051953125,4.3607499999999995L1.833251953125,2.7814550000000002L1.833251953125,2.7814550000000002L1.833251953125,11.68008L1.833251953125,11.68008L5.674111953125,13.4528L5.674111953125,13.4528L9.931801953125,11.62807Q10.340781953125,11.45279,10.744781953125,11.63925L14.166551953125,13.2185L14.166551953125,13.2185L14.166551953125,4.31992L14.166551953125,4.31992L10.325721953125,2.547211Q10.325721953125,2.547211,10.325721953125,2.547211L10.325721953125,2.547211L10.325721953125,2.5472099999999998ZM9.931801953125,1.6280649999999999Q10.340781953125,1.45279,10.744781953125,1.639251L14.585651953125,3.41196Q15.166551953125,3.6800800000000002,15.166551953125,4.31992L15.166551953125,13.2185Q15.166551953125,13.7659,14.705551953125,14.0609Q14.244451953125,14.3559,13.747551953125,14.1265L10.325721953125,12.5472L10.325721953125,12.5472L6.068031953125,14.3719Q5.659051953125,14.5472,5.255051953125,14.3607L1.414193753125,12.588Q0.833251953125,12.3199,0.833251953125,11.68008L0.833251953125,2.781454Q0.833251953125,2.234111,1.294298453125,1.939119Q1.755344953125,1.6441270000000001,2.252309953125,1.873495L5.674111953125,3.4527900000000002L5.674111953125,3.4527900000000002L9.931801953125,1.6280649999999999L9.931801953125,1.6280649999999999Z" fill="#666666" fill-opacity="1"/></g><g><path d="M9.833251953125,12L9.833251953125,2Q9.833251953125,1.9507543,9.842858953125,1.9024549Q9.852466953124999,1.854155,9.871311953125,1.8086579999999999Q9.890157953125,1.763161,9.917516953125,1.722215Q9.944876953125,1.681269,9.979698953125,1.646447Q10.014520953125,1.611625,10.055466953125,1.584265Q10.096412953125,1.5569060000000001,10.141909953125,1.53806Q10.187406953125,1.519215,10.235706853125,1.509607Q10.284006253125,1.5,10.333251953125,1.5Q10.382497653125,1.5,10.430797053125,1.509607Q10.479096953125,1.519215,10.524593953125,1.53806Q10.570090953125,1.5569060000000001,10.611036953125,1.584265Q10.651982953125,1.611625,10.686804953125,1.646447Q10.721626953125,1.681269,10.748986953125,1.722215Q10.776345953125,1.763161,10.795191953125,1.8086579999999999Q10.814036953125001,1.854155,10.823644953125,1.9024549Q10.833251953125,1.9507543,10.833251953125,2L10.833251953125,12Q10.833251953125,12.0492,10.823644953125,12.0975Q10.814036953125001,12.1458,10.795191953125,12.1913Q10.776345953125,12.2368,10.748986953125,12.2778Q10.721626953125,12.3187,10.686804953125,12.3536Q10.651982953125,12.3884,10.611036953125,12.4157Q10.570090953125,12.4431,10.524593953125,12.4619Q10.479096953125,12.4808,10.430797053125,12.4904Q10.382497653125,12.5,10.333251953125,12.5Q10.284006253125,12.5,10.235706853125,12.4904Q10.187406953125,12.4808,10.141909953125,12.4619Q10.096412953125,12.4431,10.055466953125,12.4157Q10.014520953125,12.3884,9.979698953125,12.3536Q9.944876953125,12.3187,9.917516953125,12.2778Q9.890157953125,12.2368,9.871311953125,12.1913Q9.852466953124999,12.1458,9.842858953125,12.0975Q9.833251953125,12.0492,9.833251953125,12ZM10.833251953125,12Q10.833251953125,12.0492,10.823644953125,12.0975Q10.814036953125001,12.1458,10.795191953125,12.1913Q10.776345953125,12.2368,10.748986953125,12.2778Q10.721626953125,12.3187,10.686804953125,12.3536Q10.651982953125,12.3884,10.611036953125,12.4157Q10.570090953125,12.4431,10.524593953125,12.4619Q10.479096953125,12.4808,10.430797053125,12.4904Q10.382497653125,12.5,10.333251953125,12.5Q10.284006253125,12.5,10.235706853125,12.4904Q10.187406953125,12.4808,10.141909953125,12.4619Q10.096412953125,12.4431,10.055466953125,12.4157Q10.014520953125,12.3884,9.979698953125,12.3536Q9.944876953125,12.3187,9.917516953125,12.2778Q9.890157953125,12.2368,9.871311953125,12.1913Q9.852466953124999,12.1458,9.842858953125,12.0975Q9.833251953125,12.0492,9.833251953125,12Q9.833251953125,11.95075,9.842858953125,11.90245Q9.852466953124999,11.85415,9.871311953125,11.80866Q9.890157953125,11.76316,9.917516953125,11.72221Q9.944876953125,11.68127,9.979698953125,11.64645Q10.014520953125,11.61162,10.055466953125,11.58426Q10.096412953125,11.5569,10.141909953125,11.53806Q10.187406953125,11.51921,10.235706853125,11.50961Q10.284006253125,11.5,10.333251953125,11.5Q10.382497653125,11.5,10.430797053125,11.50961Q10.479096953125,11.51921,10.524593953125,11.53806Q10.570090953125,11.5569,10.611036953125,11.58426Q10.651982953125,11.61162,10.686804953125,11.64645Q10.721626953125,11.68127,10.748986953125,11.72221Q10.776345953125,11.76316,10.795191953125,11.80866Q10.814036953125001,11.85415,10.823644953125,11.90245Q10.833251953125,11.95075,10.833251953125,12ZM10.833251953125,2Q10.833251953125,2.0492457,10.823644953125,2.0975451Q10.814036953125001,2.145845,10.795191953125,2.191342Q10.776345953125,2.236839,10.748986953125,2.277785Q10.721626953125,2.318731,10.686804953125,2.353553Q10.651982953125,2.388375,10.611036953125,2.415735Q10.570090953125,2.443094,10.524593953125,2.4619400000000002Q10.479096953125,2.480785,10.430797053125,2.490393Q10.382497653125,2.5,10.333251953125,2.5Q10.284006253125,2.5,10.235706853125,2.490393Q10.187406953125,2.480785,10.141909953125,2.4619400000000002Q10.096412953125,2.443094,10.055466953125,2.415735Q10.014520953125,2.388375,9.979698953125,2.353553Q9.944876953125,2.318731,9.917516953125,2.277785Q9.890157953125,2.236839,9.871311953125,2.191342Q9.852466953124999,2.145845,9.842858953125,2.0975451Q9.833251953125,2.0492457,9.833251953125,2Q9.833251953125,1.9507543,9.842858953125,1.9024549Q9.852466953124999,1.854155,9.871311953125,1.8086579999999999Q9.890157953125,1.763161,9.917516953125,1.722215Q9.944876953125,1.681269,9.979698953125,1.646447Q10.014520953125,1.611625,10.055466953125,1.584265Q10.096412953125,1.5569060000000001,10.141909953125,1.53806Q10.187406953125,1.519215,10.235706853125,1.509607Q10.284006253125,1.5,10.333251953125,1.5Q10.382497653125,1.5,10.430797053125,1.509607Q10.479096953125,1.519215,10.524593953125,1.53806Q10.570090953125,1.5569060000000001,10.611036953125,1.584265Q10.651982953125,1.611625,10.686804953125,1.646447Q10.721626953125,1.681269,10.748986953125,1.722215Q10.776345953125,1.763161,10.795191953125,1.8086579999999999Q10.814036953125001,1.854155,10.823644953125,1.9024549Q10.833251953125,1.9507543,10.833251953125,2Z" fill="#666666" fill-opacity="1"/></g><g><path d="M5.166748046875,14L5.166748046875,4Q5.166748046875,3.9507543,5.176355046875,3.9024549Q5.185963046875,3.854155,5.204808046875,3.808658Q5.223654046875,3.763161,5.251013046875,3.722215Q5.278373046875,3.681269,5.313195046875,3.646447Q5.348017046875,3.611625,5.388963046875,3.584265Q5.429909046875,3.556906,5.475406046875,3.5380599999999998Q5.520903046875,3.519215,5.569202946875,3.509607Q5.617502346875,3.5,5.666748046875,3.5Q5.715993746875,3.5,5.764293146875,3.509607Q5.812593046875,3.519215,5.858090046875,3.5380599999999998Q5.903587046875,3.556906,5.944533046875,3.584265Q5.985479046875,3.611625,6.020301046875,3.646447Q6.055123046875,3.681269,6.082483046875,3.722215Q6.109842046875,3.763161,6.128688046875,3.808658Q6.147533046875,3.854155,6.157141046875,3.9024549Q6.166748046875,3.9507543,6.166748046875,4L6.166748046875,14Q6.166748046875,14.0492,6.157141046875,14.0975Q6.147533046875,14.1458,6.128688046875,14.1913Q6.109842046875,14.2368,6.082483046875,14.2778Q6.055123046875,14.3187,6.020301046875,14.3536Q5.985479046875,14.3884,5.944533046875,14.4157Q5.903587046875,14.4431,5.858090046875,14.4619Q5.812593046875,14.4808,5.764293146875,14.4904Q5.715993746875,14.5,5.666748046875,14.5Q5.617502346875,14.5,5.569202946875,14.4904Q5.520903046875,14.4808,5.475406046875,14.4619Q5.429909046875,14.4431,5.388963046875,14.4157Q5.348017046875,14.3884,5.313195046875,14.3536Q5.278373046875,14.3187,5.251013046875,14.2778Q5.223654046875,14.2368,5.204808046875,14.1913Q5.185963046875,14.1458,5.176355046875,14.0975Q5.166748046875,14.0492,5.166748046875,14ZM6.166748046875,14Q6.166748046875,14.0492,6.157141046875,14.0975Q6.147533046875,14.1458,6.128688046875,14.1913Q6.109842046875,14.2368,6.082483046875,14.2778Q6.055123046875,14.3187,6.020301046875,14.3536Q5.985479046875,14.3884,5.944533046875,14.4157Q5.903587046875,14.4431,5.858090046875,14.4619Q5.812593046875,14.4808,5.764293146875,14.4904Q5.715993746875,14.5,5.666748046875,14.5Q5.617502346875,14.5,5.569202946875,14.4904Q5.520903046875,14.4808,5.475406046875,14.4619Q5.429909046875,14.4431,5.388963046875,14.4157Q5.348017046875,14.3884,5.313195046875,14.3536Q5.278373046875,14.3187,5.251013046875,14.2778Q5.223654046875,14.2368,5.204808046875,14.1913Q5.185963046875,14.1458,5.176355046875,14.0975Q5.166748046875,14.0492,5.166748046875,14Q5.166748046875,13.95075,5.176355046875,13.90245Q5.185963046875,13.85415,5.204808046875,13.80866Q5.223654046875,13.76316,5.251013046875,13.72221Q5.278373046875,13.68127,5.313195046875,13.64645Q5.348017046875,13.61162,5.388963046875,13.58426Q5.429909046875,13.5569,5.475406046875,13.53806Q5.520903046875,13.51921,5.569202946875,13.50961Q5.617502346875,13.5,5.666748046875,13.5Q5.715993746875,13.5,5.764293146875,13.50961Q5.812593046875,13.51921,5.858090046875,13.53806Q5.903587046875,13.5569,5.944533046875,13.58426Q5.985479046875,13.61162,6.020301046875,13.64645Q6.055123046875,13.68127,6.082483046875,13.72221Q6.109842046875,13.76316,6.128688046875,13.80866Q6.147533046875,13.85415,6.157141046875,13.90245Q6.166748046875,13.95075,6.166748046875,14ZM6.166748046875,4Q6.166748046875,4.0492457,6.157141046875,4.0975451Q6.147533046875,4.145845,6.128688046875,4.191342Q6.109842046875,4.236839,6.082483046875,4.277785Q6.055123046875,4.318731,6.020301046875,4.353553Q5.985479046875,4.388375,5.944533046875,4.415735Q5.903587046875,4.443094,5.858090046875,4.46194Q5.812593046875,4.480785,5.764293146875,4.490393Q5.715993746875,4.5,5.666748046875,4.5Q5.617502346875,4.5,5.569202946875,4.490393Q5.520903046875,4.480785,5.475406046875,4.46194Q5.429909046875,4.443094,5.388963046875,4.415735Q5.348017046875,4.388375,5.313195046875,4.353553Q5.278373046875,4.318731,5.251013046875,4.277785Q5.223654046875,4.236839,5.204808046875,4.191342Q5.185963046875,4.145845,5.176355046875,4.0975451Q5.166748046875,4.0492457,5.166748046875,4Q5.166748046875,3.9507543,5.176355046875,3.9024549Q5.185963046875,3.854155,5.204808046875,3.808658Q5.223654046875,3.763161,5.251013046875,3.722215Q5.278373046875,3.681269,5.313195046875,3.646447Q5.348017046875,3.611625,5.388963046875,3.584265Q5.429909046875,3.556906,5.475406046875,3.5380599999999998Q5.520903046875,3.519215,5.569202946875,3.509607Q5.617502346875,3.5,5.666748046875,3.5Q5.715993746875,3.5,5.764293146875,3.509607Q5.812593046875,3.519215,5.858090046875,3.5380599999999998Q5.903587046875,3.556906,5.944533046875,3.584265Q5.985479046875,3.611625,6.020301046875,3.646447Q6.055123046875,3.681269,6.082483046875,3.722215Q6.109842046875,3.763161,6.128688046875,3.808658Q6.147533046875,3.854155,6.157141046875,3.9024549Q6.166748046875,3.9507543,6.166748046875,4Z" fill="#666666" fill-opacity="1"/></g></g></svg>