<svg xmlns="http://www.w3.org/2000/svg" xmlns:xlink="http://www.w3.org/1999/xlink" fill="none" version="1.1" width="48" height="48" viewBox="0 0 48 48"><defs><clipPath id="master_svg0_617_31650"><rect x="0" y="0" width="48" height="48" rx="0"/></clipPath></defs><g clip-path="url(#master_svg0_617_31650)"><g><g><g><rect x="0" y="0" width="48" height="48" rx="0" fill="#FFFFFF" fill-opacity="0.009999999776482582"/></g><g><path d="M24,44C32.836600000000004,44,40,37.4876,40,29.4545C40,21.5758,34.6667,13.09091,24,4C13.33333,13.09091,8,21.5758,8,29.4545C8,37.4878,15.16344,44,24,44Z" fill="#409EFF" fill-opacity="1"/><path d="M9.5,29.4545Q9.5,32.081900000000005,10.617370000000001,34.4835Q11.70439,36.8199,13.6953,38.6298Q15.70163,40.4538,18.3104,41.4569Q21.0233,42.5,24,42.5Q26.9767,42.5,29.6896,41.4569Q32.2983,40.4537,34.3047,38.6297Q36.2956,36.8198,37.3826,34.4834Q38.5,32.081900000000005,38.5,29.4545Q38.5,18.3288,23.027,5.14163L24,4L24.973,5.14163Q9.5,18.3288,9.5,29.4545ZM6.5,29.4545Q6.5,16.9439,23.027,2.85837Q23.128,2.77231,23.2425,2.7053000000000003Q23.357100000000003,2.6383,23.4816,2.59244Q23.606099999999998,2.54658,23.7367,2.5232900000000003Q23.8673,2.5,24,2.5Q24.1327,2.5,24.2633,2.5232900000000003Q24.3939,2.54658,24.5184,2.59244Q24.6429,2.6383,24.7575,2.7053000000000003Q24.872,2.7723,24.973,2.85837Q41.5,16.9439,41.5,29.4545Q41.5,32.745599999999996,40.1026,35.748999999999995Q38.7607,38.6332,36.3227,40.8496Q33.900099999999995,43.052,30.7663,44.257Q27.5336,45.5,24,45.5Q20.4664,45.5,17.23373,44.257Q14.09987,43.052,11.67728,40.8496Q9.23926,38.6333,7.897353,35.7491Q6.5,32.7457,6.5,29.4545Z" fill="#409EFF" fill-opacity="1"/></g><g><g><path d="M30.226042865657806,20.03766L25.083172865657808,25.40608Q25.032192865657805,25.45929,24.976242865657806,25.50725Q24.920302865657806,25.55521,24.859922865657808,25.597459999999998Q24.799542865657806,25.6397,24.735312865657807,25.67583Q24.671082865657805,25.71195,24.603622865657805,25.74161Q24.536162865657808,25.771259999999998,24.466122865657805,25.794159999999998Q24.396082865657807,25.817059999999998,24.324132865657806,25.83298Q24.252182865657808,25.84891,24.179022865657807,25.8577Q24.105852865657805,25.86649,24.032182865657806,25.86808Q23.958502865657806,25.86966,23.885032865657806,25.86401Q23.811562865657805,25.85836,23.738992865657806,25.84554Q23.666432865657807,25.832720000000002,23.595472865657808,25.81284Q23.524512865657805,25.79297,23.455832865657808,25.76624Q23.387172865657806,25.7395,23.321452865657808,25.70617Q23.255732865657805,25.67283,23.193592865657806,25.63322Q23.131462865657806,25.593600000000002,23.073502865657808,25.54808Q23.015552865657806,25.50257,22.962342865657806,25.45159Q22.939092865657805,25.42933,22.916832865657806,25.40608L17.773972865657807,20.03766Q17.722992865657808,19.984448,17.677482865657808,19.926494Q17.631962865657805,19.868541,17.592342865657805,19.806406Q17.552732865657806,19.74427,17.519392865657807,19.678551Q17.486062865657807,19.612832,17.459322865657807,19.544161Q17.432592865657806,19.475491,17.412722865657805,19.404531Q17.392842865657805,19.333571,17.380022865657807,19.261005Q17.367202865657806,19.188439,17.361552865657806,19.114965Q17.355902865657807,19.0414919,17.357492865657807,18.9678186Q17.359072865657808,18.894145,17.367862865657806,18.820982Q17.376662865657806,18.747818,17.392582865657808,18.675869Q17.408502865657805,18.60392,17.431402865657805,18.533877Q17.454302865657805,18.463835,17.483962865657805,18.396375Q17.513612865657805,18.328915,17.549732865657806,18.264686Q17.585862865657806,18.200457,17.628102865657805,18.140079Q17.670352865657808,18.0797,17.718312865657808,18.023753Q17.766272865657808,17.96781,17.819482865657807,17.91683Q17.872694865657806,17.865850000000002,17.930648865657805,17.82034Q17.988601865657806,17.77482,18.050736865657807,17.7352Q18.112872865657806,17.69559,18.178591865657808,17.66225Q18.244310865657805,17.62892,18.312981865657807,17.60218Q18.381651865657805,17.57545,18.452611865657808,17.55558Q18.523571865657807,17.5357,18.596137865657806,17.52288Q18.668703865657807,17.51006,18.742177865657805,17.50441Q18.815650965657806,17.49876,18.889324265657805,17.50035Q18.962997865657805,17.50193,19.036160865657806,17.51072Q19.109324865657808,17.51952,19.181273865657808,17.53544Q19.253222865657808,17.55136,19.323265865657806,17.57426Q19.393307865657807,17.59716,19.460767865657807,17.62682Q19.528227865657808,17.65647,19.592456865657805,17.69259Q19.656685865657806,17.72872,19.717063865657806,17.77096Q19.777442865657807,17.81321,19.833389865657807,17.86117Q19.889332865657806,17.90913,19.940312865657805,17.96234L25.083172865657808,23.330759999999998L24.000002865657805,24.36842L22.916832865657806,23.330759999999998L28.059682865657805,17.96234Q28.110662865657808,17.90913,28.166612865657804,17.86117Q28.222552865657807,17.81321,28.282932865657806,17.77096Q28.343312865657808,17.72872,28.407542865657806,17.69259Q28.471772865657805,17.65647,28.53923286565781,17.62682Q28.606692865657806,17.59716,28.676732865657804,17.57426Q28.746772865657807,17.55136,28.818722865657804,17.53544Q28.890642865657806,17.51952,28.963842865657806,17.51072Q29.037042865657806,17.50193,29.11064286565781,17.50035Q29.184342865657804,17.49876,29.257842865657807,17.50441Q29.331342865657806,17.51006,29.403842865657808,17.52288Q29.47644286565781,17.5357,29.547342865657807,17.55558Q29.61834286565781,17.57545,29.68704286565781,17.60218Q29.755642865657805,17.62892,29.821442865657808,17.66225Q29.887142865657808,17.69559,29.94924286565781,17.7352Q30.011442865657806,17.77482,30.069342865657806,17.82034Q30.12734286565781,17.865850000000002,30.180542865657806,17.91683Q30.233742865657806,17.96781,30.28164286565781,18.023753Q30.329642865657807,18.0797,30.371942865657807,18.140079Q30.41414286565781,18.200458,30.450242865657806,18.264686Q30.486342865657807,18.328915,30.516042865657806,18.396375Q30.545742865657807,18.463836,30.568642865657807,18.533878Q30.591542865657807,18.60392,30.607442865657806,18.675869Q30.623342865657804,18.747818,30.632142865657805,18.820982Q30.640942865657806,18.894145,30.642542865657806,18.9678187Q30.644142865657805,19.041492,30.638442865657808,19.114966Q30.632842865657807,19.188439,30.619942865657805,19.261005Q30.607142865657806,19.333571,30.587242865657807,19.404531Q30.567442865657807,19.475491,30.54064286565781,19.544161Q30.513942865657807,19.612832,30.480642865657806,19.678551Q30.447242865657806,19.74427,30.407642865657806,19.806406Q30.368042865657806,19.868541,30.32254286565781,19.926494Q30.277042865657805,19.984448,30.226042865657806,20.03766ZM30.642842865657805,19Q30.642842865657805,19.0736903,30.635642865657807,19.147026Q30.628442865657806,19.220361,30.614042865657808,19.292635Q30.599642865657806,19.36491,30.578242865657806,19.435427Q30.556842865657806,19.505944,30.528642865657808,19.574025Q30.500442865657806,19.642106,30.465742865657806,19.707095Q30.43104286565781,19.772084,30.390042865657804,19.833355Q30.349142865657807,19.894627,30.302342865657806,19.95159Q30.255642865657805,20.00855,30.203542865657806,20.06066Q30.151442865657806,20.11277,30.094442865657804,20.15952Q30.03744286565781,20.20626,29.976242865657806,20.2472Q29.914942865657807,20.28814,29.84994286565781,20.32288Q29.784942865657804,20.35762,29.716842865657807,20.38582Q29.648842865657805,20.41402,29.578242865657806,20.43541Q29.507742865657807,20.4568,29.43554286565781,20.47118Q29.363242865657806,20.48555,29.289842865657807,20.49278Q29.216542865657807,20.5,29.142842865657805,20.5Q29.069142865657806,20.5,28.995842865657806,20.49278Q28.922542865657807,20.48555,28.850222865657805,20.47118Q28.777952865657806,20.4568,28.707432865657807,20.43541Q28.636912865657806,20.41402,28.568832865657807,20.38582Q28.50075286565781,20.35762,28.435762865657807,20.32288Q28.370772865657806,20.28814,28.309502865657805,20.2472Q28.248232865657805,20.20626,28.191262865657805,20.15952Q28.13430286565781,20.11277,28.082192865657806,20.06066Q28.030092865657807,20.00855,27.983342865657807,19.95159Q27.936592865657808,19.894627,27.89565286565781,19.833355Q27.854712865657806,19.772084,27.819972865657807,19.707095Q27.785232865657804,19.642106,27.757032865657806,19.574025Q27.728832865657807,19.505944,27.707442865657807,19.435427Q27.686052865657807,19.36491,27.671682865657807,19.292635Q27.657302865657805,19.220361,27.650082865657808,19.147026Q27.642862865657804,19.0736903,27.642862865657804,19Q27.642862865657804,18.9263097,27.650082865657808,18.852974Q27.657302865657805,18.779639,27.671682865657807,18.707365Q27.686052865657807,18.63509,27.707442865657807,18.564573Q27.728832865657807,18.494056,27.757032865657806,18.425975Q27.785232865657804,18.357894,27.819972865657807,18.292905Q27.854712865657806,18.227916,27.89565286565781,18.166645Q27.936592865657808,18.105373,27.983342865657807,18.04841Q28.030092865657807,17.99145,28.082192865657806,17.93934Q28.13430286565781,17.88723,28.191262865657805,17.84048Q28.248232865657805,17.79374,28.309502865657805,17.7528Q28.370772865657806,17.71186,28.435762865657807,17.67712Q28.50075286565781,17.64238,28.568832865657807,17.61418Q28.636912865657806,17.58598,28.707432865657807,17.56459Q28.777952865657806,17.5432,28.850222865657805,17.52882Q28.922542865657807,17.51445,28.995842865657806,17.50722Q29.069142865657806,17.5,29.142842865657805,17.5Q29.216542865657807,17.5,29.289842865657807,17.50722Q29.363242865657806,17.51445,29.43554286565781,17.52882Q29.507742865657807,17.5432,29.578242865657806,17.56459Q29.648842865657805,17.58598,29.716842865657807,17.61418Q29.784942865657804,17.64238,29.84994286565781,17.67712Q29.914942865657807,17.71186,29.976242865657806,17.7528Q30.03744286565781,17.79374,30.094442865657804,17.84048Q30.151442865657806,17.88723,30.203542865657806,17.93934Q30.255642865657805,17.99145,30.302342865657806,18.04841Q30.349142865657807,18.105373,30.390042865657804,18.166645Q30.43104286565781,18.227916,30.465742865657806,18.292905Q30.500442865657806,18.357894,30.528642865657808,18.425975Q30.556842865657806,18.494056,30.578242865657806,18.564573Q30.599642865657806,18.63509,30.614042865657808,18.707365Q30.628442865657806,18.779639,30.635642865657807,18.852974Q30.642842865657805,18.9263097,30.642842865657805,19ZM20.357142865657806,19Q20.357142865657806,19.0736903,20.349922865657806,19.147026Q20.342692865657806,19.220361,20.328322865657807,19.292635Q20.313942865657808,19.36491,20.292552865657807,19.435427Q20.271162865657807,19.505944,20.242962865657805,19.574025Q20.214762865657807,19.642106,20.180022865657808,19.707095Q20.145282865657805,19.772084,20.104342865657806,19.833355Q20.063402865657807,19.894627,20.016662865657807,19.95159Q19.969912865657808,20.00855,19.917802865657805,20.06066Q19.865692865657806,20.11277,19.808732865657806,20.15952Q19.751769865657806,20.20626,19.690497865657807,20.2472Q19.629226865657806,20.28814,19.564237865657805,20.32288Q19.499248865657805,20.35762,19.431167865657805,20.38582Q19.363086865657806,20.41402,19.292569865657807,20.43541Q19.222052865657805,20.4568,19.149777865657807,20.47118Q19.077503865657807,20.48555,19.004168865657807,20.49278Q18.930833165657805,20.5,18.857142865657806,20.5Q18.783452565657807,20.5,18.710116865657806,20.49278Q18.636781865657806,20.48555,18.564507865657806,20.47118Q18.492232865657808,20.4568,18.421715865657806,20.43541Q18.351198865657807,20.41402,18.283117865657807,20.38582Q18.215036865657808,20.35762,18.150047865657807,20.32288Q18.085058865657807,20.28814,18.023787865657805,20.2472Q17.962515865657807,20.20626,17.905552865657807,20.15952Q17.848592865657807,20.11277,17.796482865657808,20.06066Q17.744372865657805,20.00855,17.697622865657806,19.95159Q17.650882865657806,19.894627,17.609942865657807,19.833355Q17.569002865657808,19.772084,17.534262865657805,19.707095Q17.499522865657806,19.642106,17.471322865657807,19.574025Q17.443122865657806,19.505944,17.421732865657805,19.435427Q17.400342865657805,19.36491,17.385962865657806,19.292635Q17.371592865657806,19.220361,17.364362865657807,19.147026Q17.357142865657806,19.0736903,17.357142865657806,19Q17.357142865657806,18.9263097,17.364362865657807,18.852974Q17.371592865657806,18.779639,17.385962865657806,18.707365Q17.400342865657805,18.63509,17.421732865657805,18.564573Q17.443122865657806,18.494056,17.471322865657807,18.425975Q17.499522865657806,18.357894,17.534262865657805,18.292905Q17.569002865657808,18.227916,17.609942865657807,18.166645Q17.650882865657806,18.105373,17.697622865657806,18.04841Q17.744372865657805,17.99145,17.796482865657808,17.93934Q17.848592865657807,17.88723,17.905552865657807,17.84048Q17.962515865657807,17.79374,18.023787865657805,17.7528Q18.085058865657807,17.71186,18.150047865657807,17.67712Q18.215036865657808,17.64238,18.283117865657807,17.61418Q18.351198865657807,17.58598,18.421715865657806,17.56459Q18.492232865657808,17.5432,18.564507865657806,17.52882Q18.636781865657806,17.51445,18.710116865657806,17.50722Q18.783452565657807,17.5,18.857142865657806,17.5Q18.930833165657805,17.5,19.004168865657807,17.50722Q19.077503865657807,17.51445,19.149777865657807,17.52882Q19.222052865657805,17.5432,19.292569865657807,17.56459Q19.363086865657806,17.58598,19.431167865657805,17.61418Q19.499248865657805,17.64238,19.564237865657805,17.67712Q19.629226865657806,17.71186,19.690497865657807,17.7528Q19.751769865657806,17.79374,19.808732865657806,17.84048Q19.865692865657806,17.88723,19.917802865657805,17.93934Q19.969912865657808,17.99145,20.016662865657807,18.04841Q20.063402865657807,18.105373,20.104342865657806,18.166645Q20.145282865657805,18.227916,20.180022865657808,18.292905Q20.214762865657807,18.357894,20.242962865657805,18.425975Q20.271162865657807,18.494056,20.292552865657807,18.564573Q20.313942865657808,18.63509,20.328322865657807,18.707365Q20.342692865657806,18.779639,20.349922865657806,18.852974Q20.357142865657806,18.9263097,20.357142865657806,19Z" fill="#FFFFFF" fill-opacity="1"/></g><g><path d="M30,27.657894611358643L18,27.657894611358643Q17.9263097,27.657894611358643,17.852974,27.650674611358642Q17.779639,27.643444611358643,17.707365,27.629074611358643Q17.63509,27.614694611358644,17.564573,27.593304611358644Q17.494056,27.571914611358643,17.425975,27.54371461135864Q17.357894,27.515514611358643,17.292905,27.480774611358644Q17.227916,27.44603461135864,17.166645,27.405094611358642Q17.105373,27.364154611358643,17.04841,27.317414611358643Q16.99145,27.270664611358644,16.93934,27.21855461135864Q16.88723,27.166444611358642,16.84048,27.109484611358642Q16.79374,27.052521611358642,16.7528,26.991249611358644Q16.71186,26.929978611358642,16.67712,26.86498961135864Q16.64238,26.80000061135864,16.61418,26.73191961135864Q16.58598,26.663838611358642,16.56459,26.593321611358643Q16.5432,26.52280461135864,16.52882,26.450529611358643Q16.51445,26.378255611358643,16.50722,26.304920611358643Q16.5,26.23158491135864,16.5,26.157894611358643Q16.5,26.084204311358643,16.50722,26.010868611358642Q16.51445,25.937533611358642,16.52882,25.865259611358642Q16.5432,25.792984611358644,16.56459,25.722467611358642Q16.58598,25.651950611358643,16.61418,25.583869611358644Q16.64238,25.515788611358644,16.67712,25.450799611358644Q16.71186,25.385810611358643,16.7528,25.32453961135864Q16.79374,25.263267611358643,16.84048,25.206304611358643Q16.88723,25.149344611358643,16.93934,25.097234611358644Q16.99145,25.04512461135864,17.04841,24.998374611358642Q17.105373,24.951634611358642,17.166645,24.910694611358643Q17.227916,24.869754611358644,17.292905,24.83501461135864Q17.357894,24.800274611358642,17.425975,24.772074611358644Q17.494056,24.743874611358642,17.564573,24.72248461135864Q17.63509,24.70109461135864,17.707365,24.686714611358642Q17.779639,24.672344611358643,17.852974,24.665114611358643Q17.9263097,24.657894611358643,18,24.657894611358643L30,24.657894611358643Q30.073700000000002,24.657894611358643,30.147,24.665114611358643Q30.220399999999998,24.672344611358643,30.2926,24.686714611358642Q30.3649,24.70109461135864,30.4354,24.72248461135864Q30.5059,24.743874611358642,30.573999999999998,24.772074611358644Q30.6421,24.800274611358642,30.7071,24.83501461135864Q30.772100000000002,24.869754611358644,30.833399999999997,24.910694611358643Q30.8946,24.951634611358642,30.9516,24.998374611358642Q31.0086,25.04512461135864,31.0607,25.097234611358644Q31.1128,25.149344611358643,31.1595,25.206304611358643Q31.2063,25.263267611358643,31.2472,25.32453961135864Q31.2881,25.385810611358643,31.3229,25.450799611358644Q31.357599999999998,25.515788611358644,31.3858,25.583869611358644Q31.414,25.651950611358643,31.4354,25.722467611358642Q31.4568,25.792984611358644,31.4712,25.865259611358642Q31.485599999999998,25.937533611358642,31.492800000000003,26.010868611358642Q31.5,26.084204311358643,31.5,26.157894611358643Q31.5,26.23158491135864,31.492800000000003,26.304920611358643Q31.485599999999998,26.378255611358643,31.4712,26.450529611358643Q31.4568,26.52280461135864,31.4354,26.593321611358643Q31.414,26.663838611358642,31.3858,26.73191961135864Q31.357599999999998,26.80000061135864,31.3229,26.86498961135864Q31.2881,26.929978611358642,31.2472,26.991249611358644Q31.2063,27.052521611358642,31.1595,27.109484611358642Q31.1128,27.166444611358642,31.0607,27.21855461135864Q31.0086,27.270664611358644,30.9516,27.317414611358643Q30.8946,27.364154611358643,30.833399999999997,27.405094611358642Q30.772100000000002,27.44603461135864,30.7071,27.480774611358644Q30.6421,27.515514611358643,30.573999999999998,27.54371461135864Q30.5059,27.571914611358643,30.4354,27.593304611358644Q30.3649,27.614694611358644,30.2926,27.629074611358643Q30.220399999999998,27.643444611358643,30.147,27.650674611358642Q30.073700000000002,27.657894611358643,30,27.657894611358643ZM31.5,26.157894611358643Q31.5,26.23158491135864,31.492800000000003,26.304920611358643Q31.485599999999998,26.378255611358643,31.4712,26.450529611358643Q31.4568,26.52280461135864,31.4354,26.593321611358643Q31.414,26.663838611358642,31.3858,26.73191961135864Q31.357599999999998,26.80000061135864,31.3229,26.86498961135864Q31.2881,26.929978611358642,31.2472,26.991249611358644Q31.2063,27.052521611358642,31.1595,27.109484611358642Q31.1128,27.166444611358642,31.0607,27.21855461135864Q31.0086,27.270664611358644,30.9516,27.317414611358643Q30.8946,27.364154611358643,30.833399999999997,27.405094611358642Q30.772100000000002,27.44603461135864,30.7071,27.480774611358644Q30.6421,27.515514611358643,30.573999999999998,27.54371461135864Q30.5059,27.571914611358643,30.4354,27.593304611358644Q30.3649,27.614694611358644,30.2926,27.629074611358643Q30.220399999999998,27.643444611358643,30.147,27.650674611358642Q30.073700000000002,27.657894611358643,30,27.657894611358643Q29.926299999999998,27.657894611358643,29.853,27.650674611358642Q29.779600000000002,27.643444611358643,29.7074,27.629074611358643Q29.6351,27.614694611358644,29.5646,27.593304611358644Q29.4941,27.571914611358643,29.426000000000002,27.54371461135864Q29.3579,27.515514611358643,29.2929,27.480774611358644Q29.227899999999998,27.44603461135864,29.166600000000003,27.405094611358642Q29.1054,27.364154611358643,29.0484,27.317414611358643Q28.9914,27.270664611358644,28.9393,27.21855461135864Q28.8872,27.166444611358642,28.8405,27.109484611358642Q28.7937,27.052521611358642,28.7528,26.991249611358644Q28.7119,26.929978611358642,28.6771,26.86498961135864Q28.642400000000002,26.80000061135864,28.6142,26.73191961135864Q28.586,26.663838611358642,28.5646,26.593321611358643Q28.5432,26.52280461135864,28.5288,26.450529611358643Q28.514400000000002,26.378255611358643,28.507199999999997,26.304920611358643Q28.5,26.23158491135864,28.5,26.157894611358643Q28.5,26.084204311358643,28.507199999999997,26.010868611358642Q28.514400000000002,25.937533611358642,28.5288,25.865259611358642Q28.5432,25.792984611358644,28.5646,25.722467611358642Q28.586,25.651950611358643,28.6142,25.583869611358644Q28.642400000000002,25.515788611358644,28.6771,25.450799611358644Q28.7119,25.385810611358643,28.7528,25.32453961135864Q28.7937,25.263267611358643,28.8405,25.206304611358643Q28.8872,25.149344611358643,28.9393,25.097234611358644Q28.9914,25.04512461135864,29.0484,24.998374611358642Q29.1054,24.951634611358642,29.166600000000003,24.910694611358643Q29.227899999999998,24.869754611358644,29.2929,24.83501461135864Q29.3579,24.800274611358642,29.426000000000002,24.772074611358644Q29.4941,24.743874611358642,29.5646,24.72248461135864Q29.6351,24.70109461135864,29.7074,24.686714611358642Q29.779600000000002,24.672344611358643,29.853,24.665114611358643Q29.926299999999998,24.657894611358643,30,24.657894611358643Q30.073700000000002,24.657894611358643,30.147,24.665114611358643Q30.220399999999998,24.672344611358643,30.2926,24.686714611358642Q30.3649,24.70109461135864,30.4354,24.72248461135864Q30.5059,24.743874611358642,30.573999999999998,24.772074611358644Q30.6421,24.800274611358642,30.7071,24.83501461135864Q30.772100000000002,24.869754611358644,30.833399999999997,24.910694611358643Q30.8946,24.951634611358642,30.9516,24.998374611358642Q31.0086,25.04512461135864,31.0607,25.097234611358644Q31.1128,25.149344611358643,31.1595,25.206304611358643Q31.2063,25.263267611358643,31.2472,25.32453961135864Q31.2881,25.385810611358643,31.3229,25.450799611358644Q31.357599999999998,25.515788611358644,31.3858,25.583869611358644Q31.414,25.651950611358643,31.4354,25.722467611358642Q31.4568,25.792984611358644,31.4712,25.865259611358642Q31.485599999999998,25.937533611358642,31.492800000000003,26.010868611358642Q31.5,26.084204311358643,31.5,26.157894611358643ZM19.5,26.157894611358643Q19.5,26.23158491135864,19.49278,26.304920611358643Q19.48555,26.378255611358643,19.47118,26.450529611358643Q19.4568,26.52280461135864,19.43541,26.593321611358643Q19.41402,26.663838611358642,19.38582,26.73191961135864Q19.35762,26.80000061135864,19.32288,26.86498961135864Q19.28814,26.929978611358642,19.2472,26.991249611358644Q19.20626,27.052521611358642,19.15952,27.109484611358642Q19.11277,27.166444611358642,19.06066,27.21855461135864Q19.00855,27.270664611358644,18.95159,27.317414611358643Q18.894627,27.364154611358643,18.833355,27.405094611358642Q18.772084,27.44603461135864,18.707095,27.480774611358644Q18.642106,27.515514611358643,18.574025,27.54371461135864Q18.505944,27.571914611358643,18.435427,27.593304611358644Q18.36491,27.614694611358644,18.292635,27.629074611358643Q18.220361,27.643444611358643,18.147026,27.650674611358642Q18.0736903,27.657894611358643,18,27.657894611358643Q17.9263097,27.657894611358643,17.852974,27.650674611358642Q17.779639,27.643444611358643,17.707365,27.629074611358643Q17.63509,27.614694611358644,17.564573,27.593304611358644Q17.494056,27.571914611358643,17.425975,27.54371461135864Q17.357894,27.515514611358643,17.292905,27.480774611358644Q17.227916,27.44603461135864,17.166645,27.405094611358642Q17.105373,27.364154611358643,17.04841,27.317414611358643Q16.99145,27.270664611358644,16.93934,27.21855461135864Q16.88723,27.166444611358642,16.84048,27.109484611358642Q16.79374,27.052521611358642,16.7528,26.991249611358644Q16.71186,26.929978611358642,16.67712,26.86498961135864Q16.64238,26.80000061135864,16.61418,26.73191961135864Q16.58598,26.663838611358642,16.56459,26.593321611358643Q16.5432,26.52280461135864,16.52882,26.450529611358643Q16.51445,26.378255611358643,16.50722,26.304920611358643Q16.5,26.23158491135864,16.5,26.157894611358643Q16.5,26.084204311358643,16.50722,26.010868611358642Q16.51445,25.937533611358642,16.52882,25.865259611358642Q16.5432,25.792984611358644,16.56459,25.722467611358642Q16.58598,25.651950611358643,16.61418,25.583869611358644Q16.64238,25.515788611358644,16.67712,25.450799611358644Q16.71186,25.385810611358643,16.7528,25.32453961135864Q16.79374,25.263267611358643,16.84048,25.206304611358643Q16.88723,25.149344611358643,16.93934,25.097234611358644Q16.99145,25.04512461135864,17.04841,24.998374611358642Q17.105373,24.951634611358642,17.166645,24.910694611358643Q17.227916,24.869754611358644,17.292905,24.83501461135864Q17.357894,24.800274611358642,17.425975,24.772074611358644Q17.494056,24.743874611358642,17.564573,24.72248461135864Q17.63509,24.70109461135864,17.707365,24.686714611358642Q17.779639,24.672344611358643,17.852974,24.665114611358643Q17.9263097,24.657894611358643,18,24.657894611358643Q18.0736903,24.657894611358643,18.147026,24.665114611358643Q18.220361,24.672344611358643,18.292635,24.686714611358642Q18.36491,24.70109461135864,18.435427,24.72248461135864Q18.505944,24.743874611358642,18.574025,24.772074611358644Q18.642106,24.800274611358642,18.707095,24.83501461135864Q18.772084,24.869754611358644,18.833355,24.910694611358643Q18.894627,24.951634611358642,18.95159,24.998374611358642Q19.00855,25.04512461135864,19.06066,25.097234611358644Q19.11277,25.149344611358643,19.15952,25.206304611358643Q19.20626,25.263267611358643,19.2472,25.32453961135864Q19.28814,25.385810611358643,19.32288,25.450799611358644Q19.35762,25.515788611358644,19.38582,25.583869611358644Q19.41402,25.651950611358643,19.43541,25.722467611358642Q19.4568,25.792984611358644,19.47118,25.865259611358642Q19.48555,25.937533611358642,19.49278,26.010868611358642Q19.5,26.084204311358643,19.5,26.157894611358643Z" fill="#FFFFFF" fill-opacity="1"/></g><g><path d="M30,33.026315689086914L18,33.026315689086914Q17.9263097,33.026315689086914,17.852974,33.01909568908692Q17.779639,33.01186568908692,17.707365,32.99749568908691Q17.63509,32.983115689086915,17.564573,32.96172568908691Q17.494056,32.940335689086915,17.425975,32.91213568908692Q17.357894,32.88393568908691,17.292905,32.84919568908691Q17.227916,32.81445568908691,17.166645,32.77351568908691Q17.105373,32.732575689086914,17.04841,32.685835689086915Q16.99145,32.63908568908691,16.93934,32.58697568908691Q16.88723,32.534865689086914,16.84048,32.47790568908692Q16.79374,32.420942689086914,16.7528,32.35967068908691Q16.71186,32.298399689086914,16.67712,32.23341068908692Q16.64238,32.16842168908691,16.61418,32.10034068908691Q16.58598,32.032259689086914,16.56459,31.961742689086915Q16.5432,31.891225689086912,16.52882,31.818950689086915Q16.51445,31.746676689086915,16.50722,31.673341689086914Q16.5,31.600005989086913,16.5,31.526315689086914Q16.5,31.452625389086915,16.50722,31.379289689086914Q16.51445,31.305954689086914,16.52882,31.233680689086913Q16.5432,31.161405689086916,16.56459,31.090888689086913Q16.58598,31.020371689086915,16.61418,30.952290689086915Q16.64238,30.884209689086916,16.67712,30.819220689086915Q16.71186,30.754231689086915,16.7528,30.692960689086913Q16.79374,30.631688689086914,16.84048,30.574725689086915Q16.88723,30.517765689086914,16.93934,30.465655689086915Q16.99145,30.413545689086913,17.04841,30.366795689086914Q17.105373,30.320055689086914,17.166645,30.279115689086915Q17.227916,30.238175689086916,17.292905,30.203435689086913Q17.357894,30.168695689086913,17.425975,30.140495689086915Q17.494056,30.112295689086913,17.564573,30.090905689086913Q17.63509,30.069515689086913,17.707365,30.055135689086914Q17.779639,30.040765689086914,17.852974,30.033535689086914Q17.9263097,30.026315689086914,18,30.026315689086914L30,30.026315689086914Q30.073700000000002,30.026315689086914,30.147,30.033535689086914Q30.220399999999998,30.040765689086914,30.2926,30.055135689086914Q30.3649,30.069515689086913,30.4354,30.090905689086913Q30.5059,30.112295689086913,30.573999999999998,30.140495689086915Q30.6421,30.168695689086913,30.7071,30.203435689086913Q30.772100000000002,30.238175689086916,30.833399999999997,30.279115689086915Q30.8946,30.320055689086914,30.9516,30.366795689086914Q31.0086,30.413545689086913,31.0607,30.465655689086915Q31.1128,30.517765689086914,31.1595,30.574725689086915Q31.2063,30.631688689086914,31.2472,30.692960689086913Q31.2881,30.754231689086915,31.3229,30.819220689086915Q31.357599999999998,30.884209689086916,31.3858,30.952290689086915Q31.414,31.020371689086915,31.4354,31.090888689086913Q31.4568,31.161405689086916,31.4712,31.233680689086913Q31.485599999999998,31.305954689086914,31.492800000000003,31.379289689086914Q31.5,31.452625389086915,31.5,31.526315689086914Q31.5,31.600005989086913,31.492800000000003,31.673341689086914Q31.485599999999998,31.746676689086915,31.4712,31.818950689086915Q31.4568,31.891225689086912,31.4354,31.961742689086915Q31.414,32.032259689086914,31.3858,32.10034068908691Q31.357599999999998,32.16842168908691,31.3229,32.23341068908692Q31.2881,32.298399689086914,31.2472,32.35967068908691Q31.2063,32.420942689086914,31.1595,32.47790568908692Q31.1128,32.534865689086914,31.0607,32.58697568908691Q31.0086,32.63908568908691,30.9516,32.685835689086915Q30.8946,32.732575689086914,30.833399999999997,32.77351568908691Q30.772100000000002,32.81445568908691,30.7071,32.84919568908691Q30.6421,32.88393568908691,30.573999999999998,32.91213568908692Q30.5059,32.940335689086915,30.4354,32.96172568908691Q30.3649,32.983115689086915,30.2926,32.99749568908691Q30.220399999999998,33.01186568908692,30.147,33.01909568908692Q30.073700000000002,33.026315689086914,30,33.026315689086914ZM31.5,31.526315689086914Q31.5,31.600005989086913,31.492800000000003,31.673341689086914Q31.485599999999998,31.746676689086915,31.4712,31.818950689086915Q31.4568,31.891225689086912,31.4354,31.961742689086915Q31.414,32.032259689086914,31.3858,32.10034068908691Q31.357599999999998,32.16842168908691,31.3229,32.23341068908692Q31.2881,32.298399689086914,31.2472,32.35967068908691Q31.2063,32.420942689086914,31.1595,32.47790568908692Q31.1128,32.534865689086914,31.0607,32.58697568908691Q31.0086,32.63908568908691,30.9516,32.685835689086915Q30.8946,32.732575689086914,30.833399999999997,32.77351568908691Q30.772100000000002,32.81445568908691,30.7071,32.84919568908691Q30.6421,32.88393568908691,30.573999999999998,32.91213568908692Q30.5059,32.940335689086915,30.4354,32.96172568908691Q30.3649,32.983115689086915,30.2926,32.99749568908691Q30.220399999999998,33.01186568908692,30.147,33.01909568908692Q30.073700000000002,33.026315689086914,30,33.026315689086914Q29.926299999999998,33.026315689086914,29.853,33.01909568908692Q29.779600000000002,33.01186568908692,29.7074,32.99749568908691Q29.6351,32.983115689086915,29.5646,32.96172568908691Q29.4941,32.940335689086915,29.426000000000002,32.91213568908692Q29.3579,32.88393568908691,29.2929,32.84919568908691Q29.227899999999998,32.81445568908691,29.166600000000003,32.77351568908691Q29.1054,32.732575689086914,29.0484,32.685835689086915Q28.9914,32.63908568908691,28.9393,32.58697568908691Q28.8872,32.534865689086914,28.8405,32.47790568908692Q28.7937,32.420942689086914,28.7528,32.35967068908691Q28.7119,32.298399689086914,28.6771,32.23341068908692Q28.642400000000002,32.16842168908691,28.6142,32.10034068908691Q28.586,32.032259689086914,28.5646,31.961742689086915Q28.5432,31.891225689086912,28.5288,31.818950689086915Q28.514400000000002,31.746676689086915,28.507199999999997,31.673341689086914Q28.5,31.600005989086913,28.5,31.526315689086914Q28.5,31.452625389086915,28.507199999999997,31.379289689086914Q28.514400000000002,31.305954689086914,28.5288,31.233680689086913Q28.5432,31.161405689086916,28.5646,31.090888689086913Q28.586,31.020371689086915,28.6142,30.952290689086915Q28.642400000000002,30.884209689086916,28.6771,30.819220689086915Q28.7119,30.754231689086915,28.7528,30.692960689086913Q28.7937,30.631688689086914,28.8405,30.574725689086915Q28.8872,30.517765689086914,28.9393,30.465655689086915Q28.9914,30.413545689086913,29.0484,30.366795689086914Q29.1054,30.320055689086914,29.166600000000003,30.279115689086915Q29.227899999999998,30.238175689086916,29.2929,30.203435689086913Q29.3579,30.168695689086913,29.426000000000002,30.140495689086915Q29.4941,30.112295689086913,29.5646,30.090905689086913Q29.6351,30.069515689086913,29.7074,30.055135689086914Q29.779600000000002,30.040765689086914,29.853,30.033535689086914Q29.926299999999998,30.026315689086914,30,30.026315689086914Q30.073700000000002,30.026315689086914,30.147,30.033535689086914Q30.220399999999998,30.040765689086914,30.2926,30.055135689086914Q30.3649,30.069515689086913,30.4354,30.090905689086913Q30.5059,30.112295689086913,30.573999999999998,30.140495689086915Q30.6421,30.168695689086913,30.7071,30.203435689086913Q30.772100000000002,30.238175689086916,30.833399999999997,30.279115689086915Q30.8946,30.320055689086914,30.9516,30.366795689086914Q31.0086,30.413545689086913,31.0607,30.465655689086915Q31.1128,30.517765689086914,31.1595,30.574725689086915Q31.2063,30.631688689086914,31.2472,30.692960689086913Q31.2881,30.754231689086915,31.3229,30.819220689086915Q31.357599999999998,30.884209689086916,31.3858,30.952290689086915Q31.414,31.020371689086915,31.4354,31.090888689086913Q31.4568,31.161405689086916,31.4712,31.233680689086913Q31.485599999999998,31.305954689086914,31.492800000000003,31.379289689086914Q31.5,31.452625389086915,31.5,31.526315689086914ZM19.5,31.526315689086914Q19.5,31.600005989086913,19.49278,31.673341689086914Q19.48555,31.746676689086915,19.47118,31.818950689086915Q19.4568,31.891225689086912,19.43541,31.961742689086915Q19.41402,32.032259689086914,19.38582,32.10034068908691Q19.35762,32.16842168908691,19.32288,32.23341068908692Q19.28814,32.298399689086914,19.2472,32.35967068908691Q19.20626,32.420942689086914,19.15952,32.47790568908692Q19.11277,32.534865689086914,19.06066,32.58697568908691Q19.00855,32.63908568908691,18.95159,32.685835689086915Q18.894627,32.732575689086914,18.833355,32.77351568908691Q18.772084,32.81445568908691,18.707095,32.84919568908691Q18.642106,32.88393568908691,18.574025,32.91213568908692Q18.505944,32.940335689086915,18.435427,32.96172568908691Q18.36491,32.983115689086915,18.292635,32.99749568908691Q18.220361,33.01186568908692,18.147026,33.01909568908692Q18.0736903,33.026315689086914,18,33.026315689086914Q17.9263097,33.026315689086914,17.852974,33.01909568908692Q17.779639,33.01186568908692,17.707365,32.99749568908691Q17.63509,32.983115689086915,17.564573,32.96172568908691Q17.494056,32.940335689086915,17.425975,32.91213568908692Q17.357894,32.88393568908691,17.292905,32.84919568908691Q17.227916,32.81445568908691,17.166645,32.77351568908691Q17.105373,32.732575689086914,17.04841,32.685835689086915Q16.99145,32.63908568908691,16.93934,32.58697568908691Q16.88723,32.534865689086914,16.84048,32.47790568908692Q16.79374,32.420942689086914,16.7528,32.35967068908691Q16.71186,32.298399689086914,16.67712,32.23341068908692Q16.64238,32.16842168908691,16.61418,32.10034068908691Q16.58598,32.032259689086914,16.56459,31.961742689086915Q16.5432,31.891225689086912,16.52882,31.818950689086915Q16.51445,31.746676689086915,16.50722,31.673341689086914Q16.5,31.600005989086913,16.5,31.526315689086914Q16.5,31.452625389086915,16.50722,31.379289689086914Q16.51445,31.305954689086914,16.52882,31.233680689086913Q16.5432,31.161405689086916,16.56459,31.090888689086913Q16.58598,31.020371689086915,16.61418,30.952290689086915Q16.64238,30.884209689086916,16.67712,30.819220689086915Q16.71186,30.754231689086915,16.7528,30.692960689086913Q16.79374,30.631688689086914,16.84048,30.574725689086915Q16.88723,30.517765689086914,16.93934,30.465655689086915Q16.99145,30.413545689086913,17.04841,30.366795689086914Q17.105373,30.320055689086914,17.166645,30.279115689086915Q17.227916,30.238175689086916,17.292905,30.203435689086913Q17.357894,30.168695689086913,17.425975,30.140495689086915Q17.494056,30.112295689086913,17.564573,30.090905689086913Q17.63509,30.069515689086913,17.707365,30.055135689086914Q17.779639,30.040765689086914,17.852974,30.033535689086914Q17.9263097,30.026315689086914,18,30.026315689086914Q18.0736903,30.026315689086914,18.147026,30.033535689086914Q18.220361,30.040765689086914,18.292635,30.055135689086914Q18.36491,30.069515689086913,18.435427,30.090905689086913Q18.505944,30.112295689086913,18.574025,30.140495689086915Q18.642106,30.168695689086913,18.707095,30.203435689086913Q18.772084,30.238175689086916,18.833355,30.279115689086915Q18.894627,30.320055689086914,18.95159,30.366795689086914Q19.00855,30.413545689086913,19.06066,30.465655689086915Q19.11277,30.517765689086914,19.15952,30.574725689086915Q19.20626,30.631688689086914,19.2472,30.692960689086913Q19.28814,30.754231689086915,19.32288,30.819220689086915Q19.35762,30.884209689086916,19.38582,30.952290689086915Q19.41402,31.020371689086915,19.43541,31.090888689086913Q19.4568,31.161405689086916,19.47118,31.233680689086913Q19.48555,31.305954689086914,19.49278,31.379289689086914Q19.5,31.452625389086915,19.5,31.526315689086914Z" fill="#FFFFFF" fill-opacity="1"/></g><g><path d="M22.5,36.00000461135864L22.5,26.157894611358643Q22.5,26.084204311358643,22.50722,26.010868611358642Q22.51445,25.937533611358642,22.52882,25.865259611358642Q22.5432,25.792984611358644,22.56459,25.722467611358642Q22.58598,25.651950611358643,22.61418,25.583869611358644Q22.64238,25.515788611358644,22.67712,25.450799611358644Q22.71186,25.385810611358643,22.7528,25.32453961135864Q22.79374,25.263267611358643,22.84048,25.206304611358643Q22.88723,25.149344611358643,22.93934,25.097234611358644Q22.99145,25.04512461135864,23.04841,24.998374611358642Q23.105373,24.951634611358642,23.166645,24.910694611358643Q23.227916,24.869754611358644,23.292905,24.83501461135864Q23.357894,24.800274611358642,23.425975,24.772074611358644Q23.494056,24.743874611358642,23.564573,24.72248461135864Q23.63509,24.70109461135864,23.707365,24.686714611358642Q23.779639,24.672344611358643,23.852974,24.665114611358643Q23.9263097,24.657894611358643,24,24.657894611358643Q24.0736903,24.657894611358643,24.147026,24.665114611358643Q24.220361,24.672344611358643,24.292635,24.686714611358642Q24.36491,24.70109461135864,24.435427,24.72248461135864Q24.505944,24.743874611358642,24.574025,24.772074611358644Q24.642106,24.800274611358642,24.707095,24.83501461135864Q24.772084,24.869754611358644,24.833355,24.910694611358643Q24.894627,24.951634611358642,24.95159,24.998374611358642Q25.00855,25.04512461135864,25.06066,25.097234611358644Q25.11277,25.149344611358643,25.15952,25.206304611358643Q25.20626,25.263267611358643,25.2472,25.32453961135864Q25.28814,25.385810611358643,25.32288,25.450799611358644Q25.35762,25.515788611358644,25.38582,25.583869611358644Q25.41402,25.651950611358643,25.43541,25.722467611358642Q25.4568,25.792984611358644,25.47118,25.865259611358642Q25.48555,25.937533611358642,25.49278,26.010868611358642Q25.5,26.084204311358643,25.5,26.157894611358643L25.5,36.00000461135864Q25.5,36.07369461135865,25.49278,36.147024611358646Q25.48555,36.22039461135864,25.47118,36.292594611358645Q25.4568,36.36489461135864,25.43541,36.435394611358646Q25.41402,36.505994611358645,25.38582,36.57399461135864Q25.35762,36.642094611358644,25.32288,36.70709461135864Q25.28814,36.77209461135864,25.2472,36.83339461135864Q25.20626,36.89459461135864,25.15952,36.951594611358644Q25.11277,37.008594611358646,25.06066,37.06069461135864Q25.00855,37.112794611358645,24.95159,37.15949461135864Q24.894627,37.20629461135864,24.833355,37.247194611358644Q24.772084,37.288094611358645,24.707095,37.32289461135864Q24.642106,37.35759461135864,24.574025,37.38579461135864Q24.505944,37.413994611358646,24.435427,37.435394611358646Q24.36491,37.456794611358646,24.292635,37.47119461135864Q24.220361,37.48559461135864,24.147026,37.49279461135864Q24.0736903,37.499994611358645,24,37.499994611358645Q23.9263097,37.499994611358645,23.852974,37.49279461135864Q23.779639,37.48559461135864,23.707365,37.47119461135864Q23.63509,37.456794611358646,23.564573,37.435394611358646Q23.494056,37.413994611358646,23.425975,37.38579461135864Q23.357894,37.35759461135864,23.292905,37.32289461135864Q23.227916,37.28819461135864,23.166645,37.247194611358644Q23.105373,37.20629461135864,23.04841,37.15949461135864Q22.99145,37.112794611358645,22.93934,37.06069461135864Q22.88723,37.008594611358646,22.84048,36.951594611358644Q22.79374,36.89459461135864,22.7528,36.83339461135864Q22.71186,36.77209461135864,22.67712,36.70709461135864Q22.64238,36.642094611358644,22.61418,36.57399461135864Q22.58598,36.505994611358645,22.56459,36.435394611358646Q22.5432,36.36489461135864,22.52882,36.292594611358645Q22.51445,36.22039461135864,22.50722,36.147024611358646Q22.5,36.07369461135865,22.5,36.00000461135864ZM25.5,36.00000461135864Q25.5,36.07369461135865,25.49278,36.147024611358646Q25.48555,36.22039461135864,25.47118,36.292594611358645Q25.4568,36.36489461135864,25.43541,36.435394611358646Q25.41402,36.505994611358645,25.38582,36.57399461135864Q25.35762,36.642094611358644,25.32288,36.70709461135864Q25.28814,36.77209461135864,25.2472,36.83339461135864Q25.20626,36.89459461135864,25.15952,36.951594611358644Q25.11277,37.008594611358646,25.06066,37.06069461135864Q25.00855,37.112794611358645,24.95159,37.15949461135864Q24.894627,37.20629461135864,24.833355,37.247194611358644Q24.772084,37.288094611358645,24.707095,37.32289461135864Q24.642106,37.35759461135864,24.574025,37.38579461135864Q24.505944,37.413994611358646,24.435427,37.435394611358646Q24.36491,37.456794611358646,24.292635,37.47119461135864Q24.220361,37.48559461135864,24.147026,37.49279461135864Q24.0736903,37.499994611358645,24,37.499994611358645Q23.9263097,37.499994611358645,23.852974,37.49279461135864Q23.779639,37.48559461135864,23.707365,37.47119461135864Q23.63509,37.456794611358646,23.564573,37.435394611358646Q23.494056,37.413994611358646,23.425975,37.38579461135864Q23.357894,37.35759461135864,23.292905,37.32289461135864Q23.227916,37.28819461135864,23.166645,37.247194611358644Q23.105373,37.20629461135864,23.04841,37.15949461135864Q22.99145,37.112794611358645,22.93934,37.06069461135864Q22.88723,37.008594611358646,22.84048,36.951594611358644Q22.79374,36.89459461135864,22.7528,36.83339461135864Q22.71186,36.77209461135864,22.67712,36.70709461135864Q22.64238,36.642094611358644,22.61418,36.57399461135864Q22.58598,36.505994611358645,22.56459,36.435394611358646Q22.5432,36.36489461135864,22.52882,36.292594611358645Q22.51445,36.22039461135864,22.50722,36.147024611358646Q22.5,36.07369461135865,22.5,36.00000461135864Q22.5,35.92631461135864,22.50722,35.85297461135865Q22.51445,35.779634611358645,22.52882,35.70736461135864Q22.5432,35.63509461135864,22.56459,35.564574611358644Q22.58598,35.49405461135864,22.61418,35.42597461135864Q22.64238,35.357894611358645,22.67712,35.292904611358644Q22.71186,35.22791461135864,22.7528,35.16664461135864Q22.79374,35.10537461135864,22.84048,35.048414611358645Q22.88723,34.991444611358645,22.93934,34.93934461135864Q22.99145,34.88723461135864,23.04841,34.84048461135864Q23.105373,34.793734611358644,23.166645,34.752794611358645Q23.227916,34.711854611358646,23.292905,34.67711461135865Q23.357894,34.642384611358644,23.425975,34.61418461135864Q23.494056,34.58598461135864,23.564573,34.56459461135864Q23.63509,34.54319461135864,23.707365,34.528824611358644Q23.779639,34.51444461135864,23.852974,34.507224611358644Q23.9263097,34.50000461135864,24,34.50000461135864Q24.0736903,34.50000461135864,24.147026,34.507224611358644Q24.220361,34.51444461135864,24.292635,34.528824611358644Q24.36491,34.54319461135864,24.435427,34.56459461135864Q24.505944,34.58598461135864,24.574025,34.61418461135864Q24.642106,34.642384611358644,24.707095,34.67711461135865Q24.772084,34.711854611358646,24.833355,34.752794611358645Q24.894627,34.793734611358644,24.95159,34.84048461135864Q25.00855,34.88723461135864,25.06066,34.93934461135864Q25.11277,34.991444611358645,25.15952,35.048414611358645Q25.20626,35.10537461135864,25.2472,35.16664461135864Q25.28814,35.22791461135864,25.32288,35.292904611358644Q25.35762,35.357894611358645,25.38582,35.42597461135864Q25.41402,35.49405461135864,25.43541,35.564574611358644Q25.4568,35.63509461135864,25.47118,35.70736461135864Q25.48555,35.779634611358645,25.49278,35.85297461135865Q25.5,35.92631461135864,25.5,36.00000461135864ZM25.5,26.157894611358643Q25.5,26.23158491135864,25.49278,26.304920611358643Q25.48555,26.378255611358643,25.47118,26.450529611358643Q25.4568,26.52280461135864,25.43541,26.593321611358643Q25.41402,26.663838611358642,25.38582,26.73191961135864Q25.35762,26.80000061135864,25.32288,26.86498961135864Q25.28814,26.929978611358642,25.2472,26.991249611358644Q25.20626,27.052521611358642,25.15952,27.109484611358642Q25.11277,27.166444611358642,25.06066,27.21855461135864Q25.00855,27.270664611358644,24.95159,27.317414611358643Q24.894627,27.364154611358643,24.833355,27.405094611358642Q24.772084,27.44603461135864,24.707095,27.480774611358644Q24.642106,27.515514611358643,24.574025,27.54371461135864Q24.505944,27.571914611358643,24.435427,27.593304611358644Q24.36491,27.614694611358644,24.292635,27.629074611358643Q24.220361,27.643444611358643,24.147026,27.650674611358642Q24.0736903,27.657894611358643,24,27.657894611358643Q23.9263097,27.657894611358643,23.852974,27.650674611358642Q23.779639,27.643444611358643,23.707365,27.629074611358643Q23.63509,27.614694611358644,23.564573,27.593304611358644Q23.494056,27.571914611358643,23.425975,27.54371461135864Q23.357894,27.515514611358643,23.292905,27.480774611358644Q23.227916,27.44603461135864,23.166645,27.405094611358642Q23.105373,27.364154611358643,23.04841,27.317414611358643Q22.99145,27.270664611358644,22.93934,27.21855461135864Q22.88723,27.166444611358642,22.84048,27.109484611358642Q22.79374,27.052521611358642,22.7528,26.991249611358644Q22.71186,26.929978611358642,22.67712,26.86498961135864Q22.64238,26.80000061135864,22.61418,26.73191961135864Q22.58598,26.663838611358642,22.56459,26.593321611358643Q22.5432,26.52280461135864,22.52882,26.450529611358643Q22.51445,26.378255611358643,22.50722,26.304920611358643Q22.5,26.23158491135864,22.5,26.157894611358643Q22.5,26.084204311358643,22.50722,26.010868611358642Q22.51445,25.937533611358642,22.52882,25.865259611358642Q22.5432,25.792984611358644,22.56459,25.722467611358642Q22.58598,25.651950611358643,22.61418,25.583869611358644Q22.64238,25.515788611358644,22.67712,25.450799611358644Q22.71186,25.385810611358643,22.7528,25.32453961135864Q22.79374,25.263267611358643,22.84048,25.206304611358643Q22.88723,25.149344611358643,22.93934,25.097234611358644Q22.99145,25.04512461135864,23.04841,24.998374611358642Q23.105373,24.951634611358642,23.166645,24.910694611358643Q23.227916,24.869754611358644,23.292905,24.83501461135864Q23.357894,24.800274611358642,23.425975,24.772074611358644Q23.494056,24.743874611358642,23.564573,24.72248461135864Q23.63509,24.70109461135864,23.707365,24.686714611358642Q23.779639,24.672344611358643,23.852974,24.665114611358643Q23.9263097,24.657894611358643,24,24.657894611358643Q24.0736903,24.657894611358643,24.147026,24.665114611358643Q24.220361,24.672344611358643,24.292635,24.686714611358642Q24.36491,24.70109461135864,24.435427,24.72248461135864Q24.505944,24.743874611358642,24.574025,24.772074611358644Q24.642106,24.800274611358642,24.707095,24.83501461135864Q24.772084,24.869754611358644,24.833355,24.910694611358643Q24.894627,24.951634611358642,24.95159,24.998374611358642Q25.00855,25.04512461135864,25.06066,25.097234611358644Q25.11277,25.149344611358643,25.15952,25.206304611358643Q25.20626,25.263267611358643,25.2472,25.32453961135864Q25.28814,25.385810611358643,25.32288,25.450799611358644Q25.35762,25.515788611358644,25.38582,25.583869611358644Q25.41402,25.651950611358643,25.43541,25.722467611358642Q25.4568,25.792984611358644,25.47118,25.865259611358642Q25.48555,25.937533611358642,25.49278,26.010868611358642Q25.5,26.084204311358643,25.5,26.157894611358643Z" fill="#FFFFFF" fill-opacity="1"/></g></g></g></g></g></svg>