<svg xmlns="http://www.w3.org/2000/svg" xmlns:xlink="http://www.w3.org/1999/xlink" fill="none" version="1.1" width="12" height="12" viewBox="0 0 12 12"><defs><clipPath id="master_svg0_233_23906"><rect x="0" y="0" width="12" height="12" rx="0"/></clipPath></defs><g clip-path="url(#master_svg0_233_23906)"><g><path d="M6.041368125,9.026129140625C6.092538125,9.026129140625,6.144648125,9.022999140625,6.197048125,9.016759140625C6.699668125,8.956439140625,7.126468125,8.605129140625,7.284018125,8.120999140624999C7.295878125,8.084749140625,7.278718125,8.045989140625,7.244088125,8.030049140625C7.209758125,8.014119140624999,7.168268125,8.027869140625,7.148928125,8.060369140625C7.147058125,8.063499140625,6.947378125,8.386039140625,6.169908125,8.491059140625C6.053538125,8.506679140625,5.940288125,8.514809140625001,5.832968125,8.514809140625001C5.288228125,8.514499140625,5.045508125,8.309159140624999,5.043318125,8.307279140624999C5.015878125,8.282899140625,4.974058125,8.282279140625,4.945988125,8.306029140625C4.917598125,8.329789140625,4.911038125,8.371039140625001,4.930388125,8.402619140625C5.167498125,8.787039140625,5.593038125,9.026129140625,6.041368125,9.026129140625ZM10.221708125,4.207929140625C10.214838125,4.207929140625,10.208608125,4.209179140625,10.202058125,4.209179140625C9.746548125,2.2370191406249997,8.005958125,0.765869140625,5.919078125,0.765869140625C3.774788125,0.765869140625,1.994268125,2.3182891406249997,1.5995941249999999,4.3720191406249995C1.215854125,4.4410891406249995,0.923828125,4.778329140625,0.923828125,5.186209140625L0.923828125,6.818629140625C0.923828125,7.276199140625,1.290731125,7.647189140625,1.7437361249999999,7.647189140625C1.999258125,7.647189140625,2.224828125,7.526549140625,2.374888125,7.341199140625C2.737408125,8.300059140624999,3.475538125,9.073269140625,4.409588125,9.481169140625C4.4118281249999995,9.476299140625,4.4295181249999995,9.441929140625,4.450768125,9.414539140625C4.4655081249999995,9.395539140625,4.481948125000001,9.379939140625,4.496098125,9.379939140625C4.510768125,9.379939140625,4.524178125000001,9.385249140625,4.535718125,9.393379140625C4.3195081250000005,9.232419140625,3.538608125,8.405109140625001,3.369508125,7.250569140625C3.295258125,6.742369140625,3.675878125,6.243549140625,4.119218125,6.161039140625C4.830868125,6.028509140625,5.538768125,5.877559140625,6.250408125,5.747549140625C6.702798125,5.665029140625,7.011978125,5.416869140625,7.201048125,5.003689140625C7.245338125,4.907109140625,7.309308125,4.711769140625,7.338638125,4.430169140625C7.346438125,4.388289140625,7.380758125,4.356089140625,7.424758125,4.356089140625C7.454088125,4.356089140625,7.479038125,4.371089140625,7.495578125,4.392659140625L7.515228125,4.380469140624999C7.795708125,4.787719140625,8.351988125,5.689409140625,8.431858125,6.640169140625C8.523578125,7.727209140625,8.472408125000001,8.471689140625,7.640338125,9.233369140625C7.639408125,9.234299140625,7.638158125,9.235549140625,7.636918125,9.236499140625C7.625368125,9.248989140625,7.618508125,9.265249140625,7.618508125,9.283059140625C7.618508125,9.306499140625,7.630988125,9.326509140625,7.649088125,9.338689140625C7.655948125,9.341509140625,7.662818125,9.345249140625,7.669678125,9.348069140625C7.675288125,9.349319140625,7.680588125,9.351199140625,7.686208125,9.351199140625C7.691838125,9.351199140625,7.696828125,9.349329140625,7.701808125,9.348069140625C7.713668125,9.341819140625,7.724898125,9.334629140625,7.736448125,9.328379140625C8.577878125,8.864869140625,9.223378125,8.090699140625,9.521638125,7.159619140625C9.642378125,7.339019140625,9.831438125,7.468099140625,10.051078125,7.513109140625C9.698838125,9.115219140625,8.269938125,10.117859140625,6.499708125,10.270079140625C6.393628125,10.006909140625,6.132498125,9.820009140625,5.825818125,9.820009140625C5.425228125,9.820009140625,5.100438125,10.137239140625,5.100438125,10.528239140625C5.100438125,10.919269140625,5.425218125,11.236169140625,5.825818125,11.236169140625C6.148718125,11.236169140625,6.419218125,11.028669140625,6.513128125,10.743589140625C8.562268125,10.576999140625,10.204888125,9.359009140625,10.547768125,7.466539140625C10.850708125,7.339959140625,11.063528125,7.042729140625,11.063528125,6.695799140625L11.063528125,5.043989140625C11.063428125,4.582369140625,10.686568125,4.207929140625,10.221708125,4.207929140625ZM9.465758125,4.682379140625001C8.931328125,3.234669140625,7.546408125,2.200459140625,5.917208125,2.200459140625C4.294858125,2.200459140625,2.914948125,3.225919140625,2.375518125,4.6642491406249995C2.348688125,4.631429140625,2.317178125,4.6032991406249995,2.286288125,4.574859140625C2.591718125,2.822099140625,4.100188125,1.489410140625,5.919078125,1.489410140625C7.729238125,1.489410140625,9.233018125,2.808969140625,9.548438125,4.549539140625C9.517238125,4.591429140624999,9.488528125,4.635189140625,9.465758125,4.682379140625001ZM4.409668125,9.481199140625C4.409638125,9.481189140625,4.409608125,9.481179140625,4.4095781249999995,9.481169140625C4.409238125,9.481919140625,4.409228125,9.482019140625,4.409668125,9.481199140625Z" fill="#64748B" fill-opacity="1"/></g></g></svg>