<svg xmlns="http://www.w3.org/2000/svg" xmlns:xlink="http://www.w3.org/1999/xlink" fill="none" version="1.1" width="16" height="16" viewBox="0 0 16 16"><defs><clipPath id="master_svg0_315_57724"><rect x="0" y="0" width="16" height="16" rx="0"/></clipPath></defs><g clip-path="url(#master_svg0_315_57724)"><g><path d="M5.469255625000001,3.5148492265625L5.086105625,3.2731504265625C5.022935625000001,3.2333250265625,4.966625625,3.2292051265625,4.925425625,3.2594175265625C4.8842356250000005,3.2896299265625,4.860885625,3.3528012265625,4.860885625,3.4393182265625L4.854015625000001,4.1973752265624995C4.849895625,4.4651622265625,4.669995625,4.6794022265625,4.453015625,4.6739122265625L3.792465625,4.6588022265625C3.688095625,4.6560522265625,3.589215625,4.6024922265625,3.515055625,4.5091122265625C3.440902625,4.4143522265624995,3.401076625,4.2907622265625,3.402449625,4.1616702265625L3.410689625,3.4063592265625C3.410689625,3.3198422265625,3.390090625,3.2552976265625,3.3488916250000003,3.2237119265625C3.309066625,3.1921262765625,3.251387625,3.1948728565625,3.188216625,3.2305784265625L2.800948625,3.4544252265625C2.651259625,3.5409422265625,2.524917125,3.7853882265625,2.522170525,3.9872622265624997L2.5098109245,5.1655422265625C2.507064345,5.368792226562499,2.629287625,5.6173622265625,2.776229625,5.7107422265625L3.6702456249999997,6.2751622265625C3.495833625,6.3754122265625,3.372237625,6.5896522265624995,3.369490625,6.8423322265625L3.366744625,7.0895222265625C3.351638625,7.1417122265625,3.3420256249999998,7.1966422265625,3.339278625,7.2529522265625C3.337905625,7.3147422265625,3.346145625,7.3751722265625,3.362624625,7.4355922265625L3.3420256249999998,9.6891622265625C3.340651625,9.7015222265625,3.340651625,9.712512226562499,3.340651625,9.7248722265625C3.340651625,9.7454722265625,3.340651625,9.764692226562499,3.3420256249999998,9.7852922265625L3.335158625,10.4444722265625C3.3200526249999998,10.460952226562501,3.304946625,10.476062226562501,3.289840625,10.4939122265625C2.8572536250000002,11.010272226562499,2.847640625,11.8630822265625,3.270614625,12.4000422265625C3.6922156250000002,12.9370022265625,4.387095625,12.9534822265625,4.819685625,12.4371222265625C5.252275624999999,11.9207622265625,5.261885625,11.0679522265625,4.838915625,10.5309922265625C4.825175625,10.5131422265625,4.808695625,10.4966622265625,4.794965625,10.480182226562501L4.832045625,6.8766622265625C4.834795625,6.6239822265625,4.715315625000001,6.4042522265625,4.5436556249999995,6.2957622265625L5.447275625,5.7739122265625C5.595595625,5.687392226562499,5.723315625,5.4443222265625,5.724685625,5.241072226562499L5.737045625,4.0627932265624995C5.738415625,3.8581722265625,5.616195625,3.6082332265625,5.469255625000001,3.5148492265625ZM4.454395625,11.9743222265625C4.227795625,12.2448622265625,3.863875625,12.2352522265625,3.642775625,11.9550922265625C3.421676625,11.6735722265625,3.425795625,11.2258822265625,3.652385625,10.9553422265625C3.762255625,10.8248822265625,3.906445625,10.753462226562501,4.060255625,10.7575822265625C4.214065625,10.7603322265625,4.356885625,10.8372422265625,4.464005625,10.974562226562501C4.685105625,11.2547222265625,4.680985625,11.7037822265625,4.454395625,11.9743222265625ZM6.041915625,7.9025122265625C6.179245625,7.9533222265625,6.333055625,7.9684322265625,6.478625624999999,7.9684322265625C8.590745625,7.9725522265625,10.702865625,7.9725522265625,12.814965625,7.9656822265625C13.042965625,7.9643122265625,13.269565625,7.9080122265625,13.475565625,7.8805422265625C13.475565625,7.5660622265625,13.457665625,7.3078822265625,13.479665625,7.0551922265625C13.508465625,6.7214822265625,13.387665625,6.6500722265625,13.096465625,6.6514422265625C11.195875625,6.6651822265625,9.295245625,6.6665522265625,7.394605625,6.6665522265625L5.841415625,6.6665522265625C5.841415625,7.0373422265625,5.827685625,7.3628122265625,5.851025625,7.6855322265625C5.8551456250000005,7.7693022265625,5.960895625,7.8723022265625,6.041915625,7.9025122265625ZM13.100665625,9.1178722265625C11.003615625,9.126112226562501,8.905225625,9.1206222265625,6.808215625,9.1206222265625L5.838665625,9.1206222265625L5.838665625,9.7303622265625C5.840045625,10.3771822265625,5.840045625,10.3785622265625,6.447035625,10.3785622265625C8.681385625,10.379932226562499,10.914355625,10.3813022265625,13.148665625,10.3813022265625C13.269565625,10.3813022265625,13.389065625,10.3662022265625,13.478265625,10.3607022265625C13.478265625,10.0627022265625,13.446665625,9.8004022265625,13.485165625,9.5504622265625C13.546965625,9.1700622265625,13.390365625,9.116502226562499,13.100665625,9.1178722265625Z" fill="#64748B" fill-opacity="1"/></g></g></svg>