<svg xmlns="http://www.w3.org/2000/svg" xmlns:xlink="http://www.w3.org/1999/xlink" fill="none" version="1.1" width="48" height="48" viewBox="0 0 48 48"><defs><clipPath id="master_svg0_617_30509"><rect x="0" y="0" width="48" height="48" rx="0"/></clipPath></defs><g clip-path="url(#master_svg0_617_30509)"><g><rect x="0" y="0" width="48" height="48" rx="0" fill="#FFFFFF" fill-opacity="0.009999999776482582"/></g><g><path d="M5,7C5,5.34315,6.34315,4,8,4L32,4C33.6569,4,35,5.34315,35,7L35,44L8,44C6.34315,44,5,42.6569,5,41L5,7Z" fill="#409EFF" fill-opacity="1"/><path d="M3.5,41L3.5,7Q3.5,5.1360399999999995,4.818021,3.818021Q6.1360399999999995,2.5,8,2.5L32,2.5Q33.864000000000004,2.5,35.182,3.818027Q36.5,5.1360399999999995,36.5,7L36.5,44Q36.5,44.0737,36.4928,44.147Q36.485600000000005,44.2204,36.471199999999996,44.2926Q36.4568,44.3649,36.4354,44.4354Q36.414,44.5059,36.3858,44.574Q36.357600000000005,44.6421,36.322900000000004,44.7071Q36.2881,44.7721,36.2472,44.8334Q36.2063,44.8946,36.1595,44.9516Q36.1128,45.0085,36.0607,45.0607Q36.0086,45.1128,35.9516,45.1595Q35.8946,45.2063,35.8334,45.2472Q35.772099999999995,45.2881,35.7071,45.3229Q35.6421,45.3576,35.574,45.3858Q35.5059,45.414,35.4354,45.4354Q35.3649,45.4568,35.2926,45.4712Q35.2204,45.4856,35.147,45.4928Q35.0737,45.5,35,45.5L8,45.5Q6.1360399999999995,45.5,4.818027,44.182Q3.5,42.864,3.5,41ZM6.5,41Q6.5,41.6213,6.93934,42.0607Q7.37867,42.5,8,42.5L35,42.5L35,44L33.5,44L33.5,7Q33.5,6.37867,33.0607,5.93934Q32.621300000000005,5.5,32,5.5L8,5.5Q7.37868,5.5,6.93934,5.93934Q6.5,6.37868,6.5,7L6.5,41Z" fill="#409EFF" fill-opacity="1"/></g><g><path d="M33.5,44L33.5,24Q33.5,22.550229,34.525116,21.525114Q35.550231,20.5,37,20.5L41,20.5Q42.44977,20.5,43.47488,21.525114Q44.5,22.55023,44.5,24L44.5,41Q44.5,42.864000000000004,43.182,44.182Q41.86399,45.5,40,45.5L35,45.5Q34.9263097,45.5,34.852974,45.4928Q34.779639,45.485600000000005,34.707365,45.471199999999996Q34.63509,45.4568,34.564573,45.4354Q34.494056,45.414,34.425975,45.3858Q34.357894,45.357600000000005,34.292905,45.322900000000004Q34.227916,45.2881,34.166645,45.2472Q34.105373,45.2063,34.04841,45.1595Q33.99145,45.1128,33.93934,45.0607Q33.88723,45.0086,33.84048,44.9516Q33.79374,44.8946,33.7528,44.8334Q33.71186,44.772099999999995,33.67712,44.7071Q33.64238,44.6421,33.61418,44.574Q33.58598,44.5059,33.56459,44.4354Q33.5432,44.3649,33.52882,44.2926Q33.51445,44.2204,33.50722,44.147Q33.5,44.0737,33.5,44ZM36.5,44L35,44L35,42.5L40,42.5Q40.62136,42.5,41.06068,42.0607Q41.5,41.6214,41.5,41L41.5,24Q41.5,23.79287,41.35356,23.64644Q41.20713,23.5,41,23.5L37,23.5Q36.79287,23.5,36.64644,23.64644Q36.5,23.79287,36.5,24L36.5,44Z" fill="#409EFF" fill-opacity="1"/></g><g><path d="M19,13.5L11,13.5Q10.9263097,13.5,10.852974,13.49278Q10.779639,13.48555,10.707365,13.47118Q10.63509,13.4568,10.564573,13.435410000000001Q10.494056,13.41402,10.425975,13.38582Q10.357894,13.35762,10.292905,13.32288Q10.227916,13.28814,10.166645,13.2472Q10.105373,13.20626,10.04841,13.15952Q9.99145,13.11277,9.93934,13.06066Q9.88723,13.00855,9.84048,12.95159Q9.79374,12.894627,9.7528,12.833355Q9.71186,12.772084,9.67712,12.707095Q9.64238,12.642106,9.61418,12.574025Q9.58598,12.505944,9.564589999999999,12.435427Q9.5432,12.36491,9.52882,12.292635Q9.51445,12.220361,9.50722,12.147026Q9.5,12.0736903,9.5,12Q9.5,11.9263097,9.50722,11.852974Q9.51445,11.779639,9.52882,11.707365Q9.5432,11.63509,9.564589999999999,11.564573Q9.58598,11.494056,9.61418,11.425975Q9.64238,11.357894,9.67712,11.292905Q9.71186,11.227916,9.7528,11.166645Q9.79374,11.105373,9.84048,11.04841Q9.88723,10.99145,9.93934,10.93934Q9.99145,10.88723,10.04841,10.84048Q10.105373,10.79374,10.166645,10.7528Q10.227916,10.71186,10.292905,10.67712Q10.357894,10.64238,10.425975,10.61418Q10.494056,10.58598,10.564573,10.564589999999999Q10.63509,10.5432,10.707365,10.52882Q10.779639,10.51445,10.852974,10.50722Q10.9263097,10.5,11,10.5L19,10.5Q19.07369,10.5,19.14703,10.50722Q19.22036,10.51445,19.292630000000003,10.52882Q19.364910000000002,10.5432,19.43543,10.564589999999999Q19.505940000000002,10.58598,19.57402,10.61418Q19.642110000000002,10.64238,19.70709,10.67712Q19.772080000000003,10.71186,19.83335,10.7528Q19.89463,10.79374,19.95159,10.84048Q20.00855,10.88723,20.06066,10.93934Q20.112769999999998,10.99145,20.15952,11.04841Q20.20626,11.105373,20.2472,11.166645Q20.28814,11.227916,20.322879999999998,11.292905Q20.35762,11.357894,20.385820000000002,11.425975Q20.41402,11.494056,20.435409999999997,11.564573Q20.4568,11.63509,20.47118,11.707365Q20.48555,11.779639,20.49278,11.852974Q20.5,11.9263097,20.5,12Q20.5,12.0736903,20.49278,12.147026Q20.48555,12.220361,20.47118,12.292635Q20.4568,12.36491,20.435409999999997,12.435427Q20.41402,12.505944,20.385820000000002,12.574025Q20.35762,12.642106,20.322879999999998,12.707095Q20.28814,12.772084,20.2472,12.833355Q20.20626,12.894627,20.15952,12.95159Q20.112769999999998,13.00855,20.06066,13.06066Q20.00855,13.11277,19.95159,13.15952Q19.89463,13.20626,19.83335,13.2472Q19.772080000000003,13.28814,19.70709,13.32288Q19.642110000000002,13.35762,19.57402,13.38582Q19.505940000000002,13.41402,19.43543,13.435410000000001Q19.364910000000002,13.4568,19.292630000000003,13.47118Q19.22036,13.48555,19.14703,13.49278Q19.07369,13.5,19,13.5ZM20.5,12Q20.5,12.0736903,20.49278,12.147026Q20.48555,12.220361,20.47118,12.292635Q20.4568,12.36491,20.435409999999997,12.435427Q20.41402,12.505944,20.385820000000002,12.574025Q20.35762,12.642106,20.322879999999998,12.707095Q20.28814,12.772084,20.2472,12.833355Q20.20626,12.894627,20.15952,12.95159Q20.112769999999998,13.00855,20.06066,13.06066Q20.00855,13.11277,19.95159,13.15952Q19.89463,13.20626,19.83335,13.2472Q19.772080000000003,13.28814,19.70709,13.32288Q19.642110000000002,13.35762,19.57402,13.38582Q19.505940000000002,13.41402,19.43543,13.435410000000001Q19.364910000000002,13.4568,19.292630000000003,13.47118Q19.22036,13.48555,19.14703,13.49278Q19.07369,13.5,19,13.5Q18.92631,13.5,18.85297,13.49278Q18.77964,13.48555,18.70736,13.47118Q18.635089999999998,13.4568,18.56457,13.435410000000001Q18.49406,13.41402,18.42597,13.38582Q18.35789,13.35762,18.2929,13.32288Q18.22791,13.28814,18.16664,13.2472Q18.10537,13.20626,18.04841,13.15952Q17.99145,13.11277,17.93934,13.06066Q17.88723,13.00855,17.84048,12.95159Q17.79374,12.894627,17.75279,12.833355Q17.71185,12.772084,17.677120000000002,12.707095Q17.64238,12.642106,17.61418,12.574025Q17.58598,12.505944,17.56459,12.435427Q17.5432,12.36491,17.52882,12.292635Q17.51445,12.220361,17.50722,12.147026Q17.5,12.0736903,17.5,12Q17.5,11.9263097,17.50722,11.852974Q17.51444,11.779639,17.52882,11.707365Q17.5432,11.63509,17.56459,11.564573Q17.58598,11.494056,17.61418,11.425975Q17.64238,11.357894,17.677120000000002,11.292905Q17.71185,11.227916,17.75279,11.166645Q17.79374,11.105373,17.84048,11.04841Q17.88723,10.99145,17.93934,10.93934Q17.99145,10.88723,18.04841,10.84048Q18.10537,10.79374,18.16664,10.7528Q18.22792,10.71186,18.2929,10.67712Q18.35789,10.64238,18.42597,10.61418Q18.49406,10.58598,18.56457,10.564589999999999Q18.635089999999998,10.5432,18.70736,10.52882Q18.77964,10.51445,18.85297,10.50722Q18.92631,10.5,19,10.5Q19.07369,10.5,19.14703,10.50722Q19.22036,10.51445,19.292630000000003,10.52882Q19.364910000000002,10.5432,19.43543,10.564589999999999Q19.505940000000002,10.58598,19.57402,10.61418Q19.642110000000002,10.64238,19.70709,10.67712Q19.772080000000003,10.71186,19.83335,10.7528Q19.89463,10.79374,19.95159,10.84048Q20.00855,10.88723,20.06066,10.93934Q20.112769999999998,10.99145,20.15952,11.04841Q20.20626,11.105373,20.2472,11.166645Q20.28814,11.227916,20.322879999999998,11.292905Q20.35762,11.357894,20.385820000000002,11.425975Q20.41402,11.494056,20.435409999999997,11.564573Q20.4568,11.63509,20.47118,11.707365Q20.48555,11.779639,20.49278,11.852974Q20.5,11.9263097,20.5,12ZM12.5,12Q12.5,12.0736903,12.49278,12.147026Q12.48555,12.220361,12.47118,12.292635Q12.4568,12.36491,12.435410000000001,12.435427Q12.41402,12.505944,12.38582,12.574025Q12.35762,12.642106,12.32288,12.707095Q12.28814,12.772084,12.2472,12.833355Q12.20626,12.894627,12.15952,12.95159Q12.11277,13.00855,12.06066,13.06066Q12.00855,13.11277,11.95159,13.15952Q11.894627,13.20626,11.833355,13.2472Q11.772084,13.28814,11.707095,13.32288Q11.642106,13.35762,11.574025,13.38582Q11.505944,13.41402,11.435427,13.435410000000001Q11.36491,13.4568,11.292635,13.47118Q11.220361,13.48555,11.147026,13.49278Q11.0736903,13.5,11,13.5Q10.9263097,13.5,10.852974,13.49278Q10.779639,13.48555,10.707365,13.47118Q10.63509,13.4568,10.564573,13.435410000000001Q10.494056,13.41402,10.425975,13.38582Q10.357894,13.35762,10.292905,13.32288Q10.227916,13.28814,10.166645,13.2472Q10.105373,13.20626,10.04841,13.15952Q9.99145,13.11277,9.93934,13.06066Q9.88723,13.00855,9.84048,12.95159Q9.79374,12.894627,9.7528,12.833355Q9.71186,12.772084,9.67712,12.707095Q9.64238,12.642106,9.61418,12.574025Q9.58598,12.505944,9.564589999999999,12.435427Q9.5432,12.36491,9.52882,12.292635Q9.51445,12.220361,9.50722,12.147026Q9.5,12.0736903,9.5,12Q9.5,11.9263097,9.50722,11.852974Q9.51445,11.779639,9.52882,11.707365Q9.5432,11.63509,9.564589999999999,11.564573Q9.58598,11.494056,9.61418,11.425975Q9.64238,11.357894,9.67712,11.292905Q9.71186,11.227916,9.7528,11.166645Q9.79374,11.105373,9.84048,11.04841Q9.88723,10.99145,9.93934,10.93934Q9.99145,10.88723,10.04841,10.84048Q10.105373,10.79374,10.166645,10.7528Q10.227916,10.71186,10.292905,10.67712Q10.357894,10.64238,10.425975,10.61418Q10.494056,10.58598,10.564573,10.564589999999999Q10.63509,10.5432,10.707365,10.52882Q10.779639,10.51445,10.852974,10.50722Q10.9263097,10.5,11,10.5Q11.0736903,10.5,11.147026,10.50722Q11.220361,10.51445,11.292635,10.52882Q11.36491,10.5432,11.435427,10.564589999999999Q11.505944,10.58598,11.574025,10.61418Q11.642106,10.64238,11.707095,10.67712Q11.772084,10.71186,11.833355,10.7528Q11.894627,10.79374,11.95159,10.84048Q12.00855,10.88723,12.06066,10.93934Q12.11277,10.99145,12.15952,11.04841Q12.20626,11.105373,12.2472,11.166645Q12.28814,11.227916,12.32288,11.292905Q12.35762,11.357894,12.38582,11.425975Q12.41402,11.494056,12.435410000000001,11.564573Q12.4568,11.63509,12.47118,11.707365Q12.48555,11.779639,12.49278,11.852974Q12.5,11.9263097,12.5,12Z" fill="#FFFFFF" fill-opacity="1"/></g><g><path d="M23,20.5L11,20.5Q10.9263097,20.5,10.852974,20.49278Q10.779639,20.48555,10.707365,20.47118Q10.63509,20.4568,10.564573,20.43541Q10.494056,20.41402,10.425975,20.38582Q10.357894,20.35762,10.292905,20.32288Q10.227916,20.28814,10.166645,20.2472Q10.105373,20.20626,10.04841,20.15952Q9.99145,20.11277,9.93934,20.06066Q9.88723,20.00855,9.84048,19.95159Q9.79374,19.894627,9.7528,19.833355Q9.71186,19.772084,9.67712,19.707095Q9.64238,19.642106,9.61418,19.574025Q9.58598,19.505944,9.564589999999999,19.435427Q9.5432,19.36491,9.52882,19.292635Q9.51445,19.220361,9.50722,19.147026Q9.5,19.0736903,9.5,19Q9.5,18.9263097,9.50722,18.852974Q9.51445,18.779639,9.52882,18.707365Q9.5432,18.63509,9.564589999999999,18.564573Q9.58598,18.494056,9.61418,18.425975Q9.64238,18.357894,9.67712,18.292905Q9.71186,18.227916,9.7528,18.166645Q9.79374,18.105373,9.84048,18.04841Q9.88723,17.99145,9.93934,17.93934Q9.99145,17.88723,10.04841,17.84048Q10.105373,17.79374,10.166645,17.7528Q10.227916,17.71186,10.292905,17.67712Q10.357894,17.64238,10.425975,17.61418Q10.494056,17.58598,10.564573,17.56459Q10.63509,17.5432,10.707365,17.52882Q10.779639,17.51445,10.852974,17.50722Q10.9263097,17.5,11,17.5L23,17.5Q23.073700000000002,17.5,23.147,17.50722Q23.220399999999998,17.51445,23.2926,17.52882Q23.3649,17.5432,23.4354,17.56459Q23.5059,17.58598,23.573999999999998,17.61418Q23.6421,17.64238,23.7071,17.67712Q23.772100000000002,17.71186,23.833399999999997,17.7528Q23.8946,17.79374,23.9516,17.84048Q24.0086,17.88723,24.0607,17.93934Q24.1128,17.99145,24.1595,18.04841Q24.2063,18.105373,24.2472,18.166645Q24.2881,18.227916,24.3229,18.292905Q24.357599999999998,18.357894,24.3858,18.425975Q24.414,18.494056,24.4354,18.564573Q24.4568,18.63509,24.4712,18.707365Q24.485599999999998,18.779639,24.492800000000003,18.852974Q24.5,18.9263097,24.5,19Q24.5,19.0736903,24.492800000000003,19.147026Q24.485599999999998,19.220361,24.4712,19.292635Q24.4568,19.36491,24.4354,19.435427Q24.414,19.505944,24.3858,19.574025Q24.357599999999998,19.642106,24.3229,19.707095Q24.2881,19.772084,24.2472,19.833355Q24.2063,19.894627,24.1595,19.95159Q24.1128,20.00855,24.0607,20.06066Q24.0086,20.11277,23.9516,20.15952Q23.8946,20.20626,23.833399999999997,20.2472Q23.772100000000002,20.28814,23.7071,20.32288Q23.6421,20.35762,23.573999999999998,20.38582Q23.5059,20.41402,23.4354,20.43541Q23.3649,20.4568,23.2926,20.47118Q23.220399999999998,20.48555,23.147,20.49278Q23.073700000000002,20.5,23,20.5ZM24.5,19Q24.5,19.0736903,24.492800000000003,19.147026Q24.485599999999998,19.220361,24.4712,19.292635Q24.4568,19.36491,24.4354,19.435427Q24.414,19.505944,24.3858,19.574025Q24.357599999999998,19.642106,24.3229,19.707095Q24.2881,19.772084,24.2472,19.833355Q24.2063,19.894627,24.1595,19.95159Q24.1128,20.00855,24.0607,20.06066Q24.0086,20.11277,23.9516,20.15952Q23.8946,20.20626,23.833399999999997,20.2472Q23.772100000000002,20.28814,23.7071,20.32288Q23.6421,20.35762,23.573999999999998,20.38582Q23.5059,20.41402,23.4354,20.43541Q23.3649,20.4568,23.2926,20.47118Q23.220399999999998,20.48555,23.147,20.49278Q23.073700000000002,20.5,23,20.5Q22.926299999999998,20.5,22.853,20.49278Q22.779600000000002,20.48555,22.7074,20.47118Q22.6351,20.4568,22.5646,20.43541Q22.4941,20.41402,22.426000000000002,20.38582Q22.3579,20.35762,22.2929,20.32288Q22.227899999999998,20.28814,22.166600000000003,20.2472Q22.1054,20.20626,22.0484,20.15952Q21.9914,20.11277,21.9393,20.06066Q21.8872,20.00855,21.8405,19.95159Q21.7937,19.894627,21.7528,19.833355Q21.7119,19.772084,21.6771,19.707095Q21.642400000000002,19.642106,21.6142,19.574025Q21.586,19.505944,21.5646,19.435427Q21.5432,19.36491,21.5288,19.292635Q21.514400000000002,19.220361,21.507199999999997,19.147026Q21.5,19.0736903,21.5,19Q21.5,18.9263097,21.507199999999997,18.852974Q21.514400000000002,18.779639,21.5288,18.707365Q21.5432,18.63509,21.5646,18.564573Q21.586,18.494056,21.6142,18.425975Q21.642400000000002,18.357894,21.6771,18.292905Q21.7119,18.227916,21.7528,18.166645Q21.7937,18.105373,21.8405,18.04841Q21.8872,17.99145,21.9393,17.93934Q21.9914,17.88723,22.0484,17.84048Q22.1054,17.79374,22.166600000000003,17.7528Q22.227899999999998,17.71186,22.2929,17.67712Q22.3579,17.64238,22.426000000000002,17.61418Q22.4941,17.58598,22.5646,17.56459Q22.6351,17.5432,22.7074,17.52882Q22.779600000000002,17.51445,22.853,17.50722Q22.926299999999998,17.5,23,17.5Q23.073700000000002,17.5,23.147,17.50722Q23.220399999999998,17.51445,23.2926,17.52882Q23.3649,17.5432,23.4354,17.56459Q23.5059,17.58598,23.573999999999998,17.61418Q23.6421,17.64238,23.7071,17.67712Q23.772100000000002,17.71186,23.833399999999997,17.7528Q23.8946,17.79374,23.9516,17.84048Q24.0086,17.88723,24.0607,17.93934Q24.1128,17.99145,24.1595,18.04841Q24.2063,18.105373,24.2472,18.166645Q24.2881,18.227916,24.3229,18.292905Q24.357599999999998,18.357894,24.3858,18.425975Q24.414,18.494056,24.4354,18.564573Q24.4568,18.63509,24.4712,18.707365Q24.485599999999998,18.779639,24.492800000000003,18.852974Q24.5,18.9263097,24.5,19ZM12.5,19Q12.5,19.0736903,12.49278,19.147026Q12.48555,19.220361,12.47118,19.292635Q12.4568,19.36491,12.435410000000001,19.435427Q12.41402,19.505944,12.38582,19.574025Q12.35762,19.642106,12.32288,19.707095Q12.28814,19.772084,12.2472,19.833355Q12.20626,19.894627,12.15952,19.95159Q12.11277,20.00855,12.06066,20.06066Q12.00855,20.11277,11.95159,20.15952Q11.894627,20.20626,11.833355,20.2472Q11.772084,20.28814,11.707095,20.32288Q11.642106,20.35762,11.574025,20.38582Q11.505944,20.41402,11.435427,20.43541Q11.36491,20.4568,11.292635,20.47118Q11.220361,20.48555,11.147026,20.49278Q11.0736903,20.5,11,20.5Q10.9263097,20.5,10.852974,20.49278Q10.779639,20.48555,10.707365,20.47118Q10.63509,20.4568,10.564573,20.43541Q10.494056,20.41402,10.425975,20.38582Q10.357894,20.35762,10.292905,20.32288Q10.227916,20.28814,10.166645,20.2472Q10.105373,20.20626,10.04841,20.15952Q9.99145,20.11277,9.93934,20.06066Q9.88723,20.00855,9.84048,19.95159Q9.79374,19.894627,9.7528,19.833355Q9.71186,19.772084,9.67712,19.707095Q9.64238,19.642106,9.61418,19.574025Q9.58598,19.505944,9.564589999999999,19.435427Q9.5432,19.36491,9.52882,19.292635Q9.51445,19.220361,9.50722,19.147026Q9.5,19.0736903,9.5,19Q9.5,18.9263097,9.50722,18.852974Q9.51445,18.779639,9.52882,18.707365Q9.5432,18.63509,9.564589999999999,18.564573Q9.58598,18.494056,9.61418,18.425975Q9.64238,18.357894,9.67712,18.292905Q9.71186,18.227916,9.7528,18.166645Q9.79374,18.105373,9.84048,18.04841Q9.88723,17.99145,9.93934,17.93934Q9.99145,17.88723,10.04841,17.84048Q10.105373,17.79374,10.166645,17.7528Q10.227916,17.71186,10.292905,17.67712Q10.357894,17.64238,10.425975,17.61418Q10.494056,17.58598,10.564573,17.56459Q10.63509,17.5432,10.707365,17.52882Q10.779639,17.51445,10.852974,17.50722Q10.9263097,17.5,11,17.5Q11.0736903,17.5,11.147026,17.50722Q11.220361,17.51445,11.292635,17.52882Q11.36491,17.5432,11.435427,17.56459Q11.505944,17.58598,11.574025,17.61418Q11.642106,17.64238,11.707095,17.67712Q11.772084,17.71186,11.833355,17.7528Q11.894627,17.79374,11.95159,17.84048Q12.00855,17.88723,12.06066,17.93934Q12.11277,17.99145,12.15952,18.04841Q12.20626,18.105373,12.2472,18.166645Q12.28814,18.227916,12.32288,18.292905Q12.35762,18.357894,12.38582,18.425975Q12.41402,18.494056,12.435410000000001,18.564573Q12.4568,18.63509,12.47118,18.707365Q12.48555,18.779639,12.49278,18.852974Q12.5,18.9263097,12.5,19Z" fill="#FFFFFF" fill-opacity="1"/></g></g></svg>