<svg xmlns="http://www.w3.org/2000/svg" xmlns:xlink="http://www.w3.org/1999/xlink" fill="none" version="1.1" width="48" height="48" viewBox="0 0 48 48"><defs><clipPath id="master_svg0_617_31606"><rect x="0" y="0" width="48" height="48" rx="0"/></clipPath></defs><g clip-path="url(#master_svg0_617_31606)"><g><rect x="0" y="0" width="48" height="48" rx="0" fill="#FFFFFF" fill-opacity="0.009999999776482582"/></g><g><path d="M24,44C35.0457,44,44,35.0457,44,24C44,12.9543,35.0457,4,24,4C12.9543,4,4,12.9543,4,24C4,35.0457,12.9543,44,24,44Z" fill="#409EFF" fill-opacity="1"/><path d="M5.5,24Q5.5,27.7648,6.95321,31.2006Q8.35731,34.5203,10.918520000000001,37.0815Q13.47972,39.6427,16.7994,41.0468Q20.2352,42.5,24,42.5Q27.7648,42.5,31.2006,41.0468Q34.5203,39.6427,37.0815,37.0815Q39.6427,34.5203,41.0468,31.2006Q42.5,27.7648,42.5,24Q42.5,20.2352,41.0468,16.7994Q39.6427,13.47973,37.0815,10.918520000000001Q34.5203,8.35732,31.2006,6.95321Q27.7648,5.5,24,5.5Q20.2352,5.5,16.7994,6.95321Q13.47973,8.35732,10.918520000000001,10.918520000000001Q8.35732,13.47973,6.95321,16.7994Q5.5,20.2352,5.5,24ZM2.5,24Q2.5,19.6268,4.190192,15.6308Q5.82224,11.77216,8.7972,8.7972Q11.77216,5.82224,15.6308,4.190192Q19.6268,2.5,24,2.5Q28.3732,2.5,32.3692,4.190192Q36.2278,5.82224,39.2028,8.7972Q42.1778,11.77216,43.8098,15.6308Q45.5,19.6268,45.5,24Q45.5,28.3732,43.8098,32.3692Q42.1777,36.2278,39.2028,39.2028Q36.2278,42.1778,32.3692,43.8098Q28.3732,45.5,24,45.5Q19.6268,45.5,15.6308,43.8098Q11.77216,42.1777,8.7972,39.2028Q5.82224,36.2278,4.190192,32.3692Q2.5,28.3732,2.5,24Z" fill="#409EFF" fill-opacity="1"/></g><g><path d="M30,23.5L18,23.5Q17.9263097,23.5,17.852974,23.49278Q17.779639,23.48555,17.707365,23.47118Q17.63509,23.4568,17.564573,23.43541Q17.494056,23.41402,17.425975,23.38582Q17.357894,23.35762,17.292905,23.32288Q17.227916,23.28814,17.166645,23.2472Q17.105373,23.20626,17.04841,23.15952Q16.99145,23.11277,16.93934,23.06066Q16.88723,23.00855,16.84048,22.95159Q16.79374,22.894627,16.7528,22.833355Q16.71186,22.772084,16.67712,22.707095Q16.64238,22.642106,16.61418,22.574025Q16.58598,22.505944,16.56459,22.435427Q16.5432,22.36491,16.52882,22.292635Q16.51445,22.220361,16.50722,22.147026Q16.5,22.0736903,16.5,22Q16.5,21.9263097,16.50722,21.852974Q16.51445,21.779639,16.52882,21.707365Q16.5432,21.63509,16.56459,21.564573Q16.58598,21.494056,16.61418,21.425975Q16.64238,21.357894,16.67712,21.292905Q16.71186,21.227916,16.7528,21.166645Q16.79374,21.105373,16.84048,21.04841Q16.88723,20.99145,16.93934,20.93934Q16.99145,20.88723,17.04841,20.84048Q17.105373,20.79374,17.166645,20.7528Q17.227916,20.71186,17.292905,20.67712Q17.357894,20.64238,17.425975,20.61418Q17.494056,20.58598,17.564573,20.56459Q17.63509,20.5432,17.707365,20.52882Q17.779639,20.51445,17.852974,20.50722Q17.9263097,20.5,18,20.5L30,20.5Q30.073700000000002,20.5,30.147,20.50722Q30.220399999999998,20.51445,30.2926,20.52882Q30.3649,20.5432,30.4354,20.56459Q30.5059,20.58598,30.573999999999998,20.61418Q30.6421,20.64238,30.7071,20.67712Q30.772100000000002,20.71186,30.833399999999997,20.7528Q30.8946,20.79374,30.9516,20.84048Q31.0086,20.88723,31.0607,20.93934Q31.1128,20.99145,31.1595,21.04841Q31.2063,21.105373,31.2472,21.166645Q31.2881,21.227916,31.3229,21.292905Q31.357599999999998,21.357894,31.3858,21.425975Q31.414,21.494056,31.4354,21.564573Q31.4568,21.63509,31.4712,21.707365Q31.485599999999998,21.779639,31.492800000000003,21.852974Q31.5,21.9263097,31.5,22Q31.5,22.0736903,31.492800000000003,22.147026Q31.485599999999998,22.220361,31.4712,22.292635Q31.4568,22.36491,31.4354,22.435427Q31.414,22.505944,31.3858,22.574025Q31.357599999999998,22.642106,31.3229,22.707095Q31.2881,22.772084,31.2472,22.833355Q31.2063,22.894627,31.1595,22.95159Q31.1128,23.00855,31.0607,23.06066Q31.0086,23.11277,30.9516,23.15952Q30.8946,23.20626,30.833399999999997,23.2472Q30.772100000000002,23.28814,30.7071,23.32288Q30.6421,23.35762,30.573999999999998,23.38582Q30.5059,23.41402,30.4354,23.43541Q30.3649,23.4568,30.2926,23.47118Q30.220399999999998,23.48555,30.147,23.49278Q30.073700000000002,23.5,30,23.5ZM31.5,22Q31.5,22.0736903,31.492800000000003,22.147026Q31.485599999999998,22.220361,31.4712,22.292635Q31.4568,22.36491,31.4354,22.435427Q31.414,22.505944,31.3858,22.574025Q31.357599999999998,22.642106,31.3229,22.707095Q31.2881,22.772084,31.2472,22.833355Q31.2063,22.894627,31.1595,22.95159Q31.1128,23.00855,31.0607,23.06066Q31.0086,23.11277,30.9516,23.15952Q30.8946,23.20626,30.833399999999997,23.2472Q30.772100000000002,23.28814,30.7071,23.32288Q30.6421,23.35762,30.573999999999998,23.38582Q30.5059,23.41402,30.4354,23.43541Q30.3649,23.4568,30.2926,23.47118Q30.220399999999998,23.48555,30.147,23.49278Q30.073700000000002,23.5,30,23.5Q29.926299999999998,23.5,29.853,23.49278Q29.779600000000002,23.48555,29.7074,23.47118Q29.6351,23.4568,29.5646,23.43541Q29.4941,23.41402,29.426000000000002,23.38582Q29.3579,23.35762,29.2929,23.32288Q29.227899999999998,23.28814,29.166600000000003,23.2472Q29.1054,23.20626,29.0484,23.15952Q28.9914,23.11277,28.9393,23.06066Q28.8872,23.00855,28.8405,22.95159Q28.7937,22.894627,28.7528,22.833355Q28.7119,22.772084,28.6771,22.707095Q28.642400000000002,22.642106,28.6142,22.574025Q28.586,22.505944,28.5646,22.435427Q28.5432,22.36491,28.5288,22.292635Q28.514400000000002,22.220361,28.507199999999997,22.147026Q28.5,22.0736903,28.5,22Q28.5,21.9263097,28.507199999999997,21.852974Q28.514400000000002,21.779639,28.5288,21.707365Q28.5432,21.63509,28.5646,21.564573Q28.586,21.494056,28.6142,21.425975Q28.642400000000002,21.357894,28.6771,21.292905Q28.7119,21.227916,28.7528,21.166645Q28.7937,21.105373,28.8405,21.04841Q28.8872,20.99145,28.9393,20.93934Q28.9914,20.88723,29.0484,20.84048Q29.1054,20.79374,29.166600000000003,20.7528Q29.227899999999998,20.71186,29.2929,20.67712Q29.3579,20.64238,29.426000000000002,20.61418Q29.4941,20.58598,29.5646,20.56459Q29.6351,20.5432,29.7074,20.52882Q29.779600000000002,20.51445,29.853,20.50722Q29.926299999999998,20.5,30,20.5Q30.073700000000002,20.5,30.147,20.50722Q30.220399999999998,20.51445,30.2926,20.52882Q30.3649,20.5432,30.4354,20.56459Q30.5059,20.58598,30.573999999999998,20.61418Q30.6421,20.64238,30.7071,20.67712Q30.772100000000002,20.71186,30.833399999999997,20.7528Q30.8946,20.79374,30.9516,20.84048Q31.0086,20.88723,31.0607,20.93934Q31.1128,20.99145,31.1595,21.04841Q31.2063,21.105373,31.2472,21.166645Q31.2881,21.227916,31.3229,21.292905Q31.357599999999998,21.357894,31.3858,21.425975Q31.414,21.494056,31.4354,21.564573Q31.4568,21.63509,31.4712,21.707365Q31.485599999999998,21.779639,31.492800000000003,21.852974Q31.5,21.9263097,31.5,22ZM19.5,22Q19.5,22.0736903,19.49278,22.147026Q19.48555,22.220361,19.47118,22.292635Q19.4568,22.36491,19.43541,22.435427Q19.41402,22.505944,19.38582,22.574025Q19.35762,22.642106,19.32288,22.707095Q19.28814,22.772084,19.2472,22.833355Q19.20626,22.894627,19.15952,22.95159Q19.11277,23.00855,19.06066,23.06066Q19.00855,23.11277,18.95159,23.15952Q18.894627,23.20626,18.833355,23.2472Q18.772084,23.28814,18.707095,23.32288Q18.642106,23.35762,18.574025,23.38582Q18.505944,23.41402,18.435427,23.43541Q18.36491,23.4568,18.292635,23.47118Q18.220361,23.48555,18.147026,23.49278Q18.0736903,23.5,18,23.5Q17.9263097,23.5,17.852974,23.49278Q17.779639,23.48555,17.707365,23.47118Q17.63509,23.4568,17.564573,23.43541Q17.494056,23.41402,17.425975,23.38582Q17.357894,23.35762,17.292905,23.32288Q17.227916,23.28814,17.166645,23.2472Q17.105373,23.20626,17.04841,23.15952Q16.99145,23.11277,16.93934,23.06066Q16.88723,23.00855,16.84048,22.95159Q16.79374,22.894627,16.7528,22.833355Q16.71186,22.772084,16.67712,22.707095Q16.64238,22.642106,16.61418,22.574025Q16.58598,22.505944,16.56459,22.435427Q16.5432,22.36491,16.52882,22.292635Q16.51445,22.220361,16.50722,22.147026Q16.5,22.0736903,16.5,22Q16.5,21.9263097,16.50722,21.852974Q16.51445,21.779639,16.52882,21.707365Q16.5432,21.63509,16.56459,21.564573Q16.58598,21.494056,16.61418,21.425975Q16.64238,21.357894,16.67712,21.292905Q16.71186,21.227916,16.7528,21.166645Q16.79374,21.105373,16.84048,21.04841Q16.88723,20.99145,16.93934,20.93934Q16.99145,20.88723,17.04841,20.84048Q17.105373,20.79374,17.166645,20.7528Q17.227916,20.71186,17.292905,20.67712Q17.357894,20.64238,17.425975,20.61418Q17.494056,20.58598,17.564573,20.56459Q17.63509,20.5432,17.707365,20.52882Q17.779639,20.51445,17.852974,20.50722Q17.9263097,20.5,18,20.5Q18.0736903,20.5,18.147026,20.50722Q18.220361,20.51445,18.292635,20.52882Q18.36491,20.5432,18.435427,20.56459Q18.505944,20.58598,18.574025,20.61418Q18.642106,20.64238,18.707095,20.67712Q18.772084,20.71186,18.833355,20.7528Q18.894627,20.79374,18.95159,20.84048Q19.00855,20.88723,19.06066,20.93934Q19.11277,20.99145,19.15952,21.04841Q19.20626,21.105373,19.2472,21.166645Q19.28814,21.227916,19.32288,21.292905Q19.35762,21.357894,19.38582,21.425975Q19.41402,21.494056,19.43541,21.564573Q19.4568,21.63509,19.47118,21.707365Q19.48555,21.779639,19.49278,21.852974Q19.5,21.9263097,19.5,22Z" fill="#FFFFFF" fill-opacity="1"/></g><g><path d="M30,29.5L18,29.5Q17.9263097,29.5,17.852974,29.49278Q17.779639,29.48555,17.707365,29.47118Q17.63509,29.4568,17.564573,29.43541Q17.494056,29.41402,17.425975,29.38582Q17.357894,29.35762,17.292905,29.32288Q17.227916,29.28814,17.166645,29.2472Q17.105373,29.20626,17.04841,29.15952Q16.99145,29.11277,16.93934,29.06066Q16.88723,29.00855,16.84048,28.95159Q16.79374,28.894627,16.7528,28.833355Q16.71186,28.772084,16.67712,28.707095Q16.64238,28.642106,16.61418,28.574025Q16.58598,28.505944,16.56459,28.435427Q16.5432,28.36491,16.52882,28.292635Q16.51445,28.220361,16.50722,28.147026Q16.5,28.0736903,16.5,28Q16.5,27.9263097,16.50722,27.852974Q16.51445,27.779639,16.52882,27.707365Q16.5432,27.63509,16.56459,27.564573Q16.58598,27.494056,16.61418,27.425975Q16.64238,27.357894,16.67712,27.292905Q16.71186,27.227916,16.7528,27.166645Q16.79374,27.105373,16.84048,27.04841Q16.88723,26.99145,16.93934,26.93934Q16.99145,26.88723,17.04841,26.84048Q17.105373,26.79374,17.166645,26.7528Q17.227916,26.71186,17.292905,26.67712Q17.357894,26.64238,17.425975,26.61418Q17.494056,26.58598,17.564573,26.56459Q17.63509,26.5432,17.707365,26.52882Q17.779639,26.51445,17.852974,26.50722Q17.9263097,26.5,18,26.5L30,26.5Q30.073700000000002,26.5,30.147,26.50722Q30.220399999999998,26.51445,30.2926,26.52882Q30.3649,26.5432,30.4354,26.56459Q30.5059,26.58598,30.573999999999998,26.61418Q30.6421,26.64238,30.7071,26.67712Q30.772100000000002,26.71186,30.833399999999997,26.7528Q30.8946,26.79374,30.9516,26.84048Q31.0086,26.88723,31.0607,26.93934Q31.1128,26.99145,31.1595,27.04841Q31.2063,27.105373,31.2472,27.166645Q31.2881,27.227916,31.3229,27.292905Q31.357599999999998,27.357894,31.3858,27.425975Q31.414,27.494056,31.4354,27.564573Q31.4568,27.63509,31.4712,27.707365Q31.485599999999998,27.779639,31.492800000000003,27.852974Q31.5,27.9263097,31.5,28Q31.5,28.0736903,31.492800000000003,28.147026Q31.485599999999998,28.220361,31.4712,28.292635Q31.4568,28.36491,31.4354,28.435427Q31.414,28.505944,31.3858,28.574025Q31.357599999999998,28.642106,31.3229,28.707095Q31.2881,28.772084,31.2472,28.833355Q31.2063,28.894627,31.1595,28.95159Q31.1128,29.00855,31.0607,29.06066Q31.0086,29.11277,30.9516,29.15952Q30.8946,29.20626,30.833399999999997,29.2472Q30.772100000000002,29.28814,30.7071,29.32288Q30.6421,29.35762,30.573999999999998,29.38582Q30.5059,29.41402,30.4354,29.43541Q30.3649,29.4568,30.2926,29.47118Q30.220399999999998,29.48555,30.147,29.49278Q30.073700000000002,29.5,30,29.5ZM31.5,28Q31.5,28.0736903,31.492800000000003,28.147026Q31.485599999999998,28.220361,31.4712,28.292635Q31.4568,28.36491,31.4354,28.435427Q31.414,28.505944,31.3858,28.574025Q31.357599999999998,28.642106,31.3229,28.707095Q31.2881,28.772084,31.2472,28.833355Q31.2063,28.894627,31.1595,28.95159Q31.1128,29.00855,31.0607,29.06066Q31.0086,29.11277,30.9516,29.15952Q30.8946,29.20626,30.833399999999997,29.2472Q30.772100000000002,29.28814,30.7071,29.32288Q30.6421,29.35762,30.573999999999998,29.38582Q30.5059,29.41402,30.4354,29.43541Q30.3649,29.4568,30.2926,29.47118Q30.220399999999998,29.48555,30.147,29.49278Q30.073700000000002,29.5,30,29.5Q29.926299999999998,29.5,29.853,29.49278Q29.779600000000002,29.48555,29.7074,29.47118Q29.6351,29.4568,29.5646,29.43541Q29.4941,29.41402,29.426000000000002,29.38582Q29.3579,29.35762,29.2929,29.32288Q29.227899999999998,29.28814,29.166600000000003,29.2472Q29.1054,29.20626,29.0484,29.15952Q28.9914,29.11277,28.9393,29.06066Q28.8872,29.00855,28.8405,28.95159Q28.7937,28.894627,28.7528,28.833355Q28.7119,28.772084,28.6771,28.707095Q28.642400000000002,28.642106,28.6142,28.574025Q28.586,28.505944,28.5646,28.435427Q28.5432,28.36491,28.5288,28.292635Q28.514400000000002,28.220361,28.507199999999997,28.147026Q28.5,28.0736903,28.5,28Q28.5,27.9263097,28.507199999999997,27.852974Q28.514400000000002,27.779639,28.5288,27.707365Q28.5432,27.63509,28.5646,27.564573Q28.586,27.494056,28.6142,27.425975Q28.642400000000002,27.357894,28.6771,27.292905Q28.7119,27.227916,28.7528,27.166645Q28.7937,27.105373,28.8405,27.04841Q28.8872,26.99145,28.9393,26.93934Q28.9914,26.88723,29.0484,26.84048Q29.1054,26.79374,29.166600000000003,26.7528Q29.227899999999998,26.71186,29.2929,26.67712Q29.3579,26.64238,29.426000000000002,26.61418Q29.4941,26.58598,29.5646,26.56459Q29.6351,26.5432,29.7074,26.52882Q29.779600000000002,26.51445,29.853,26.50722Q29.926299999999998,26.5,30,26.5Q30.073700000000002,26.5,30.147,26.50722Q30.220399999999998,26.51445,30.2926,26.52882Q30.3649,26.5432,30.4354,26.56459Q30.5059,26.58598,30.573999999999998,26.61418Q30.6421,26.64238,30.7071,26.67712Q30.772100000000002,26.71186,30.833399999999997,26.7528Q30.8946,26.79374,30.9516,26.84048Q31.0086,26.88723,31.0607,26.93934Q31.1128,26.99145,31.1595,27.04841Q31.2063,27.105373,31.2472,27.166645Q31.2881,27.227916,31.3229,27.292905Q31.357599999999998,27.357894,31.3858,27.425975Q31.414,27.494056,31.4354,27.564573Q31.4568,27.63509,31.4712,27.707365Q31.485599999999998,27.779639,31.492800000000003,27.852974Q31.5,27.9263097,31.5,28ZM19.5,28Q19.5,28.0736903,19.49278,28.147026Q19.48555,28.220361,19.47118,28.292635Q19.4568,28.36491,19.43541,28.435427Q19.41402,28.505944,19.38582,28.574025Q19.35762,28.642106,19.32288,28.707095Q19.28814,28.772084,19.2472,28.833355Q19.20626,28.894627,19.15952,28.95159Q19.11277,29.00855,19.06066,29.06066Q19.00855,29.11277,18.95159,29.15952Q18.894627,29.20626,18.833355,29.2472Q18.772084,29.28814,18.707095,29.32288Q18.642106,29.35762,18.574025,29.38582Q18.505944,29.41402,18.435427,29.43541Q18.36491,29.4568,18.292635,29.47118Q18.220361,29.48555,18.147026,29.49278Q18.0736903,29.5,18,29.5Q17.9263097,29.5,17.852974,29.49278Q17.779639,29.48555,17.707365,29.47118Q17.63509,29.4568,17.564573,29.43541Q17.494056,29.41402,17.425975,29.38582Q17.357894,29.35762,17.292905,29.32288Q17.227916,29.28814,17.166645,29.2472Q17.105373,29.20626,17.04841,29.15952Q16.99145,29.11277,16.93934,29.06066Q16.88723,29.00855,16.84048,28.95159Q16.79374,28.894627,16.7528,28.833355Q16.71186,28.772084,16.67712,28.707095Q16.64238,28.642106,16.61418,28.574025Q16.58598,28.505944,16.56459,28.435427Q16.5432,28.36491,16.52882,28.292635Q16.51445,28.220361,16.50722,28.147026Q16.5,28.0736903,16.5,28Q16.5,27.9263097,16.50722,27.852974Q16.51445,27.779639,16.52882,27.707365Q16.5432,27.63509,16.56459,27.564573Q16.58598,27.494056,16.61418,27.425975Q16.64238,27.357894,16.67712,27.292905Q16.71186,27.227916,16.7528,27.166645Q16.79374,27.105373,16.84048,27.04841Q16.88723,26.99145,16.93934,26.93934Q16.99145,26.88723,17.04841,26.84048Q17.105373,26.79374,17.166645,26.7528Q17.227916,26.71186,17.292905,26.67712Q17.357894,26.64238,17.425975,26.61418Q17.494056,26.58598,17.564573,26.56459Q17.63509,26.5432,17.707365,26.52882Q17.779639,26.51445,17.852974,26.50722Q17.9263097,26.5,18,26.5Q18.0736903,26.5,18.147026,26.50722Q18.220361,26.51445,18.292635,26.52882Q18.36491,26.5432,18.435427,26.56459Q18.505944,26.58598,18.574025,26.61418Q18.642106,26.64238,18.707095,26.67712Q18.772084,26.71186,18.833355,26.7528Q18.894627,26.79374,18.95159,26.84048Q19.00855,26.88723,19.06066,26.93934Q19.11277,26.99145,19.15952,27.04841Q19.20626,27.105373,19.2472,27.166645Q19.28814,27.227916,19.32288,27.292905Q19.35762,27.357894,19.38582,27.425975Q19.41402,27.494056,19.43541,27.564573Q19.4568,27.63509,19.47118,27.707365Q19.48555,27.779639,19.49278,27.852974Q19.5,27.9263097,19.5,28Z" fill="#FFFFFF" fill-opacity="1"/></g><g><path d="M22.50830078125,34L22.50830078125,22Q22.50830078125,21.9263097,22.51552078125,21.852974Q22.52275078125,21.779639,22.53712078125,21.707365Q22.55150078125,21.63509,22.57289078125,21.564573Q22.59428078125,21.494056,22.62248078125,21.425975Q22.65068078125,21.357894,22.68542078125,21.292905Q22.72016078125,21.227916,22.76110078125,21.166645Q22.80204078125,21.105373,22.84878078125,21.04841Q22.89553078125,20.99145,22.94764078125,20.93934Q22.99975078125,20.88723,23.05671078125,20.84048Q23.11367378125,20.79374,23.17494578125,20.7528Q23.23621678125,20.71186,23.30120578125,20.67712Q23.36619478125,20.64238,23.43427578125,20.61418Q23.50235678125,20.58598,23.57287378125,20.56459Q23.64339078125,20.5432,23.71566578125,20.52882Q23.78793978125,20.51445,23.86127478125,20.50722Q23.93461048125,20.5,24.00830078125,20.5Q24.08199108125,20.5,24.15532678125,20.50722Q24.22866178125,20.51445,24.30093578125,20.52882Q24.37321078125,20.5432,24.44372778125,20.56459Q24.51424478125,20.58598,24.58232578125,20.61418Q24.65040678125,20.64238,24.71539578125,20.67712Q24.78038478125,20.71186,24.84165578125,20.7528Q24.90292778125,20.79374,24.95989078125,20.84048Q25.01685078125,20.88723,25.06896078125,20.93934Q25.12107078125,20.99145,25.16782078125,21.04841Q25.21456078125,21.105373,25.25550078125,21.166645Q25.29644078125,21.227916,25.33118078125,21.292905Q25.36592078125,21.357894,25.39412078125,21.425975Q25.42232078125,21.494056,25.44371078125,21.564573Q25.46510078125,21.63509,25.47948078125,21.707365Q25.49385078125,21.779639,25.50108078125,21.852974Q25.50830078125,21.9263097,25.50830078125,22L25.50830078125,34Q25.50830078125,34.0737,25.50108078125,34.147Q25.49385078125,34.2204,25.47948078125,34.2926Q25.46510078125,34.3649,25.44371078125,34.4354Q25.42232078125,34.5059,25.39412078125,34.574Q25.36592078125,34.6421,25.33118078125,34.7071Q25.29644078125,34.7721,25.25550078125,34.8334Q25.21456078125,34.8946,25.16782078125,34.9516Q25.12107078125,35.0086,25.06896078125,35.0607Q25.01685078125,35.1128,24.95989078125,35.1595Q24.90292778125,35.2063,24.84165578125,35.2472Q24.78038478125,35.2881,24.71539578125,35.322900000000004Q24.65040678125,35.3576,24.58232578125,35.3858Q24.51424478125,35.414,24.44372778125,35.4354Q24.37321078125,35.4568,24.30093578125,35.471199999999996Q24.22866178125,35.4856,24.15532678125,35.4928Q24.08199108125,35.5,24.00830078125,35.5Q23.93461048125,35.5,23.86127478125,35.4928Q23.78793978125,35.4856,23.71566578125,35.471199999999996Q23.64339078125,35.4568,23.57287378125,35.4354Q23.50235678125,35.414,23.43427578125,35.3858Q23.36619478125,35.3576,23.30120578125,35.322900000000004Q23.23621678125,35.2881,23.17494578125,35.2472Q23.11367378125,35.2063,23.05671078125,35.1595Q22.99975078125,35.1128,22.94764078125,35.0607Q22.89553078125,35.0086,22.84878078125,34.9516Q22.80204078125,34.8946,22.76110078125,34.8334Q22.72016078125,34.7721,22.68542078125,34.7071Q22.65068078125,34.6421,22.62248078125,34.574Q22.59428078125,34.5059,22.57289078125,34.4354Q22.55150078125,34.3649,22.53712078125,34.2926Q22.52275078125,34.2204,22.51552078125,34.147Q22.50830078125,34.0737,22.50830078125,34ZM25.50830078125,34Q25.50830078125,34.0737,25.50108078125,34.147Q25.49385078125,34.2204,25.47948078125,34.2926Q25.46510078125,34.3649,25.44371078125,34.4354Q25.42232078125,34.5059,25.39412078125,34.574Q25.36592078125,34.6421,25.33118078125,34.7071Q25.29644078125,34.7721,25.25550078125,34.8334Q25.21456078125,34.8946,25.16782078125,34.9516Q25.12107078125,35.0086,25.06896078125,35.0607Q25.01685078125,35.1128,24.95989078125,35.1595Q24.90292778125,35.2063,24.84165578125,35.2472Q24.78038478125,35.2881,24.71539578125,35.322900000000004Q24.65040678125,35.3576,24.58232578125,35.3858Q24.51424478125,35.414,24.44372778125,35.4354Q24.37321078125,35.4568,24.30093578125,35.471199999999996Q24.22866178125,35.4856,24.15532678125,35.4928Q24.08199108125,35.5,24.00830078125,35.5Q23.93461048125,35.5,23.86127478125,35.4928Q23.78793978125,35.4856,23.71566578125,35.471199999999996Q23.64339078125,35.4568,23.57287378125,35.4354Q23.50235678125,35.414,23.43427578125,35.3858Q23.36619478125,35.3576,23.30120578125,35.322900000000004Q23.23621678125,35.2881,23.17494578125,35.2472Q23.11367378125,35.2063,23.05671078125,35.1595Q22.99975078125,35.1128,22.94764078125,35.0607Q22.89553078125,35.0086,22.84878078125,34.9516Q22.80204078125,34.8946,22.76110078125,34.8334Q22.72016078125,34.7721,22.68542078125,34.7071Q22.65068078125,34.6421,22.62248078125,34.574Q22.59428078125,34.5059,22.57289078125,34.4354Q22.55150078125,34.3649,22.53712078125,34.2926Q22.52275078125,34.2204,22.51552078125,34.147Q22.50830078125,34.0737,22.50830078125,34Q22.50830078125,33.9263,22.51552078125,33.853Q22.52275078125,33.7796,22.53712078125,33.7074Q22.55150078125,33.6351,22.57289078125,33.5646Q22.59428078125,33.4941,22.62248078125,33.426Q22.65068078125,33.3579,22.68542078125,33.2929Q22.72016078125,33.2279,22.76110078125,33.1666Q22.80204078125,33.1054,22.84878078125,33.0484Q22.89553078125,32.9914,22.94764078125,32.9393Q22.99975078125,32.8872,23.05671078125,32.8405Q23.11367378125,32.7937,23.17494578125,32.7528Q23.23621678125,32.7119,23.30120578125,32.677099999999996Q23.36619478125,32.6424,23.43427578125,32.6142Q23.50235678125,32.586,23.57287378125,32.5646Q23.64339078125,32.5432,23.71566578125,32.528800000000004Q23.78793978125,32.5144,23.86127478125,32.5072Q23.93461048125,32.5,24.00830078125,32.5Q24.08199108125,32.5,24.15532678125,32.5072Q24.22866178125,32.5144,24.30093578125,32.528800000000004Q24.37321078125,32.5432,24.44372778125,32.5646Q24.51424478125,32.586,24.58232578125,32.6142Q24.65040678125,32.6424,24.71539578125,32.677099999999996Q24.78038478125,32.7119,24.84165578125,32.7528Q24.90292778125,32.7937,24.95989078125,32.8405Q25.01685078125,32.8872,25.06896078125,32.9393Q25.12107078125,32.9914,25.16782078125,33.0484Q25.21456078125,33.1054,25.25550078125,33.1666Q25.29644078125,33.2279,25.33118078125,33.2929Q25.36592078125,33.3579,25.39412078125,33.426Q25.42232078125,33.4941,25.44371078125,33.5646Q25.46510078125,33.6351,25.47948078125,33.7074Q25.49385078125,33.7796,25.50108078125,33.853Q25.50830078125,33.9263,25.50830078125,34ZM25.50830078125,22Q25.50830078125,22.0736903,25.50108078125,22.147026Q25.49385078125,22.220361,25.47948078125,22.292635Q25.46510078125,22.36491,25.44371078125,22.435427Q25.42232078125,22.505944,25.39412078125,22.574025Q25.36592078125,22.642106,25.33118078125,22.707095Q25.29644078125,22.772084,25.25550078125,22.833355Q25.21456078125,22.894627,25.16782078125,22.95159Q25.12107078125,23.00855,25.06896078125,23.06066Q25.01685078125,23.11277,24.95989078125,23.15952Q24.90292778125,23.20626,24.84165578125,23.2472Q24.78038478125,23.28814,24.71539578125,23.32288Q24.65040678125,23.35762,24.58232578125,23.38582Q24.51424478125,23.41402,24.44372778125,23.43541Q24.37321078125,23.4568,24.30093578125,23.47118Q24.22866178125,23.48555,24.15532678125,23.49278Q24.08199108125,23.5,24.00830078125,23.5Q23.93461048125,23.5,23.86127478125,23.49278Q23.78793978125,23.48555,23.71566578125,23.47118Q23.64339078125,23.4568,23.57287378125,23.43541Q23.50235678125,23.41402,23.43427578125,23.38582Q23.36619478125,23.35762,23.30120578125,23.32288Q23.23621678125,23.28814,23.17494578125,23.2472Q23.11367378125,23.20626,23.05671078125,23.15952Q22.99975078125,23.11277,22.94764078125,23.06066Q22.89553078125,23.00855,22.84878078125,22.95159Q22.80204078125,22.894627,22.76110078125,22.833355Q22.72016078125,22.772084,22.68542078125,22.707095Q22.65068078125,22.642106,22.62248078125,22.574025Q22.59428078125,22.505944,22.57289078125,22.435427Q22.55150078125,22.36491,22.53712078125,22.292635Q22.52275078125,22.220361,22.51552078125,22.147026Q22.50830078125,22.0736903,22.50830078125,22Q22.50830078125,21.9263097,22.51552078125,21.852974Q22.52275078125,21.779639,22.53712078125,21.707365Q22.55150078125,21.63509,22.57289078125,21.564573Q22.59428078125,21.494056,22.62248078125,21.425975Q22.65068078125,21.357894,22.68542078125,21.292905Q22.72016078125,21.227916,22.76110078125,21.166645Q22.80204078125,21.105373,22.84878078125,21.04841Q22.89553078125,20.99145,22.94764078125,20.93934Q22.99975078125,20.88723,23.05671078125,20.84048Q23.11367378125,20.79374,23.17494578125,20.7528Q23.23621678125,20.71186,23.30120578125,20.67712Q23.36619478125,20.64238,23.43427578125,20.61418Q23.50235678125,20.58598,23.57287378125,20.56459Q23.64339078125,20.5432,23.71566578125,20.52882Q23.78793978125,20.51445,23.86127478125,20.50722Q23.93461048125,20.5,24.00830078125,20.5Q24.08199108125,20.5,24.15532678125,20.50722Q24.22866178125,20.51445,24.30093578125,20.52882Q24.37321078125,20.5432,24.44372778125,20.56459Q24.51424478125,20.58598,24.58232578125,20.61418Q24.65040678125,20.64238,24.71539578125,20.67712Q24.78038478125,20.71186,24.84165578125,20.7528Q24.90292778125,20.79374,24.95989078125,20.84048Q25.01685078125,20.88723,25.06896078125,20.93934Q25.12107078125,20.99145,25.16782078125,21.04841Q25.21456078125,21.105373,25.25550078125,21.166645Q25.29644078125,21.227916,25.33118078125,21.292905Q25.36592078125,21.357894,25.39412078125,21.425975Q25.42232078125,21.494056,25.44371078125,21.564573Q25.46510078125,21.63509,25.47948078125,21.707365Q25.49385078125,21.779639,25.50108078125,21.852974Q25.50830078125,21.9263097,25.50830078125,22Z" fill="#FFFFFF" fill-opacity="1"/></g><g><path d="M19.06066,13.93934L25.06066,19.93934L24,21L22.93934,19.93934L28.9393,13.93934Q28.9914,13.88723,29.0484,13.84048Q29.1054,13.79374,29.166600000000003,13.7528Q29.227899999999998,13.71186,29.2929,13.67712Q29.3579,13.64238,29.426000000000002,13.61418Q29.4941,13.58598,29.5646,13.564589999999999Q29.6351,13.5432,29.7074,13.52882Q29.779600000000002,13.51445,29.853,13.50722Q29.926299999999998,13.5,30,13.5Q30.073700000000002,13.5,30.147,13.50722Q30.220399999999998,13.51445,30.2926,13.52882Q30.3649,13.5432,30.4354,13.564589999999999Q30.5059,13.58598,30.573999999999998,13.61418Q30.6421,13.64238,30.7071,13.67712Q30.772100000000002,13.71186,30.833399999999997,13.7528Q30.8946,13.79374,30.9516,13.84048Q31.0086,13.88723,31.0607,13.93934Q31.1128,13.99145,31.1595,14.04841Q31.2063,14.105373,31.2472,14.166645Q31.2881,14.227916,31.3229,14.292905Q31.357599999999998,14.357894,31.3858,14.425975Q31.414,14.494056,31.4354,14.564573Q31.4568,14.63509,31.4712,14.707365Q31.485599999999998,14.779639,31.492800000000003,14.852974Q31.5,14.9263097,31.5,15Q31.5,15.0736903,31.492800000000003,15.147026Q31.485599999999998,15.220361,31.4712,15.292635Q31.4568,15.36491,31.4354,15.435427Q31.414,15.505944,31.3858,15.574025Q31.357599999999998,15.642106,31.3229,15.707095Q31.2881,15.772084,31.2472,15.833355Q31.2063,15.894627,31.1595,15.95159Q31.1128,16.00855,31.0607,16.06066L25.06066,22.06066Q25.00855,22.11277,24.95159,22.15952Q24.89463,22.20626,24.83335,22.2472Q24.77208,22.28814,24.70709,22.322879999999998Q24.64211,22.35762,24.57402,22.38582Q24.50594,22.41402,24.43543,22.43541Q24.364910000000002,22.4568,24.29263,22.47118Q24.22036,22.48555,24.14703,22.49278Q24.07369,22.5,24,22.5Q23.92631,22.5,23.85297,22.49278Q23.77964,22.48555,23.70736,22.47118Q23.635089999999998,22.4568,23.56457,22.43541Q23.49406,22.41402,23.42597,22.38582Q23.35789,22.35762,23.2929,22.322879999999998Q23.22792,22.28814,23.16664,22.2472Q23.10537,22.20626,23.04841,22.15952Q22.99145,22.11277,22.93934,22.06066L16.93934,16.06066Q16.88723,16.00855,16.84048,15.95159Q16.79374,15.894627,16.7528,15.833355Q16.71186,15.772084,16.67712,15.707095Q16.64238,15.642106,16.61418,15.574025Q16.58598,15.505944,16.56459,15.435427Q16.5432,15.36491,16.52882,15.292635Q16.51445,15.220361,16.50722,15.147026Q16.5,15.0736903,16.5,15Q16.5,14.9263097,16.50722,14.852974Q16.51445,14.779639,16.52882,14.707365Q16.5432,14.63509,16.56459,14.564573Q16.58598,14.494056,16.61418,14.425975Q16.64238,14.357894,16.67712,14.292905Q16.71186,14.227916,16.7528,14.166645Q16.79374,14.105373,16.84048,14.04841Q16.88723,13.99145,16.93934,13.93934Q16.99145,13.88723,17.04841,13.84048Q17.105373,13.79374,17.166645,13.7528Q17.227916,13.71186,17.292905,13.67712Q17.357894,13.64238,17.425975,13.61418Q17.494056,13.58598,17.564573,13.564589999999999Q17.63509,13.5432,17.707365,13.52882Q17.779639,13.51445,17.852974,13.50722Q17.9263097,13.5,18,13.5Q18.0736903,13.5,18.147026,13.50722Q18.220361,13.51445,18.292635,13.52882Q18.36491,13.5432,18.435427,13.564589999999999Q18.505944,13.58598,18.574025,13.61418Q18.642106,13.64238,18.707095,13.67712Q18.772084,13.71186,18.833355,13.7528Q18.894627,13.79374,18.95159,13.84048Q19.00855,13.88723,19.06066,13.93934ZM19.5,15Q19.5,15.0736903,19.49278,15.147026Q19.48555,15.220361,19.47118,15.292635Q19.4568,15.36491,19.43541,15.435427Q19.41402,15.505944,19.38582,15.574025Q19.35762,15.642106,19.32288,15.707095Q19.28814,15.772084,19.2472,15.833355Q19.20626,15.894627,19.15952,15.95159Q19.11277,16.00855,19.06066,16.06066Q19.00855,16.11277,18.95159,16.15952Q18.894627,16.20626,18.833355,16.2472Q18.772084,16.28814,18.707095,16.32288Q18.642106,16.35762,18.574025,16.38582Q18.505944,16.41402,18.435427,16.43541Q18.36491,16.4568,18.292635,16.47118Q18.220361,16.48555,18.147026,16.49278Q18.0736903,16.5,18,16.5Q17.9263097,16.5,17.852974,16.49278Q17.779639,16.48555,17.707365,16.47118Q17.63509,16.4568,17.564573,16.43541Q17.494056,16.41402,17.425975,16.38582Q17.357894,16.35762,17.292905,16.32288Q17.227916,16.28814,17.166645,16.2472Q17.105373,16.20626,17.04841,16.15952Q16.99145,16.11277,16.93934,16.06066Q16.88723,16.00855,16.84048,15.95159Q16.79374,15.894627,16.7528,15.833355Q16.71186,15.772084,16.67712,15.707095Q16.64238,15.642106,16.61418,15.574025Q16.58598,15.505944,16.56459,15.435427Q16.5432,15.36491,16.52882,15.292635Q16.51445,15.220361,16.50722,15.147026Q16.5,15.0736903,16.5,15Q16.5,14.9263097,16.50722,14.852974Q16.51445,14.779639,16.52882,14.707365Q16.5432,14.63509,16.56459,14.564573Q16.58598,14.494056,16.61418,14.425975Q16.64238,14.357894,16.67712,14.292905Q16.71186,14.227916,16.7528,14.166645Q16.79374,14.105373,16.84048,14.04841Q16.88723,13.99145,16.93934,13.93934Q16.99145,13.88723,17.04841,13.84048Q17.105373,13.79374,17.166645,13.7528Q17.227916,13.71186,17.292905,13.67712Q17.357894,13.64238,17.425975,13.61418Q17.494056,13.58598,17.564573,13.564589999999999Q17.63509,13.5432,17.707365,13.52882Q17.779639,13.51445,17.852974,13.50722Q17.9263097,13.5,18,13.5Q18.0736903,13.5,18.147026,13.50722Q18.220361,13.51445,18.292635,13.52882Q18.36491,13.5432,18.435427,13.564589999999999Q18.505944,13.58598,18.574025,13.61418Q18.642106,13.64238,18.707095,13.67712Q18.772084,13.71186,18.833355,13.7528Q18.894627,13.79374,18.95159,13.84048Q19.00855,13.88723,19.06066,13.93934Q19.11277,13.99145,19.15952,14.04841Q19.20626,14.105373,19.2472,14.166645Q19.28814,14.227916,19.32288,14.292905Q19.35762,14.357894,19.38582,14.425975Q19.41402,14.494056,19.43541,14.564573Q19.4568,14.63509,19.47118,14.707365Q19.48555,14.779639,19.49278,14.852974Q19.5,14.9263097,19.5,15ZM31.5,15Q31.5,15.0736903,31.492800000000003,15.147026Q31.485599999999998,15.220361,31.4712,15.292635Q31.4568,15.36491,31.4354,15.435427Q31.414,15.505944,31.3858,15.574025Q31.357599999999998,15.642106,31.3229,15.707095Q31.2881,15.772084,31.2472,15.833355Q31.2063,15.894627,31.1595,15.95159Q31.1128,16.00855,31.0607,16.06066Q31.0086,16.11277,30.9516,16.15952Q30.8946,16.20626,30.833399999999997,16.2472Q30.772100000000002,16.28814,30.7071,16.32288Q30.6421,16.35762,30.573999999999998,16.38582Q30.5059,16.41402,30.4354,16.43541Q30.3649,16.4568,30.2926,16.47118Q30.220399999999998,16.48555,30.147,16.49278Q30.073700000000002,16.5,30,16.5Q29.926299999999998,16.5,29.853,16.49278Q29.779600000000002,16.48555,29.7074,16.47118Q29.6351,16.4568,29.5646,16.43541Q29.4941,16.41402,29.426000000000002,16.38582Q29.3579,16.35762,29.2929,16.32288Q29.227899999999998,16.28814,29.166600000000003,16.2472Q29.1054,16.20626,29.0484,16.15952Q28.9914,16.11277,28.9393,16.06066Q28.8872,16.00855,28.8405,15.95159Q28.7937,15.894627,28.7528,15.833355Q28.7119,15.772084,28.6771,15.707095Q28.642400000000002,15.642106,28.6142,15.574025Q28.586,15.505944,28.5646,15.435427Q28.5432,15.36491,28.5288,15.292635Q28.514400000000002,15.220361,28.507199999999997,15.147026Q28.5,15.0736903,28.5,15Q28.5,14.9263097,28.507199999999997,14.852974Q28.514400000000002,14.779639,28.5288,14.707365Q28.5432,14.63509,28.5646,14.564573Q28.586,14.494056,28.6142,14.425975Q28.642400000000002,14.357894,28.6771,14.292905Q28.7119,14.227916,28.7528,14.166645Q28.7937,14.105373,28.8405,14.04841Q28.8872,13.99145,28.9393,13.93934Q28.9914,13.88723,29.0484,13.84048Q29.1054,13.79374,29.166600000000003,13.7528Q29.227899999999998,13.71186,29.2929,13.67712Q29.3579,13.64238,29.426000000000002,13.61418Q29.4941,13.58598,29.5646,13.564589999999999Q29.6351,13.5432,29.7074,13.52882Q29.779600000000002,13.51445,29.853,13.50722Q29.926299999999998,13.5,30,13.5Q30.073700000000002,13.5,30.147,13.50722Q30.220399999999998,13.51445,30.2926,13.52882Q30.3649,13.5432,30.4354,13.564589999999999Q30.5059,13.58598,30.573999999999998,13.61418Q30.6421,13.64238,30.7071,13.67712Q30.772100000000002,13.71186,30.833399999999997,13.7528Q30.8946,13.79374,30.9516,13.84048Q31.0086,13.88723,31.0607,13.93934Q31.1128,13.99145,31.1595,14.04841Q31.2063,14.105373,31.2472,14.166645Q31.2881,14.227916,31.3229,14.292905Q31.357599999999998,14.357894,31.3858,14.425975Q31.414,14.494056,31.4354,14.564573Q31.4568,14.63509,31.4712,14.707365Q31.485599999999998,14.779639,31.492800000000003,14.852974Q31.5,14.9263097,31.5,15Z" fill="#FFFFFF" fill-opacity="1"/></g></g></svg>