<svg xmlns="http://www.w3.org/2000/svg" xmlns:xlink="http://www.w3.org/1999/xlink" fill="none" version="1.1" width="40" height="40" viewBox="0 0 40 40"><defs><clipPath id="master_svg0_233_36278"><rect x="0" y="0" width="40" height="40" rx="0"/></clipPath></defs><g clip-path="url(#master_svg0_233_36278)"><g style="mix-blend-mode:passthrough"><path d="M7,7L7,33Q7,33.147400000000005,7.0144458,33.2941Q7.0288916,33.4407,7.0576442,33.585300000000004Q7.0863967,33.7298,7.129179,33.8709Q7.171961,34.0119,7.228361,34.1481Q7.284761,34.2842,7.354236,34.4142Q7.423711,34.544200000000004,7.505591,34.6667Q7.587471,34.7893,7.680969,34.9032Q7.774466,35.0171,7.87868,35.121300000000005Q7.982893,35.2255,8.09682,35.319Q8.21075,35.4125,8.33329,35.4944Q8.45583,35.5763,8.58581,35.6458Q8.71579,35.715199999999996,8.85195,35.7716Q8.98811,35.828,9.12915,35.8708Q9.27018,35.9136,9.41473,35.9424Q9.559280000000001,35.9711,9.70595,35.985600000000005Q9.85262,36,10,36L21.401,36Q21.117800000000003,35.7374,20.863,35.4471Q20.6082,35.156800000000004,20.3846,34.841899999999995Q20.161,34.527,19.971,34.190799999999996Q19.780900000000003,33.854600000000005,19.6264,33.5006Q19.471899999999998,33.1466,19.3545,32.7787Q19.2372,32.4107,19.1583,32.0326Q19.0793,31.6546,19.0397,31.2704Q19,30.8862,19,30.5Q19,30.3159,19.009,30.132Q19.0181,29.9481,19.036099999999998,29.7649Q19.0542,29.5816,19.081200000000003,29.3995Q19.1082,29.2174,19.1441,29.0368Q19.18,28.8562,19.224800000000002,28.6776Q19.2695,28.4991,19.3229,28.3229Q19.3764,28.1467,19.4384,27.9733Q19.5004,27.8,19.5709,27.6299Q19.6414,27.4598,19.720100000000002,27.2933Q19.7988,27.1269,19.8856,26.9645Q19.9724,26.8021,20.067,26.6442Q20.1617,26.4863,20.264,26.3332Q20.366300000000003,26.1801,20.4759,26.0323Q20.5856,25.8844,20.7024,25.7421Q20.819200000000002,25.5997,20.9429,25.4633Q21.066499999999998,25.3269,21.1967,25.1967Q21.326900000000002,25.0665,21.4633,24.9429Q21.5997,24.8192,21.7421,24.7024Q21.8844,24.5856,22.0323,24.4759Q22.1801,24.3663,22.333199999999998,24.264Q22.4863,24.1617,22.644199999999998,24.067Q22.8021,23.9724,22.9645,23.8856Q23.1269,23.7988,23.2933,23.7201Q23.4598,23.6414,23.6299,23.5709Q23.8,23.5004,23.9733,23.4384Q24.1467,23.3764,24.3229,23.3229Q24.499,23.2695,24.6776,23.2248Q24.8562,23.18,25.0368,23.1441Q25.2174,23.1082,25.3995,23.0812Q25.5816,23.0542,25.7649,23.0361Q25.9481,23.0181,26.132,23.009Q26.3159,23,26.5,23Q27.1046,23,27.7014,23.0968Q28.2981,23.1937,28.8717,23.3849Q29.4453,23.5761,29.9808,23.8567Q30.5163,24.1372,31,24.5L31,7Q31,6.85262,30.9856,6.70595Q30.9711,6.55928,30.9424,6.4147300000000005Q30.9136,6.27018,30.8708,6.12915Q30.828,5.98811,30.7716,5.85195Q30.7152,5.71579,30.6458,5.58581Q30.5763,5.45583,30.4944,5.33329Q30.4125,5.21075,30.319,5.09682Q30.2255,4.982893,30.1213,4.87868Q30.0171,4.774466,29.9032,4.680969Q29.7893,4.587471,29.6667,4.505591Q29.5442,4.423711,29.4142,4.354236Q29.2842,4.284761,29.148,4.228361Q29.0119,4.171961,28.8709,4.129179Q28.7298,4.0863967,28.5853,4.0576442Q28.4407,4.0288916,28.2941,4.0144458Q28.1474,4,28,4L10,4Q9.85262,4,9.70595,4.0144458Q9.559280000000001,4.0288916,9.41473,4.0576442Q9.27018,4.0863967,9.12915,4.129179Q8.98811,4.171961,8.85195,4.228361Q8.71579,4.284761,8.58581,4.354236Q8.45583,4.423711,8.33329,4.505591Q8.21075,4.587471,8.09682,4.680969Q7.982893,4.774466,7.87868,4.87868Q7.774466,4.982893,7.680969,5.09682Q7.587471,5.21075,7.505591,5.33329Q7.423711,5.45583,7.354236,5.58581Q7.284761,5.71579,7.228361,5.85195Q7.171961,5.98811,7.129179,6.12915Q7.0863967,6.27018,7.0576442,6.4147300000000005Q7.0288916,6.55928,7.0144458,6.70595Q7,6.85262,7,7ZM13.77626,7.70132L13.531649999999999,9.64866L12.53489,9.64866L12.31475,11.45302L13.28705,11.45302L12.84065,14.9664L11.84388,15.2932L11.56259,17.4789L12.5777,17.1384L12.19856,20.1139L11,22L14.020859999999999,22Q14.52842,22,14.91978,21.6119Q15.31727,21.217,15.39065,20.6042L15.9777,15.9265L16.57698,15.7154L16.858269999999997,13.51611L16.240650000000002,13.72038L16.54029,11.45302L17.231299999999997,11.45302L17.4576,9.64866L16.78489,9.64866L17.102899999999998,7L13.32374,7L13.77626,7.70132ZM18.491,7.44939L18.8701,8.23922L18.2464,13.02587L27.2845,13.02587L28,7.44939L18.491,7.44939ZM25.3277,9.62823L21.0655,9.62823L21.1388,9.042670000000001L25.4072,9.042670000000001L25.3277,9.62823ZM25.1809,10.86745L25.1076,11.371310000000001L20.839199999999998,11.371310000000001L20.9187,10.86745L25.1809,10.86745ZM27.4741,15.4975L27.7187,13.55016L17.6288,13.55016L17.3842,15.4975L21.481299999999997,15.4975L20.9371,19.9097L19.6223,19.1539L20.4478,16.212400000000002L17.6655,16.212400000000002L17.9651,16.8457L16.48525,21.9796L18.808999999999997,21.9796L19.0353,21.2034L20.4845,21.9796L26.7036,21.9796L26.9482,20.0322L23.2424,20.0322L23.3953,18.8202L26.3795,18.8202L26.6058,17.015900000000002L23.6399,17.015900000000002L23.8112,15.4975L27.4741,15.4975ZM27,24C23.1341,24,20,27.1338,20,31C20,34.865899999999996,23.1341,38,27,38C30.8659,38,34,34.865899999999996,34,31C34,27.1338,30.8659,24,27,24ZM29.4712,31.9831C29.8146,31.9831,30.0934,32.2619,30.0934,32.6053C30.0934,32.9488,29.8146,33.227599999999995,29.4712,33.227599999999995L27.6222,33.227599999999995L27.6222,34.579C27.6222,34.9225,27.3435,35.2012,27,35.2012C26.6562,35.2012,26.3778,34.9225,26.3778,34.579L26.3778,33.227599999999995L24.5288,33.227599999999995C24.1854,33.227599999999995,23.9066,32.9488,23.9066,32.6053C23.9066,32.2619,24.1854,31.9831,24.5288,31.9831L26.3778,31.9831L26.3778,31.1926L24.5288,31.1926C24.1854,31.1926,23.9066,30.9138,23.9066,30.5704C23.9066,30.2266,24.1854,29.9481,24.5288,29.9481L25.8389,29.9481L24.3873,27.7654C24.1969,27.4792,24.2747,27.0931,24.5609,26.903C24.848,26.7126,25.2335,26.791,25.4233,27.0766L26.9701,29.4021L28.517,27.0766C28.7074,26.7904,29.0935,26.7129,29.3794,26.903C29.6656,27.0931,29.7434,27.4792,29.553,27.7654L28.1013,29.9481L29.4712,29.9481C29.8146,29.9481,30.0934,30.2266,30.0934,30.5704C30.0934,30.9138,29.8146,31.1926,29.4712,31.1926L27.6222,31.1926L27.6222,31.9831L29.4712,31.9831Z" fill-rule="evenodd" fill="#FFFFFF" fill-opacity="1"/></g></g></svg>