<svg xmlns="http://www.w3.org/2000/svg" xmlns:xlink="http://www.w3.org/1999/xlink" fill="none" version="1.1" width="40" height="40" viewBox="0 0 40 40"><defs><clipPath id="master_svg0_1082_045497"><rect x="0" y="0" width="40" height="40" rx="0"/></clipPath></defs><g clip-path="url(#master_svg0_1082_045497)"><g><path d="M7,33L7,7Q7,6.85262,7.0144458,6.70595Q7.0288916,6.55928,7.0576442,6.4147300000000005Q7.0863967,6.27018,7.129179,6.12915Q7.171961,5.98811,7.228361,5.85195Q7.284761,5.71579,7.354236,5.58581Q7.423711,5.45583,7.505591,5.33329Q7.587471,5.21075,7.680969,5.09682Q7.774466,4.982893,7.87868,4.87868Q7.982893,4.774466,8.09682,4.680969Q8.21075,4.587471,8.33329,4.505591Q8.45583,4.423711,8.58581,4.354236Q8.71579,4.284761,8.85195,4.228361Q8.98811,4.171961,9.12915,4.129179Q9.27018,4.0863967,9.41473,4.0576442Q9.559280000000001,4.0288916,9.70595,4.0144458Q9.85262,4,10,4L28,4Q28.1474,4,28.2941,4.0144458Q28.4407,4.0288916,28.5853,4.0576442Q28.7298,4.0863967,28.8709,4.129179Q29.0119,4.171961,29.148,4.228361Q29.2842,4.284761,29.4142,4.354236Q29.5442,4.423711,29.6667,4.505591Q29.7893,4.587471,29.9032,4.680969Q30.0171,4.774466,30.1213,4.87868Q30.2255,4.982893,30.319,5.09682Q30.4125,5.21075,30.4944,5.33329Q30.5763,5.45583,30.6458,5.58581Q30.7152,5.71579,30.7716,5.85195Q30.828,5.98811,30.8708,6.12915Q30.9136,6.27018,30.9424,6.4147300000000005Q30.9711,6.55928,30.9856,6.70595Q31,6.85262,31,7L31,24.5Q30.5163,24.1372,29.9808,23.8567Q29.4453,23.5761,28.8717,23.3849Q28.2981,23.1937,27.7014,23.0968Q27.1046,23,26.5,23Q26.3159,23,26.132,23.009Q25.9481,23.0181,25.7649,23.0361Q25.5816,23.0542,25.3995,23.0812Q25.2174,23.1082,25.0368,23.1441Q24.8562,23.18,24.6776,23.2248Q24.499,23.2695,24.3229,23.3229Q24.1467,23.3764,23.9733,23.4384Q23.8,23.5004,23.6299,23.5709Q23.4598,23.6414,23.2933,23.7201Q23.1269,23.7988,22.9645,23.8856Q22.8021,23.9724,22.644199999999998,24.067Q22.4863,24.1617,22.333199999999998,24.264Q22.1801,24.3663,22.0323,24.4759Q21.8844,24.5856,21.742,24.7024Q21.5997,24.8192,21.4633,24.9429Q21.326900000000002,25.0665,21.1967,25.1967Q21.066499999999998,25.3269,20.9429,25.4633Q20.819200000000002,25.5997,20.7024,25.7421Q20.5856,25.8844,20.4759,26.0323Q20.366300000000003,26.1801,20.264,26.3332Q20.1617,26.4863,20.067,26.6442Q19.9724,26.8021,19.8856,26.9645Q19.7988,27.1269,19.720100000000002,27.2933Q19.6414,27.4598,19.5709,27.6299Q19.5004,27.8,19.4384,27.9733Q19.3764,28.1467,19.3229,28.3229Q19.2695,28.4991,19.224800000000002,28.6776Q19.18,28.8562,19.1441,29.0368Q19.1082,29.2174,19.081200000000003,29.3995Q19.0542,29.5816,19.036099999999998,29.7649Q19.0181,29.9481,19.009,30.132Q19,30.3159,19,30.5Q19,30.8862,19.0397,31.2704Q19.0793,31.6546,19.1583,32.0326Q19.2372,32.4107,19.3545,32.7787Q19.471899999999998,33.1466,19.6264,33.5006Q19.780900000000003,33.854600000000005,19.971,34.190799999999996Q20.161,34.527,20.3846,34.841899999999995Q20.6082,35.156800000000004,20.863,35.4471Q21.117800000000003,35.7374,21.401,36L10,36Q9.85262,36,9.70595,35.985600000000005Q9.559280000000001,35.9711,9.41473,35.9424Q9.27018,35.9136,9.12915,35.8708Q8.98811,35.828,8.85195,35.7716Q8.71579,35.715199999999996,8.58581,35.6458Q8.45583,35.5763,8.33329,35.4944Q8.21075,35.4125,8.09682,35.319Q7.982893,35.2255,7.87868,35.121300000000005Q7.774466,35.0171,7.680969,34.9032Q7.587471,34.7893,7.505591,34.6667Q7.423711,34.544200000000004,7.354236,34.4142Q7.284761,34.2842,7.228361,34.147999999999996Q7.171961,34.0119,7.129179,33.8709Q7.0863967,33.7298,7.0576442,33.585300000000004Q7.0288916,33.4407,7.0144458,33.2941Q7,33.147400000000005,7,33ZM20,31C20,27.1338,23.1341,24,27,24C30.8659,24,34,27.1338,34,31C34,34.865899999999996,30.8659,38,27,38C23.1341,38,20,34.865899999999996,20,31ZM30.0934,32.6053C30.0934,32.2619,29.8146,31.9831,29.4712,31.9831L27.6222,31.9831L27.6222,31.1926L29.4712,31.1926C29.8146,31.1926,30.0934,30.9138,30.0934,30.5704C30.0934,30.2266,29.8146,29.9481,29.4712,29.9481L28.1013,29.9481L29.553,27.7654C29.7434,27.4792,29.6656,27.0931,29.3794,26.903C29.0935,26.7129,28.7074,26.7904,28.517,27.0766L26.9701,29.4021L25.4233,27.0766C25.2335,26.791,24.848,26.7126,24.5609,26.903C24.2747,27.0931,24.1969,27.4792,24.3873,27.7654L25.8389,29.9481L24.5288,29.9481C24.1854,29.9481,23.9066,30.2266,23.9066,30.5704C23.9066,30.9138,24.1854,31.1926,24.5288,31.1926L26.3778,31.1926L26.3778,31.9831L24.5288,31.9831C24.1854,31.9831,23.9066,32.2619,23.9066,32.6053C23.9066,32.9488,24.1854,33.227599999999995,24.5288,33.227599999999995L26.3778,33.227599999999995L26.3778,34.579C26.3778,34.9225,26.6562,35.2012,27,35.2012C27.3435,35.2012,27.6222,34.9225,27.6222,34.579L27.6222,33.227599999999995L29.4712,33.227599999999995C29.8146,33.227599999999995,30.0934,32.9488,30.0934,32.6053Z" fill-rule="evenodd" fill="#FFFFFF" fill-opacity="1"/></g><g><path d="M19.25195,14.423L19.357419999999998,13.62031L18.642580000000002,13.62031L18.7832,12.48359L17.99219,13.47383L15.13281,13.47383L18.71289,9.37226L18.31445,9.0207L24.0215,9.0207L26.3828,13.47383L23.6055,13.47383L23.1426,12.62422L23.0137,13.62031L22.293,13.62031L22.1875,14.423L25.5156,14.423L25.2812,16.0109L21.9531,16.0109L21.6309,18.2902Q21.5547,18.811700000000002,21.1562,19.1633Q20.7637,19.5148,20.2422,19.5148L17.52344,19.5148L18.74805,17.985500000000002L19.017580000000002,16.0109L15.402339999999999,16.0109L15.63672,14.423L19.25195,14.423ZM10.181641,21.6301L11.11328,19.8547L11.96289,13.79023L11.27734,13.79023L11.51172,12.01484L15.20312,12.01484L14.21289,19.1398L16.75,19.925L25.1172,19.925L24.8887,21.6301L15.308589999999999,21.6301L13.52734,21.1086L13.25781,21.6301L10.181641,21.6301ZM18.20898,16.344900000000003L16.89648,19.175L14.69922,19.175L16.01172,16.344900000000003L18.20898,16.344900000000003ZM24.525399999999998,16.344900000000003L24.8301,19.175L22.761699999999998,19.175L22.474600000000002,16.344900000000003L24.525399999999998,16.344900000000003ZM14.64648,9.342970000000001L15.38477,11.39375L12.64844,11.39375L11.91016,9.342970000000001L14.64648,9.342970000000001ZM19.14648,12.05L22.832,12.05L21.935499999999998,10.43867L20.511699999999998,10.43867L19.14648,12.05Z" fill="#0519D4" fill-opacity="1"/></g></g></svg>