<svg xmlns="http://www.w3.org/2000/svg" xmlns:xlink="http://www.w3.org/1999/xlink" fill="none" version="1.1" width="12" height="12" viewBox="0 0 12 12"><defs><clipPath id="master_svg0_233_26783"><rect x="0" y="0" width="12" height="12" rx="0"/></clipPath></defs><g style="mix-blend-mode:passthrough" clip-path="url(#master_svg0_233_26783)"><g style="mix-blend-mode:passthrough"><g style="mix-blend-mode:passthrough"></g></g><g style="mix-blend-mode:passthrough"><g style="mix-blend-mode:passthrough"><g style="mix-blend-mode:passthrough"><path d="M6,1C3.25,1,1,3.25,1,6C1,8.75,3.25,11,6,11C8.75,11,11,8.75,11,6C11,3.25,8.75,1,6,1C6,1,6,1,6,1ZM6,10C3.795,10,2,8.205,2,6C2,3.795,3.795,2,6,2C8.205,2,10,3.795,10,6C10,8.205,8.205,10,6,10C6,10,6,10,6,10ZM6.25,3.5C6.25,3.5,5.5,3.5,5.5,3.5C5.5,3.5,5.5,6.5,5.5,6.5C5.5,6.5,8.1,8.1,8.1,8.1C8.1,8.1,8.5,7.45,8.5,7.45C8.5,7.45,6.25,6.1,6.25,6.1C6.25,6.1,6.25,3.5,6.25,3.5C6.25,3.5,6.25,3.5,6.25,3.5Z" fill="#64748B" fill-opacity="1"/></g></g></g></g></svg>