<svg xmlns="http://www.w3.org/2000/svg" xmlns:xlink="http://www.w3.org/1999/xlink" fill="none" version="1.1" width="40" height="40" viewBox="0 0 40 40"><defs><clipPath id="master_svg0_1082_045777"><rect x="0" y="0" width="40" height="40" rx="0"/></clipPath></defs><g clip-path="url(#master_svg0_1082_045777)"><g><path d="M19.346336718750003,6.6581960859375C19.67993671875,6.2368180859375,20.31933671875,6.2368180859375,20.65303671875,6.6581960859375L27.52053671875,15.3331930859375C27.75403671875,15.6282330859375,28.15633671875,15.7301630859375,28.50213671875,15.5819430859375L35.19713671875,12.712783085937499C35.48263671875,12.5902330859375,35.81263671875,12.6366830859375,36.05323671875,12.8332930859375C36.29373671875,13.0299030859375,36.40503671875,13.344013085937501,36.34173671875,13.6481930859375L32.63423671875,31.5106630859375C32.31313671875,33.0575630859375,30.95033671875,34.1665630859375,29.37053671875,34.1665630859375L10.62882671875,34.1665630859375C9.04900671875,34.1665630859375,7.68616671875,33.0575630859375,7.3650667187500005,31.5106630859375L3.65757141875,13.6481930859375C3.59442081875,13.3441230859375,3.70560141875,13.0301530859375,3.94604071875,12.8335830859375C4.18647971875,12.6370130859375,4.51627971875,12.5904530859375,4.80173671875,12.712783085937499L11.49715671875,15.5819430859375C11.84300671875,15.7301630859375,12.24528671875,15.6282330859375,12.47882671875,15.3331930859375L19.346336718750003,6.6581960859375Z" fill="#FFFFFF" fill-opacity="1"/></g><g><ellipse cx="30" cy="30" rx="8" ry="8" fill="#FFFFFF" fill-opacity="1"/><ellipse cx="30" cy="30" rx="7.5" ry="7.5" fill-opacity="0" stroke-opacity="1" stroke="#0519D4" fill="none" stroke-width="1"/></g><g><path d="M29.87967,26.874884L31.58645,26.874884L31.982599999999998,26.28545L31.73454,26L34.24843,26L33.67086,26.874884L35,26.874884L34.54461,30.114919999999998L25.977416,30.114919999999998L26.36616,27.30862L26.00333,26.874884L27.71751,26.874884L27.41022,26L29.57238,26L29.87967,26.874884ZM27.3769,34L27.8545,30.541240000000002L29.80193,30.541240000000002L29.50574,32.7025L32.09367,32.7025L32.53425,32.27618L32.31951,34L27.3769,34ZM26.72899,34L25,34L25.88856,30.75626L27.61755,30.75626L26.72899,34ZM32.72677,30.75626L34.45576,30.75626L34.42984,34L32.70085,34L32.72677,30.75626ZM32.68604,27.95737L28.435760000000002,27.95737L28.28767,29.03614L32.55276,29.03614L32.68604,27.95737ZM30.37949,30.32994L32.09737,30.32994L32.04184,32.27618L30.32395,32.27618L30.37949,30.32994Z" fill="#0519D4" fill-opacity="1"/></g></g></svg>