<svg t="1673190073607" class="icon" viewBox="0 0 1024 1024" version="1.1" xmlns="http://www.w3.org/2000/svg" p-id="19990" width="64" height="64"><path d="M389.12 451.072a51.2 51.2 0 1 0 0 106.496 51.2 51.2 0 0 0 0-106.496zM865.28 153.6H184.32A82.944 82.944 0 0 0 102.4 238.592v467.456a82.944 82.944 0 0 0 81.92 84.992h215.04l-71.68 51.2a44.032 44.032 0 0 0-5.12 59.392 38.912 38.912 0 0 0 56.32 8.704l148.48-108.544 143.36 108.544a38.912 38.912 0 0 0 56.32-8.704 44.032 44.032 0 0 0-5.12-59.392l-71.68-51.2h215.04a87.552 87.552 0 0 0 87.04-84.992V238.592A87.552 87.552 0 0 0 865.28 153.6z m-476.16 467.456a116.736 116.736 0 1 1 112.64-116.736 116.224 116.224 0 0 1-112.64 116.736z m261.12-42.496a39.936 39.936 0 0 1-40.96 42.496 43.008 43.008 0 0 1-40.96-42.496V472.064a43.008 43.008 0 0 1 40.96-42.496 39.936 39.936 0 0 1 40.96 42.496z m128 0a40.96 40.96 0 1 1-81.92 0V366.08a40.96 40.96 0 1 1 81.92 0z" p-id="19991" fill="#FFFFFF"></path></svg>