<svg t="1673188737349" class="icon" viewBox="0 0 1024 1024" version="1.1" xmlns="http://www.w3.org/2000/svg" p-id="2730" width="64" height="64"><path d="M817.4 64.1H206.5c-33.3 0-60.3 26.6-61 59.8h4.2c-1.4 0-2.7 0.1-4.2 0.2v774.7c0 33.7 27.4 61.1 61.1 61.1h610.8c33.6 0 61-27.4 61-61.1V124c-0.7-33.3-27.8-59.9-61-59.9zM530 726c0 17.6-14.4 32-32 32H352c-17.6 0-32-14.4-32-32s14.4-32 32-32h146c17.6 0 32 14.4 32 32z m90-214c0 17.6-14.4 32-32 32H352c-17.6 0-32-14.4-32-32s14.4-32 32-32h236c17.6 0 32 14.4 32 32z m84-214c0 17.6-14.4 32-32 32H352c-17.6 0-32-14.4-32-32s14.4-32 32-32h320c17.6 0 32 14.4 32 32z" fill="#ffffff" p-id="2731"></path></svg>