<?xml version="1.0" standalone="no"?><!DOCTYPE svg PUBLIC "-//W3C//DTD SVG 1.1//EN" "http://www.w3.org/Graphics/SVG/1.1/DTD/svg11.dtd"><svg t="1695458982061" class="icon" viewBox="0 0 1024 1024" version="1.1" xmlns="http://www.w3.org/2000/svg" p-id="7387" xmlns:xlink="http://www.w3.org/1999/xlink" width="64" height="64"><path d="M817.4 959.8h-611c-45.6-1.9-81.5-39.6-81-85.3V383.1c1.3-38.1 27.2-70.9 64-81h-4.3L215 187c9.4-35.9 41.1-61.4 78.2-63 6.8 0 13.7 1 20.2 3l55.4 12.8 4.3-25.6c5.3-19.5 19.5-35.4 38.4-42.6 10.3-4.9 21.5-7.4 32.9-7.2 7.7 0 15.4 0.9 22.8 2.8l333.2 89.6c21.8 4.7 40.5 18.8 51.2 38.4 13.4 18.5 16.6 42.6 8.5 64l-12.8 46.9c29.7 13.8 48.2 44 46.9 76.8l4.3 106.6H637.8c-69.2-1.6-126.6 53.3-128.1 122.5v5.7C508.1 686.6 563 744 632.2 745.5h266.3v127.9c0.9 46.1-35.1 84.5-81.1 86.4zM292.3 164.5c-19.2 0.6-36.2 12.7-43 30.7L228 297.5h508.3v-12.8c-11.6-8.1-24.6-13.9-38.4-17.1L300.6 165.3c-2.8-0.5-5.5-0.8-8.3-0.8z m165.8-59c-11.3-0.9-22.8 0.6-33.5 4.3-4.3 0-8.5 4.3-12.8 12.8l-4.3 25.6L710.8 225h0.6c16.3 3.1 31.9 8.9 46.4 17.1 23.6 15.7 26.5 32.4 21.3 42.6v8.5H809l12.8-51.2c2.7-10.1 1.2-20.9-4.3-29.9-4.6-10.1-14.5-16.7-25.6-17.1l-333.3-89.6h-0.5z m440.5 598H638c-47.2 0-85.4-38.3-85.4-85.4s38.3-85.4 85.4-85.4h260.6v170.8zM638 575.4c-23.6 0-42.6 19.1-42.6 42.6 0 23.6 19.1 42.6 42.6 42.6 23.6 0 42.6-19.1 42.6-42.6 1.3-22.3-15.7-41.4-38-42.7-1.5-0.1-3.1-0.1-4.6 0.1z" fill="#ffffff" p-id="7388"></path></svg>